<svg width="520" height="360" viewBox="0 0 520 360" fill="none" xmlns="http://www.w3.org/2000/svg">
<mask id="mask0_1148_7593" style="mask-type:alpha" maskUnits="userSpaceOnUse" x="0" y="0" width="520" height="360">
<rect width="520" height="360" rx="8" fill="url(#paint0_linear_1148_7593)"/>
</mask>
<g mask="url(#mask0_1148_7593)">
<path d="M506.217 -38.2615C500.369 -38.0819 494.609 -38.0123 488.973 -38.0123H488.949C340.692 -38.0123 275.38 -95.7261 274.836 -96.2239L260.022 -110L245.186 -96.2239C244.54 -95.6207 175.623 -33.5793 13.7841 -38.2615L-7 -38.864V222.768C-7 291.266 19.9247 391.177 252.75 467.616L260.002 470L267.25 467.616C500.075 391.177 527 291.266 527 222.768V-38.864L506.217 -38.2615Z" fill="url(#paint1_linear_1148_7593)" fill-opacity="0.5"/>
<path d="M485.929 -20.1985C480.564 -20.0337 475.278 -19.9699 470.106 -19.9699H470.084C334.043 -19.9699 274.113 -72.9074 273.614 -73.364L260.02 -86L246.407 -73.364C245.813 -72.8108 182.575 -15.9038 34.0715 -20.1985L15 -20.7511V219.228C15 282.058 39.7062 373.701 253.348 443.814L260.001 446L266.652 443.814C480.294 373.701 505 282.057 505 219.228V-20.7511L485.929 -20.1985Z" fill="url(#paint2_linear_1148_7593)" fill-opacity="0.5"/>
<path d="M464.719 -1.38283C459.858 -1.23355 455.068 -1.17572 450.382 -1.17572H450.362C327.092 -1.17572 272.788 -49.1379 272.336 -49.5516L260.018 -61L247.683 -49.5516C247.145 -49.0503 189.844 2.50822 55.2812 -1.38283L38 -1.88353V215.541C38 272.466 60.3868 355.496 253.972 419.019L260.001 421L266.028 419.019C459.613 355.496 482 272.465 482 215.541V-1.88353L464.719 -1.38283Z" fill="url(#paint3_linear_1148_7593)" fill-opacity="0.5"/>
<path d="M444.432 16.6802C440.052 16.8146 435.737 16.8667 431.515 16.8667H431.497C320.444 16.8667 271.521 -26.3192 271.113 -26.6917L260.016 -37L248.904 -26.6917C248.419 -26.2404 196.796 20.1837 75.5686 16.6802L60 16.2293V212.002C60 263.258 80.1683 338.019 254.57 395.216L260.001 397L265.43 395.216C439.832 338.019 460 263.257 460 212.002V16.2293L444.432 16.6802Z" fill="url(#paint4_linear_1148_7593)" fill-opacity="0.5"/>
<path d="M421.378 37.0011C417.546 37.1188 413.77 37.1644 410.076 37.1644H410.06C312.888 37.1644 270.081 -0.648157 269.724 -0.974288L260.014 -10L250.291 -0.974288C249.867 -0.579109 204.697 40.0687 98.6225 37.0011L85 36.6063V208.02C85 252.899 102.647 318.358 255.248 368.438L260.001 370L264.752 368.438C417.353 318.358 435 252.898 435 208.02V36.6063L421.378 37.0011Z" fill="url(#paint5_linear_1148_7593)" fill-opacity="0.5"/>
</g>
<path d="M396.48 58.8272C393.238 58.927 390.045 58.9656 386.921 58.9656H386.908C304.728 58.9656 268.525 26.9245 268.224 26.6481L260.012 19L251.789 26.6481C251.43 26.983 213.229 61.4267 123.521 58.8272L112 58.4927V203.743C112 241.772 126.925 297.24 255.982 339.677L260.001 341L264.018 339.677C393.075 297.24 408 241.772 408 203.743V58.4927L396.48 58.8272Z" fill="url(#paint6_linear_1148_7593)"/>
<path d="M371.581 81.406C368.931 81.4872 366.321 81.5186 363.767 81.5186H363.756C296.568 81.5186 266.97 55.4478 266.724 55.223L260.01 49L253.287 55.223C252.994 55.4955 221.762 83.5211 148.419 81.406L139 81.1338V199.319C139 230.262 151.202 275.394 256.715 309.923L260.001 311L263.285 309.923C368.798 275.394 381 230.261 381 199.319V81.1338L371.581 81.406Z" fill="url(#paint7_linear_1148_7593)"/>
<path d="M380.5 81.6485V199.319C380.5 214.712 377.469 233.604 361.326 252.956C345.169 272.324 315.838 292.199 263.13 309.448L263.13 309.448L260.001 310.474L256.87 309.448C204.162 292.199 174.831 272.324 158.674 252.956C142.531 233.604 139.5 214.712 139.5 199.319V81.6485L148.405 81.9058L148.405 81.9058C221.892 84.025 253.248 55.9415 253.627 55.5892L253.626 55.5899L380.5 81.6485ZM380.5 81.6485L371.597 81.9058C368.941 81.9871 366.325 82.0186 363.767 82.0186H363.756C296.428 82.0186 266.713 55.8902 266.387 55.5924L266.384 55.5897L260.01 49.6815L380.5 81.6485Z" stroke="url(#paint8_linear_1148_7593)"/>
<path d="M349.45 100.974C347.325 101.039 345.232 101.065 343.185 101.065H343.176C289.315 101.065 265.588 80.1681 265.39 79.9879L260.008 75L254.618 79.9879C254.383 80.2063 229.346 102.67 170.551 100.974L163 100.756V195.485C163 220.286 172.782 256.461 257.366 284.137L260.001 285L262.634 284.137C347.218 256.461 357 220.286 357 195.485V100.756L349.45 100.974Z" fill="url(#paint9_linear_1148_7593)"/>
<path d="M332.512 129.924C330.968 129.972 329.447 129.99 327.959 129.99H327.953C288.806 129.99 271.561 114.765 271.417 114.634L267.506 111L263.589 114.634C263.418 114.793 245.221 131.159 202.488 129.924L197 129.765V198.782C197 216.851 204.109 243.207 265.586 263.371L267.5 264L269.414 263.371C330.891 243.207 338 216.851 338 198.782V129.765L332.512 129.924Z" fill="#0C83F2" fill-opacity="0.2"/>
<path d="M325.512 122.924C323.968 122.972 322.447 122.99 320.959 122.99H320.953C281.806 122.99 264.561 107.765 264.417 107.634L260.506 104L256.589 107.634C256.418 107.793 238.221 124.159 195.488 122.924L190 122.765V191.782C190 209.851 197.109 236.207 258.586 256.371L260.5 257L262.414 256.371C323.891 236.207 331 209.851 331 191.782V122.765L325.512 122.924Z" fill="#0C83F2" fill-opacity="0.7"/>
<g clip-path="url(#clip0_1148_7593)">
<path d="M236.017 170C236.017 172.652 237.07 175.196 238.946 177.071C240.821 178.946 243.365 180 246.017 180C248.669 180 251.213 178.946 253.088 177.071C254.963 175.196 256.017 172.652 256.017 170C256.017 167.348 254.963 164.804 253.088 162.929C251.213 161.054 248.669 160 246.017 160C243.365 160 240.821 161.054 238.946 162.929C237.07 164.804 236.017 167.348 236.017 170Z" fill="white"/>
<path d="M266.017 170C266.017 171.313 266.276 172.614 266.778 173.827C267.281 175.04 268.017 176.142 268.946 177.071C269.874 178 270.977 178.736 272.19 179.239C273.403 179.741 274.704 180 276.017 180C277.33 180 278.63 179.741 279.844 179.239C281.057 178.736 282.159 178 283.088 177.071C284.017 176.142 284.753 175.04 285.256 173.827C285.758 172.614 286.017 171.313 286.017 170C286.017 167.348 284.963 164.804 283.088 162.929C281.213 161.054 278.669 160 276.017 160C273.365 160 270.821 161.054 268.946 162.929C267.07 164.804 266.017 167.348 266.017 170Z" fill="white"/>
<path d="M276.017 182.5C273.552 182.484 271.169 183.378 269.323 185.011C267.478 186.645 266.3 188.902 266.017 191.35L261.017 196.35L256.017 191.35C255.864 188.698 254.664 186.215 252.681 184.447C250.698 182.68 248.094 181.772 245.442 181.925C242.79 182.077 240.307 183.277 238.539 185.261C236.772 187.244 235.864 189.848 236.017 192.5V210H256.017V198.55L259.242 201.775C259.71 202.241 260.344 202.502 261.004 202.502C261.665 202.502 262.298 202.241 262.767 201.775L266.017 198.55V210H286.017V192.5C286.017 189.848 284.963 187.304 283.088 185.429C281.212 183.554 278.669 182.5 276.017 182.5Z" fill="white"/>
</g>
<rect x="46" y="228" width="120" height="40" rx="4" fill="#6DB5F7"/>
<rect x="43.5" y="225.5" width="119" height="39" rx="3.5" fill="white" stroke="#6DB5F7"/>
<path d="M56.536 242.628C57.128 242.628 57.608 242.848 57.976 243.288C58.352 243.72 58.54 244.344 58.54 245.16V249H57.34V245.568C57.34 245 57.244 244.56 57.052 244.248C56.86 243.928 56.572 243.768 56.188 243.768C55.796 243.768 55.468 243.928 55.204 244.248C54.948 244.56 54.82 245.008 54.82 245.592V249H53.608V245.568C53.608 244.992 53.512 244.548 53.32 244.236C53.136 243.924 52.852 243.768 52.468 243.768C52.076 243.768 51.748 243.928 51.484 244.248C51.228 244.568 51.1 245.016 51.1 245.592V249H49.876V242.772H50.956C50.964 243.028 50.984 243.34 51.016 243.708C51.224 243.348 51.484 243.08 51.796 242.904C52.108 242.72 52.452 242.628 52.828 242.628C53.244 242.628 53.608 242.74 53.92 242.964C54.24 243.18 54.476 243.5 54.628 243.924C54.828 243.492 55.092 243.168 55.42 242.952C55.756 242.736 56.128 242.628 56.536 242.628ZM64.4282 242.772H65.6642V249H64.5722C64.5562 248.6 64.5282 248.264 64.4882 247.992C64.2882 248.376 64.0122 248.664 63.6602 248.856C63.3082 249.04 62.9162 249.132 62.4842 249.132C61.8122 249.132 61.2762 248.912 60.8762 248.472C60.4762 248.032 60.2762 247.396 60.2762 246.564V242.772H61.5002V246.204C61.5002 246.772 61.6082 247.216 61.8242 247.536C62.0402 247.848 62.3682 248.004 62.8082 248.004C63.2562 248.004 63.6362 247.844 63.9482 247.524C64.2682 247.204 64.4282 246.752 64.4282 246.168V242.772ZM71.2826 248.748C70.9306 249.004 70.4626 249.132 69.8786 249.132C69.2866 249.132 68.8026 248.968 68.4266 248.64C68.0586 248.312 67.8746 247.728 67.8746 246.888V243.828H66.8186V242.772H67.8746V240.972H69.0986V242.772H70.9346V243.828H69.0986V246.72C69.0986 247.584 69.4186 248.016 70.0586 248.016C70.3466 248.016 70.6146 247.94 70.8626 247.788L71.2826 248.748ZM76.4435 242.772H77.6795V249H76.5875C76.5715 248.6 76.5435 248.264 76.5035 247.992C76.3035 248.376 76.0275 248.664 75.6755 248.856C75.3235 249.04 74.9315 249.132 74.4995 249.132C73.8275 249.132 73.2915 248.912 72.8915 248.472C72.4915 248.032 72.2915 247.396 72.2915 246.564V242.772H73.5155V246.204C73.5155 246.772 73.6235 247.216 73.8395 247.536C74.0555 247.848 74.3835 248.004 74.8235 248.004C75.2715 248.004 75.6515 247.844 75.9635 247.524C76.2835 247.204 76.4435 246.752 76.4435 246.168V242.772ZM82.0739 242.628C82.8179 242.628 83.4179 242.848 83.8739 243.288C84.3379 243.728 84.5699 244.36 84.5699 245.184V249H83.5019C83.4859 248.64 83.4659 248.384 83.4419 248.232C83.0579 248.832 82.4419 249.132 81.5939 249.132C81.1779 249.132 80.7939 249.056 80.4419 248.904C80.0979 248.752 79.8219 248.532 79.6139 248.244C79.4059 247.956 79.3019 247.608 79.3019 247.2C79.3019 246.584 79.5539 246.096 80.0579 245.736C80.5619 245.376 81.2059 245.196 81.9899 245.196C82.4299 245.196 82.8819 245.256 83.3459 245.376V245.352C83.3459 244.784 83.2339 244.368 83.0099 244.104C82.7859 243.832 82.4499 243.696 82.0019 243.696C81.6419 243.696 81.3379 243.776 81.0899 243.936C80.8499 244.088 80.6459 244.312 80.4779 244.608L79.5659 244.08C79.7659 243.64 80.0899 243.288 80.5379 243.024C80.9859 242.76 81.4979 242.628 82.0739 242.628ZM83.3459 246.312C82.8659 246.192 82.4459 246.132 82.0859 246.132C81.6059 246.132 81.2339 246.224 80.9699 246.408C80.7059 246.592 80.5739 246.848 80.5739 247.176C80.5739 247.472 80.6819 247.708 80.8979 247.884C81.1139 248.052 81.3979 248.136 81.7499 248.136C82.1899 248.136 82.5659 248.012 82.8779 247.764C83.1899 247.508 83.3459 247.156 83.3459 246.708V246.312ZM87.619 249H86.383V239.868H87.619V249ZM90.7673 249H89.5313V239.868H90.7673V249ZM96.8556 242.772H98.1396L95.2596 250.032C94.9956 250.712 94.6996 251.196 94.3716 251.484C94.0516 251.78 93.6196 251.928 93.0756 251.928C92.5556 251.928 92.1356 251.792 91.8156 251.52L92.2956 250.548C92.5196 250.716 92.7796 250.8 93.0756 250.8C93.3316 250.8 93.5436 250.712 93.7116 250.536C93.8876 250.368 94.0796 250.036 94.2876 249.54L94.4916 249.072L91.8636 242.772H93.2676L95.1156 247.548L96.8556 242.772ZM105.896 242.628C106.376 242.628 106.824 242.76 107.24 243.024C107.664 243.28 108.004 243.656 108.26 244.152C108.516 244.64 108.644 245.216 108.644 245.88C108.644 246.552 108.516 247.136 108.26 247.632C108.004 248.12 107.664 248.492 107.24 248.748C106.824 249.004 106.376 249.132 105.896 249.132C105.48 249.132 105.088 249.036 104.72 248.844C104.352 248.652 104.056 248.364 103.832 247.98C103.8 248.292 103.776 248.632 103.76 249H102.668V239.868H103.904V243.684C104.128 243.332 104.412 243.068 104.756 242.892C105.108 242.716 105.488 242.628 105.896 242.628ZM105.68 248.028C106.184 248.028 106.588 247.84 106.892 247.464C107.204 247.08 107.36 246.552 107.36 245.88C107.36 245.216 107.208 244.7 106.904 244.332C106.6 243.956 106.192 243.768 105.68 243.768C105.192 243.768 104.772 243.94 104.42 244.284C104.076 244.628 103.904 245.16 103.904 245.88C103.904 246.608 104.076 247.148 104.42 247.5C104.772 247.852 105.192 248.028 105.68 248.028ZM112.851 242.628C113.395 242.628 113.871 242.756 114.279 243.012C114.687 243.26 115.003 243.604 115.227 244.044C115.451 244.476 115.563 244.964 115.563 245.508C115.563 245.692 115.543 245.912 115.503 246.168H111.135C111.183 246.792 111.375 247.264 111.711 247.584C112.047 247.896 112.467 248.052 112.971 248.052C113.627 248.052 114.103 247.78 114.399 247.236L115.323 247.776C115.163 248.208 114.859 248.544 114.411 248.784C113.963 249.016 113.463 249.132 112.911 249.132C112.343 249.132 111.827 249.008 111.363 248.76C110.899 248.504 110.527 248.128 110.247 247.632C109.975 247.136 109.839 246.544 109.839 245.856C109.839 245.184 109.975 244.604 110.247 244.116C110.527 243.628 110.895 243.26 111.351 243.012C111.815 242.756 112.315 242.628 112.851 242.628ZM112.803 243.708C112.395 243.708 112.039 243.84 111.735 244.104C111.439 244.36 111.251 244.736 111.171 245.232H114.267C114.235 244.752 114.087 244.38 113.823 244.116C113.559 243.844 113.219 243.708 112.803 243.708ZM120.148 242.628C120.82 242.628 121.356 242.848 121.756 243.288C122.156 243.728 122.356 244.364 122.356 245.196V249H121.12V245.568C121.12 244.992 121.012 244.548 120.796 244.236C120.58 243.924 120.252 243.768 119.812 243.768C119.364 243.768 118.98 243.928 118.66 244.248C118.348 244.56 118.192 245.008 118.192 245.592V249H116.956V242.772H118.048C118.064 243.164 118.088 243.504 118.12 243.792C118.328 243.408 118.604 243.12 118.948 242.928C119.3 242.728 119.7 242.628 120.148 242.628ZM126.823 242.628C127.367 242.628 127.843 242.756 128.251 243.012C128.659 243.26 128.975 243.604 129.199 244.044C129.423 244.476 129.535 244.964 129.535 245.508C129.535 245.692 129.515 245.912 129.475 246.168H125.107C125.155 246.792 125.347 247.264 125.683 247.584C126.019 247.896 126.439 248.052 126.943 248.052C127.599 248.052 128.075 247.78 128.371 247.236L129.295 247.776C129.135 248.208 128.831 248.544 128.383 248.784C127.935 249.016 127.435 249.132 126.883 249.132C126.315 249.132 125.799 249.008 125.335 248.76C124.871 248.504 124.499 248.128 124.219 247.632C123.947 247.136 123.811 246.544 123.811 245.856C123.811 245.184 123.947 244.604 124.219 244.116C124.499 243.628 124.867 243.26 125.323 243.012C125.787 242.756 126.287 242.628 126.823 242.628ZM126.775 243.708C126.367 243.708 126.011 243.84 125.707 244.104C125.411 244.36 125.223 244.736 125.143 245.232H128.239C128.207 244.752 128.059 244.38 127.795 244.116C127.531 243.844 127.191 243.708 126.775 243.708ZM133.533 240.852C133.213 240.852 132.969 240.96 132.801 241.176C132.641 241.392 132.561 241.764 132.561 242.292V242.772H134.181V243.816H132.561V249H131.325V243.816H130.245V242.772H131.325V242.256C131.325 241.392 131.525 240.756 131.925 240.348C132.325 239.932 132.837 239.724 133.461 239.724C133.749 239.724 134.009 239.764 134.241 239.844C134.473 239.924 134.657 240.028 134.793 240.156L134.313 241.092C134.081 240.932 133.821 240.852 133.533 240.852ZM135.99 241.764C135.782 241.764 135.602 241.684 135.45 241.524C135.298 241.364 135.222 241.176 135.222 240.96C135.222 240.744 135.298 240.56 135.45 240.408C135.602 240.248 135.782 240.168 135.99 240.168C136.214 240.168 136.402 240.248 136.554 240.408C136.706 240.56 136.782 240.744 136.782 240.96C136.782 241.176 136.702 241.364 136.542 241.524C136.39 241.684 136.206 241.764 135.99 241.764ZM136.614 249H135.378V242.772H136.614V249ZM141.214 248.016C141.774 248.016 142.222 247.756 142.558 247.236L143.506 247.788C143.29 248.236 142.982 248.572 142.582 248.796C142.19 249.02 141.738 249.132 141.226 249.132C140.666 249.132 140.154 249 139.69 248.736C139.226 248.472 138.858 248.096 138.586 247.608C138.314 247.112 138.178 246.536 138.178 245.88C138.178 245.224 138.314 244.652 138.586 244.164C138.858 243.668 139.226 243.288 139.69 243.024C140.154 242.76 140.666 242.628 141.226 242.628C141.738 242.628 142.19 242.74 142.582 242.964C142.982 243.188 143.29 243.524 143.506 243.972L142.558 244.524C142.222 244.012 141.774 243.756 141.214 243.756C140.694 243.756 140.274 243.948 139.954 244.332C139.634 244.708 139.474 245.224 139.474 245.88C139.474 246.544 139.634 247.068 139.954 247.452C140.274 247.828 140.694 248.016 141.214 248.016ZM145.263 241.764C145.055 241.764 144.875 241.684 144.723 241.524C144.571 241.364 144.495 241.176 144.495 240.96C144.495 240.744 144.571 240.56 144.723 240.408C144.875 240.248 145.055 240.168 145.263 240.168C145.487 240.168 145.675 240.248 145.827 240.408C145.979 240.56 146.055 240.744 146.055 240.96C146.055 241.176 145.975 241.364 145.815 241.524C145.663 241.684 145.479 241.764 145.263 241.764ZM145.887 249H144.651V242.772H145.887V249ZM150.283 242.628C151.027 242.628 151.627 242.848 152.083 243.288C152.547 243.728 152.779 244.36 152.779 245.184V249H151.711C151.695 248.64 151.675 248.384 151.651 248.232C151.267 248.832 150.651 249.132 149.803 249.132C149.387 249.132 149.003 249.056 148.651 248.904C148.307 248.752 148.031 248.532 147.823 248.244C147.615 247.956 147.511 247.608 147.511 247.2C147.511 246.584 147.763 246.096 148.267 245.736C148.771 245.376 149.415 245.196 150.199 245.196C150.639 245.196 151.091 245.256 151.555 245.376V245.352C151.555 244.784 151.443 244.368 151.219 244.104C150.995 243.832 150.659 243.696 150.211 243.696C149.851 243.696 149.547 243.776 149.299 243.936C149.059 244.088 148.855 244.312 148.687 244.608L147.775 244.08C147.975 243.64 148.299 243.288 148.747 243.024C149.195 242.76 149.707 242.628 150.283 242.628ZM151.555 246.312C151.075 246.192 150.655 246.132 150.295 246.132C149.815 246.132 149.443 246.224 149.179 246.408C148.915 246.592 148.783 246.848 148.783 247.176C148.783 247.472 148.891 247.708 149.107 247.884C149.323 248.052 149.607 248.136 149.959 248.136C150.399 248.136 150.775 248.012 151.087 247.764C151.399 247.508 151.555 247.156 151.555 246.708V246.312ZM155.828 249H154.592V239.868H155.828V249Z" fill="#0C83F2"/>
<rect x="345" y="75" width="120" height="40" rx="4" fill="#6DB5F7"/>
<rect x="342.5" y="72.5" width="119" height="39" rx="3.5" fill="white" stroke="#6DB5F7"/>
<path d="M355.66 93.528C355.66 94.064 355.528 94.528 355.264 94.92C355.008 95.312 354.648 95.612 354.184 95.82C353.728 96.028 353.2 96.132 352.6 96.132C351.76 96.132 351.028 95.936 350.404 95.544C349.78 95.144 349.368 94.612 349.168 93.948L350.212 93.348C350.42 93.86 350.728 94.256 351.136 94.536C351.544 94.816 352.044 94.956 352.636 94.956C353.164 94.956 353.572 94.844 353.86 94.62C354.156 94.388 354.304 94.068 354.304 93.66C354.304 93.332 354.208 93.064 354.016 92.856C353.832 92.64 353.6 92.476 353.32 92.364C353.04 92.244 352.66 92.112 352.18 91.968C351.596 91.792 351.132 91.628 350.788 91.476C350.444 91.316 350.148 91.084 349.9 90.78C349.66 90.468 349.54 90.06 349.54 89.556C349.54 89.028 349.676 88.576 349.948 88.2C350.22 87.824 350.584 87.544 351.04 87.36C351.504 87.168 352.02 87.072 352.588 87.072C353.372 87.072 354.016 87.244 354.52 87.588C355.024 87.932 355.36 88.38 355.528 88.932L354.484 89.544C354.124 88.672 353.476 88.236 352.54 88.236C352.044 88.236 351.644 88.348 351.34 88.572C351.044 88.788 350.896 89.084 350.896 89.46C350.896 89.74 350.98 89.968 351.148 90.144C351.324 90.32 351.54 90.464 351.796 90.576C352.06 90.68 352.416 90.796 352.864 90.924C353.456 91.1 353.936 91.272 354.304 91.44C354.68 91.608 355 91.86 355.264 92.196C355.528 92.532 355.66 92.976 355.66 93.528ZM360.681 95.748C360.329 96.004 359.861 96.132 359.277 96.132C358.685 96.132 358.201 95.968 357.825 95.64C357.457 95.312 357.273 94.728 357.273 93.888V90.828H356.217V89.772H357.273V87.972H358.497V89.772H360.333V90.828H358.497V93.72C358.497 94.584 358.817 95.016 359.457 95.016C359.745 95.016 360.013 94.94 360.261 94.788L360.681 95.748ZM364.246 89.628C364.99 89.628 365.59 89.848 366.046 90.288C366.51 90.728 366.742 91.36 366.742 92.184V96H365.674C365.658 95.64 365.638 95.384 365.614 95.232C365.23 95.832 364.614 96.132 363.766 96.132C363.35 96.132 362.966 96.056 362.614 95.904C362.27 95.752 361.994 95.532 361.786 95.244C361.578 94.956 361.474 94.608 361.474 94.2C361.474 93.584 361.726 93.096 362.23 92.736C362.734 92.376 363.378 92.196 364.162 92.196C364.602 92.196 365.054 92.256 365.518 92.376V92.352C365.518 91.784 365.406 91.368 365.182 91.104C364.958 90.832 364.622 90.696 364.174 90.696C363.814 90.696 363.51 90.776 363.262 90.936C363.022 91.088 362.818 91.312 362.65 91.608L361.738 91.08C361.938 90.64 362.262 90.288 362.71 90.024C363.158 89.76 363.67 89.628 364.246 89.628ZM365.518 93.312C365.038 93.192 364.618 93.132 364.258 93.132C363.778 93.132 363.406 93.224 363.142 93.408C362.878 93.592 362.746 93.848 362.746 94.176C362.746 94.472 362.854 94.708 363.07 94.884C363.286 95.052 363.57 95.136 363.922 95.136C364.362 95.136 364.738 95.012 365.05 94.764C365.362 94.508 365.518 94.156 365.518 93.708V93.312ZM371.783 89.628C372.263 89.628 372.711 89.76 373.127 90.024C373.551 90.28 373.891 90.656 374.147 91.152C374.403 91.64 374.531 92.216 374.531 92.88C374.531 93.552 374.403 94.136 374.147 94.632C373.891 95.12 373.551 95.492 373.127 95.748C372.711 96.004 372.263 96.132 371.783 96.132C371.367 96.132 370.975 96.036 370.607 95.844C370.239 95.652 369.943 95.364 369.719 94.98C369.687 95.292 369.663 95.632 369.647 96H368.555V86.868H369.791V90.684C370.015 90.332 370.299 90.068 370.643 89.892C370.995 89.716 371.375 89.628 371.783 89.628ZM371.567 95.028C372.071 95.028 372.475 94.84 372.779 94.464C373.091 94.08 373.247 93.552 373.247 92.88C373.247 92.216 373.095 91.7 372.791 91.332C372.487 90.956 372.079 90.768 371.567 90.768C371.079 90.768 370.659 90.94 370.307 91.284C369.963 91.628 369.791 92.16 369.791 92.88C369.791 93.608 369.963 94.148 370.307 94.5C370.659 94.852 371.079 95.028 371.567 95.028ZM377.322 96H376.086V86.868H377.322V96ZM381.887 89.628C382.431 89.628 382.907 89.756 383.315 90.012C383.723 90.26 384.039 90.604 384.263 91.044C384.487 91.476 384.599 91.964 384.599 92.508C384.599 92.692 384.579 92.912 384.539 93.168H380.171C380.219 93.792 380.411 94.264 380.747 94.584C381.083 94.896 381.503 95.052 382.007 95.052C382.663 95.052 383.139 94.78 383.435 94.236L384.359 94.776C384.199 95.208 383.895 95.544 383.447 95.784C382.999 96.016 382.499 96.132 381.947 96.132C381.379 96.132 380.863 96.008 380.399 95.76C379.935 95.504 379.563 95.128 379.283 94.632C379.011 94.136 378.875 93.544 378.875 92.856C378.875 92.184 379.011 91.604 379.283 91.116C379.563 90.628 379.931 90.26 380.387 90.012C380.851 89.756 381.351 89.628 381.887 89.628ZM381.839 90.708C381.431 90.708 381.075 90.84 380.771 91.104C380.475 91.36 380.287 91.736 380.207 92.232H383.303C383.271 91.752 383.123 91.38 382.859 91.116C382.595 90.844 382.255 90.708 381.839 90.708ZM391.859 89.628C392.603 89.628 393.203 89.848 393.659 90.288C394.123 90.728 394.355 91.36 394.355 92.184V96H393.287C393.271 95.64 393.251 95.384 393.227 95.232C392.843 95.832 392.227 96.132 391.379 96.132C390.963 96.132 390.579 96.056 390.227 95.904C389.883 95.752 389.607 95.532 389.399 95.244C389.191 94.956 389.087 94.608 389.087 94.2C389.087 93.584 389.339 93.096 389.843 92.736C390.347 92.376 390.991 92.196 391.775 92.196C392.215 92.196 392.667 92.256 393.131 92.376V92.352C393.131 91.784 393.019 91.368 392.795 91.104C392.571 90.832 392.235 90.696 391.787 90.696C391.427 90.696 391.123 90.776 390.875 90.936C390.635 91.088 390.431 91.312 390.263 91.608L389.351 91.08C389.551 90.64 389.875 90.288 390.323 90.024C390.771 89.76 391.283 89.628 391.859 89.628ZM393.131 93.312C392.651 93.192 392.231 93.132 391.871 93.132C391.391 93.132 391.019 93.224 390.755 93.408C390.491 93.592 390.359 93.848 390.359 94.176C390.359 94.472 390.467 94.708 390.683 94.884C390.899 95.052 391.183 95.136 391.535 95.136C391.975 95.136 392.351 95.012 392.663 94.764C392.975 94.508 393.131 94.156 393.131 93.708V93.312ZM399.36 89.628C400.032 89.628 400.568 89.848 400.968 90.288C401.368 90.728 401.568 91.364 401.568 92.196V96H400.332V92.568C400.332 91.992 400.224 91.548 400.008 91.236C399.792 90.924 399.464 90.768 399.024 90.768C398.576 90.768 398.192 90.928 397.872 91.248C397.56 91.56 397.404 92.008 397.404 92.592V96H396.168V89.772H397.26C397.276 90.164 397.3 90.504 397.332 90.792C397.54 90.408 397.816 90.12 398.16 89.928C398.512 89.728 398.912 89.628 399.36 89.628ZM407.774 86.868H408.998V96H407.918C407.878 95.456 407.85 95.116 407.834 94.98C407.61 95.364 407.314 95.652 406.946 95.844C406.586 96.036 406.202 96.132 405.794 96.132C405.306 96.132 404.85 96.004 404.426 95.748C404.002 95.492 403.662 95.12 403.406 94.632C403.15 94.136 403.022 93.552 403.022 92.88C403.022 92.216 403.15 91.64 403.406 91.152C403.662 90.656 404.002 90.28 404.426 90.024C404.85 89.76 405.306 89.628 405.794 89.628C406.186 89.628 406.554 89.716 406.898 89.892C407.25 90.068 407.542 90.328 407.774 90.672V86.868ZM405.998 95.028C406.486 95.028 406.902 94.852 407.246 94.5C407.598 94.148 407.774 93.608 407.774 92.88C407.774 92.16 407.598 91.628 407.246 91.284C406.902 90.94 406.486 90.768 405.998 90.768C405.486 90.768 405.074 90.952 404.762 91.32C404.458 91.688 404.306 92.208 404.306 92.88C404.306 93.56 404.458 94.088 404.762 94.464C405.074 94.84 405.486 95.028 405.998 95.028ZM417.152 89.628C417.36 89.628 417.552 89.656 417.728 89.712C417.912 89.768 418.056 89.844 418.16 89.94L417.692 90.912C417.508 90.8 417.304 90.744 417.08 90.744C416.624 90.744 416.252 90.932 415.964 91.308C415.684 91.684 415.544 92.22 415.544 92.916V96H414.308V89.772H415.4C415.416 90.156 415.44 90.492 415.472 90.78C415.656 90.396 415.888 90.108 416.168 89.916C416.456 89.724 416.784 89.628 417.152 89.628ZM421.421 89.628C421.965 89.628 422.441 89.756 422.849 90.012C423.257 90.26 423.573 90.604 423.797 91.044C424.021 91.476 424.133 91.964 424.133 92.508C424.133 92.692 424.113 92.912 424.073 93.168H419.705C419.753 93.792 419.945 94.264 420.281 94.584C420.617 94.896 421.037 95.052 421.541 95.052C422.197 95.052 422.673 94.78 422.969 94.236L423.893 94.776C423.733 95.208 423.429 95.544 422.981 95.784C422.533 96.016 422.033 96.132 421.481 96.132C420.913 96.132 420.397 96.008 419.933 95.76C419.469 95.504 419.097 95.128 418.817 94.632C418.545 94.136 418.409 93.544 418.409 92.856C418.409 92.184 418.545 91.604 418.817 91.116C419.097 90.628 419.465 90.26 419.921 90.012C420.385 89.756 420.885 89.628 421.421 89.628ZM421.373 90.708C420.965 90.708 420.609 90.84 420.305 91.104C420.009 91.36 419.821 91.736 419.741 92.232H422.837C422.805 91.752 422.657 91.38 422.393 91.116C422.129 90.844 421.789 90.708 421.373 90.708ZM426.762 96H425.526V86.868H426.762V96ZM429.287 88.764C429.079 88.764 428.899 88.684 428.747 88.524C428.595 88.364 428.519 88.176 428.519 87.96C428.519 87.744 428.595 87.56 428.747 87.408C428.899 87.248 429.079 87.168 429.287 87.168C429.511 87.168 429.699 87.248 429.851 87.408C430.003 87.56 430.079 87.744 430.079 87.96C430.079 88.176 429.999 88.364 429.839 88.524C429.687 88.684 429.503 88.764 429.287 88.764ZM429.911 96H428.675V89.772H429.911V96ZM434.307 89.628C435.051 89.628 435.651 89.848 436.107 90.288C436.571 90.728 436.803 91.36 436.803 92.184V96H435.735C435.719 95.64 435.699 95.384 435.675 95.232C435.291 95.832 434.675 96.132 433.827 96.132C433.411 96.132 433.027 96.056 432.675 95.904C432.331 95.752 432.055 95.532 431.847 95.244C431.639 94.956 431.535 94.608 431.535 94.2C431.535 93.584 431.787 93.096 432.291 92.736C432.795 92.376 433.439 92.196 434.223 92.196C434.663 92.196 435.115 92.256 435.579 92.376V92.352C435.579 91.784 435.467 91.368 435.243 91.104C435.019 90.832 434.683 90.696 434.235 90.696C433.875 90.696 433.571 90.776 433.323 90.936C433.083 91.088 432.879 91.312 432.711 91.608L431.799 91.08C431.999 90.64 432.323 90.288 432.771 90.024C433.219 89.76 433.731 89.628 434.307 89.628ZM435.579 93.312C435.099 93.192 434.679 93.132 434.319 93.132C433.839 93.132 433.467 93.224 433.203 93.408C432.939 93.592 432.807 93.848 432.807 94.176C432.807 94.472 432.915 94.708 433.131 94.884C433.347 95.052 433.631 95.136 433.983 95.136C434.423 95.136 434.799 95.012 435.111 94.764C435.423 94.508 435.579 94.156 435.579 93.708V93.312ZM441.844 89.628C442.324 89.628 442.772 89.76 443.188 90.024C443.612 90.28 443.952 90.656 444.208 91.152C444.464 91.64 444.592 92.216 444.592 92.88C444.592 93.552 444.464 94.136 444.208 94.632C443.952 95.12 443.612 95.492 443.188 95.748C442.772 96.004 442.324 96.132 441.844 96.132C441.428 96.132 441.036 96.036 440.668 95.844C440.3 95.652 440.004 95.364 439.78 94.98C439.748 95.292 439.724 95.632 439.708 96H438.616V86.868H439.852V90.684C440.076 90.332 440.36 90.068 440.704 89.892C441.056 89.716 441.436 89.628 441.844 89.628ZM441.628 95.028C442.132 95.028 442.536 94.84 442.84 94.464C443.152 94.08 443.308 93.552 443.308 92.88C443.308 92.216 443.156 91.7 442.852 91.332C442.548 90.956 442.14 90.768 441.628 90.768C441.14 90.768 440.72 90.94 440.368 91.284C440.024 91.628 439.852 92.16 439.852 92.88C439.852 93.608 440.024 94.148 440.368 94.5C440.72 94.852 441.14 95.028 441.628 95.028ZM447.383 96H446.147V86.868H447.383V96ZM451.947 89.628C452.491 89.628 452.967 89.756 453.375 90.012C453.783 90.26 454.099 90.604 454.323 91.044C454.547 91.476 454.659 91.964 454.659 92.508C454.659 92.692 454.639 92.912 454.599 93.168H450.231C450.279 93.792 450.471 94.264 450.807 94.584C451.143 94.896 451.563 95.052 452.067 95.052C452.723 95.052 453.199 94.78 453.495 94.236L454.419 94.776C454.259 95.208 453.955 95.544 453.507 95.784C453.059 96.016 452.559 96.132 452.007 96.132C451.439 96.132 450.923 96.008 450.459 95.76C449.995 95.504 449.623 95.128 449.343 94.632C449.071 94.136 448.935 93.544 448.935 92.856C448.935 92.184 449.071 91.604 449.343 91.116C449.623 90.628 449.991 90.26 450.447 90.012C450.911 89.756 451.411 89.628 451.947 89.628ZM451.899 90.708C451.491 90.708 451.135 90.84 450.831 91.104C450.535 91.36 450.347 91.736 450.267 92.232H453.363C453.331 91.752 453.183 91.38 452.919 91.116C452.655 90.844 452.315 90.708 451.899 90.708Z" fill="#0C83F2"/>
<circle cx="104.647" cy="128.176" r="26.3529" fill="#FFEA83"/>
<circle cx="101.353" cy="127.353" r="26.3529" fill="#FFDA28"/>
<path d="M91.4187 115.827L91.4895 115.756L93.0811 117.348C93.5597 117.827 93.5597 118.603 93.0811 119.081C93.0811 119.081 93.0811 119.081 93.0811 119.081M91.4187 115.827V119.01C91.8583 119.45 92.5709 119.45 93.0104 119.01L93.0811 119.081M91.4187 115.827C90.9792 115.388 90.2666 115.388 89.8271 115.827C89.3875 116.267 89.3875 116.979 89.8271 117.419M91.4187 115.827L89.8271 117.419M91.4187 115.827L91.4895 115.756C91.0109 115.278 90.2349 115.278 89.7563 115.756C89.2778 116.235 89.2778 117.011 89.7563 117.489L89.8271 117.419M91.4187 115.827L89.8271 117.419M93.0811 119.081C92.6026 119.56 91.8266 119.56 91.348 119.081L89.7564 117.489L89.8271 117.419M93.0811 119.081L89.8271 117.419M91.4895 139.773L91.4187 139.702L91.4895 139.773L93.0811 138.181C93.5597 137.703 93.5597 136.927 93.0811 136.448C92.6026 135.97 91.8266 135.97 91.348 136.448L89.7564 138.04C89.2778 138.518 89.2778 139.294 89.7563 139.773C90.2349 140.252 91.0109 140.252 91.4895 139.773ZM113.773 117.489L113.702 117.419L113.773 117.489C114.252 117.011 114.252 116.235 113.773 115.756C113.294 115.278 112.518 115.278 112.04 115.756L110.448 117.348C109.97 117.827 109.97 118.603 110.448 119.081C110.927 119.56 111.703 119.56 112.181 119.081L113.773 117.489ZM111.994 127.765C111.994 122.115 107.414 117.535 101.765 117.535C96.1151 117.535 91.5353 122.115 91.5353 127.765C91.5353 133.414 96.1151 137.994 101.765 137.994C107.414 137.994 111.994 133.414 111.994 127.765ZM102.99 141.271C102.99 140.594 102.441 140.045 101.765 140.045C101.088 140.045 100.539 140.594 100.539 141.271V143.522C100.539 144.198 101.088 144.747 101.765 144.747C102.441 144.747 102.99 144.198 102.99 143.522V141.271ZM113.773 138.04L112.181 136.448C111.703 135.97 110.927 135.97 110.448 136.448C109.97 136.927 109.97 137.703 110.448 138.181L112.04 139.773C112.518 140.252 113.294 140.252 113.773 139.773C114.252 139.294 114.252 138.518 113.773 138.04ZM89.4843 127.765C89.4843 127.088 88.9356 126.539 88.2588 126.539H86.0078C85.331 126.539 84.7823 127.088 84.7823 127.765C84.7823 128.441 85.331 128.99 86.0078 128.99H88.2588C88.9356 128.99 89.4843 128.441 89.4843 127.765ZM118.747 127.765C118.747 127.088 118.198 126.539 117.522 126.539H115.271C114.594 126.539 114.045 127.088 114.045 127.765C114.045 128.441 114.594 128.99 115.271 128.99H117.522C118.198 128.99 118.747 128.441 118.747 127.765ZM102.99 112.008C102.99 111.331 102.441 110.782 101.765 110.782C101.088 110.782 100.539 111.331 100.539 112.008V114.259C100.539 114.936 101.088 115.484 101.765 115.484C102.441 115.484 102.99 114.936 102.99 114.259V112.008Z" fill="white" stroke="white" stroke-width="0.2"/>
<circle cx="445" cy="272" r="20" fill="#91F0EA"/>
<circle cx="442" cy="271" r="20" fill="#22E0D5"/>
<path d="M441.667 281C437.433 281 434 277.54 434 273.273C434 270.427 436.555 266.336 441.667 261C446.778 266.337 449.333 270.427 449.333 273.273C449.333 277.54 445.901 281 441.667 281ZM436.048 274.341C436.301 275.402 436.814 276.384 437.54 277.197C438.267 278.011 439.184 278.632 440.209 279.003C440.293 279.033 440.382 279.046 440.471 279.042C440.56 279.037 440.647 279.015 440.728 278.977C440.808 278.938 440.88 278.884 440.939 278.818C440.999 278.752 441.045 278.674 441.074 278.59C441.135 278.42 441.125 278.233 441.049 278.07C440.972 277.907 440.834 277.78 440.664 277.719C439.851 277.424 439.124 276.932 438.548 276.286C437.972 275.641 437.565 274.863 437.364 274.022C437.343 273.936 437.305 273.854 437.253 273.782C437.2 273.711 437.134 273.65 437.058 273.604C436.982 273.557 436.898 273.527 436.81 273.513C436.722 273.499 436.632 273.503 436.546 273.524C436.46 273.545 436.378 273.583 436.306 273.635C436.235 273.688 436.174 273.754 436.128 273.83C436.081 273.906 436.051 273.99 436.037 274.078C436.023 274.166 436.027 274.256 436.048 274.342V274.341Z" fill="white"/>
<circle cx="445" cy="199" r="6" fill="url(#paint10_linear_1148_7593)"/>
<circle cx="160" cy="86" r="6" fill="url(#paint11_linear_1148_7593)"/>
<defs>
<linearGradient id="paint0_linear_1148_7593" x1="260" y1="0" x2="260" y2="360" gradientUnits="userSpaceOnUse">
<stop stop-opacity="0.02"/>
<stop offset="0.494792"/>
<stop offset="1" stop-opacity="0"/>
<stop offset="1" stop-opacity="0.02"/>
</linearGradient>
<linearGradient id="paint1_linear_1148_7593" x1="469.15" y1="395.084" x2="-13.6608" y2="403.466" gradientUnits="userSpaceOnUse">
<stop stop-color="#2492F8" stop-opacity="0.08"/>
<stop offset="0.526042" stop-color="#47AAF1" stop-opacity="0.08"/>
<stop offset="1" stop-color="#7E96EF" stop-opacity="0.04"/>
</linearGradient>
<linearGradient id="paint2_linear_1148_7593" x1="451.917" y1="377.284" x2="8.88813" y2="384.978" gradientUnits="userSpaceOnUse">
<stop stop-color="#2492F8" stop-opacity="0.08"/>
<stop offset="0.526042" stop-color="#47AAF1" stop-opacity="0.08"/>
<stop offset="1" stop-color="#7E96EF" stop-opacity="0.04"/>
</linearGradient>
<linearGradient id="paint3_linear_1148_7593" x1="433.9" y1="358.742" x2="32.4619" y2="365.715" gradientUnits="userSpaceOnUse">
<stop stop-color="#2492F8" stop-opacity="0.08"/>
<stop offset="0.526042" stop-color="#47AAF1" stop-opacity="0.08"/>
<stop offset="1" stop-color="#7E96EF" stop-opacity="0.04"/>
</linearGradient>
<linearGradient id="paint4_linear_1148_7593" x1="416.667" y1="340.942" x2="55.0109" y2="347.227" gradientUnits="userSpaceOnUse">
<stop stop-color="#2492F8" stop-opacity="0.08"/>
<stop offset="0.526042" stop-color="#47AAF1" stop-opacity="0.08"/>
<stop offset="1" stop-color="#7E96EF" stop-opacity="0.04"/>
</linearGradient>
<linearGradient id="paint5_linear_1148_7593" x1="397.083" y1="320.917" x2="80.6344" y2="326.413" gradientUnits="userSpaceOnUse">
<stop stop-color="#2492F8" stop-opacity="0.08"/>
<stop offset="0.526042" stop-color="#47AAF1" stop-opacity="0.08"/>
<stop offset="1" stop-color="#7E96EF" stop-opacity="0.04"/>
</linearGradient>
<linearGradient id="paint6_linear_1148_7593" x1="375.933" y1="299.408" x2="108.308" y2="304.047" gradientUnits="userSpaceOnUse">
<stop stop-color="#2492F8" stop-opacity="0.08"/>
<stop offset="0.526042" stop-color="#47AAF1" stop-opacity="0.08"/>
<stop offset="1" stop-color="#7E96EF" stop-opacity="0.04"/>
</linearGradient>
<linearGradient id="paint7_linear_1148_7593" x1="354.783" y1="277.158" x2="135.982" y2="280.969" gradientUnits="userSpaceOnUse">
<stop stop-color="#2492F8" stop-opacity="0.08"/>
<stop offset="0.526042" stop-color="#47AAF1" stop-opacity="0.08"/>
<stop offset="1" stop-color="#7E96EF" stop-opacity="0.04"/>
</linearGradient>
<linearGradient id="paint8_linear_1148_7593" x1="139" y1="70.3587" x2="344.168" y2="330.452" gradientUnits="userSpaceOnUse">
<stop stop-color="#BFD1FF"/>
<stop offset="1" stop-color="#9CD0FF"/>
</linearGradient>
<linearGradient id="paint9_linear_1148_7593" x1="335.983" y1="257.875" x2="160.581" y2="260.931" gradientUnits="userSpaceOnUse">
<stop stop-color="#2492F8" stop-opacity="0.08"/>
<stop offset="0.526042" stop-color="#47AAF1" stop-opacity="0.08"/>
<stop offset="1" stop-color="#7E96EF" stop-opacity="0.04"/>
</linearGradient>
<linearGradient id="paint10_linear_1148_7593" x1="445" y1="193" x2="445" y2="205" gradientUnits="userSpaceOnUse">
<stop stop-color="#8AAEFF"/>
<stop offset="1" stop-color="#89E3FF"/>
</linearGradient>
<linearGradient id="paint11_linear_1148_7593" x1="160" y1="80" x2="160" y2="92" gradientUnits="userSpaceOnUse">
<stop stop-color="#8AAEFF"/>
<stop offset="1" stop-color="#89E3FF"/>
</linearGradient>
<clipPath id="clip0_1148_7593">
<rect width="50" height="50" fill="white" transform="translate(236 160)"/>
</clipPath>
</defs>
</svg>
