<svg width="200" height="200" viewBox="0 0 200 200" fill="none" xmlns="http://www.w3.org/2000/svg">
<path d="M130.833 24.1667H47.5002C43.8183 24.1667 40.8335 27.1515 40.8335 30.8334V167.5C40.8335 171.182 43.8183 174.167 47.5002 174.167H130.833C134.515 174.167 137.5 171.182 137.5 167.5V30.8334C137.5 27.1515 134.515 24.1667 130.833 24.1667Z" fill="#5CB2FF"/>
<path d="M128.333 24.1667H46.6667C42.9848 24.1667 40 27.1515 40 30.8334V167.5C40 171.182 42.9848 174.167 46.6667 174.167H128.333C132.015 174.167 135 171.182 135 167.5V30.8334C135 27.1515 132.015 24.1667 128.333 24.1667Z" fill="#BADDFF"/>
<path d="M126.667 35.8333H49.1665V158.333H126.667V35.8333Z" fill="white"/>
<mask id="mask0_2435_11684" style="mask-type:alpha" maskUnits="userSpaceOnUse" x="49" y="35" width="78" height="124">
<path d="M126.667 35.8333H49.1665V158.333H126.667V35.8333Z" fill="white"/>
</mask>
<g mask="url(#mask0_2435_11684)">
<path d="M128.333 35.8333H50.8333V158.333L21.25 162.917L33.75 23.75L131.25 12.5L128.333 35.8333Z" fill="#5CB2FF"/>
</g>
<path d="M97.9167 163.333H80.4167C78.8058 163.333 77.5 164.639 77.5 166.25C77.5 167.861 78.8058 169.167 80.4167 169.167H97.9167C99.5275 169.167 100.833 167.861 100.833 166.25C100.833 164.639 99.5275 163.333 97.9167 163.333Z" fill="#5CB2FF"/>
<path d="M96.2502 163.333H78.7502C77.1393 163.333 75.8335 164.639 75.8335 166.25C75.8335 167.861 77.1393 169.167 78.7502 169.167H96.2502C97.861 169.167 99.1668 167.861 99.1668 166.25C99.1668 164.639 97.861 163.333 96.2502 163.333Z" fill="white"/>
<path d="M92.4998 28.3333H75.8332C74.9127 28.3333 74.1665 29.0794 74.1665 29.9999C74.1665 30.9204 74.9127 31.6666 75.8332 31.6666H92.4998C93.4203 31.6666 94.1665 30.9204 94.1665 29.9999C94.1665 29.0794 93.4203 28.3333 92.4998 28.3333Z" fill="#5CB2FF"/>
<path d="M117.5 50.8333H93.3332C92.4127 50.8333 91.6665 51.5794 91.6665 52.4999V55.8333C91.6665 56.7537 92.4127 57.4999 93.3332 57.4999H117.5C118.42 57.4999 119.167 56.7537 119.167 55.8333V52.4999C119.167 51.5794 118.42 50.8333 117.5 50.8333Z" fill="#DDEEFF"/>
<path d="M117.5 63.3333H93.3332C92.4127 63.3333 91.6665 64.0794 91.6665 64.9999V68.3333C91.6665 69.2537 92.4127 69.9999 93.3332 69.9999H117.5C118.42 69.9999 119.167 69.2537 119.167 68.3333V64.9999C119.167 64.0794 118.42 63.3333 117.5 63.3333Z" fill="#DDEEFF"/>
<path d="M117.5 83.3333H59.1667C58.2462 83.3333 57.5 84.0794 57.5 84.9999V88.3333C57.5 89.2537 58.2462 89.9999 59.1667 89.9999H117.5C118.42 89.9999 119.167 89.2537 119.167 88.3333V84.9999C119.167 84.0794 118.42 83.3333 117.5 83.3333Z" fill="#F1F8FF"/>
<path d="M117.5 98.3333H59.1667C58.2462 98.3333 57.5 99.0794 57.5 99.9999V103.333C57.5 104.254 58.2462 105 59.1667 105H117.5C118.42 105 119.167 104.254 119.167 103.333V99.9999C119.167 99.0794 118.42 98.3333 117.5 98.3333Z" fill="#F1F8FF"/>
<path d="M117.5 113.333H59.1667C58.2462 113.333 57.5 114.079 57.5 115V118.333C57.5 119.254 58.2462 120 59.1667 120H117.5C118.42 120 119.167 119.254 119.167 118.333V115C119.167 114.079 118.42 113.333 117.5 113.333Z" fill="#F1F8FF"/>
<path d="M117.5 128.333H59.1667C58.2462 128.333 57.5 129.079 57.5 130V133.333C57.5 134.254 58.2462 135 59.1667 135H117.5C118.42 135 119.167 134.254 119.167 133.333V130C119.167 129.079 118.42 128.333 117.5 128.333Z" fill="#F1F8FF"/>
<path d="M80.8333 48.3333H60.8333C58.9924 48.3333 57.5 49.8256 57.5 51.6666V71.6666C57.5 73.5075 58.9924 74.9999 60.8333 74.9999H80.8333C82.6743 74.9999 84.1667 73.5075 84.1667 71.6666V51.6666C84.1667 49.8256 82.6743 48.3333 80.8333 48.3333Z" fill="#DDEEFF"/>
<path d="M131.667 148.333C145.934 148.333 157.5 136.767 157.5 122.5C157.5 108.233 145.934 96.6667 131.667 96.6667C117.399 96.6667 105.833 108.233 105.833 122.5C105.833 136.767 117.399 148.333 131.667 148.333Z" fill="white"/>
<path fill-rule="evenodd" clip-rule="evenodd" d="M152.361 149.525C140.265 158.027 123.451 156.871 112.637 146.058C100.53 133.953 100.53 114.325 112.637 102.219C124.745 90.1134 144.375 90.1134 156.482 102.219C167.589 113.324 168.506 130.759 159.236 142.911L175.88 159.552C177.742 161.414 177.742 164.434 175.88 166.297C174.017 168.159 170.997 168.159 169.135 166.297L152.361 149.525ZM151.423 141C142.11 150.313 127.01 150.313 117.696 141C108.382 131.688 108.382 116.59 117.696 107.278C127.01 97.9651 142.11 97.9651 151.423 107.278C160.736 116.59 160.736 131.688 151.423 141Z" fill="#5CB2FF"/>
<path fill-rule="evenodd" clip-rule="evenodd" d="M149.861 149.525C137.765 158.027 120.951 156.871 110.137 146.058C98.0298 133.953 98.0298 114.325 110.137 102.219C122.245 90.1134 141.875 90.1134 153.982 102.219C165.089 113.324 166.006 130.759 156.736 142.911L173.38 159.552C175.242 161.414 175.242 164.434 173.38 166.297C171.517 168.159 168.497 168.159 166.635 166.297L149.861 149.525ZM148.923 141C139.61 150.313 124.51 150.313 115.196 141C105.882 131.688 105.882 116.59 115.196 107.278C124.51 97.9651 139.61 97.9651 148.923 107.278C158.236 116.59 158.236 131.688 148.923 141Z" fill="#BADDFF"/>
<path fill-rule="evenodd" clip-rule="evenodd" d="M131.083 131.833V137.917H137.167V131.833H131.083Z" fill="#5CB2FF"/>
<path fill-rule="evenodd" clip-rule="evenodd" d="M143.75 117C143.75 118.333 143.417 119.583 142.833 120.667C142.167 121.833 141 123.083 139.5 124.417C138.417 125.333 137.917 125.917 137.667 126.25C137.417 126.583 137.25 126.917 137.167 127.333C137.167 127.417 137.167 127.417 137.083 127.5C137 127.667 137 127.75 137 127.917C137 128.083 136.917 128.417 136.917 129V130.25H131.333V129V128.917V128.75C131.333 127.417 131.5 126.167 131.917 125.083C132.25 124.25 132.75 123.417 133.417 122.667C133.917 122.083 134.75 121.333 135.833 120.333C136.917 119.417 137.5 118.75 137.75 118.333C138 118 138.083 117.583 138.083 117.083C138.083 116.25 137.75 115.5 137 114.75C136.25 114.083 135.417 113.667 134.333 113.667C133.25 113.667 132.417 114 131.833 114.583C131.25 115.167 130.667 116.167 130.417 117.75L130.167 119.167L124.5 118.5L124.667 117.25C124.917 114.583 125.917 112.5 127.667 111C129.333 109.417 131.583 108.75 134.167 108.75C136.917 108.75 139.25 109.5 141.083 111.083C142.833 112.667 143.75 114.667 143.75 117Z" fill="#5CB2FF"/>
<path d="M97.9168 32.0834C99.0674 32.0834 100 31.1507 100 30.0001C100 28.8495 99.0674 27.9167 97.9168 27.9167C96.7662 27.9167 95.8335 28.8495 95.8335 30.0001C95.8335 31.1507 96.7662 32.0834 97.9168 32.0834Z" fill="#5CB2FF"/>
</svg>
