<svg width="180" height="180" viewBox="0 0 180 180" fill="none" xmlns="http://www.w3.org/2000/svg">
<circle cx="90" cy="90" r="90" fill="#0C83F2" fill-opacity="0.08"/>
<circle r="4" transform="matrix(1 0 0 -1 23 165)" fill="#0C83F2" fill-opacity="0.08"/>
<circle r="2" transform="matrix(1 0 0 -1 18 19)" fill="#0C83F2" fill-opacity="0.08"/>
<circle r="2" transform="matrix(1 0 0 -1 151 13)" fill="#0C83F2" fill-opacity="0.08"/>
<circle r="2" transform="matrix(1 0 0 -1 34 172)" fill="#0C83F2" fill-opacity="0.08"/>
<circle r="3" transform="matrix(1 0 0 -1 161 19)" fill="#0C83F2" fill-opacity="0.08"/>
<circle r="2.5" transform="matrix(1 0 0 -1 145.5 171.5)" fill="#0C83F2" fill-opacity="0.08"/>
<rect x="6" y="29" width="166" height="122" rx="6" fill="#B7DAFC"/>
<circle cx="19" cy="34" r="2" fill="white"/>
<circle cx="27" cy="34" r="2" fill="white"/>
<circle cx="35" cy="34" r="2" fill="white"/>
<rect x="9" y="39" width="160" height="104" rx="4" fill="white"/>
<path d="M27.001 100C27.001 98.8954 27.8964 98 29.001 98H37.001C38.1055 98 39.001 98.8954 39.001 100V130H27.001V100Z" fill="url(#paint0_linear_1149_8509)"/>
<path d="M27 113H39V130H27V113Z" fill="url(#paint1_linear_1149_8509)"/>
<path d="M52 84C52 82.8954 52.8954 82 54 82H62C63.1046 82 64 82.8954 64 84V130H52V84Z" fill="url(#paint2_linear_1149_8509)"/>
<path d="M52.001 106H64.001V130H52.001V106Z" fill="url(#paint3_linear_1149_8509)"/>
<rect x="24" y="53" width="55" height="4" rx="2" fill="#E1F0FD"/>
<rect x="88" y="94" width="69" height="6" rx="1" fill="#E1F0FD"/>
<rect x="88" y="109" width="69" height="6" rx="1" fill="#E1F0FD"/>
<rect x="88" y="124" width="69" height="6" rx="1" fill="#E1F0FD"/>
<rect x="24" y="64" width="55" height="4" rx="2" fill="#E1F0FD"/>
<rect x="100" y="52" width="23" height="23" rx="2" fill="#E1F0FD"/>
<rect x="133" y="52" width="23" height="23" rx="2" fill="#E1F0FD"/>
<circle cx="23" cy="67" r="20" fill="#FFEA83"/>
<circle cx="20" cy="66" r="20" fill="#FFDA28"/>
<path d="M24.3456 60.048H27.4528C27.8336 60.048 28.0256 59.5808 27.7536 59.312L24.0992 55.6544C23.8304 55.3856 23.3728 55.5776 23.3728 55.9616V59.0624C23.3696 60 24.3456 60.048 24.3456 60.048Z" fill="white"/>
<path d="M27.9072 61.6577H24.1696C24.1696 61.6577 21.7792 61.4721 21.7792 59.2417V55.4433C21.7792 55.0529 21.4656 54.7393 21.0816 54.7393H12.192C12.192 54.7393 11.3952 54.7937 11.3952 55.5457V76.4577C11.3952 76.4577 11.4496 77.2641 12.192 77.2641H27.808C27.808 77.2641 28.6048 77.2673 28.6048 76.4577V62.3617C28.6048 61.9713 28.2912 61.6577 27.9072 61.6577ZM23.7824 72.7361H16.2496C15.8656 72.7361 15.552 72.4193 15.552 72.0321C15.552 71.6449 15.8656 71.3281 16.2496 71.3281H23.7824C24.1664 71.3281 24.48 71.6449 24.48 72.0321C24.48 72.4193 24.1664 72.7361 23.7824 72.7361ZM23.7824 69.1841H16.2496C15.8656 69.1841 15.552 68.8673 15.552 68.4801C15.552 68.0929 15.8656 67.7761 16.2496 67.7761H23.7824C24.1664 67.7761 24.48 68.0929 24.48 68.4801C24.48 68.8673 24.1664 69.1841 23.7824 69.1841ZM23.7824 65.6289H16.2496C15.8656 65.6289 15.552 65.3121 15.552 64.9249C15.552 64.5377 15.8656 64.2209 16.2496 64.2209H23.7824C24.1664 64.2209 24.48 64.5377 24.48 64.9249C24.48 65.3121 24.1664 65.6289 23.7824 65.6289Z" fill="white"/>
<circle cx="150.698" cy="133.767" r="29.3023" fill="#91F0EA"/>
<circle cx="146.302" cy="132.302" r="29.3023" fill="#22E0D5"/>
<path d="M159.791 127.451C158.571 121.529 153.346 117 146.902 117C141.849 117 137.496 119.789 135.406 123.969C130.006 124.663 126 129.019 126 134.42C126 140.168 130.704 144.871 136.451 144.871H159.093C163.971 144.871 167.804 141.038 167.804 136.159C167.804 131.632 164.146 127.799 159.791 127.451ZM138.191 132.676L146.899 125L155.61 132.676H150.385V139H143.416V132.676H138.191Z" fill="white"/>
<defs>
<linearGradient id="paint0_linear_1149_8509" x1="33.001" y1="98" x2="33.001" y2="130" gradientUnits="userSpaceOnUse">
<stop stop-color="#497CFF" stop-opacity="0.12"/>
<stop offset="1" stop-color="#1BC8FF" stop-opacity="0.12"/>
</linearGradient>
<linearGradient id="paint1_linear_1149_8509" x1="33" y1="113" x2="33" y2="130" gradientUnits="userSpaceOnUse">
<stop stop-color="#4971FF" stop-opacity="0.5"/>
<stop offset="1" stop-color="#1BC8FF" stop-opacity="0.5"/>
</linearGradient>
<linearGradient id="paint2_linear_1149_8509" x1="58" y1="82" x2="58" y2="130" gradientUnits="userSpaceOnUse">
<stop stop-color="#497CFF" stop-opacity="0.12"/>
<stop offset="1" stop-color="#1BC8FF" stop-opacity="0.12"/>
</linearGradient>
<linearGradient id="paint3_linear_1149_8509" x1="58.001" y1="106" x2="58.001" y2="130" gradientUnits="userSpaceOnUse">
<stop stop-color="#4971FF" stop-opacity="0.5"/>
<stop offset="1" stop-color="#1BC8FF" stop-opacity="0.5"/>
</linearGradient>
</defs>
</svg>
