<svg width="180" height="180" viewBox="0 0 180 180" fill="none" xmlns="http://www.w3.org/2000/svg">
<circle r="4" transform="matrix(1 0 0 -1 166 162)" fill="#0C83F2" fill-opacity="0.08"/>
<circle r="2" transform="matrix(1 0 0 -1 15 27)" fill="#0C83F2" fill-opacity="0.08"/>
<circle r="4" transform="matrix(1 0 0 -1 6 40)" fill="#0C83F2" fill-opacity="0.08"/>
<circle r="3.5" transform="matrix(1 0 0 -1 27.5 168.5)" fill="#0C83F2" fill-opacity="0.08"/>
<circle r="2" transform="matrix(1 0 0 -1 173 150)" fill="#0C83F2" fill-opacity="0.08"/>
<circle r="2" transform="matrix(1 0 0 -1 37 176)" fill="#0C83F2" fill-opacity="0.08"/>
<circle r="2" transform="matrix(1 0 0 -1 167 35)" fill="#0C83F2" fill-opacity="0.08"/>
<circle cx="90" cy="90" r="90" fill="#0C83F2" fill-opacity="0.08"/>
<circle cx="30" cy="132" r="20" fill="#91F0EA"/>
<circle cx="27" cy="131" r="20" fill="#22E0D5"/>
<path d="M26.9858 120.734C27.0458 120.734 27.1047 120.745 27.1582 120.769L27.2367 120.813L27.5324 121.02C27.5455 121.031 28.8622 121.958 30.8989 122.764C32.7316 123.49 34.5131 123.578 34.7924 123.588H34.8295L35.3204 123.597C35.4306 123.599 35.5359 123.643 35.6149 123.72C35.6728 123.776 35.7127 123.848 35.7295 123.926L35.7382 124.008L35.7425 132.201C35.7425 134.186 34.5393 136.225 32.9389 137.848C31.0625 139.751 28.6396 141.078 26.9858 141.078C25.3342 141.078 22.9124 139.751 21.0349 137.846C19.512 136.302 18.3502 134.378 18.2422 132.485L18.2345 132.201V124.007C18.2345 123.894 18.2815 123.792 18.3567 123.718C18.4153 123.661 18.4886 123.623 18.5684 123.606L18.6524 123.596L19.1465 123.587C19.1651 123.587 21.0905 123.549 23.0749 122.762C24.9949 122.004 26.2713 121.137 26.4273 121.03L26.4415 121.02L26.7338 120.813C26.8073 120.761 26.8949 120.734 26.9847 120.733L26.9858 120.734ZM30.1691 127.99C30.0746 127.99 29.9811 128.009 29.894 128.045C29.8069 128.082 29.728 128.135 29.6618 128.203L25.8164 132.079L24.3131 130.566L24.2269 130.492C24.0891 130.391 23.9197 130.343 23.7495 130.356C23.5793 130.37 23.4197 130.444 23.2996 130.566C23.1648 130.701 23.0891 130.885 23.0891 131.076C23.0891 131.268 23.1648 131.451 23.2996 131.587L25.3091 133.61L25.3942 133.685C25.5322 133.785 25.7016 133.833 25.8718 133.819C26.0419 133.805 26.2015 133.731 26.3215 133.609L30.6764 129.224L30.7527 129.133C30.8304 129.026 30.8769 128.899 30.8871 128.766C30.8973 128.634 30.8707 128.502 30.8104 128.383C30.75 128.265 30.6582 128.166 30.5451 128.096C30.4319 128.027 30.3018 127.99 30.1691 127.99Z" fill="white"/>
<rect x="39" y="4" width="106" height="166" rx="8" fill="#A0C7ED"/>
<rect x="38" y="3" width="106" height="166" rx="8" fill="#A0C7ED"/>
<rect x="37" y="2" width="106" height="166" rx="8" fill="#B7DAFC"/>
<g filter="url(#filter0_i_1149_8511)">
<circle cx="90.5" cy="157.5" r="6.5" fill="white"/>
</g>
<circle cx="103.5" cy="7.5" r="1.5" fill="white"/>
<rect x="74" y="6" width="24" height="3" rx="1.5" fill="white"/>
<rect x="44" y="13" width="92" height="135" rx="4" fill="white"/>
<path d="M66 53.539L70.365 58.168C81.207 46.663 98.793 46.663 109.635 58.168L114 53.539C100.755 39.487 79.266 39.487 66 53.539ZM83.454 72.055L90 79L96.546 72.055C92.946 68.215 87.075 68.215 83.454 72.055ZM74.73 62.8L79.095 67.429C85.116 61.039 94.89 61.039 100.911 67.429L105.273 62.8C96.852 53.866 83.172 53.866 74.727 62.8H74.73Z" fill="#5CB2FF"/>
<rect x="54" y="106" width="64" height="6" rx="1" fill="url(#paint0_linear_1149_8511)"/>
<rect x="54" y="124" width="72" height="6" rx="1" fill="url(#paint1_linear_1149_8511)"/>
<circle cx="152.706" cy="91.1471" r="27.2941" fill="#FFEA83"/>
<circle cx="149.294" cy="90.2941" r="27.2941" fill="#FFDA28"/>
<path d="M135.67 95.1853C135.67 91.8002 138.422 89.0481 141.808 89.0481L156.971 89.0481C159.006 89.0481 160.666 87.3889 160.666 85.3532C160.666 83.3174 159.006 81.6582 156.971 81.6582L139.712 81.6582C139.035 81.6582 138.489 81.1118 138.489 80.4354C138.489 79.7591 139.035 79.2126 139.712 79.2126L156.971 79.2126C160.356 79.2126 163.108 81.9647 163.108 85.3498C163.108 88.7349 160.356 91.4903 156.971 91.4903L141.808 91.4903C139.772 91.4903 138.113 93.1496 138.113 95.1853C138.113 97.221 139.772 98.8803 141.808 98.8803L159.033 98.8803C159.709 98.8803 160.256 99.4267 160.256 100.103C160.256 100.779 159.709 101.326 159.033 101.326L141.808 101.326C138.426 101.322 135.67 98.5704 135.67 95.1853Z" fill="white"/>
<path d="M157.64 102.832L157.64 97.3709C157.64 96.8078 157.98 96.2981 158.503 96.0815C158.759 95.9756 159.04 95.9479 159.311 96.0019C159.582 96.0559 159.831 96.1891 160.026 96.3847L162.758 99.1168C163.021 99.38 163.168 99.7332 163.168 100.103C163.168 100.473 163.021 100.829 162.758 101.089L160.026 103.818C159.626 104.218 159.026 104.338 158.503 104.121C157.98 103.905 157.64 103.398 157.64 102.832ZM135.587 80.4354C135.587 80.0655 135.734 79.709 135.997 79.4491L138.729 76.7171C139.129 76.3172 139.729 76.1973 140.252 76.4139C140.775 76.6304 141.115 77.1402 141.115 77.7033L141.115 83.1641C141.115 83.7272 140.775 84.2369 140.252 84.4535C139.729 84.6701 139.129 84.5501 138.729 84.1503L135.997 81.4216C135.734 81.1617 135.587 80.8085 135.587 80.4354Z" fill="white"/>
<defs>
<filter id="filter0_i_1149_8511" x="84" y="151" width="13" height="13" filterUnits="userSpaceOnUse" color-interpolation-filters="sRGB">
<feFlood flood-opacity="0" result="BackgroundImageFix"/>
<feBlend mode="normal" in="SourceGraphic" in2="BackgroundImageFix" result="shape"/>
<feColorMatrix in="SourceAlpha" type="matrix" values="0 0 0 0 0 0 0 0 0 0 0 0 0 0 0 0 0 0 127 0" result="hardAlpha"/>
<feOffset dx="-0.5" dy="-0.5"/>
<feComposite in2="hardAlpha" operator="arithmetic" k2="-1" k3="1"/>
<feColorMatrix type="matrix" values="0 0 0 0 0.682353 0 0 0 0 0.85098 0 0 0 0 1 0 0 0 1 0"/>
<feBlend mode="normal" in2="shape" result="effect1_innerShadow_1149_8511"/>
</filter>
<linearGradient id="paint0_linear_1149_8511" x1="118" y1="109" x2="54" y2="109" gradientUnits="userSpaceOnUse">
<stop stop-color="#4971FF" stop-opacity="0.5"/>
<stop offset="1" stop-color="#1BC8FF" stop-opacity="0.5"/>
</linearGradient>
<linearGradient id="paint1_linear_1149_8511" x1="126" y1="127" x2="54" y2="127" gradientUnits="userSpaceOnUse">
<stop stop-color="#4971FF" stop-opacity="0.5"/>
<stop offset="1" stop-color="#1BC8FF" stop-opacity="0.5"/>
</linearGradient>
</defs>
</svg>
