<svg width="180" height="180" viewBox="0 0 180 180" fill="none" xmlns="http://www.w3.org/2000/svg">
<circle r="4" transform="matrix(1 0 0 -1 166 162)" fill="#0C83F2" fill-opacity="0.08"/>
<circle r="2" transform="matrix(1 0 0 -1 15 31)" fill="#0C83F2" fill-opacity="0.08"/>
<circle r="4" transform="matrix(1 0 0 -1 4 42)" fill="#0C83F2" fill-opacity="0.08"/>
<circle r="5" transform="matrix(1 0 0 -1 20 16)" fill="#0C83F2" fill-opacity="0.08"/>
<circle r="2" transform="matrix(1 0 0 -1 173 150)" fill="#0C83F2" fill-opacity="0.08"/>
<circle r="2" transform="matrix(1 0 0 -1 23 167)" fill="#0C83F2" fill-opacity="0.08"/>
<circle r="2" transform="matrix(1 0 0 -1 167 35)" fill="#0C83F2" fill-opacity="0.08"/>
<circle cx="90" cy="90" r="90" fill="#0C83F2" fill-opacity="0.08"/>
<circle cx="91.5" cy="89.5" r="26.5" stroke="#FFDA28" stroke-opacity="0.3" stroke-width="40"/>
<circle cx="91" cy="90" r="28" stroke="#FFDA28" stroke-opacity="0.3" stroke-width="4"/>
<mask id="mask0_1149_8510" style="mask-type:alpha" maskUnits="userSpaceOnUse" x="0" y="55" width="180" height="69">
<rect y="55.8262" width="180" height="67.6174" fill="black"/>
</mask>
<g mask="url(#mask0_1149_8510)">
<circle cx="91.5" cy="89.5" r="76.5" stroke="#FFDA28" stroke-opacity="0.3" stroke-width="4"/>
</g>
<mask id="mask1_1149_8510" style="mask-type:alpha" maskUnits="userSpaceOnUse" x="0" y="55" width="180" height="69">
<rect y="55.8262" width="180" height="67.6174" fill="black"/>
</mask>
<g mask="url(#mask1_1149_8510)">
<circle cx="91" cy="90" r="58" stroke="#FFDA28" stroke-opacity="0.3" stroke-width="10"/>
</g>
<rect x="39" y="4" width="106" height="166" rx="8" fill="#A0C7ED"/>
<rect x="38" y="3" width="106" height="166" rx="8" fill="#A0C7ED"/>
<rect x="37" y="2" width="106" height="166" rx="8" fill="#B7DAFC"/>
<g filter="url(#filter0_i_1149_8510)">
<circle cx="90.5" cy="157.5" r="6.5" fill="white"/>
</g>
<circle cx="103.5" cy="7.5" r="1.5" fill="white"/>
<rect x="74" y="6" width="24" height="3" rx="1.5" fill="white"/>
<rect x="44" y="13" width="92" height="135" rx="4" fill="white"/>
<circle cx="108.5" cy="43.5" r="0.5" fill="#FFDA28"/>
<circle cx="107.5" cy="75.5" r="0.5" fill="#FFDA28"/>
<circle cx="68" cy="69" r="1" fill="#FFDA28"/>
<path d="M110.5 48L110.818 49.1818L112 49.5L110.818 49.8182L110.5 51L110.182 49.8182L109 49.5L110.182 49.1818L110.5 48Z" fill="#FFDA28"/>
<path d="M70.5 74L70.8182 75.1818L72 75.5L70.8182 75.8182L70.5 77L70.1818 75.8182L69 75.5L70.1818 75.1818L70.5 74Z" fill="#FFDA28"/>
<path fill-rule="evenodd" clip-rule="evenodd" d="M103.903 41.5676L106.605 44.8351C107.17 45.4976 107.5 46.3726 107.5 47.3051V71.6101C107.5 73.7501 105.75 75.5001 103.613 75.5001H76.39C74.25 75.5001 72.5 73.7501 72.5 71.6101V47.3051C72.4959 46.4017 72.8131 45.5262 73.395 44.8351L76.0775 41.5701C76.6225 40.9076 77.42 40.5001 78.3325 40.5001H101.668C102.097 40.4966 102.521 40.5909 102.908 40.7758C103.296 40.9608 103.636 41.2316 103.903 41.5676ZM77.8825 41.8451L76.5375 44.5376H103.458L102.113 41.8451H77.8825ZM90.4813 65.2L101 54.8L98.1125 52L87.5938 62.4L81.8875 56.7333L79 59.5333L87.5938 68L90.4813 65.2Z" fill="#22E0D5"/>
<rect x="54" y="106" width="64" height="6" rx="1" fill="#5CB2FF"/>
<rect x="54" y="124" width="72" height="6" rx="1" fill="#5CB2FF"/>
<defs>
<filter id="filter0_i_1149_8510" x="84" y="151" width="13" height="13" filterUnits="userSpaceOnUse" color-interpolation-filters="sRGB">
<feFlood flood-opacity="0" result="BackgroundImageFix"/>
<feBlend mode="normal" in="SourceGraphic" in2="BackgroundImageFix" result="shape"/>
<feColorMatrix in="SourceAlpha" type="matrix" values="0 0 0 0 0 0 0 0 0 0 0 0 0 0 0 0 0 0 127 0" result="hardAlpha"/>
<feOffset dx="-0.5" dy="-0.5"/>
<feComposite in2="hardAlpha" operator="arithmetic" k2="-1" k3="1"/>
<feColorMatrix type="matrix" values="0 0 0 0 0.682353 0 0 0 0 0.85098 0 0 0 0 1 0 0 0 1 0"/>
<feBlend mode="normal" in2="shape" result="effect1_innerShadow_1149_8510"/>
</filter>
</defs>
</svg>
