<svg width="128" height="120" viewBox="0 0 128 120" fill="none" xmlns="http://www.w3.org/2000/svg">
<path fill-rule="evenodd" clip-rule="evenodd" d="M50.3601 98.9129C46.5613 98.37 43.3225 95.3481 41.9411 91.0579L33.3202 64.2826L21.1814 81.3002C17.4647 86.5108 10.9393 87.1114 6.60658 82.6417C2.27383 78.1719 1.77444 70.3245 5.49115 65.1139L28.8766 32.3293C31.2434 29.0112 34.8855 27.4322 38.4683 28.1709C42.0512 28.9097 45.0479 31.8574 46.3605 35.9341L54.1829 60.2291L73.705 26.3504C75.8702 22.593 79.5756 20.568 83.3532 21.0777C87.1307 21.5875 90.3708 24.5496 91.7897 28.7907L98.8591 49.9211L107.929 37.6156C111.715 32.4782 118.248 32.0049 122.52 36.5585C126.792 41.1121 127.185 48.9683 123.399 54.1057L103.243 81.4521C100.868 84.675 97.2746 86.1896 93.7459 85.4553C90.2172 84.7209 87.256 81.8423 85.9193 77.8468L79.7711 59.4699L60.0755 93.6496C57.8965 97.431 54.159 99.4558 50.3601 98.9129Z" fill="url(#paint0_linear_2193_16021)"/>
<rect x="14" y="29" width="100" height="62" rx="2" fill="#414977" stroke="#1A272E" stroke-width="4"/>
<path d="M41 50.5C41 55.7467 36.5228 60 31 60C25.4772 60 21 55.7467 21 50.5C21 45.2533 25.4772 41 31 41C31.6485 41 32.2825 41.0586 32.8966 41.1706L31 50.5L40.8519 48.8621C40.9493 49.3942 41 49.9415 41 50.5Z" fill="#FFEA83"/>
<path d="M30 50L33.9672 40C37.3033 41.1265 39.9183 43.6329 41 46.7698L30 50Z" fill="#91F0EA"/>
<path d="M103.5 68C104.328 68 105 68.6716 105 69.5V69.5C105 70.3284 104.328 71 103.5 71L23 71L23 68L103.5 68Z" fill="#C8D7FF"/>
<path d="M103.5 77C104.328 77 105 77.6716 105 78.5V78.5C105 79.3284 104.328 80 103.5 80L23 80L23 77L103.5 77Z" fill="#C8D7FF"/>
<path d="M79 68L79 71L23 71L23 68L79 68Z" fill="url(#paint1_linear_2193_16021)"/>
<path d="M53 77L53 80L23 80L23 77L53 77Z" fill="url(#paint2_linear_2193_16021)"/>
<path d="M107 58H47C49.1569 55.561 51.3137 52.9187 56.0196 49.8699C60.2815 47.1088 62.8824 50.0732 68.9608 49.8699C75.0392 49.6667 75.4314 42.5528 81.902 41.1301C87.7843 39.8367 92.8824 47.2276 96.2157 41.7398C99.9431 35.6032 104.32 33.3388 107 33V58Z" fill="white" fill-opacity="0.5"/>
<path d="M107 58H47C49.1569 55.561 51.3137 52.9187 56.0196 49.8699C60.2815 47.1088 62.8824 50.0732 68.9608 49.8699C75.0392 49.6667 75.4314 42.5528 81.902 41.1301C87.7843 39.8367 92.8824 47.2276 96.2157 41.7398C99.9431 35.6032 104.32 33.3388 107 33V58Z" fill="url(#paint3_linear_2193_16021)"/>
<path d="M124 88.7252C124 95.5074 119.123 100.895 113.071 101C113.012 101 112.953 101 112.895 101H80.2251C80.1663 101 80.1075 101 80.0488 101C75.3599 100.882 71 95.9887 71 89.9805C71 83.8935 75.4539 78.961 80.2251 78.961C80.7069 78.961 81.1887 79.0135 81.647 79.1184C82.8692 77.3474 84.7729 76.2061 86.9235 76.2061C87.0645 76.2061 87.2055 76.2061 87.3348 76.2192C89.5676 71.9688 93.7042 69 98.4401 69C103.352 69 107.618 72.1919 109.78 76.7046C110.768 76.3766 111.814 76.2061 112.895 76.2061C119.029 76.2061 124 81.8774 124 88.7252Z" fill="#91F0EA"/>
<path d="M124 85.3416C124 92.3358 119.123 97.8918 113.071 98C113.012 98 112.953 98 112.895 98H80.2251C80.1663 98 80.1075 98 80.0488 98C75.3599 97.8782 71 92.8321 71 86.6361C71 80.3589 75.4539 75.2723 80.2251 75.2723C80.7069 75.2723 81.1887 75.3264 81.647 75.4346C82.8692 73.6083 84.7729 72.4313 86.9235 72.4313C87.0645 72.4313 87.2055 72.4313 87.3348 72.4448C89.5676 68.0616 93.7042 65 98.4401 65C103.352 65 107.618 68.2916 109.78 72.9454C110.768 72.6072 111.814 72.4313 112.895 72.4313C119.029 72.4313 124 78.2798 124 85.3416Z" fill="#22E0D5"/>
<rect x="87" y="77" width="2" height="15" rx="1" fill="white" fill-opacity="0.5"/>
<rect x="93" y="77" width="2" height="15" rx="1" fill="white" fill-opacity="0.5"/>
<rect x="100" y="77" width="2" height="15" rx="1" fill="white" fill-opacity="0.5"/>
<rect x="106" y="77" width="2" height="15" rx="1" fill="white" fill-opacity="0.5"/>
<rect x="87" y="80" width="2" height="12" rx="1" fill="white"/>
<rect x="93" y="79" width="2" height="13" rx="1" fill="white"/>
<rect x="100" y="81" width="2" height="11" rx="1" fill="white"/>
<rect x="106" y="80" width="2" height="12" rx="1" fill="white"/>
<defs>
<linearGradient id="paint0_linear_2193_16021" x1="18.1828" y1="21.0001" x2="117.858" y2="17.5142" gradientUnits="userSpaceOnUse">
<stop stop-color="#3CC0FF" stop-opacity="0.2"/>
<stop offset="1" stop-color="#75FFE6" stop-opacity="0.2"/>
</linearGradient>
<linearGradient id="paint1_linear_2193_16021" x1="79" y1="69.5" x2="23" y2="69.5" gradientUnits="userSpaceOnUse">
<stop stop-color="#4971FF" stop-opacity="0.7"/>
<stop offset="1" stop-color="#1BC8FF" stop-opacity="0.7"/>
</linearGradient>
<linearGradient id="paint2_linear_2193_16021" x1="53" y1="78.5" x2="23" y2="78.5" gradientUnits="userSpaceOnUse">
<stop stop-color="#4971FF" stop-opacity="0.7"/>
<stop offset="1" stop-color="#1BC8FF" stop-opacity="0.7"/>
</linearGradient>
<linearGradient id="paint3_linear_2193_16021" x1="99.5938" y1="58" x2="51.0496" y2="60.5838" gradientUnits="userSpaceOnUse">
<stop stop-color="#3CC0FF" stop-opacity="0.3"/>
<stop offset="1" stop-color="#75FFE6" stop-opacity="0.3"/>
</linearGradient>
</defs>
</svg>
