<svg width="480" height="320" viewBox="0 0 480 320" fill="none" xmlns="http://www.w3.org/2000/svg">
<circle cx="400" cy="80" r="45" fill="#FCE679" fill-opacity="0.2"/>
<circle cx="400" cy="80" r="35" fill="#FCE679" fill-opacity="0.2"/>
<circle cx="400" cy="80" r="26" fill="#FFDA28"/>
<path fill-rule="evenodd" clip-rule="evenodd" d="M204 29.5C204 28.3954 204.895 27.5 206 27.5H263C264.105 27.5 265 28.3954 265 29.5V74.5C265 75.6046 265.895 76.5 267 76.5H292.5V84.5H259C257.895 84.5 257 83.6046 257 82.5V37.5C257 36.3954 256.105 35.5 255 35.5H214C212.895 35.5 212 36.3954 212 37.5V109C212 110.105 211.105 111 210 111H174V103H202C203.105 103 204 102.105 204 101V29.5Z" fill="white" stroke="#1A272E" stroke-opacity="0.6"/>
<rect y="312" width="480" height="6" rx="3" fill="#0C83F2"/>
<rect x="345" y="166" width="30" height="25" fill="#CEE6FC"/>
<rect x="405" y="166" width="30" height="25" fill="#CEE6FC"/>
<rect x="375" y="191" width="30" height="25" fill="#CEE6FC"/>
<rect x="435" y="191" width="30" height="25" fill="#CEE6FC"/>
<rect x="345" y="216" width="30" height="25" fill="#CEE6FC"/>
<rect x="405" y="216" width="30" height="25" fill="#CEE6FC"/>
<rect x="345.5" y="166.5" width="119" height="74" stroke="#1A272E"/>
<path d="M205.008 205.419L209.653 205.419L211.662 270.827L202.999 270.827L205.008 205.419Z" fill="#F5FAFF"/>
<path d="M203.515 270.327L205.493 205.919L209.168 205.919L211.146 270.327L203.515 270.327Z" stroke="#1A272E" stroke-opacity="0.6"/>
<path d="M231.716 233.059C230.664 234.01 229.049 233.964 228.053 232.954L209.198 213.84C207.672 212.293 207.744 209.786 209.356 208.328V208.328C210.968 206.871 213.469 207.051 214.855 208.725L231.98 229.403C232.885 230.496 232.768 232.107 231.716 233.059V233.059Z" fill="#49A2F6"/>
<path d="M228.409 232.603L209.554 213.489C208.228 212.144 208.291 209.966 209.691 208.699C211.092 207.433 213.266 207.59 214.47 209.044L231.595 229.722C232.329 230.609 232.235 231.916 231.381 232.688C230.527 233.46 229.217 233.422 228.409 232.603Z" stroke="#1A272E" stroke-opacity="0.6"/>
<path d="M172.898 214.085C172.598 212.687 173.451 211.301 174.835 210.94L200.817 204.161C202.936 203.608 205.088 204.933 205.548 207.074V207.074C206.008 209.215 204.59 211.307 202.431 211.673L175.955 216.158C174.546 216.397 173.198 215.483 172.898 214.085V214.085Z" fill="#49A2F6"/>
<path d="M174.961 211.424L200.944 204.645C202.787 204.164 204.659 205.317 205.059 207.179C205.459 209.042 204.225 210.862 202.347 211.18L175.872 215.665C174.726 215.859 173.631 215.116 173.387 213.98C173.143 212.844 173.837 211.717 174.961 211.424Z" stroke="#1A272E" stroke-opacity="0.6"/>
<path d="M218.75 172.674C220.1 173.109 220.868 174.531 220.491 175.898L213.365 201.784C212.789 203.879 210.582 205.071 208.513 204.403V204.403C206.445 203.736 205.351 201.48 206.107 199.442L215.453 174.273C215.947 172.943 217.4 172.238 218.75 172.674V172.674Z" fill="#49A2F6"/>
<path d="M220.009 175.766L212.883 201.651C212.382 203.472 210.464 204.507 208.667 203.928C206.87 203.348 205.919 201.387 206.576 199.616L215.922 174.447C216.322 173.368 217.502 172.796 218.597 173.15C219.692 173.503 220.315 174.656 220.009 175.766Z" stroke="#1A272E" stroke-opacity="0.6"/>
<circle cx="207.559" cy="207.094" r="5.90056" transform="rotate(17.881 207.559 207.094)" fill="#F5FAFF"/>
<circle cx="207.559" cy="207.094" r="5.40056" transform="rotate(17.881 207.559 207.094)" stroke="#1A272E" stroke-opacity="0.6"/>
<path d="M331.008 227.419H335.653L337.661 292.827H328.999L331.008 227.419Z" fill="#F5FAFF"/>
<path d="M329.515 292.327L331.493 227.919H335.168L337.146 292.327H329.515Z" stroke="#1A272E" stroke-opacity="0.6"/>
<path d="M323.349 290.564H343.185C343.6 290.564 343.967 290.764 344.196 291.073H322.339C322.568 290.764 322.935 290.564 323.349 290.564Z" fill="url(#paint0_linear_1141_6690)" stroke="#666666" stroke-width="1.5"/>
<path d="M319.081 292.322H347.454C348.861 292.322 350.043 293.285 350.376 294.588H316.159C316.492 293.285 317.674 292.322 319.081 292.322Z" fill="url(#paint1_linear_1141_6690)" stroke="#666666" stroke-width="1.5"/>
<path d="M366.929 233.522C366.561 234.893 365.18 235.73 363.795 235.423L337.584 229.607C335.463 229.137 334.162 226.992 334.724 224.893V224.893C335.287 222.794 337.486 221.588 339.558 222.241L365.166 230.31C366.519 230.736 367.296 232.152 366.929 233.522V233.522Z" fill="#FDF6CE"/>
<path d="M363.904 234.935L337.693 229.119C335.849 228.71 334.719 226.847 335.207 225.023C335.696 223.199 337.607 222.15 339.408 222.718L365.015 230.787C366.113 231.132 366.743 232.281 366.446 233.393C366.148 234.505 365.027 235.184 363.904 234.935Z" stroke="#1A272E" stroke-opacity="0.6"/>
<path d="M307.232 249.521C306.221 248.51 306.186 246.882 307.151 245.828L325.291 226.029C326.77 224.414 329.297 224.359 330.846 225.907V225.907C332.394 227.456 332.339 229.983 330.724 231.462L310.925 249.602C309.871 250.567 308.243 250.532 307.232 249.521V249.521Z" fill="#FDF6CE"/>
<path d="M307.52 246.166L325.66 226.367C326.947 224.962 329.145 224.914 330.492 226.261C331.839 227.608 331.791 229.806 330.387 231.093L310.587 249.233C309.73 250.018 308.407 249.989 307.586 249.167C306.764 248.346 306.735 247.023 307.52 246.166Z" stroke="#1A272E" stroke-opacity="0.6"/>
<path d="M323.257 189.85C324.627 189.483 326.043 190.261 326.47 191.613L334.539 217.221C335.192 219.293 333.985 221.492 331.886 222.055V222.055C329.787 222.617 327.643 221.316 327.172 219.195L321.356 192.984C321.049 191.599 321.887 190.218 323.257 189.85V189.85Z" fill="#FDF6CE"/>
<path d="M325.993 191.764L334.062 217.371C334.629 219.172 333.581 221.083 331.757 221.572C329.933 222.06 328.069 220.93 327.66 219.086L321.844 192.875C321.595 191.752 322.275 190.631 323.386 190.333C324.498 190.036 325.647 190.666 325.993 191.764Z" stroke="#1A272E" stroke-opacity="0.6"/>
<circle cx="332.545" cy="224.832" r="5.40056" transform="rotate(-15 332.545 224.832)" fill="url(#paint2_linear_1141_6690)" stroke="#666666"/>
<circle cx="332.545" cy="224.832" r="5.90056" transform="rotate(-15 332.545 224.832)" fill="#F5FAFF"/>
<circle cx="332.545" cy="224.832" r="5.40056" transform="rotate(-15 332.545 224.832)" stroke="#1A272E" stroke-opacity="0.6"/>
<path d="M274.02 188.327H279.492L281.859 265.38H271.654L274.02 188.327Z" fill="#F5FAFF"/>
<path d="M272.17 264.88L274.505 188.827H279.008L281.343 264.88H272.17Z" stroke="#1A272E" stroke-opacity="0.6"/>
<path d="M313.158 203.076C312.323 204.523 310.495 205.055 309.013 204.283L280.961 189.674C278.691 188.491 277.864 185.655 279.144 183.438V183.438C280.424 181.221 283.294 180.518 285.453 181.893L312.132 198.882C313.541 199.78 313.994 201.629 313.158 203.076V203.076Z" fill="#CEE6FC"/>
<path d="M309.244 203.84L281.192 189.23C279.174 188.179 278.44 185.658 279.577 183.688C280.715 181.717 283.266 181.093 285.185 182.315L311.863 199.304C313.047 200.058 313.427 201.61 312.725 202.826C312.023 204.041 310.489 204.488 309.244 203.84Z" stroke="#1A272E" stroke-opacity="0.6"/>
<path d="M240.352 203.079C239.51 201.621 239.966 199.758 241.386 198.852L268.064 181.854C270.239 180.467 273.132 181.175 274.421 183.409V183.409C275.711 185.643 274.878 188.502 272.59 189.693L244.529 204.297C243.035 205.074 241.194 204.538 240.352 203.079V203.079Z" fill="#CEE6FC"/>
<path d="M241.655 199.274L268.333 182.275C270.268 181.042 272.841 181.672 273.988 183.659C275.136 185.646 274.395 188.19 272.359 189.249L244.299 203.853C243.042 204.507 241.493 204.056 240.785 202.829C240.077 201.602 240.46 200.035 241.655 199.274Z" stroke="#1A272E" stroke-opacity="0.6"/>
<path d="M276.78 140.067C278.451 140.067 279.826 141.383 279.898 143.052L281.272 174.651C281.383 177.209 279.34 179.343 276.78 179.343V179.343C274.22 179.343 272.177 177.209 272.288 174.651L273.662 143.052C273.734 141.383 275.109 140.067 276.78 140.067V140.067Z" fill="#CEE6FC"/>
<path d="M279.399 143.074L280.773 174.673C280.871 176.946 279.055 178.843 276.78 178.843C274.505 178.843 272.689 176.946 272.788 174.673L274.161 143.074C274.222 141.672 275.377 140.567 276.78 140.567C278.183 140.567 279.338 141.672 279.399 143.074Z" stroke="#1A272E" stroke-opacity="0.6"/>
<circle cx="276.682" cy="182.706" r="6.95106" fill="#F5FAFF"/>
<circle cx="276.682" cy="182.706" r="6.45106" stroke="#1A272E" stroke-opacity="0.6"/>
<rect x="105" y="218" width="20" height="73" fill="white"/>
<rect x="105.5" y="218.5" width="19" height="72" stroke="#1A272E" stroke-opacity="0.6"/>
<rect x="151" y="254" width="10" height="73" transform="rotate(90 151 254)" fill="white"/>
<rect x="150.5" y="254.5" width="9" height="72" transform="rotate(90 150.5 254.5)" stroke="#1A272E" stroke-opacity="0.6"/>
<path d="M154 189.979C154 209.873 136.539 226 115 226C93.4609 226 76 209.873 76 189.979C91 193 93.4609 191.5 115 191.5C136.539 191.5 140 193 154 189.979Z" fill="#86C1F9"/>
<path d="M129.926 192.234C139.248 192.486 143.945 192.613 153.494 190.598C153.136 209.895 136.076 225.5 115 225.5C93.9208 225.5 76.8588 209.89 76.5056 190.59C86.7179 192.609 91.1259 192.487 100.194 192.236C104.03 192.129 108.702 192 115 192C121.264 192 126.005 192.128 129.926 192.234Z" stroke="#1A272E" stroke-opacity="0.6"/>
<path d="M190 100C190 131.91 170 156.5 150.5 167C143 171.038 145 190.5 145 190.5H85C85 190.5 85 171.183 77.5 167C51.5 152.5 40 131.91 40 100C40 58.5786 73.5786 25 115 25C156.421 25 190 58.5786 190 100Z" fill="#FFEA83"/>
<path d="M144.454 190H85.4935C85.4915 189.897 85.4888 189.78 85.4852 189.648C85.4704 189.107 85.4408 188.33 85.3818 187.385C85.2639 185.497 85.0279 182.932 84.555 180.232C84.0827 177.536 83.3708 174.686 82.2937 172.235C81.2205 169.794 79.7569 167.686 77.7435 166.563C64.8064 159.348 55.5071 150.636 49.4364 139.785C43.3641 128.93 40.5 115.895 40.5 100C40.5 58.8548 73.8548 25.5 115 25.5C156.145 25.5 189.5 58.8548 189.5 100C189.5 131.698 169.628 156.133 150.263 166.56C148.231 167.654 146.892 169.762 146.006 172.205C145.118 174.657 144.66 177.517 144.439 180.224C144.218 182.935 144.234 185.514 144.305 187.415C144.34 188.365 144.39 189.148 144.43 189.693C144.438 189.806 144.446 189.908 144.454 190Z" stroke="#1A272E" stroke-opacity="0.6"/>
<rect x="74" y="186" width="82" height="8" rx="4" fill="#CEE6FC"/>
<rect x="74.5" y="186.5" width="81" height="7" rx="3.5" stroke="#1A272E" stroke-opacity="0.6"/>
<rect x="74" y="193" width="82" height="8" rx="4" fill="#86C1F9"/>
<rect x="74.5" y="193.5" width="81" height="7" rx="3.5" stroke="#1A272E" stroke-opacity="0.6"/>
<rect x="74" y="200" width="82" height="8" rx="4" fill="#CEE6FC"/>
<rect x="74.5" y="200.5" width="81" height="7" rx="3.5" stroke="#1A272E" stroke-opacity="0.6"/>
<path d="M113.033 138.667C112.647 138.666 112.263 138.599 111.9 138.467C111.199 138.21 110.605 137.726 110.212 137.091C109.819 136.456 109.651 135.708 109.733 134.967L112.3 111.333H92.6667C92.0611 111.334 91.4667 111.17 90.9474 110.859C90.428 110.547 90.0033 110.1 89.7189 109.566C89.4345 109.031 89.301 108.429 89.3329 107.824C89.3648 107.22 89.5609 106.635 89.9 106.133L116.2 66.8C116.616 66.1845 117.226 65.7255 117.932 65.496C118.639 65.2665 119.402 65.2797 120.1 65.5333C120.771 65.7825 121.344 66.2413 121.735 66.8416C122.125 67.442 122.311 68.152 122.267 68.8667L119.7 92.6667H139.333C139.939 92.6658 140.533 92.8298 141.053 93.1412C141.572 93.4527 141.997 93.8997 142.281 94.4343C142.566 94.9689 142.699 95.5709 142.667 96.1756C142.635 96.7804 142.439 97.365 142.1 97.8667L115.8 137.2C115.494 137.652 115.082 138.023 114.6 138.278C114.117 138.534 113.579 138.667 113.033 138.667Z" fill="white"/>
<path d="M113.034 138.167H113.034C112.706 138.166 112.38 138.109 112.072 137.997C111.476 137.779 110.971 137.367 110.637 136.828C110.303 136.288 110.16 135.653 110.23 135.022L110.23 135.021L112.797 111.387L112.857 110.833H112.3H92.6667H92.6659C92.1512 110.834 91.646 110.695 91.2045 110.43C90.7631 110.165 90.4021 109.785 90.1603 109.331C89.9185 108.876 89.8051 108.365 89.8322 107.851C89.8594 107.337 90.026 106.84 90.3143 106.413L90.3156 106.411L116.614 67.0799C116.614 67.0797 116.615 67.0794 116.615 67.0791C116.968 66.5563 117.486 66.1665 118.087 65.9716C118.687 65.7767 119.335 65.7877 119.928 66.0027C120.497 66.2146 120.984 66.6043 121.315 67.1141C121.645 67.6214 121.804 68.2209 121.768 68.8247L119.203 92.6131L119.143 93.1667H119.7H139.333H139.334C139.849 93.1659 140.354 93.3053 140.795 93.5701C141.237 93.8348 141.598 94.2147 141.84 94.6692C142.081 95.1236 142.195 95.6353 142.168 96.1493C142.141 96.6633 141.974 97.1602 141.686 97.5867L141.684 97.5887L115.386 136.92C115.386 136.92 115.385 136.92 115.385 136.921C115.125 137.305 114.775 137.619 114.365 137.837C113.955 138.054 113.498 138.167 113.034 138.167Z" stroke="#1A272E" stroke-opacity="0.6"/>
<rect x="321" y="73" width="8" height="4" fill="#86C1F9"/>
<rect x="320.5" y="72.5" width="9" height="5" stroke="#1A272E" stroke-opacity="0.6"/>
<rect x="321" y="83" width="8" height="4" fill="#86C1F9"/>
<rect x="320.5" y="82.5" width="9" height="5" stroke="#1A272E" stroke-opacity="0.6"/>
<mask id="path-66-inside-1_1141_6690" fill="white">
<path fill-rule="evenodd" clip-rule="evenodd" d="M301.5 65H321C322.105 65 323 65.8954 323 67V93C323 94.1046 322.105 95 321 95H301.5H301V94.9912C293.223 94.7186 287 88.1112 287 80C287 71.8888 293.223 65.2814 301 65.0088V65H301.5Z"/>
</mask>
<path fill-rule="evenodd" clip-rule="evenodd" d="M301.5 65H321C322.105 65 323 65.8954 323 67V93C323 94.1046 322.105 95 321 95H301.5H301V94.9912C293.223 94.7186 287 88.1112 287 80C287 71.8888 293.223 65.2814 301 65.0088V65H301.5Z" fill="#CEE6FC"/>
<path d="M301 95H300V96H301V95ZM301 94.9912H302V94.0257L301.035 93.9919L301 94.9912ZM301 65.0088L301.035 66.0081L302 65.9743V65.0088H301ZM301 65V64H300V65H301ZM301.5 66H321V64H301.5V66ZM321 66C321.552 66 322 66.4477 322 67H324C324 65.3431 322.657 64 321 64V66ZM322 67V93H324V67H322ZM322 93C322 93.5523 321.552 94 321 94V96C322.657 96 324 94.6569 324 93H322ZM321 94H301.5V96H321V94ZM301.5 94H301V96H301.5V94ZM302 95V94.9912H300V95H302ZM301.035 93.9919C293.825 93.7391 288 87.6012 288 80H286C286 88.6211 292.622 95.6982 300.965 95.9906L301.035 93.9919ZM288 80C288 72.3988 293.825 66.2609 301.035 66.0081L300.965 64.0094C292.622 64.3018 286 71.3789 286 80H288ZM302 65.0088V65H300V65.0088H302ZM301 66H301.5V64H301V66Z" fill="#1A272E" fill-opacity="0.6" mask="url(#path-66-inside-1_1141_6690)"/>
<path d="M225.255 234C206.01 234 127.066 288.721 90 312H459C439.483 294.465 394.55 254.86 385.472 254.86C374.125 254.86 361.417 268.919 345.077 268.919C319.156 268.919 311.037 244.884 295.605 244.884C285.546 244.884 284.258 251.233 270.642 251.233C257.026 251.233 249.31 234 225.255 234Z" fill="#86C1F9" stroke="#1A272E" stroke-opacity="0.6"/>
<path d="M192.255 242C173.01 242 94.0664 288.667 57 312H426C406.483 294.424 361.55 262.909 352.472 262.909C341.125 262.909 328.417 277 312.077 277C286.156 277 278.037 252.909 262.605 252.909C252.546 252.909 251.258 259.273 237.642 259.273C224.026 259.273 216.31 242 192.255 242Z" fill="#CEE6FC" stroke="#1A272E" stroke-opacity="0.6"/>
<path d="M83.1172 229.382C97.047 237.424 103.799 247.988 97.5458 258.819C91.0518 270.067 78.7677 269.085 64.8379 261.042C50.908 253 43.3585 238.088 42.1396 226.83C52.3252 221.602 69.1873 221.339 83.1172 229.382Z" fill="#49A2F6"/>
<path d="M82.8672 229.815C89.7911 233.812 94.8723 238.405 97.4583 243.288C100.028 248.142 100.151 253.307 97.1128 258.569C93.9522 264.043 89.4159 266.514 83.9665 266.665C78.4759 266.816 72.0178 264.61 65.0879 260.609C51.4536 252.738 43.9945 238.197 42.6758 227.12C52.7314 222.125 69.2147 221.932 82.8672 229.815Z" stroke="#1A272E" stroke-opacity="0.6"/>
<path d="M52.1968 232.26L96.5783 257.883" stroke="white"/>
<path d="M66.2147 230.176L72.7133 243.728" stroke="white"/>
<path d="M84.0238 240.458L90.5224 254.01" stroke="white"/>
<path d="M64.4686 249.522L79.454 248.374" stroke="white"/>
<path d="M146.568 229.382C132.638 237.424 125.886 247.988 132.14 258.819C138.634 270.067 150.918 269.085 164.848 261.042C178.777 253 186.327 238.088 187.546 226.83C177.36 221.602 160.498 221.339 146.568 229.382Z" fill="#49A2F6"/>
<path d="M146.818 229.815C139.894 233.812 134.813 238.405 132.227 243.288C129.657 248.142 129.535 253.307 132.573 258.569C135.733 264.043 140.27 266.514 145.719 266.665C151.21 266.816 157.668 264.61 164.598 260.609C178.232 252.737 185.691 238.197 187.01 227.12C176.954 222.125 160.471 221.932 146.818 229.815Z" stroke="#1A272E" stroke-opacity="0.6"/>
<path d="M177.489 232.26L133.107 257.883" stroke="white"/>
<path d="M163.471 230.176L156.972 243.728" stroke="white"/>
<path d="M145.662 240.458L139.163 254.01" stroke="white"/>
<path d="M165.217 249.522L150.231 248.374" stroke="white"/>
<rect x="22" y="297" width="4" height="15" fill="#86C1F9"/>
<rect x="39" y="297" width="3" height="15" fill="#86C1F9"/>
<ellipse cx="41" cy="293" rx="10" ry="14" fill="#CEE6FC"/>
<path d="M36 289.134C36 299.694 32.2105 307 24 307C15.4737 307 12 299.694 12 289.134C12 278.575 18 269.388 24 265C30.3158 269.075 36 278.575 36 289.134Z" fill="#CEE6FC"/>
<rect x="440" y="295" width="5" height="16" fill="#0C83F2" fill-opacity="0.5"/>
<path d="M453.834 282.972C455.188 285.192 456 287.799 456 290.629C456 298.564 449.718 305 441.973 305C434.228 305 428 298.564 428 290.629C428 287.799 428.812 285.192 430.166 282.972C428.812 280.753 428 278.145 428 275.315C428 267.436 434.228 261 441.973 261C449.718 261 456 267.436 456 275.371C456 278.145 455.188 280.753 453.834 282.972Z" fill="#CEE6FC"/>
<rect x="261" y="297" width="4" height="15" fill="#86C1F9"/>
<rect x="285" y="297" width="3" height="15" fill="#86C1F9"/>
<ellipse cx="287" cy="293" rx="10" ry="14" fill="#B9DBFC"/>
<path d="M275 289.134C275 299.694 271.211 307 263 307C254.474 307 251 299.694 251 289.134C251 278.575 257 269.388 263 265C269.316 269.075 275 278.575 275 289.134Z" fill="#B9DBFC"/>
<defs>
<linearGradient id="paint0_linear_1141_6690" x1="321.341" y1="289.814" x2="339.502" y2="299.982" gradientUnits="userSpaceOnUse">
<stop stop-color="#6CB8F5"/>
<stop offset="1" stop-color="#D8ECF9"/>
</linearGradient>
<linearGradient id="paint1_linear_1141_6690" x1="315.315" y1="293.455" x2="345.959" y2="306.152" gradientUnits="userSpaceOnUse">
<stop stop-color="#6CB8F5"/>
<stop offset="1" stop-color="#D8ECF9"/>
</linearGradient>
<linearGradient id="paint2_linear_1141_6690" x1="327.588" y1="224.832" x2="333.663" y2="219.442" gradientUnits="userSpaceOnUse">
<stop stop-color="#98CAF2"/>
<stop offset="1" stop-color="#F6FBFF"/>
</linearGradient>
</defs>
</svg>
