<svg width="480" height="320" viewBox="0 0 480 320" fill="none" xmlns="http://www.w3.org/2000/svg">
<circle cx="161" cy="50" r="34" fill="#0C83F2" fill-opacity="0.04"/>
<path d="M176.838 55.4883C183.133 48.9618 181.903 37.1007 181.903 37.1007C181.903 37.1007 170.472 35.8248 164.182 42.3565C159.688 47.0191 159.035 54.3752 159.025 58.2134L158.919 58.3236L157.644 57.0005C157.639 54.0496 157.133 48.4 153.681 44.8243C148.849 39.81 140.074 40.7866 140.074 40.7866C140.074 40.7866 139.133 49.8964 143.96 54.9107C147.412 58.4916 152.857 59.0114 155.7 59.0219L156.976 60.3451L154.056 63.3747L156.586 66L159.506 62.9704L159.516 62.9809L161.459 60.9647L161.449 60.9542L161.555 60.8439C165.259 60.8334 172.349 60.1508 176.838 55.4883V55.4883Z" fill="#B7DAFC"/>
<circle cx="313.647" cy="67.1765" r="26.3529" fill="#FFEA83"/>
<circle cx="310.353" cy="66.3529" r="26.3529" fill="#FFDA28"/>
<path d="M300.489 54.7564L302.081 56.348C302.56 56.8266 302.56 57.6026 302.081 58.0811C302.081 58.0811 302.081 58.0811 302.081 58.0811M300.489 54.7564L300.419 58.0104C300.858 58.4499 301.571 58.4499 302.01 58.0104L302.081 58.0811M300.489 54.7564C300.011 54.2778 299.235 54.2778 298.756 54.7563C298.278 55.2349 298.278 56.0109 298.756 56.4895L300.348 58.0811M300.489 54.7564L300.348 58.0811M302.081 58.0811C301.603 58.5597 300.827 58.5597 300.348 58.0811M302.081 58.0811L300.348 58.0811M322.773 54.7563C323.252 55.2349 323.252 56.0109 322.773 56.4895L321.181 58.0811C320.703 58.5597 319.927 58.5597 319.448 58.0811M322.773 54.7563L319.448 58.0811M322.773 54.7563C322.294 54.2778 321.519 54.2778 321.04 54.7563L319.448 56.348C318.97 56.8266 318.97 57.6026 319.448 58.0811M322.773 54.7563L319.519 58.0104L319.448 58.0811M320.994 66.7647C320.994 61.1151 316.414 56.5353 310.765 56.5353C305.115 56.5353 300.535 61.1151 300.535 66.7647C300.535 72.4142 305.115 76.9941 310.765 76.9941C316.414 76.9941 320.994 72.4142 320.994 66.7647ZM311.99 80.2706C311.99 79.5937 311.442 79.0451 310.765 79.0451C310.088 79.0451 309.539 79.5937 309.539 80.2706V82.5215C309.539 83.1984 310.088 83.747 310.765 83.747C311.442 83.747 311.99 83.1984 311.99 82.5215V80.2706ZM302.081 77.1813C302.56 76.7028 302.56 75.9268 302.081 75.4482C301.603 74.9696 300.827 74.9696 300.348 75.4482L298.756 77.0399C298.278 77.5185 298.278 78.2944 298.756 78.773C299.235 79.2516 300.011 79.2516 300.489 78.773L302.081 77.1813ZM322.773 77.0399L321.181 75.4482C320.703 74.9696 319.927 74.9696 319.448 75.4482C318.97 75.9268 318.97 76.7028 319.448 77.1813L321.04 78.773C321.519 79.2516 322.294 79.2516 322.773 78.773C323.252 78.2944 323.252 77.5185 322.773 77.0399ZM298.484 66.7647C298.484 66.0879 297.936 65.5392 297.259 65.5392H295.008C294.331 65.5392 293.782 66.0879 293.782 66.7647C293.782 67.4415 294.331 67.9902 295.008 67.9902H297.259C297.936 67.9902 298.484 67.4415 298.484 66.7647ZM327.747 66.7647C327.747 66.0879 327.198 65.5392 326.522 65.5392H324.271C323.594 65.5392 323.045 66.0879 323.045 66.7647C323.045 67.4415 323.594 67.9902 324.271 67.9902H326.522C327.198 67.9902 327.747 67.4415 327.747 66.7647ZM311.99 51.0078C311.99 50.331 311.442 49.7823 310.765 49.7823C310.088 49.7823 309.539 50.331 309.539 51.0078V53.2588C309.539 53.9356 310.088 54.4843 310.765 54.4843C311.442 54.4843 311.99 53.9356 311.99 53.2588V51.0078Z" fill="white" stroke="white" stroke-width="0.2"/>
<circle cx="47" cy="150" r="20" fill="#91F0EA"/>
<circle cx="44" cy="149" r="20" fill="#22E0D5"/>
<path d="M43.6667 159C39.4327 159 36 155.54 36 151.273C36 148.427 38.5553 144.336 43.6667 139C48.778 144.337 51.3333 148.427 51.3333 151.273C51.3333 155.54 47.9007 159 43.6667 159ZM38.048 152.341C38.3012 153.402 38.8141 154.384 39.5404 155.197C40.2667 156.011 41.1838 156.632 42.2093 157.003C42.2932 157.033 42.3822 157.046 42.4712 157.042C42.5601 157.037 42.6473 157.015 42.7277 156.977C42.8081 156.938 42.88 156.884 42.9395 156.818C42.9989 156.752 43.0446 156.674 43.074 156.59C43.1345 156.42 43.1254 156.233 43.0486 156.07C42.9718 155.907 42.8335 155.78 42.664 155.719C41.851 155.424 41.1238 154.932 40.5479 154.286C39.9719 153.641 39.5651 152.863 39.364 152.022C39.343 151.936 39.3052 151.854 39.2527 151.782C39.2002 151.711 39.1341 151.65 39.0581 151.604C38.9822 151.557 38.8979 151.527 38.81 151.513C38.7221 151.499 38.6324 151.503 38.546 151.524C38.4596 151.545 38.3782 151.583 38.3064 151.635C38.2346 151.688 38.1738 151.754 38.1276 151.83C38.0813 151.906 38.0505 151.99 38.0369 152.078C38.0232 152.166 38.027 152.256 38.048 152.342V152.341Z" fill="white"/>
<circle cx="218.721" cy="130.907" r="16.2791" fill="url(#paint0_linear_979_7409)"/>
<circle cx="216.279" cy="130.093" r="16.2791" fill="url(#paint1_linear_979_7409)"/>
<path d="M216.01 123C212.084 123 208.36 124.448 205.501 127.072L205 127.531L205.487 128.006L207.073 129.555L207.53 130L208.002 129.574C210.188 127.594 213.028 126.5 216 126.5C218.973 126.5 221.817 127.594 223.999 129.574L224.47 130L224.927 129.555L226.514 128.006L227 127.531L226.499 127.071C223.65 124.448 219.92 123 216.01 123Z" fill="white"/>
<path d="M222.512 130.831C220.724 129.005 218.415 128 216.009 128H215.599L215.595 128.01C213.327 128.115 211.171 129.109 209.484 130.831L209 131.326L209.465 131.846L210.972 133.532L211.392 134L211.834 133.564C213 132.408 214.479 131.768 215.996 131.768C217.521 131.768 219 132.408 220.166 133.564L220.608 134L221.028 133.532L222.535 131.846L223 131.326L222.512 130.831V130.831Z" fill="white"/>
<path d="M216.002 139L216.528 138.533L219.42 135.967L220 135.451L219.365 134.984C218.522 134.424 217.591 134 215.997 134C214.409 134 213.539 134.463 212.63 134.984L212 135.451L212.58 135.967L215.472 138.534L216.002 139Z" fill="white"/>
<circle cx="428" cy="154" r="24" fill="#0C83F2" fill-opacity="0.04"/>
<path d="M432.271 143.749H439.123C439.587 143.749 439.938 143.435 439.938 143.013C439.938 142.595 439.591 142.278 439.123 142.278H432.271C431.807 142.278 431.456 142.592 431.456 143.013C431.46 143.435 431.865 143.749 432.271 143.749ZM439.185 145.954H432.332C431.869 145.954 431.517 146.268 431.517 146.69C431.517 147.108 431.865 147.425 432.332 147.425H439.185C439.649 147.425 440 147.111 440 146.69C439.996 146.268 439.649 145.954 439.185 145.954ZM439.185 149.627H432.332C431.869 149.627 431.517 149.941 431.517 150.362C431.517 150.78 431.865 151.097 432.332 151.097H439.185C439.649 151.097 440 150.784 440 150.362C439.996 149.941 439.649 149.627 439.185 149.627ZM429.053 158.432V142.909C429.053 140.498 426.844 138.4 424.287 138.4C421.673 138.4 419.579 140.445 419.579 142.857V158.324C418.127 159.533 417.2 161.157 417.2 163.098C417.2 166.715 420.34 169.6 424.291 169.6C428.242 169.6 431.382 166.663 431.382 163.098C431.32 161.157 430.509 159.638 429.053 158.432ZM424.287 166.077C422.306 166.077 420.649 164.579 420.649 162.736C420.649 161.254 421.709 160.377 422.82 159.509V155.937C422.82 155.247 423.457 154.613 424.287 154.613C425.052 154.613 425.693 155.247 425.693 155.937V159.568C427.08 160.382 427.929 161.289 427.929 162.736C427.929 164.579 426.334 166.077 424.287 166.077Z" fill="#A9D1F9"/>
<path d="M463 252C463 335 247.828 290.5 204 290.5C164.678 290.5 29.4418 317 14.0002 264C0.59815 218 49.8998 195.466 90.4998 195.466C94.5998 195.466 98.6998 195.68 102.6 196.106C110.5 186.3 128.5 181 147.5 184.275C148.7 184.275 149.9 184.275 151 184.328C173.5 172 207.2 169 247.5 169C289.3 169 318 176.999 342 186.3C386.392 179.259 463 196.106 463 252Z" fill="url(#paint2_linear_979_7409)"/>
<rect x="89.9998" y="93.9995" width="299" height="179" rx="8" fill="#B7DAFC"/>
<rect x="86.9998" y="82.9995" width="295" height="183" rx="4" fill="#B7DAFC"/>
<rect x="87.9998" y="83.9995" width="294" height="181" rx="4" fill="white"/>
<path d="M87.9998 87.9995C87.9998 85.7903 89.7906 83.9995 91.9998 83.9995H378C380.209 83.9995 382 85.7903 382 87.9995V96.9995H87.9998V87.9995Z" fill="url(#paint3_linear_979_7409)"/>
<circle cx="100.5" cy="90.4995" r="2.5" fill="white"/>
<circle cx="111.5" cy="90.4995" r="2.5" fill="white"/>
<circle cx="122.5" cy="90.4995" r="2.5" fill="white"/>
<path d="M167.364 150.091C167.364 167.864 152.955 182.273 135.182 182.273C117.408 182.273 103 167.864 103 150.091C103 132.317 117.408 117.909 135.182 117.909C137.269 117.909 139.309 118.108 141.285 118.487L135.182 150.091L166.887 144.542C167.2 146.345 167.364 148.199 167.364 150.091Z" fill="#FFEA83"/>
<path d="M136.818 148.455L148.621 115.727C158.547 119.414 166.327 127.617 169.545 137.883L136.818 148.455Z" fill="#91F0EA"/>
<path d="M355 212C356.105 212 357 212.895 357 214L357 218C357 219.105 356.105 220 355 220L112 220L112 212L355 212Z" fill="url(#paint4_linear_979_7409)"/>
<path d="M355 238C356.105 238 357 238.895 357 240L357 244C357 245.105 356.105 246 355 246L112 246L112 238L355 238Z" fill="url(#paint5_linear_979_7409)"/>
<path d="M278 212L278 220L112 220L112 212L278 212Z" fill="url(#paint6_linear_979_7409)"/>
<path d="M202 238L202 246L112 246L112 238L202 238Z" fill="url(#paint7_linear_979_7409)"/>
<path d="M366.001 183H182.001C188.615 175.683 195.229 167.757 209.661 158.61C222.731 150.327 230.707 159.22 249.347 158.61C267.988 158 269.19 136.659 289.033 132.391C307.073 128.51 322.707 150.683 332.929 134.22C344.36 115.81 357.783 109.017 366.001 108V183Z" fill="url(#paint8_linear_979_7409)"/>
<defs>
<linearGradient id="paint0_linear_979_7409" x1="218.721" y1="114.628" x2="218.721" y2="147.186" gradientUnits="userSpaceOnUse">
<stop stop-color="#B2C7FF"/>
<stop offset="1" stop-color="#B5EDFF"/>
</linearGradient>
<linearGradient id="paint1_linear_979_7409" x1="216.279" y1="113.814" x2="216.279" y2="146.372" gradientUnits="userSpaceOnUse">
<stop stop-color="#8AAEFF"/>
<stop offset="1" stop-color="#89E3FF"/>
</linearGradient>
<linearGradient id="paint2_linear_979_7409" x1="407.3" y1="302.415" x2="43.2261" y2="329.724" gradientUnits="userSpaceOnUse">
<stop stop-color="#3CC0FF" stop-opacity="0.12"/>
<stop offset="1" stop-color="#75FFE6" stop-opacity="0.12"/>
</linearGradient>
<linearGradient id="paint3_linear_979_7409" x1="92.9998" y1="90.9994" x2="382" y2="90.9994" gradientUnits="userSpaceOnUse">
<stop stop-color="#4971FF" stop-opacity="0.5"/>
<stop offset="1" stop-color="#1BC8FF" stop-opacity="0.5"/>
</linearGradient>
<linearGradient id="paint4_linear_979_7409" x1="357" y1="216" x2="112" y2="216" gradientUnits="userSpaceOnUse">
<stop stop-color="#497CFF" stop-opacity="0.12"/>
<stop offset="1" stop-color="#1BC8FF" stop-opacity="0.12"/>
</linearGradient>
<linearGradient id="paint5_linear_979_7409" x1="357" y1="242" x2="112" y2="242" gradientUnits="userSpaceOnUse">
<stop stop-color="#497CFF" stop-opacity="0.12"/>
<stop offset="1" stop-color="#1BC8FF" stop-opacity="0.12"/>
</linearGradient>
<linearGradient id="paint6_linear_979_7409" x1="278" y1="216" x2="112" y2="216" gradientUnits="userSpaceOnUse">
<stop stop-color="#4971FF" stop-opacity="0.5"/>
<stop offset="1" stop-color="#1BC8FF" stop-opacity="0.5"/>
</linearGradient>
<linearGradient id="paint7_linear_979_7409" x1="202" y1="242" x2="112" y2="242" gradientUnits="userSpaceOnUse">
<stop stop-color="#4971FF" stop-opacity="0.5"/>
<stop offset="1" stop-color="#1BC8FF" stop-opacity="0.5"/>
</linearGradient>
<linearGradient id="paint8_linear_979_7409" x1="343.288" y1="183" x2="194.439" y2="191.099" gradientUnits="userSpaceOnUse">
<stop stop-color="#3CC0FF" stop-opacity="0.12"/>
<stop offset="1" stop-color="#75FFE6" stop-opacity="0.12"/>
</linearGradient>
</defs>
</svg>
