<svg width="480" height="320" viewBox="0 0 480 320" fill="none" xmlns="http://www.w3.org/2000/svg">
<g clip-path="url(#clip0_979_7472)">
<circle cx="239" cy="160" r="113" stroke="url(#paint0_linear_979_7472)" stroke-width="40"/>
<circle cx="239" cy="160" r="84" stroke="url(#paint1_linear_979_7472)" stroke-width="4"/>
<mask id="mask0_979_7472" style="mask-type:alpha" maskUnits="userSpaceOnUse" x="-53" y="52" width="575" height="216">
<rect x="-53" y="52" width="575" height="216" fill="black"/>
</mask>
<g mask="url(#mask0_979_7472)">
<circle cx="239" cy="160" r="223" stroke="url(#paint2_linear_979_7472)" stroke-width="4"/>
</g>
<mask id="mask1_979_7472" style="mask-type:alpha" maskUnits="userSpaceOnUse" x="-53" y="52" width="575" height="216">
<rect x="-53" y="52" width="575" height="216" fill="black"/>
</mask>
<g mask="url(#mask1_979_7472)">
<circle cx="239" cy="160" r="176" stroke="url(#paint3_linear_979_7472)" stroke-width="10"/>
</g>
<rect x="183" y="120" width="254" height="157" rx="8" fill="#B7DAFC"/>
<rect x="175.5" y="111.5" width="253" height="156" rx="7.5" fill="white" stroke="#B7DAFC"/>
<rect x="196" y="213" width="16" height="34" rx="2" fill="url(#paint4_linear_979_7472)"/>
<rect x="228" y="173" width="16" height="74" rx="2" fill="url(#paint5_linear_979_7472)"/>
<rect x="260" y="195" width="16" height="52" rx="2" fill="url(#paint6_linear_979_7472)"/>
<rect x="292" y="132" width="16" height="115" rx="2" fill="url(#paint7_linear_979_7472)"/>
<rect x="324" y="186" width="16" height="61" rx="2" fill="url(#paint8_linear_979_7472)"/>
<rect x="356" y="164" width="16" height="83" rx="2" fill="url(#paint9_linear_979_7472)"/>
<rect x="388" y="213" width="16" height="34" rx="2" fill="url(#paint10_linear_979_7472)"/>
<path d="M196 230.5C202.5 220.5 214.5 203.9 224.5 203.5C237 203 247.5 227 258.5 227C275 227 294.362 154.999 317 155C338 155.001 347 227 369 227C384.5 227 399.5 203.5 399.5 203.5" stroke="url(#paint11_linear_979_7472)" stroke-width="4" stroke-linecap="round"/>
<rect x="49" y="52" width="201" height="123" rx="8" fill="#91F0EA"/>
<rect x="40" y="43" width="201" height="123" rx="8" fill="#22E0D5" fill-opacity="0.7"/>
<path d="M68.0095 100.561C67.9955 101.13 68.0975 101.697 68.3094 102.226C68.5214 102.755 68.839 103.237 69.2432 103.642C69.6474 104.047 70.1299 104.368 70.662 104.584C71.194 104.8 71.7646 104.908 72.3397 104.901C73.1802 104.933 74.016 104.763 74.7761 104.407C75.5361 104.05 76.1977 103.516 76.7046 102.851C77.1819 106.866 78.887 110.64 81.5912 113.667L85.0692 117.594L83.5389 124.155L84.1301 128.117L83.5389 133.955V134.076L85.7648 136.056L86.53 139.828V140H94.6685V138.002L91.5383 132.336L91.1905 128.892L94.9989 121.452L99.3117 130.252L98.9465 133.938V134.058L101.19 136.056L101.955 139.828V140H110.094V137.951L107.137 132.612L104.529 126.222L106.998 116.595L110.372 117.422L122.545 118.093L144.3 117.112L145.308 126.928L143.848 133.989V134.11L146.056 136.056L146.839 139.828V140H154.96V138.002L151.847 132.388L154.96 123.622L155.621 120.694L159.655 128.306L161.029 134.007L163.272 136.056L164.037 139.828V140H172.176V138.002L169.046 132.319L167.307 124.982L165.394 111.945L165.794 111.721L186.088 103.334L199.322 96.2725C200.835 96.1519 202 93.448 202 89.9691C202 86.4902 200.783 83.6485 199.218 83.6485C197.059 83.6551 194.919 83.2638 192.905 82.4946L187.688 78.189C186.366 77.104 184.975 76.1051 183.567 75.1579L187.149 62.2756V62H186.871C183.42 62.0109 180.027 62.8689 176.993 64.4972L177.671 62.2756V62H177.376C173.874 62.0234 170.435 62.9191 167.374 64.6045C164.314 66.29 161.731 68.711 159.864 71.6445L144.056 73.849L94.0946 76.9318C89.2199 78.1332 84.8726 80.8737 81.71 84.7391C78.5475 88.6044 76.7416 93.3844 76.5655 98.3564V100.492C76.2686 101.058 75.9005 101.585 75.4699 102.059C75.1013 102.55 74.6073 102.935 74.0389 103.174C73.4704 103.413 72.8479 103.498 72.2353 103.42C71.548 103.427 70.8815 103.186 70.3601 102.742C69.8386 102.299 69.4977 101.683 69.4007 101.009C69.3002 100.54 69.3368 100.053 69.5063 99.6047C69.6757 99.1562 69.9709 98.7649 70.3572 98.4769C70.6419 98.3112 70.9625 98.2153 71.2923 98.1973C71.6221 98.1793 71.9514 98.2398 72.2527 98.3736L72.9135 97.4264C72.5149 97.0794 72.0217 96.8568 71.4958 96.7863C70.9699 96.7159 70.4346 96.8007 69.9572 97.0303C69.325 97.3719 68.8052 97.8863 68.4599 98.5123C68.1146 99.1383 67.9582 99.8493 68.0095 100.561V100.561Z" fill="white" fill-opacity="0.5"/>
<path d="M74.0095 104.561C73.9955 105.13 74.0975 105.697 74.3094 106.226C74.5214 106.755 74.839 107.237 75.2432 107.642C75.6474 108.047 76.1299 108.368 76.662 108.584C77.194 108.8 77.7646 108.908 78.3397 108.901C79.1802 108.933 80.016 108.763 80.7761 108.407C81.5361 108.05 82.1977 107.516 82.7046 106.851C83.1819 110.866 84.887 114.64 87.5912 117.667L91.0692 121.594L89.5389 128.155L90.1301 132.117L89.5389 137.955V138.076L91.7648 140.056L92.53 143.828V144H100.669V142.002L97.5383 136.336L97.1905 132.892L100.999 125.452L105.312 134.252L104.946 137.938V138.058L107.19 140.056L107.955 143.828V144H116.094V141.951L113.137 136.612L110.529 130.222L112.998 120.595L116.372 121.422L128.545 122.093L150.3 121.112L151.308 130.928L149.848 137.989V138.11L152.056 140.056L152.839 143.828V144H160.96V142.002L157.847 136.388L160.96 127.622L161.621 124.694L165.655 132.306L167.029 138.007L169.272 140.056L170.037 143.828V144H178.176V142.002L175.046 136.319L173.307 128.982L171.394 115.945L171.794 115.721L192.088 107.334L205.322 100.272C206.835 100.152 208 97.448 208 93.9691C208 90.4902 206.783 87.6485 205.218 87.6485C203.059 87.6551 200.919 87.2638 198.905 86.4946L193.688 82.189C192.366 81.104 190.975 80.1051 189.567 79.1579L193.149 66.2756V66H192.871C189.42 66.0109 186.027 66.8689 182.993 68.4972L183.671 66.2756V66H183.376C179.874 66.0234 176.435 66.9191 173.374 68.6045C170.314 70.29 167.731 72.711 165.864 75.6445L150.056 77.849L100.095 80.9318C95.2199 82.1332 90.8726 84.8737 87.71 88.7391C84.5475 92.6044 82.7416 97.3844 82.5655 102.356V104.492C82.2686 105.058 81.9005 105.585 81.4699 106.059C81.1013 106.55 80.6073 106.935 80.0389 107.174C79.4704 107.413 78.8479 107.498 78.2353 107.42C77.548 107.427 76.8815 107.186 76.3601 106.742C75.8386 106.299 75.4977 105.683 75.4007 105.009C75.3002 104.54 75.3368 104.053 75.5063 103.605C75.6757 103.156 75.9709 102.765 76.3572 102.477C76.6419 102.311 76.9625 102.215 77.2923 102.197C77.6221 102.179 77.9514 102.24 78.2527 102.374L78.9135 101.426C78.5149 101.079 78.0217 100.857 77.4958 100.786C76.9699 100.716 76.4346 100.801 75.9572 101.03C75.325 101.372 74.8052 101.886 74.4599 102.512C74.1146 103.138 73.9582 103.849 74.0095 104.561V104.561Z" fill="white"/>
<circle cx="367.666" cy="70.6659" r="17.6659" fill="#B7DAFC"/>
<path d="M377.652 74.6777H379V75.3427C379 77.911 376.884 80 374.283 80H360.762C358.136 80 356 77.911 356 75.3427V74.6775H357.348M358.695 74.6775H363.736L365.084 76.0082H369.916L371.264 74.6775H376.304M371.551 66.3986C371.535 66.2727 371.452 66.1036 371.376 66C371.404 66.126 371.46 66.3077 371.551 66.3986Z" fill="white"/>
<path d="M376.64 64.1307C374.862 62.2026 373.08 60.2802 371.292 58.3636C370.847 57.886 370.456 57.8783 370.022 58.3442C367.462 61.0971 364.906 63.854 362.353 66.6149C362.171 66.8105 362.005 67.0163 362.003 67.3446C361.983 67.546 362.065 67.742 362.203 67.8941C362.914 68.6767 363.634 69.4513 364.352 70.2258C364.431 70.3105 364.514 70.4404 364.647 70.3422C365.328 69.8406 366.095 70.1598 366.817 70.0595C367.453 69.9712 367.933 70.1722 368.282 70.7337C368.613 71.2686 368.982 71.3561 369.517 71.0347C370.083 70.6954 370.699 70.5787 371.262 71.092C371.471 71.2817 371.539 71.0493 371.628 70.9537C373.304 69.1538 374.976 67.3504 376.644 65.5434C377.122 65.0224 377.117 64.6481 376.64 64.1307V64.1307ZM373.32 66.1757C373.312 66.2078 373.27 66.1943 373.269 66.2308C373.268 66.2672 373.311 66.3092 373.317 66.3497C373.33 66.4402 373.298 66.511 373.215 66.5755L373.108 66.6208C373.067 66.6379 373.024 66.649 372.98 66.654C372.989 66.586 373.006 66.5197 373.032 66.457C373.041 66.4351 373.056 66.4205 373.057 66.3982C373.053 66.3694 373.046 66.3409 373.038 66.3132C373.004 66.1143 372.949 65.92 372.876 65.7338C372.781 65.5116 372.647 65.3325 372.504 65.269C372.516 65.5974 372.523 66.0053 372.553 66.3705C372.558 66.4252 372.568 66.4942 372.54 66.5164C372.512 66.5387 372.487 66.5135 372.47 66.5489C372.457 66.5781 372.483 66.6033 372.488 66.6405C372.504 66.7966 372.302 66.878 372.144 66.9105C372.14 66.8487 372.152 66.7867 372.178 66.7317C372.186 66.7146 372.201 66.6992 372.207 66.6817C372.211 66.6576 372.214 66.6332 372.216 66.6087C372.25 66.4519 372.288 66.2771 372.278 66.098C372.268 65.9115 372.22 65.7236 372.129 65.4982C372.124 65.4843 372.117 65.4649 372.11 65.4496C372.106 65.4434 372.104 65.4131 372.085 65.4248C372.066 65.4365 372.072 65.4493 372.075 65.4715C372.079 65.5131 372.112 65.5916 372.081 65.6094C372.048 65.5861 372.03 65.5171 371.998 65.4865C372.01 65.5386 372.029 65.5959 372.014 65.6357C371.981 65.6098 371.965 65.543 371.942 65.4916C371.927 65.4783 371.911 65.4684 371.892 65.4625C371.874 65.4566 371.855 65.4548 371.836 65.4573C371.847 65.5277 371.881 65.608 371.855 65.6627C371.809 65.6419 371.788 65.5511 371.75 65.508C371.766 65.5708 371.793 65.6386 371.772 65.6857C371.731 65.6616 371.702 65.5594 371.684 65.5033C371.554 65.4752 371.425 65.4456 371.319 65.3548C371.221 65.4642 371.12 65.5857 370.985 65.6831C370.834 65.7875 370.669 65.8662 370.496 65.9163C370.418 65.9403 370.336 65.9528 370.252 65.983C370.012 66.0666 369.731 66.1655 369.507 66.3041C369.55 66.3971 369.603 66.496 369.652 66.6029C369.703 66.7078 369.746 66.8178 369.779 66.9313C369.794 67.0169 369.819 67.1 369.853 67.1786C369.891 67.2567 369.943 67.3308 369.991 67.4125C370.009 67.4428 370.037 67.4855 370.061 67.5263C370.086 67.5672 370.124 67.615 370.127 67.642C370.132 67.6785 370.088 67.6971 370.081 67.7317C370.092 67.7719 370.118 67.7719 370.133 67.8014C370.133 67.9528 369.955 68.1064 369.761 68.1167C369.742 67.9941 369.814 67.9153 369.822 67.8109C369.833 67.665 369.752 67.4877 369.676 67.3505C369.652 67.3031 369.625 67.2583 369.593 67.2166C369.565 67.1837 369.528 67.1578 369.498 67.125C369.413 67.0294 369.325 66.897 369.244 66.7941C369.265 66.8814 369.281 66.9698 369.292 67.059C369.296 67.0874 369.292 67.117 369.296 67.1411C369.304 67.1848 369.327 67.2337 369.333 67.2808C369.333 67.2877 369.351 67.3173 369.328 67.3041C369.331 67.3268 369.351 67.302 369.352 67.3293C369.368 67.4486 369.472 67.6577 369.521 67.7949C369.532 67.8252 369.545 67.8875 369.528 67.9072C369.51 67.9269 369.482 67.9032 369.469 67.9295C369.462 67.966 369.48 68.0025 369.481 68.0335C369.486 68.1794 369.3 68.2604 369.158 68.2787C369.139 68.1962 369.169 68.1261 369.195 68.0572C369.223 67.9896 369.238 67.9167 369.24 67.8427C369.238 67.758 369.226 67.674 369.203 67.5931C369.178 67.4971 369.141 67.4052 369.093 67.3202C369.074 67.2896 369.044 67.2655 369.024 67.2323C368.962 67.1308 368.914 66.9911 368.861 66.8634C368.609 66.9845 368.429 66.8875 368.28 66.7321C368.229 66.6792 368.188 66.6131 368.133 66.5599C368.099 66.5281 368.057 66.5073 368.021 66.4759C367.985 66.4423 367.951 66.4057 367.92 66.3665C367.886 66.3234 367.857 66.2778 367.825 66.2384C367.672 66.0487 367.441 65.9721 367.257 65.8758C367.209 65.9768 367.039 66.0275 366.904 66.0826C366.862 66.1003 366.818 66.1135 366.774 66.122C366.732 66.1297 366.69 66.122 366.658 66.1348C366.601 66.1596 366.562 66.2417 366.477 66.2658C366.441 66.2764 366.371 66.2512 366.333 66.2443C366.261 66.2319 366.192 66.2147 366.144 66.1494L366.123 66.0972C366.108 66.013 366.164 65.9549 366.206 65.8805C366.261 65.7796 366.302 65.6706 366.328 65.5569C366.344 65.4934 366.37 65.4179 366.359 65.3438C366.355 65.3117 366.338 65.2858 366.334 65.2563C366.327 65.1962 366.335 65.1354 366.355 65.0789C366.383 65.0032 366.422 64.9323 366.469 64.8688C366.45 64.8513 366.433 64.8443 366.426 64.821C366.415 64.7882 366.443 64.7615 366.444 64.7342C366.37 64.725 366.253 64.713 366.17 64.6681C366.14 64.6545 366.114 64.6338 366.092 64.6076C366.071 64.5814 366.055 64.5503 366.046 64.5167L366.05 64.5149L366.052 64.5193C366.195 64.569 366.345 64.5946 366.495 64.5952C366.526 64.5544 366.57 64.5266 366.618 64.5163C366.588 64.4883 366.519 64.4463 366.506 64.3704C366.553 64.381 366.642 64.4233 366.709 64.4434C366.733 64.4514 366.756 64.458 366.78 64.4631C366.829 64.4675 366.884 64.4408 366.911 64.4857C366.932 64.5222 366.911 64.5568 366.913 64.5999C367.14 64.7345 367.389 64.7214 367.691 64.6032C367.744 64.5824 367.796 64.558 367.846 64.5302C367.888 64.5065 367.927 64.4711 367.972 64.4452C368.037 64.4124 368.103 64.3833 368.17 64.358C368.373 64.2701 368.568 64.208 368.768 64.142C369.042 64.0508 369.309 63.9198 369.583 63.7929C370.064 63.5681 370.507 63.3466 370.857 63.0515C370.93 62.9906 370.984 62.9311 371.094 62.8888C371.156 62.865 371.22 62.8461 371.285 62.8205C371.35 62.795 371.418 62.7607 371.483 62.7337C371.591 62.6855 371.71 62.6717 371.826 62.6939C371.932 62.7259 372.023 62.7986 372.083 62.8982C372.156 63.0113 372.197 63.1566 372.238 63.2967C372.319 63.5749 372.415 63.8481 372.523 64.1154C372.573 64.251 372.632 64.3824 372.7 64.5087C372.734 64.5692 372.775 64.6218 372.802 64.6802C372.818 64.7112 372.832 64.7439 372.842 64.7776C372.848 64.811 372.856 64.8438 372.867 64.8757C372.887 64.9144 372.921 64.9104 372.946 64.9644C372.986 65.049 372.99 65.1621 373.011 65.2584C373.032 65.3548 373.071 65.4591 373.101 65.5562C373.146 65.6981 373.203 65.8634 373.267 66.0283C373.285 66.0772 373.328 66.1468 373.32 66.1757V66.1757ZM368.224 74.569C367.978 74.496 367.958 74.8164 367.97 75.0174C367.995 75.4125 368.013 75.8679 368.441 75.9893C368.7 76.0623 368.683 75.7449 368.704 75.5088C368.66 75.1469 368.64 74.6956 368.224 74.569V74.569ZM366.351 71.2314C365.921 71.358 365.853 71.8232 365.796 72.2354C365.769 72.4233 365.83 72.6824 366.053 72.616C366.466 72.4923 366.533 72.0709 366.611 71.6553C366.557 71.4959 366.635 71.1482 366.351 71.2314V71.2314ZM367.304 73.0261C367.286 73.0077 367.265 72.9937 367.242 72.985C367.218 72.9764 367.194 72.9733 367.169 72.9759C367.145 72.9785 367.121 72.9869 367.1 73.0003C367.078 73.0137 367.06 73.032 367.046 73.0538C366.856 73.3358 366.925 73.6521 366.965 73.9623C366.97 73.9825 366.977 74.002 366.988 74.0199C367.076 74.2187 367.11 74.5281 367.39 74.4577C367.644 74.3935 367.606 74.1005 367.627 73.8663C367.587 73.5613 367.543 73.2475 367.304 73.0261V73.0261ZM366.32 73.7999C365.906 73.9265 365.894 74.3909 365.819 74.7824C365.87 74.9616 365.825 75.3005 366.092 75.2202C366.51 75.0955 366.553 74.6515 366.577 74.2512C366.589 74.0447 366.557 73.7277 366.32 73.7999ZM368.897 72.0136C368.491 72.1526 368.254 72.481 368.193 72.9327C368.168 73.1289 368.279 73.2431 368.482 73.2245C368.778 73.1946 369.192 72.6488 369.177 72.3058C369.174 72.1055 369.091 71.9476 368.897 72.0136V72.0136Z" fill="white"/>
<circle cx="115.588" cy="233.295" r="22.5882" fill="#FFEA83"/>
<circle cx="112.588" cy="232.588" r="22.5882" fill="#FFDA28"/>
<path d="M122.866 228.874C121.933 224.412 117.933 221 113 221C109.132 221 105.8 223.101 104.2 226.251C100.066 226.774 97 230.056 97 234.126C97 238.456 100.6 242 105 242H122.332C126.067 242 129 239.112 129 235.436C129 232.024 126.2 229.137 122.866 228.874ZM115.666 232.812V238.063H110.332V232.812H106.332L113 226.251L119.666 232.812H115.666Z" fill="white"/>
</g>
<defs>
<linearGradient id="paint0_linear_979_7472" x1="339.166" y1="293" x2="123.45" y2="297.784" gradientUnits="userSpaceOnUse">
<stop stop-color="#3CC0FF" stop-opacity="0.12"/>
<stop offset="1" stop-color="#75FFE6" stop-opacity="0.12"/>
</linearGradient>
<linearGradient id="paint1_linear_979_7472" x1="303.769" y1="246" x2="164.283" y2="249.093" gradientUnits="userSpaceOnUse">
<stop stop-color="#3CC0FF" stop-opacity="0.12"/>
<stop offset="1" stop-color="#75FFE6" stop-opacity="0.12"/>
</linearGradient>
<linearGradient id="paint2_linear_979_7472" x1="408.453" y1="384.999" x2="43.5203" y2="393.093" gradientUnits="userSpaceOnUse">
<stop stop-color="#3CC0FF" stop-opacity="0.12"/>
<stop offset="1" stop-color="#75FFE6" stop-opacity="0.12"/>
</linearGradient>
<linearGradient id="paint3_linear_979_7472" x1="375.316" y1="340.999" x2="81.7475" y2="347.51" gradientUnits="userSpaceOnUse">
<stop stop-color="#3CC0FF" stop-opacity="0.12"/>
<stop offset="1" stop-color="#75FFE6" stop-opacity="0.12"/>
</linearGradient>
<linearGradient id="paint4_linear_979_7472" x1="204" y1="213" x2="204" y2="247" gradientUnits="userSpaceOnUse">
<stop stop-color="#497CFF" stop-opacity="0.12"/>
<stop offset="1" stop-color="#1BC8FF" stop-opacity="0.12"/>
</linearGradient>
<linearGradient id="paint5_linear_979_7472" x1="236" y1="173" x2="236" y2="247" gradientUnits="userSpaceOnUse">
<stop stop-color="#497CFF" stop-opacity="0.12"/>
<stop offset="1" stop-color="#1BC8FF" stop-opacity="0.12"/>
</linearGradient>
<linearGradient id="paint6_linear_979_7472" x1="268" y1="195" x2="268" y2="247" gradientUnits="userSpaceOnUse">
<stop stop-color="#497CFF" stop-opacity="0.12"/>
<stop offset="1" stop-color="#1BC8FF" stop-opacity="0.12"/>
</linearGradient>
<linearGradient id="paint7_linear_979_7472" x1="300" y1="132" x2="300" y2="247" gradientUnits="userSpaceOnUse">
<stop stop-color="#497CFF" stop-opacity="0.12"/>
<stop offset="1" stop-color="#1BC8FF" stop-opacity="0.12"/>
</linearGradient>
<linearGradient id="paint8_linear_979_7472" x1="332" y1="186" x2="332" y2="247" gradientUnits="userSpaceOnUse">
<stop stop-color="#497CFF" stop-opacity="0.12"/>
<stop offset="1" stop-color="#1BC8FF" stop-opacity="0.12"/>
</linearGradient>
<linearGradient id="paint9_linear_979_7472" x1="364" y1="164" x2="364" y2="247" gradientUnits="userSpaceOnUse">
<stop stop-color="#497CFF" stop-opacity="0.12"/>
<stop offset="1" stop-color="#1BC8FF" stop-opacity="0.12"/>
</linearGradient>
<linearGradient id="paint10_linear_979_7472" x1="396" y1="213" x2="396" y2="247" gradientUnits="userSpaceOnUse">
<stop stop-color="#497CFF" stop-opacity="0.12"/>
<stop offset="1" stop-color="#1BC8FF" stop-opacity="0.12"/>
</linearGradient>
<linearGradient id="paint11_linear_979_7472" x1="297.75" y1="155" x2="297.75" y2="230.5" gradientUnits="userSpaceOnUse">
<stop stop-color="#4971FF" stop-opacity="0.5"/>
<stop offset="1" stop-color="#1BC8FF" stop-opacity="0.5"/>
</linearGradient>
<clipPath id="clip0_979_7472">
<rect width="480" height="320" fill="white"/>
</clipPath>
</defs>
</svg>
