<svg width="480" height="320" viewBox="0 0 480 320" fill="none" xmlns="http://www.w3.org/2000/svg">
<path fill-rule="evenodd" clip-rule="evenodd" d="M294.22 25.7802C308.922 27.5273 321.456 37.2516 326.801 51.0574L360.164 137.219L407.14 82.4572C421.523 65.6898 446.776 63.7572 463.543 78.1406C480.311 92.524 482.243 117.777 467.86 134.544L377.36 240.044C368.201 250.722 354.106 255.803 340.241 253.426C326.375 251.048 314.778 241.562 309.699 228.444L279.427 150.263L203.877 259.284C195.498 271.375 181.159 277.892 166.54 276.251C151.921 274.611 139.382 265.079 133.891 251.431L106.533 183.434L71.4338 223.033C56.7805 239.565 31.4997 241.088 14.9677 226.435C-1.56436 211.781 -3.0873 186.5 11.5661 169.968L89.5661 81.9684C98.7587 71.5972 112.665 66.7234 126.321 69.0865C139.976 71.4496 151.436 80.713 156.609 93.5701L180.402 152.706L256.623 42.7173C265.055 30.5489 279.519 24.0331 294.22 25.7802Z" fill="url(#paint0_linear_979_7153)"/>
<rect x="118" y="46" width="275" height="202" rx="8" fill="#B7DAFC"/>
<rect x="121" y="49" width="270" height="186" rx="4" fill="white"/>
<rect x="151" y="70" width="96" height="6" rx="3" fill="#E1F0FD"/>
<rect x="247" y="158" width="124" height="20" rx="4" fill="#E1F0FD"/>
<rect x="151" y="88" width="96" height="6" rx="3" fill="#E1F0FD"/>
<rect x="247" y="192" width="124" height="6" rx="3" fill="#E1F0FD"/>
<rect x="247" y="209" width="124" height="6" rx="3" fill="#E1F0FD"/>
<circle cx="90" cy="51" r="3" fill="white"/>
<circle cx="106" cy="51" r="3" fill="white"/>
<circle cx="122" cy="51" r="3" fill="white"/>
<path d="M324 131C321.13 131 318.36 130.569 315.753 129.768C304.314 126.254 296 115.62 296 103.048C296 90.2768 304.58 79.5058 316.3 76.1667" stroke="#DBF2BE" stroke-width="12"/>
<path d="M296 103C296 90.2514 304.383 79.4999 315.833 76.1667" stroke="#CFF3D1" stroke-width="12"/>
<path d="M324 131C321.201 131 318.501 130.547 315.959 129.705C312.938 128.705 310.14 127.156 307.667 125.167" stroke="#EDEAAD" stroke-width="12"/>
<path d="M348.5 117C347.791 118.215 347.011 119.384 346.167 120.5" stroke="#DEC9F9" stroke-width="12"/>
<path d="M324 131C333.042 131 341.078 126.882 346.167 120.5" stroke="#FFCACA" stroke-width="12"/>
<path d="M346.167 120.5C345.11 121.754 343.938 122.925 342.667 124" stroke="#F9C3E3" stroke-width="12"/>
<path d="M324 131C329.1 131 333.881 129.726 338 127.5" stroke="#FFE2B8" stroke-width="12"/>
<path d="M346.167 86.6667C349.83 91.2494 352 96.9458 352 103.119C352 108.184 350.539 112.928 347.99 117" stroke="#C4D1FD" stroke-width="12"/>
<path d="M315.833 76.1167C318.298 75.3894 320.901 75 323.592 75C332.823 75 341.019 79.5824 346.167 86.6667" stroke="#CCE4F7" stroke-width="12"/>
<rect x="41" y="28" width="120" height="76" rx="8" fill="#FFEA83"/>
<rect x="35" y="22" width="120" height="76" rx="8" fill="#FFDA28"/>
<rect x="318" y="208" width="140" height="86" rx="8" fill="#91F0EA"/>
<rect x="312" y="202" width="140" height="86" rx="8" fill="#22E0D5"/>
<rect x="338" y="212" width="10" height="67" rx="5" fill="white" fill-opacity="0.5"/>
<rect x="364" y="212" width="10" height="67" rx="5" fill="white" fill-opacity="0.5"/>
<rect x="390" y="212" width="10" height="67" rx="5" fill="white" fill-opacity="0.5"/>
<rect x="416" y="212" width="10" height="67" rx="5" fill="white" fill-opacity="0.5"/>
<rect x="338" y="230" width="10" height="49" rx="5" fill="white"/>
<rect x="364" y="224" width="10" height="55" rx="5" fill="white"/>
<rect x="390" y="235" width="10" height="44" rx="5" fill="white"/>
<rect x="416" y="228" width="10" height="51" rx="5" fill="white"/>
<circle cx="179.33" cy="165.882" r="44" transform="rotate(45 179.33 165.882)" stroke="#6685A4" stroke-width="8"/>
<rect x="143.267" y="194.874" width="10" height="10" transform="rotate(45 143.267 194.874)" fill="#6685A4"/>
<rect x="132.661" y="196.995" width="22" height="70" rx="8" transform="rotate(45 132.661 196.995)" fill="#90B8E8"/>
<rect x="122.054" y="207.602" width="22" height="2" transform="rotate(45 122.054 207.602)" fill="white"/>
<path d="M155 160C155 158.895 155.895 158 157 158H165C166.105 158 167 158.895 167 160V190H155V160Z" fill="url(#paint1_linear_979_7153)"/>
<path d="M155 177H167V190H155V177Z" fill="url(#paint2_linear_979_7153)"/>
<path d="M173 138C173 136.895 173.895 136 175 136H183C184.105 136 185 136.895 185 138V190H173V138Z" fill="url(#paint3_linear_979_7153)"/>
<path d="M173 166H185V190H173V166Z" fill="url(#paint4_linear_979_7153)"/>
<path d="M191 158C191 156.895 191.895 156 193 156H201C202.105 156 203 156.895 203 158V190H191V158Z" fill="url(#paint5_linear_979_7153)"/>
<path d="M191 173H203V190H191V173Z" fill="url(#paint6_linear_979_7153)"/>
<path d="M122 60C122 75.464 109.464 88 94 88C78.536 88 66 75.464 66 60C66 44.536 78.536 32 94 32C95.8157 32 97.591 32.1728 99.3103 32.5029L94 60L121.585 55.1724C121.858 56.7407 122 58.3538 122 60Z" fill="white" fill-opacity="0.7"/>
<path d="M96 58L105.738 31C113.926 34.0415 120.345 40.8087 123 49.2785L96 58Z" fill="white"/>
<defs>
<linearGradient id="paint0_linear_979_7153" x1="418.744" y1="276.501" x2="33.2176" y2="292.716" gradientUnits="userSpaceOnUse">
<stop stop-color="#3CC0FF" stop-opacity="0.12"/>
<stop offset="1" stop-color="#75FFE6" stop-opacity="0.12"/>
</linearGradient>
<linearGradient id="paint1_linear_979_7153" x1="161" y1="158" x2="161" y2="190" gradientUnits="userSpaceOnUse">
<stop stop-color="#497CFF" stop-opacity="0.12"/>
<stop offset="1" stop-color="#1BC8FF" stop-opacity="0.12"/>
</linearGradient>
<linearGradient id="paint2_linear_979_7153" x1="161" y1="177" x2="161" y2="190" gradientUnits="userSpaceOnUse">
<stop stop-color="#4971FF" stop-opacity="0.5"/>
<stop offset="1" stop-color="#1BC8FF" stop-opacity="0.5"/>
</linearGradient>
<linearGradient id="paint3_linear_979_7153" x1="179" y1="136" x2="179" y2="190" gradientUnits="userSpaceOnUse">
<stop stop-color="#497CFF" stop-opacity="0.12"/>
<stop offset="1" stop-color="#1BC8FF" stop-opacity="0.12"/>
</linearGradient>
<linearGradient id="paint4_linear_979_7153" x1="179" y1="166" x2="179" y2="190" gradientUnits="userSpaceOnUse">
<stop stop-color="#4971FF" stop-opacity="0.5"/>
<stop offset="1" stop-color="#1BC8FF" stop-opacity="0.5"/>
</linearGradient>
<linearGradient id="paint5_linear_979_7153" x1="197" y1="156" x2="197" y2="190" gradientUnits="userSpaceOnUse">
<stop stop-color="#497CFF" stop-opacity="0.12"/>
<stop offset="1" stop-color="#1BC8FF" stop-opacity="0.12"/>
</linearGradient>
<linearGradient id="paint6_linear_979_7153" x1="197" y1="173" x2="197" y2="190" gradientUnits="userSpaceOnUse">
<stop stop-color="#4971FF" stop-opacity="0.5"/>
<stop offset="1" stop-color="#1BC8FF" stop-opacity="0.5"/>
</linearGradient>
</defs>
</svg>
