<svg width="480" height="320" viewBox="0 0 480 320" fill="none" xmlns="http://www.w3.org/2000/svg">
<path d="M463 184.5C463 240.03 421.5 284.141 370 285C369.5 285 369 285 368.5 285H90.5C90 285 89.5 285 89 285C49.1 284.033 12 243.97 12 194.778C12 144.941 49.9 104.556 90.5 104.556C94.6 104.556 98.7 104.985 102.6 105.844C113 91.3444 129.2 82 147.5 82C148.7 82 149.9 82 151 82.1074C170 47.3074 205.2 23 245.5 23C287.3 23 323.6 49.1333 342 86.0815C350.4 83.3963 359.3 82 368.5 82C420.7 82 463 128.433 463 184.5Z" fill="url(#paint0_linear_979_7256)"/>
<rect x="100" y="135" width="300" height="94" rx="4" fill="#B7DAFC"/>
<rect x="98" y="133" width="300" height="94" rx="4" fill="white"/>
<rect x="118" y="155" width="260" height="16" rx="4" fill="#E1F0FD"/>
<rect x="118" y="190" width="260" height="16" rx="4" fill="#E1F0FD"/>
<circle cx="176" cy="45" r="31" stroke="#B7DAFC" stroke-width="2" stroke-dasharray="4 4"/>
<path d="M191.398 46.9607C191.486 46.3107 191.532 45.6559 191.537 45C191.532 44.3441 191.486 43.6893 191.398 43.0393L195.627 39.7393C195.812 39.5898 195.938 39.379 195.982 39.1447C196.027 38.9104 195.987 38.6679 195.869 38.4607L191.861 31.5393C191.741 31.3333 191.552 31.1763 191.329 31.0959C191.105 31.0156 190.86 31.017 190.637 31.1L185.658 33.1C184.62 32.2975 183.48 31.638 182.268 31.1393L181.479 25.8393C181.446 25.6065 181.33 25.3934 181.153 25.2393C180.976 25.0852 180.749 25.0002 180.515 25.0001H172.495C172.259 24.9976 172.03 25.0814 171.851 25.2358C171.671 25.3901 171.554 25.6046 171.52 25.8393L170.749 31.1393C169.541 31.6458 168.402 32.3047 167.359 33.1L162.38 31.1C162.158 31.0109 161.911 31.0064 161.685 31.0873C161.46 31.1682 161.272 31.3289 161.156 31.5393L157.137 38.4607C157.015 38.6668 156.973 38.9105 157.017 39.146C157.062 39.3815 157.191 39.5925 157.379 39.7393L161.608 43.0393C161.521 43.6893 161.475 44.3442 161.469 45C161.475 45.6558 161.521 46.3107 161.608 46.9607L157.379 50.2607C157.194 50.4102 157.068 50.621 157.024 50.8553C156.98 51.0896 157.02 51.3321 157.137 51.5393L161.146 58.4607C161.266 58.6667 161.454 58.8237 161.678 58.9041C161.902 58.9844 162.146 58.983 162.369 58.9L167.348 56.9C168.386 57.7025 169.526 58.362 170.738 58.8607L171.52 64.1607C171.554 64.3954 171.671 64.6099 171.851 64.7642C172.03 64.9186 172.259 65.0024 172.495 65H180.515C180.749 64.9998 180.976 64.9148 181.153 64.7607C181.33 64.6066 181.446 64.3935 181.479 64.1607L182.24 58.8607C183.448 58.3542 184.587 57.6953 185.629 56.9L190.609 58.9C190.831 58.9891 191.078 58.9936 191.303 58.9127C191.529 58.8318 191.717 58.6711 191.832 58.4607L195.841 51.5393C195.958 51.3321 195.998 51.0896 195.954 50.8553C195.91 50.621 195.784 50.4102 195.599 50.2607L191.398 46.9607ZM176.5 52C175.123 51.9901 173.78 51.5712 172.64 50.796C171.501 50.0209 170.615 48.9242 170.095 47.6443C169.575 46.3644 169.444 44.9585 169.719 43.604C169.993 42.2494 170.661 41.0068 171.638 40.0329C172.615 39.0589 173.857 38.3972 175.208 38.1311C176.559 37.865 177.958 38.0065 179.228 38.5378C180.499 39.069 181.585 39.9662 182.349 41.1163C183.113 42.2663 183.52 43.6177 183.52 45C183.512 46.8626 182.768 48.6457 181.452 49.958C180.135 51.2704 178.355 52.0047 176.5 52Z" fill="#B7DAFC"/>
<circle cx="302" cy="66" r="32" fill="#FFEA83"/>
<circle cx="298" cy="65" r="32" fill="#FFDA28"/>
<path d="M311.791 59.4509C310.571 53.5289 305.346 49 298.902 49C293.849 49 289.496 51.7888 287.406 55.9694C282.006 56.6634 278 61.0188 278 66.4203C278 72.1676 282.704 76.8712 288.451 76.8712H311.093C315.971 76.8712 319.804 73.0376 319.804 68.1592C319.804 63.6315 316.146 59.7993 311.791 59.4509ZM307.61 64.6764L298.902 73.3846L290.191 64.6764H295.416V57.7083H302.385V64.6764H307.61Z" fill="white"/>
<circle cx="66" cy="78" r="20" fill="#91F0EA"/>
<circle cx="63" cy="77" r="20" fill="#22E0D5"/>
<path d="M64.6908 74.4936H71L59.8 90L61.3092 78.5064H55L66.2 63L64.6908 74.4936Z" fill="white"/>
<circle cx="218.721" cy="130.907" r="16.2791" fill="url(#paint1_linear_979_7256)"/>
<circle cx="216.279" cy="130.093" r="16.2791" fill="url(#paint2_linear_979_7256)"/>
<path d="M216.01 123C212.084 123 208.36 124.448 205.501 127.072L205 127.532L205.487 128.006L207.073 129.555L207.53 130L208.002 129.574C210.188 127.594 213.028 126.5 216 126.5C218.973 126.5 221.817 127.594 223.999 129.574L224.47 130L224.927 129.555L226.514 128.006L227 127.532L226.499 127.071C223.65 124.448 219.92 123 216.01 123Z" fill="white"/>
<path d="M222.512 130.832C220.724 129.005 218.415 128 216.009 128H215.599L215.595 128.01C213.327 128.115 211.171 129.109 209.484 130.832L209 131.326L209.465 131.846L210.972 133.532L211.392 134L211.834 133.564C213 132.408 214.479 131.768 215.996 131.768C217.521 131.768 219 132.408 220.166 133.564L220.608 134L221.028 133.532L222.535 131.846L223 131.326L222.512 130.831V130.832Z" fill="white"/>
<path d="M216.002 139L216.528 138.533L219.42 135.967L220 135.451L219.365 134.984C218.522 134.424 217.591 134 215.997 134C214.409 134 213.539 134.463 212.63 134.984L212 135.451L212.58 135.967L215.472 138.534L216.002 139Z" fill="white"/>
<circle cx="433" cy="80" r="19" stroke="#B7DAFC" stroke-width="2" stroke-dasharray="4 4"/>
<path d="M442.624 81.2254C442.679 80.8192 442.708 80.4099 442.711 80C442.708 79.5901 442.679 79.1808 442.624 78.7746L445.267 76.7121C445.383 76.6186 445.461 76.4869 445.489 76.3404C445.517 76.194 445.492 76.0425 445.418 75.913L442.913 71.5871C442.838 71.4583 442.72 71.3602 442.58 71.3099C442.441 71.2597 442.288 71.2606 442.148 71.3125L439.036 72.5625C438.388 72.0609 437.675 71.6488 436.918 71.3371L436.424 68.0246C436.403 67.879 436.331 67.7459 436.22 67.6496C436.11 67.5532 435.968 67.5001 435.822 67.5H430.809C430.662 67.4985 430.519 67.5509 430.407 67.6474C430.295 67.7438 430.221 67.8779 430.2 68.0246L429.718 71.3371C428.963 71.6537 428.251 72.0654 427.599 72.5625L424.487 71.3125C424.349 71.2568 424.194 71.254 424.053 71.3046C423.913 71.3551 423.795 71.4556 423.723 71.5871L421.211 75.913C421.135 76.0417 421.108 76.1941 421.136 76.3413C421.164 76.4885 421.244 76.6203 421.362 76.7121L424.005 78.7746C423.951 79.1808 423.922 79.5901 423.918 80C423.922 80.4099 423.951 80.8192 424.005 81.2254L421.362 83.2879C421.246 83.3814 421.168 83.5131 421.14 83.6596C421.112 83.806 421.137 83.9575 421.211 84.087L423.716 88.4129C423.791 88.5417 423.909 88.6398 424.049 88.6901C424.188 88.7403 424.341 88.7394 424.481 88.6875L427.593 87.4375C428.241 87.9391 428.954 88.3512 429.711 88.6629L430.2 91.9754C430.221 92.1221 430.295 92.2562 430.407 92.3526C430.519 92.4491 430.662 92.5015 430.809 92.5H435.822C435.968 92.4999 436.11 92.4468 436.22 92.3504C436.331 92.2541 436.403 92.121 436.424 91.9754L436.9 88.6629C437.655 88.3463 438.367 87.9346 439.018 87.4375L442.13 88.6875C442.269 88.7432 442.424 88.746 442.565 88.6954C442.705 88.6449 442.823 88.5444 442.895 88.4129L445.4 84.087C445.474 83.9575 445.499 83.806 445.471 83.6596C445.444 83.5131 445.365 83.3814 445.249 83.2879L442.624 81.2254ZM433.312 84.375C432.452 84.3688 431.613 84.107 430.9 83.6225C430.188 83.1381 429.634 82.4526 429.309 81.6527C428.984 80.8527 428.902 79.9741 429.074 79.1275C429.246 78.2809 429.663 77.5043 430.274 76.8955C430.884 76.2868 431.661 75.8732 432.505 75.7069C433.349 75.5406 434.224 75.6291 435.018 75.9611C435.812 76.2931 436.491 76.8539 436.968 77.5727C437.445 78.2914 437.7 79.136 437.7 80C437.695 81.1641 437.23 82.2785 436.407 83.0988C435.585 83.919 434.472 84.378 433.312 84.375Z" fill="#B7DAFC"/>
<path d="M372.5 109L286.5 175.5L321 198.5L390 135L372.5 109Z" fill="#A8D2FA"/>
<path d="M369 122L301.5 177" stroke="white"/>
<rect x="419.5" y="164.174" width="10.7642" height="25.806" transform="rotate(-35 419.5 164.174)" fill="#6685A4"/>
<rect x="379.5" y="123.633" width="29" height="71" rx="14.5" transform="rotate(-35 379.5 123.633)" fill="#A8D2FA"/>
<rect x="419.5" y="142.268" width="3.95397" height="18.9658" rx="1.97698" transform="rotate(-35 419.5 142.268)" fill="white"/>
<path d="M236 312L273.5 207H319.5L297.5 312H236Z" fill="#A8D2FA"/>
<path d="M278 221L248 312" stroke="white"/>
<path d="M285.5 224L257.5 312" stroke="white"/>
<path d="M281.5 188.499C288.667 163.166 328.5 75.9993 376.5 107.999" stroke="#DBEDFF"/>
<path d="M273 188.499C273.5 162.666 293.9 111.299 371.5 112.499" stroke="#DBEDFF"/>
<path d="M430 151C439.5 152 454 159 444 180.5" stroke="#DBEDFF"/>
<path d="M426 145C432.167 143.667 448 150.5 443.5 179.5" stroke="#DBEDFF"/>
<circle cx="297.5" cy="199" r="32" fill="white"/>
<circle cx="297.5" cy="199" r="22" fill="url(#paint3_linear_979_7256)"/>
<circle cx="297.5" cy="199" r="12" fill="#6685A4"/>
<circle cx="389.5" cy="116" r="23" fill="white"/>
<circle cx="389.5" cy="116" r="16" fill="url(#paint4_linear_979_7256)"/>
<circle cx="389.5" cy="116" r="10" fill="white"/>
<circle cx="389.5" cy="116" r="5.5" stroke="#90B8E8"/>
<path d="M459.508 201.234L461.162 186.746L446.992 180.181L440.585 184.644L434.178 189.107L435.533 204.598L448.7 208.153" stroke="#22E0D5" stroke-width="6" stroke-linecap="round"/>
<circle cx="365" cy="132" r="1.5" stroke="white"/>
<circle cx="320" cy="168" r="1.5" stroke="white"/>
<path d="M115.302 111.556L186.014 194.128L147.564 209.646L92.8888 133.463L115.302 111.556Z" fill="#A8D2FA"/>
<path d="M116.091 124.997L171.022 192.552" stroke="white"/>
<rect width="10.7642" height="25.806" transform="matrix(-0.728052 -0.685522 -0.685522 0.728052 65.126 169.427)" fill="#6685A4"/>
<rect width="29" height="71" rx="14.5" transform="matrix(-0.728052 -0.685522 -0.685522 0.728052 110.545 135.065)" fill="#A8D2FA"/>
<rect width="3.95397" height="18.9658" rx="1.97698" transform="matrix(-0.728052 -0.685522 -0.685522 0.728052 68.2793 147.747)" fill="white"/>
<path d="M209.5 312.004L195 220.004H149L152.574 312.004H209.5Z" fill="#A8D2FA"/>
<path d="M187.926 234.004L200.5 312.004" stroke="white"/>
<path d="M180.426 237.004L191 311.504" stroke="white"/>
<path d="M178 195.999C183.074 171.495 159 107 113.5 116.499" stroke="#DBEDFF"/>
<path d="M192.926 201.503C192.426 175.67 164 131 118 118.5" stroke="#DBEDFF"/>
<path d="M56.6318 154.878C47.0868 154.5 31.7302 159.339 38.531 182.055" stroke="#DBEDFF"/>
<path d="M61.4536 149.517C55.5431 147.31 38.891 151.792 39.1695 181.138" stroke="#DBEDFF"/>
<circle r="32" transform="matrix(-1 0 0 1 168.426 212.004)" fill="white"/>
<circle r="22" transform="matrix(-1 0 0 1 168.426 212.004)" fill="url(#paint5_linear_979_7256)"/>
<circle r="12" transform="matrix(-1 0 0 1 168.426 212.004)" fill="#6685A4"/>
<circle r="23" transform="matrix(-0.989585 -0.143953 -0.143953 0.989585 101.748 126.071)" fill="white"/>
<circle r="16" transform="matrix(-0.989585 -0.143953 -0.143953 0.989585 101.748 126.072)" fill="url(#paint6_linear_979_7256)"/>
<circle r="10" transform="matrix(-0.989585 -0.143953 -0.143953 0.989585 101.748 126.072)" fill="white"/>
<circle r="5.5" transform="matrix(-0.989585 -0.143953 -0.143953 0.989585 101.748 126.073)" stroke="#90B8E8"/>
<path d="M20.2 200.34L20.6483 185.765L35.6156 181.308L41.3137 186.647L47.0118 191.986L43.4406 207.121L29.8994 208.744" stroke="#FFDA28" stroke-width="6" stroke-linecap="round"/>
<circle cx="151" cy="176" r="1.5" transform="rotate(90 151 176)" stroke="white"/>
<circle cx="125" cy="144" r="1.5" transform="rotate(90 125 144)" stroke="white"/>
<rect x="34" y="309" width="402" height="10" rx="5" fill="url(#paint7_linear_979_7256)"/>
<defs>
<linearGradient id="paint0_linear_979_7256" x1="407.33" y1="285" x2="41.9386" y2="298.949" gradientUnits="userSpaceOnUse">
<stop stop-color="#E1F4FF"/>
<stop offset="1" stop-color="#EFFFFC"/>
</linearGradient>
<linearGradient id="paint1_linear_979_7256" x1="218.721" y1="114.628" x2="218.721" y2="147.186" gradientUnits="userSpaceOnUse">
<stop stop-color="#B2C7FF"/>
<stop offset="1" stop-color="#B5EDFF"/>
</linearGradient>
<linearGradient id="paint2_linear_979_7256" x1="216.279" y1="113.814" x2="216.279" y2="146.372" gradientUnits="userSpaceOnUse">
<stop stop-color="#8AAEFF"/>
<stop offset="1" stop-color="#89E3FF"/>
</linearGradient>
<linearGradient id="paint3_linear_979_7256" x1="297.5" y1="177" x2="297.5" y2="221" gradientUnits="userSpaceOnUse">
<stop stop-color="#4971FF" stop-opacity="0.5"/>
<stop offset="1" stop-color="#1BC8FF" stop-opacity="0.5"/>
</linearGradient>
<linearGradient id="paint4_linear_979_7256" x1="389.5" y1="100" x2="389.5" y2="132" gradientUnits="userSpaceOnUse">
<stop stop-color="#4971FF" stop-opacity="0.5"/>
<stop offset="1" stop-color="#1BC8FF" stop-opacity="0.5"/>
</linearGradient>
<linearGradient id="paint5_linear_979_7256" x1="22" y1="0" x2="22" y2="44" gradientUnits="userSpaceOnUse">
<stop stop-color="#4971FF" stop-opacity="0.5"/>
<stop offset="1" stop-color="#1BC8FF" stop-opacity="0.5"/>
</linearGradient>
<linearGradient id="paint6_linear_979_7256" x1="16" y1="0" x2="16" y2="32" gradientUnits="userSpaceOnUse">
<stop stop-color="#4971FF" stop-opacity="0.5"/>
<stop offset="1" stop-color="#1BC8FF" stop-opacity="0.5"/>
</linearGradient>
<linearGradient id="paint7_linear_979_7256" x1="386.378" y1="319" x2="204.656" y2="481.015" gradientUnits="userSpaceOnUse">
<stop stop-color="#E8F8FF"/>
<stop offset="1" stop-color="#EAFEFB"/>
</linearGradient>
</defs>
</svg>
