<svg width="822" height="293" viewBox="0 0 822 293" fill="none" xmlns="http://www.w3.org/2000/svg">
<path d="M202.397 88.9973L206.578 83.4226H212.784V249.5H202.397V88.9973Z" fill="white" stroke="#E3E5E5" stroke-width="5"/>
<path d="M206.332 78.3831C202.771 69.7688 206.056 59.6385 214.348 54.851C222.64 50.0635 233.055 52.2843 238.735 59.6756L238.717 59.6858L238.644 59.7279L238.571 59.77L238.498 59.8122L238.425 59.8544L238.352 59.8966L238.279 59.9388L238.206 59.981L238.133 60.0232L238.06 60.0654L237.986 60.1076L237.913 60.1499L237.84 60.1922L237.767 60.2344L237.694 60.2767L237.62 60.319L237.547 60.3613L237.474 60.4036L237.401 60.4459L237.327 60.4882L237.254 60.5306L237.181 60.5729L237.107 60.6153L237.034 60.6576L236.96 60.7L236.887 60.7424L236.814 60.7848L236.74 60.8272L236.667 60.8696L236.593 60.912L236.52 60.9544L236.446 60.9969L236.373 61.0393L236.299 61.0818L236.226 61.1242L236.152 61.1667L236.079 61.2092L236.005 61.2517L235.931 61.2941L235.858 61.3367L235.784 61.3792L235.711 61.4217L235.637 61.4642L235.563 61.5067L235.49 61.5493L235.416 61.5918L235.342 61.6344L235.268 61.6769L235.195 61.7195L235.121 61.7621L235.047 61.8047L234.973 61.8473L234.9 61.8899L234.826 61.9325L234.752 61.9751L234.678 62.0177L234.604 62.0603L234.531 62.103L234.457 62.1456L234.383 62.1882L234.309 62.2309L234.235 62.2736L234.161 62.3162L234.087 62.3589L234.013 62.4016L233.939 62.4442L233.865 62.4869L233.791 62.5296L233.718 62.5723L233.644 62.615L233.57 62.6577L233.496 62.7005L233.422 62.7432L233.348 62.7859L233.274 62.8286L233.2 62.8714L233.126 62.9141L233.051 62.9569L232.977 62.9996L232.903 63.0424L232.829 63.0851L232.755 63.1279L232.681 63.1707L232.607 63.2135L232.533 63.2562L232.459 63.299L232.385 63.3418L232.311 63.3846L232.237 63.4274L232.162 63.4702L232.088 63.513L232.014 63.5558L231.94 63.5986L231.866 63.6414L231.792 63.6843L231.717 63.7271L231.643 63.7699L231.569 63.8127L231.495 63.8556L231.421 63.8984L231.346 63.9413L231.272 63.9841L231.198 64.0269L231.124 64.0698L231.05 64.1126L230.975 64.1555L230.901 64.1984L230.827 64.2412L230.753 64.2841L230.678 64.3269L230.604 64.3698L230.53 64.4127L230.456 64.4555L230.381 64.4984L230.307 64.5413L230.233 64.5842L230.159 64.6271L230.084 64.6699L230.01 64.7128L229.936 64.7557L229.862 64.7986L229.787 64.8415L229.713 64.8844L229.639 64.9273L229.564 64.9702L229.49 65.013L229.416 65.0559L229.341 65.0988L229.267 65.1417L229.193 65.1846L229.119 65.2275L229.044 65.2704L228.97 65.3133L228.896 65.3562L228.821 65.3991L228.747 65.442L228.673 65.4849L228.598 65.5278L228.524 65.5707L228.45 65.6136L228.376 65.6565L228.301 65.6994L228.227 65.7423L228.153 65.7852L228.078 65.8281L228.004 65.871L227.93 65.9139L227.855 65.9568L227.781 65.9997L227.707 66.0426L227.633 66.0855L227.558 66.1284L227.484 66.1713L227.41 66.2142L227.335 66.2571L227.261 66.3L227.187 66.3429L227.112 66.3858L227.038 66.4287L226.964 66.4715L226.89 66.5144L226.815 66.5573L226.741 66.6002L226.667 66.6431L226.593 66.6859L226.518 66.7288L226.444 66.7717L226.37 66.8146L226.296 66.8574L226.221 66.9003L226.147 66.9432L226.073 66.986L225.999 67.0289L225.924 67.0717L225.85 67.1146L225.776 67.1574L225.702 67.2003L225.627 67.2431L225.553 67.286L225.479 67.3288L225.405 67.3716L225.331 67.4145L225.257 67.4573L225.182 67.5001L225.108 67.5429L225.034 67.5858L224.96 67.6286L224.886 67.6714L224.812 67.7142L224.737 67.757L224.663 67.7998L224.589 67.8426L224.515 67.8854L224.441 67.9282L224.367 67.9709L224.293 68.0137L224.219 68.0565L224.145 68.0993L224.071 68.142L223.996 68.1848L223.922 68.2275L223.848 68.2703L223.774 68.313L223.7 68.3558L223.626 68.3985L223.552 68.4412L223.478 68.484L223.404 68.5267L223.33 68.5694L223.256 68.6121L223.182 68.6548L223.108 68.6975L223.035 68.7402L222.961 68.7829L222.887 68.8255L222.813 68.8682L222.739 68.9109L222.665 68.9535L222.591 68.9962L222.517 69.0388L222.443 69.0815L222.37 69.1241L222.296 69.1667L222.222 69.2094L222.148 69.252L222.074 69.2946L222 69.3372L221.927 69.3798L221.853 69.4224L221.779 69.4649L221.705 69.5075L221.632 69.5501L221.558 69.5926L221.484 69.6352L221.411 69.6777L221.337 69.7203L221.263 69.7628L221.19 69.8053L221.116 69.8478L221.042 69.8903L220.969 69.9328L220.895 69.9753L220.822 70.0178L220.748 70.0603L220.674 70.1027L220.601 70.1452L220.527 70.1876L220.454 70.2301L220.38 70.2725L220.307 70.3149L220.233 70.3573L220.16 70.3997L220.087 70.4421L220.013 70.4845L219.94 70.5269L219.866 70.5693L219.793 70.6116L219.72 70.654L219.646 70.6963L219.573 70.7386L219.5 70.781L219.426 70.8233L219.353 70.8656L219.28 70.9079L219.207 70.9501L219.134 70.9924L219.06 71.0347L218.987 71.0769L218.914 71.1192L218.841 71.1614L218.768 71.2036L218.695 71.2458L218.622 71.288L218.548 71.3302L218.475 71.3724L218.402 71.4146L218.329 71.4567L218.256 71.4989L218.183 71.541L218.11 71.5831L218.037 71.6252L217.965 71.6673L217.892 71.7094L217.819 71.7515L217.746 71.7936L217.673 71.8356L217.6 71.8777L217.527 71.9197L217.455 71.9617L217.382 72.0037L217.309 72.0457L217.236 72.0877L217.164 72.1297L217.091 72.1716L217.018 72.2136L216.946 72.2555L216.873 72.2974L216.801 72.3393L216.728 72.3812L216.655 72.4231L216.583 72.465L216.51 72.5068L216.438 72.5487L216.366 72.5905L216.293 72.6323L216.221 72.6741L216.148 72.7159L216.076 72.7577L216.004 72.7995L215.931 72.8412L215.859 72.883L215.787 72.9247L215.714 72.9664L215.642 73.0081L215.57 73.0498L215.498 73.0915L215.426 73.1331L215.354 73.1748L215.281 73.2164L215.209 73.258L215.137 73.2996L215.065 73.3412L214.993 73.3828L214.921 73.4243L214.849 73.4659L214.777 73.5074L214.706 73.5489L214.634 73.5904L214.562 73.6319L214.49 73.6733L214.418 73.7148L214.346 73.7562L214.275 73.7977L214.203 73.8391L214.131 73.8805L214.06 73.9218L213.988 73.9632L213.916 74.0045L213.845 74.0459L213.773 74.0872L213.702 74.1285L213.63 74.1697L213.559 74.211L213.487 74.2523L213.416 74.2935L213.345 74.3347L213.273 74.3759L213.202 74.4171L213.131 74.4582L213.059 74.4994L212.988 74.5405L212.917 74.5816L212.846 74.6227L212.774 74.6638L212.703 74.7049L212.632 74.7459L212.561 74.787L212.49 74.828L212.419 74.869L212.348 74.9099L212.277 74.9509L212.206 74.9918L212.135 75.0328L212.065 75.0737L211.994 75.1146L211.923 75.1554L211.852 75.1963L211.781 75.2371L211.711 75.2779L211.64 75.3187L211.569 75.3595L211.499 75.4003L211.428 75.441L211.358 75.4817L211.287 75.5225L211.217 75.5631L211.146 75.6038L211.076 75.6445L211.006 75.6851L210.935 75.7257L210.865 75.7663L210.795 75.8069L210.724 75.8474L210.654 75.888L210.584 75.9285L210.514 75.969L210.444 76.0094L210.374 76.0499L210.304 76.0903L210.234 76.1307L210.164 76.1711L210.094 76.2115L210.024 76.2519L209.954 76.2922L209.884 76.3325L209.814 76.3728L209.745 76.4131L209.675 76.4534L209.605 76.4936L209.536 76.5338L209.466 76.574L209.396 76.6142L209.327 76.6543L209.257 76.6944L209.188 76.7346L209.118 76.7746L209.049 76.8147L208.98 76.8548L208.91 76.8948L208.841 76.9348L208.772 76.9748L208.703 77.0147L208.633 77.0547L208.564 77.0946L208.495 77.1345L208.426 77.1743L208.357 77.2142L208.288 77.254L208.219 77.2938L208.15 77.3336L208.081 77.3734L208.013 77.4131L207.944 77.4528L207.875 77.4925L207.806 77.5322L207.738 77.5718L207.669 77.6115L207.6 77.6511L207.532 77.6907L207.463 77.7302L207.395 77.7697L207.326 77.8093L207.258 77.8487L207.19 77.8882L207.121 77.9276L207.053 77.9671L206.985 78.0065L206.917 78.0458L206.848 78.0852L206.78 78.1245L206.712 78.1638L206.644 78.2031L206.576 78.2423L206.508 78.2815L206.44 78.3207L206.373 78.3599L206.332 78.3831Z" fill="white" stroke="#E3E5E5" stroke-width="5"/>
<path d="M208.772 82.8327C217.387 79.2714 227.517 82.5558 232.304 90.8481C237.092 99.1403 234.871 109.556 227.48 115.235L227.47 115.218L227.428 115.145L227.385 115.072L227.343 114.998L227.301 114.925L227.259 114.852L227.217 114.779L227.174 114.706L227.132 114.633L227.09 114.56L227.048 114.487L227.006 114.414L226.963 114.34L226.921 114.267L226.879 114.194L226.836 114.121L226.794 114.047L226.752 113.974L226.709 113.901L226.667 113.828L226.625 113.754L226.582 113.681L226.54 113.608L226.498 113.534L226.455 113.461L226.413 113.387L226.371 113.314L226.328 113.241L226.286 113.167L226.243 113.094L226.201 113.02L226.159 112.947L226.116 112.873L226.074 112.8L226.031 112.726L225.989 112.652L225.946 112.579L225.904 112.505L225.861 112.432L225.819 112.358L225.776 112.284L225.734 112.211L225.691 112.137L225.649 112.063L225.606 111.99L225.564 111.916L225.521 111.842L225.478 111.769L225.436 111.695L225.393 111.621L225.351 111.547L225.308 111.474L225.266 111.4L225.223 111.326L225.18 111.252L225.138 111.178L225.095 111.105L225.052 111.031L225.01 110.957L224.967 110.883L224.924 110.809L224.882 110.735L224.839 110.661L224.797 110.587L224.754 110.514L224.711 110.44L224.668 110.366L224.626 110.292L224.583 110.218L224.54 110.144L224.498 110.07L224.455 109.996L224.412 109.922L224.369 109.848L224.327 109.774L224.284 109.7L224.241 109.626L224.199 109.552L224.156 109.478L224.113 109.404L224.07 109.33L224.027 109.256L223.985 109.181L223.942 109.107L223.899 109.033L223.856 108.959L223.814 108.885L223.771 108.811L223.728 108.737L223.685 108.663L223.642 108.589L223.6 108.514L223.557 108.44L223.514 108.366L223.471 108.292L223.428 108.218L223.385 108.144L223.343 108.069L223.3 107.995L223.257 107.921L223.214 107.847L223.171 107.773L223.128 107.698L223.086 107.624L223.043 107.55L223 107.476L222.957 107.401L222.914 107.327L222.871 107.253L222.828 107.179L222.786 107.104L222.743 107.03L222.7 106.956L222.657 106.882L222.614 106.807L222.571 106.733L222.528 106.659L222.485 106.585L222.443 106.51L222.4 106.436L222.357 106.362L222.314 106.288L222.271 106.213L222.228 106.139L222.185 106.065L222.142 105.99L222.099 105.916L222.057 105.842L222.014 105.767L221.971 105.693L221.928 105.619L221.885 105.545L221.842 105.47L221.799 105.396L221.756 105.322L221.713 105.247L221.67 105.173L221.628 105.099L221.585 105.024L221.542 104.95L221.499 104.876L221.456 104.802L221.413 104.727L221.37 104.653L221.327 104.579L221.284 104.504L221.241 104.43L221.199 104.356L221.156 104.281L221.113 104.207L221.07 104.133L221.027 104.058L220.984 103.984L220.941 103.91L220.898 103.836L220.855 103.761L220.813 103.687L220.77 103.613L220.727 103.538L220.684 103.464L220.641 103.39L220.598 103.316L220.555 103.241L220.512 103.167L220.469 103.093L220.427 103.019L220.384 102.944L220.341 102.87L220.298 102.796L220.255 102.722L220.212 102.647L220.169 102.573L220.127 102.499L220.084 102.425L220.041 102.35L219.998 102.276L219.955 102.202L219.912 102.128L219.869 102.054L219.827 101.979L219.784 101.905L219.741 101.831L219.698 101.757L219.655 101.683L219.612 101.608L219.57 101.534L219.527 101.46L219.484 101.386L219.441 101.312L219.398 101.238L219.356 101.164L219.313 101.089L219.27 101.015L219.227 100.941L219.184 100.867L219.142 100.793L219.099 100.719L219.056 100.645L219.013 100.571L218.971 100.497L218.928 100.423L218.885 100.349L218.842 100.275L218.8 100.201L218.757 100.127L218.714 100.053L218.671 99.9786L218.629 99.9046L218.586 99.8306L218.543 99.7566L218.501 99.6827L218.458 99.6087L218.415 99.5348L218.373 99.4609L218.33 99.3869L218.287 99.313L218.245 99.2391L218.202 99.1652L218.159 99.0914L218.117 99.0175L218.074 98.9436L218.031 98.8698L217.989 98.796L217.946 98.7221L217.903 98.6483L217.861 98.5745L217.818 98.5007L217.776 98.427L217.733 98.3532L217.69 98.2794L217.648 98.2057L217.605 98.132L217.563 98.0583L217.52 97.9846L217.478 97.9109L217.435 97.8372L217.393 97.7635L217.35 97.6899L217.308 97.6163L217.265 97.5426L217.223 97.469L217.18 97.3954L217.138 97.3219L217.095 97.2483L217.053 97.1748L217.01 97.1012L216.968 97.0277L216.925 96.9542L216.883 96.8807L216.84 96.8072L216.798 96.7338L216.756 96.6603L216.713 96.5869L216.671 96.5135L216.628 96.4401L216.586 96.3667L216.544 96.2933L216.501 96.22L216.459 96.1467L216.417 96.0733L216.374 96L216.332 95.9268L216.29 95.8535L216.248 95.7802L216.205 95.707L216.163 95.6338L216.121 95.5606L216.078 95.4874L216.036 95.4143L215.994 95.3411L215.952 95.268L215.91 95.1949L215.867 95.1218L215.825 95.0487L215.783 94.9757L215.741 94.9026L215.699 94.8296L215.657 94.7566L215.614 94.6836L215.572 94.6107L215.53 94.5377L215.488 94.4648L215.446 94.3919L215.404 94.319L215.362 94.2462L215.32 94.1733L215.278 94.1005L215.236 94.0277L215.194 93.9549L215.152 93.8822L215.11 93.8094L215.068 93.7367L215.026 93.664L214.984 93.5913L214.942 93.5187L214.9 93.4461L214.858 93.3734L214.816 93.3009L214.774 93.2283L214.732 93.1557L214.69 93.0832L214.649 93.0107L214.607 92.9382L214.565 92.8658L214.523 92.7934L214.481 92.7209L214.439 92.6486L214.398 92.5762L214.356 92.5038L214.314 92.4315L214.272 92.3592L214.231 92.287L214.189 92.2147L214.147 92.1425L214.106 92.0703L214.064 91.9981L214.022 91.926L213.981 91.8538L213.939 91.7817L213.897 91.7097L213.856 91.6376L213.814 91.5656L213.773 91.4936L213.731 91.4216L213.69 91.3497L213.648 91.2777L213.606 91.2058L213.565 91.134L213.524 91.0621L213.482 90.9903L213.441 90.9185L213.399 90.8467L213.358 90.775L213.316 90.7033L213.275 90.6316L213.234 90.5599L213.192 90.4883L213.151 90.4167L213.11 90.3451L213.068 90.2735L213.027 90.202L212.986 90.1305L212.944 90.059L212.903 89.9876L212.862 89.9162L212.821 89.8448L212.779 89.7734L212.738 89.7021L212.697 89.6308L212.656 89.5595L212.615 89.4883L212.574 89.4171L212.533 89.3459L212.492 89.2747L212.451 89.2036L212.409 89.1325L212.368 89.0615L212.327 88.9904L212.286 88.9194L212.245 88.8484L212.204 88.7775L212.164 88.7066L212.123 88.6357L212.082 88.5648L212.041 88.494L212 88.4232L211.959 88.3525L211.918 88.2817L211.877 88.211L211.837 88.1404L211.796 88.0698L211.755 87.9991L211.714 87.9286L211.674 87.858L211.633 87.7875L211.592 87.7171L211.552 87.6466L211.511 87.5762L211.47 87.5058L211.43 87.4355L211.389 87.3652L211.349 87.2949L211.308 87.2247L211.267 87.1545L211.227 87.0843L211.186 87.0142L211.146 86.9441L211.106 86.874L211.065 86.8039L211.025 86.7339L210.984 86.664L210.944 86.594L210.904 86.5241L210.863 86.4543L210.823 86.3844L210.783 86.3147L210.742 86.2449L210.702 86.1752L210.662 86.1055L210.622 86.0358L210.581 85.9662L210.541 85.8966L210.501 85.8271L210.461 85.7576L210.421 85.6881L210.381 85.6187L210.341 85.5493L210.301 85.4799L210.261 85.4106L210.221 85.3413L210.181 85.2721L210.141 85.2028L210.101 85.1337L210.061 85.0645L210.021 84.9954L209.981 84.9264L209.941 84.8574L209.901 84.7884L209.862 84.7194L209.822 84.6505L209.782 84.5816L209.742 84.5128L209.703 84.444L209.663 84.3753L209.623 84.3066L209.584 84.2379L209.544 84.1692L209.504 84.1007L209.465 84.0321L209.425 83.9636L209.386 83.8951L209.346 83.8267L209.307 83.7583L209.267 83.6899L209.228 83.6216L209.188 83.5533L209.149 83.4851L209.11 83.4169L209.07 83.3488L209.031 83.2807L208.992 83.2126L208.952 83.1446L208.913 83.0766L208.874 83.0086L208.835 82.9407L208.795 82.8729L208.772 82.8327Z" fill="white" stroke="#E3E5E5" stroke-width="5"/>
<path d="M204.428 85.2736C207.99 93.8879 204.705 104.018 196.413 108.806C188.121 113.593 177.705 111.372 172.026 103.981L172.043 103.971L172.116 103.929L172.189 103.887L172.262 103.845L172.336 103.802L172.409 103.76L172.482 103.718L172.555 103.676L172.628 103.634L172.701 103.591L172.774 103.549L172.847 103.507L172.921 103.465L172.994 103.422L173.067 103.38L173.14 103.338L173.213 103.295L173.287 103.253L173.36 103.211L173.433 103.169L173.507 103.126L173.58 103.084L173.653 103.041L173.727 102.999L173.8 102.957L173.874 102.914L173.947 102.872L174.02 102.83L174.094 102.787L174.167 102.745L174.241 102.702L174.314 102.66L174.388 102.617L174.461 102.575L174.535 102.533L174.609 102.49L174.682 102.448L174.756 102.405L174.829 102.363L174.903 102.32L174.977 102.278L175.05 102.235L175.124 102.193L175.197 102.15L175.271 102.107L175.345 102.065L175.419 102.022L175.492 101.98L175.566 101.937L175.64 101.895L175.714 101.852L175.787 101.809L175.861 101.767L175.935 101.724L176.009 101.682L176.083 101.639L176.156 101.596L176.23 101.554L176.304 101.511L176.378 101.468L176.452 101.426L176.526 101.383L176.6 101.341L176.673 101.298L176.747 101.255L176.821 101.212L176.895 101.17L176.969 101.127L177.043 101.084L177.117 101.042L177.191 100.999L177.265 100.956L177.339 100.914L177.413 100.871L177.487 100.828L177.561 100.785L177.635 100.743L177.709 100.7L177.783 100.657L177.857 100.614L177.931 100.572L178.005 100.529L178.08 100.486L178.154 100.443L178.228 100.401L178.302 100.358L178.376 100.315L178.45 100.272L178.524 100.229L178.598 100.187L178.672 100.144L178.747 100.101L178.821 100.058L178.895 100.015L178.969 99.9725L179.043 99.9297L179.117 99.8868L179.192 99.844L179.266 99.8012L179.34 99.7583L179.414 99.7155L179.488 99.6726L179.563 99.6298L179.637 99.587L179.711 99.5441L179.785 99.5012L179.86 99.4584L179.934 99.4155L180.008 99.3727L180.082 99.3298L180.156 99.2869L180.231 99.2441L180.305 99.2012L180.379 99.1583L180.454 99.1154L180.528 99.0726L180.602 99.0297L180.676 98.9868L180.751 98.9439L180.825 98.901L180.899 98.8581L180.973 98.8153L181.048 98.7724L181.122 98.7295L181.196 98.6866L181.271 98.6437L181.345 98.6008L181.419 98.5579L181.493 98.515L181.568 98.4721L181.642 98.4292L181.716 98.3863L181.791 98.3434L181.865 98.3005L181.939 98.2576L182.014 98.2147L182.088 98.1718L182.162 98.1289L182.237 98.086L182.311 98.0431L182.385 98.0002L182.459 97.9573L182.534 97.9144L182.608 97.8715L182.682 97.8286L182.757 97.7857L182.831 97.7428L182.905 97.6999L182.98 97.657L183.054 97.6141L183.128 97.5712L183.202 97.5283L183.277 97.4854L183.351 97.4425L183.425 97.3996L183.5 97.3568L183.574 97.3139L183.648 97.271L183.722 97.2281L183.797 97.1852L183.871 97.1423L183.945 97.0994L184.02 97.0566L184.094 97.0137L184.168 96.9708L184.242 96.9279L184.317 96.8851L184.391 96.8422L184.465 96.7993L184.539 96.7564L184.614 96.7136L184.688 96.6707L184.762 96.6279L184.836 96.585L184.911 96.5422L184.985 96.4993L185.059 96.4565L185.133 96.4136L185.207 96.3708L185.282 96.3279L185.356 96.2851L185.43 96.2423L185.504 96.1994L185.578 96.1566L185.652 96.1138L185.727 96.071L185.801 96.0282L185.875 95.9854L185.949 95.9426L186.023 95.8997L186.097 95.857L186.171 95.8142L186.246 95.7714L186.32 95.7286L186.394 95.6858L186.468 95.643L186.542 95.6003L186.616 95.5575L186.69 95.5147L186.764 95.472L186.838 95.4292L186.912 95.3865L186.986 95.3437L187.06 95.301L187.134 95.2582L187.208 95.2155L187.282 95.1728L187.356 95.1301L187.43 95.0874L187.504 95.0447L187.578 95.002L187.652 94.9593L187.726 94.9166L187.8 94.8739L187.874 94.8312L187.948 94.7885L188.022 94.7459L188.096 94.7032L188.17 94.6605L188.243 94.6179L188.317 94.5753L188.391 94.5326L188.465 94.49L188.539 94.4474L188.613 94.4048L188.686 94.3622L188.76 94.3196L188.834 94.277L188.908 94.2344L188.982 94.1918L189.055 94.1492L189.129 94.1067L189.203 94.0641L189.276 94.0215L189.35 93.979L189.424 93.9365L189.497 93.8939L189.571 93.8514L189.645 93.8089L189.718 93.7664L189.792 93.7239L189.866 93.6814L189.939 93.6389L190.013 93.5965L190.086 93.554L190.16 93.5115L190.233 93.4691L190.307 93.4267L190.38 93.3842L190.454 93.3418L190.527 93.2994L190.601 93.257L190.674 93.2146L190.747 93.1722L190.821 93.1298L190.894 93.0875L190.968 93.0451L191.041 93.0028L191.114 92.9604L191.188 92.9181L191.261 92.8758L191.334 92.8335L191.407 92.7912L191.481 92.7489L191.554 92.7066L191.627 92.6643L191.7 92.6221L191.774 92.5798L191.847 92.5376L191.92 92.4953L191.993 92.4531L192.066 92.4109L192.139 92.3687L192.212 92.3265L192.285 92.2844L192.358 92.2422L192.431 92.2L192.504 92.1579L192.577 92.1157L192.65 92.0736L192.723 92.0315L192.796 91.9894L192.869 91.9473L192.942 91.9052L193.015 91.8632L193.088 91.8211L193.16 91.7791L193.233 91.7371L193.306 91.695L193.379 91.653L193.452 91.611L193.524 91.569L193.597 91.5271L193.67 91.4851L193.742 91.4432L193.815 91.4012L193.888 91.3593L193.96 91.3174L194.033 91.2755L194.105 91.2336L194.178 91.1918L194.25 91.1499L194.323 91.108L194.395 91.0662L194.468 91.0244L194.54 90.9826L194.612 90.9408L194.685 90.899L194.757 90.8573L194.829 90.8155L194.902 90.7738L194.974 90.732L195.046 90.6903L195.118 90.6486L195.191 90.6069L195.263 90.5653L195.335 90.5236L195.407 90.482L195.479 90.4403L195.551 90.3987L195.623 90.3571L195.695 90.3155L195.767 90.274L195.839 90.2324L195.911 90.1909L195.983 90.1493L196.055 90.1078L196.127 90.0663L196.199 90.0249L196.271 89.9834L196.342 89.9419L196.414 89.9005L196.486 89.8591L196.558 89.8177L196.629 89.7763L196.701 89.7349L196.773 89.6936L196.844 89.6522L196.916 89.6109L196.987 89.5696L197.059 89.5283L197.13 89.487L197.202 89.4457L197.273 89.4045L197.345 89.3633L197.416 89.322L197.488 89.2808L197.559 89.2397L197.63 89.1985L197.701 89.1573L197.773 89.1162L197.844 89.0751L197.915 89.034L197.986 88.9929L198.057 88.9519L198.128 88.9108L198.2 88.8698L198.271 88.8288L198.342 88.7878L198.413 88.7468L198.483 88.7058L198.554 88.6649L198.625 88.624L198.696 88.5831L198.767 88.5422L198.838 88.5013L198.908 88.4605L198.979 88.4196L199.05 88.3788L199.121 88.338L199.191 88.2972L199.262 88.2565L199.332 88.2157L199.403 88.175L199.473 88.1343L199.544 88.0936L199.614 88.0529L199.685 88.0123L199.755 87.9717L199.825 87.931L199.896 87.8904L199.966 87.8499L200.036 87.8093L200.106 87.7688L200.177 87.7283L200.247 87.6878L200.317 87.6473L200.387 87.6068L200.457 87.5664L200.527 87.526L200.597 87.4856L200.667 87.4452L200.737 87.4049L200.807 87.3645L200.877 87.3242L200.946 87.2839L201.016 87.2436L201.086 87.2034L201.155 87.1632L201.225 87.1229L201.295 87.0827L201.364 87.0426L201.434 87.0024L201.503 86.9623L201.573 86.9222L201.642 86.8821L201.712 86.842L201.781 86.802L201.85 86.762L201.92 86.722L201.989 86.682L202.058 86.642L202.127 86.6021L202.196 86.5622L202.266 86.5223L202.335 86.4824L202.404 86.4425L202.473 86.4027L202.542 86.3629L202.61 86.3231L202.679 86.2834L202.748 86.2436L202.817 86.2039L202.886 86.1642L202.954 86.1245L203.023 86.0849L203.092 86.0453L203.16 86.0057L203.229 85.9661L203.297 85.9265L203.366 85.887L203.434 85.8475L203.503 85.808L203.571 85.7685L203.639 85.7291L203.708 85.6897L203.776 85.6503L203.844 85.6109L203.912 85.5716L203.98 85.5322L204.048 85.4929L204.116 85.4537L204.184 85.4144L204.252 85.3752L204.32 85.336L204.388 85.2968L204.428 85.2736Z" fill="white" stroke="#E3E5E5" stroke-width="5"/>
<path d="M201.883 80.9283C193.269 84.4895 183.138 81.2051 178.351 72.9129C173.563 64.6207 175.784 54.2054 183.175 48.5258L183.186 48.5435L183.228 48.6165L183.27 48.6895L183.312 48.7625L183.354 48.8356L183.396 48.9086L183.439 48.9817L183.481 49.0548L183.523 49.1279L183.565 49.2011L183.608 49.2742L183.65 49.3474L183.692 49.4206L183.734 49.4938L183.777 49.567L183.819 49.6403L183.861 49.7135L183.903 49.7868L183.946 49.8601L183.988 49.9334L184.03 50.0067L184.073 50.0801L184.115 50.1534L184.158 50.2268L184.2 50.3002L184.242 50.3736L184.285 50.447L184.327 50.5205L184.369 50.5939L184.412 50.6674L184.454 50.7409L184.497 50.8144L184.539 50.8879L184.582 50.9614L184.624 51.035L184.667 51.1085L184.709 51.1821L184.752 51.2557L184.794 51.3293L184.837 51.4029L184.879 51.4766L184.922 51.5502L184.964 51.6239L185.007 51.6975L185.049 51.7712L185.092 51.8449L185.134 51.9186L185.177 51.9923L185.219 52.0661L185.262 52.1398L185.305 52.2136L185.347 52.2873L185.39 52.3611L185.432 52.4349L185.475 52.5087L185.518 52.5825L185.56 52.6564L185.603 52.7302L185.645 52.8041L185.688 52.8779L185.731 52.9518L185.773 53.0257L185.816 53.0996L185.859 53.1735L185.901 53.2474L185.944 53.3213L185.987 53.3953L186.03 53.4692L186.072 53.5432L186.115 53.6171L186.158 53.6911L186.2 53.7651L186.243 53.8391L186.286 53.9131L186.329 53.9871L186.371 54.0611L186.414 54.1352L186.457 54.2092L186.5 54.2833L186.542 54.3573L186.585 54.4314L186.628 54.5055L186.671 54.5795L186.713 54.6536L186.756 54.7277L186.799 54.8018L186.842 54.876L186.884 54.9501L186.927 55.0242L186.97 55.0983L187.013 55.1725L187.056 55.2466L187.099 55.3208L187.141 55.3949L187.184 55.4691L187.227 55.5433L187.27 55.6174L187.313 55.6916L187.355 55.7658L187.398 55.84L187.441 55.9142L187.484 55.9884L187.527 56.0626L187.57 56.1369L187.613 56.2111L187.655 56.2853L187.698 56.3595L187.741 56.4338L187.784 56.508L187.827 56.5823L187.87 56.6565L187.913 56.7308L187.955 56.805L187.998 56.8793L188.041 56.9535L188.084 57.0278L188.127 57.1021L188.17 57.1763L188.213 57.2506L188.256 57.3249L188.298 57.3992L188.341 57.4735L188.384 57.5478L188.427 57.622L188.47 57.6963L188.513 57.7706L188.556 57.8449L188.599 57.9192L188.642 57.9935L188.685 58.0678L188.727 58.1421L188.77 58.2164L188.813 58.2907L188.856 58.365L188.899 58.4393L188.942 58.5136L188.985 58.5879L189.028 58.6622L189.071 58.7366L189.114 58.8109L189.156 58.8852L189.199 58.9595L189.242 59.0338L189.285 59.1081L189.328 59.1824L189.371 59.2567L189.414 59.331L189.457 59.4053L189.5 59.4796L189.543 59.5539L189.585 59.6282L189.628 59.7025L189.671 59.7768L189.714 59.8511L189.757 59.9254L189.8 59.9997L189.843 60.074L189.886 60.1482L189.929 60.2225L189.971 60.2968L190.014 60.3711L190.057 60.4454L190.1 60.5196L190.143 60.5939L190.186 60.6682L190.229 60.7424L190.272 60.8167L190.314 60.8909L190.357 60.9652L190.4 61.0394L190.443 61.1137L190.486 61.1879L190.529 61.2621L190.572 61.3364L190.614 61.4106L190.657 61.4848L190.7 61.559L190.743 61.6332L190.786 61.7074L190.829 61.7816L190.872 61.8558L190.914 61.93L190.957 62.0042L191 62.0784L191.043 62.1525L191.086 62.2267L191.128 62.3009L191.171 62.375L191.214 62.4491L191.257 62.5233L191.3 62.5974L191.342 62.6715L191.385 62.7456L191.428 62.8197L191.471 62.8938L191.514 62.9679L191.556 63.042L191.599 63.1161L191.642 63.1902L191.685 63.2642L191.727 63.3383L191.77 63.4123L191.813 63.4864L191.856 63.5604L191.898 63.6344L191.941 63.7084L191.984 63.7824L192.027 63.8564L192.069 63.9304L192.112 64.0044L192.155 64.0783L192.197 64.1523L192.24 64.2262L192.283 64.3001L192.325 64.3741L192.368 64.448L192.411 64.5219L192.453 64.5958L192.496 64.6696L192.539 64.7435L192.581 64.8174L192.624 64.8912L192.667 64.965L192.709 65.0389L192.752 65.1127L192.794 65.1865L192.837 65.2603L192.88 65.334L192.922 65.4078L192.965 65.4815L193.007 65.5553L193.05 65.629L193.093 65.7027L193.135 65.7764L193.178 65.8501L193.22 65.9238L193.263 65.9974L193.305 66.0711L193.348 66.1447L193.39 66.2183L193.433 66.2919L193.475 66.3655L193.518 66.4391L193.56 66.5127L193.603 66.5862L193.645 66.6598L193.688 66.7333L193.73 66.8068L193.772 66.8803L193.815 66.9538L193.857 67.0272L193.9 67.1007L193.942 67.1741L193.984 67.2475L194.027 67.3209L194.069 67.3943L194.112 67.4676L194.154 67.541L194.196 67.6143L194.239 67.6876L194.281 67.7609L194.323 67.8342L194.365 67.9075L194.408 67.9807L194.45 68.054L194.492 68.1272L194.535 68.2004L194.577 68.2736L194.619 68.3467L194.661 68.4199L194.703 68.493L194.746 68.5661L194.788 68.6392L194.83 68.7123L194.872 68.7853L194.914 68.8584L194.957 68.9314L194.999 69.0044L195.041 69.0774L195.083 69.1503L195.125 69.2233L195.167 69.2962L195.209 69.3691L195.251 69.442L195.293 69.5148L195.335 69.5877L195.378 69.6605L195.42 69.7333L195.462 69.8061L195.504 69.8788L195.546 69.9516L195.588 70.0243L195.63 70.097L195.672 70.1696L195.713 70.2423L195.755 70.3149L195.797 70.3875L195.839 70.4601L195.881 70.5327L195.923 70.6052L195.965 70.6778L196.007 70.7503L196.049 70.8227L196.09 70.8952L196.132 70.9676L196.174 71.04L196.216 71.1124L196.258 71.1848L196.299 71.2571L196.341 71.3295L196.383 71.4018L196.425 71.474L196.466 71.5463L196.508 71.6185L196.55 71.6907L196.591 71.7629L196.633 71.835L196.675 71.9071L196.716 71.9792L196.758 72.0513L196.799 72.1234L196.841 72.1954L196.883 72.2674L196.924 72.3394L196.966 72.4113L197.007 72.4833L197.049 72.5552L197.09 72.627L197.132 72.6989L197.173 72.7707L197.215 72.8425L197.256 72.9143L197.298 72.986L197.339 73.0577L197.38 73.1294L197.422 73.2011L197.463 73.2727L197.504 73.3443L197.546 73.4159L197.587 73.4875L197.628 73.559L197.67 73.6305L197.711 73.702L197.752 73.7734L197.793 73.8448L197.835 73.9162L197.876 73.9876L197.917 74.0589L197.958 74.1302L197.999 74.2015L198.04 74.2727L198.082 74.3439L198.123 74.4151L198.164 74.4862L198.205 74.5574L198.246 74.6285L198.287 74.6995L198.328 74.7706L198.369 74.8416L198.41 74.9125L198.451 74.9835L198.492 75.0544L198.533 75.1253L198.574 75.1961L198.614 75.267L198.655 75.3378L198.696 75.4085L198.737 75.4792L198.778 75.5499L198.819 75.6206L198.859 75.6912L198.9 75.7618L198.941 75.8324L198.982 75.9029L199.022 75.9734L199.063 76.0439L199.104 76.1144L199.144 76.1848L199.185 76.2551L199.226 76.3255L199.266 76.3958L199.307 76.4661L199.347 76.5363L199.388 76.6065L199.428 76.6767L199.469 76.7468L199.509 76.8169L199.55 76.887L199.59 76.957L199.631 77.027L199.671 77.097L199.711 77.1669L199.752 77.2368L199.792 77.3067L199.832 77.3765L199.873 77.4463L199.913 77.5161L199.953 77.5858L199.993 77.6555L200.034 77.7252L200.074 77.7948L200.114 77.8644L200.154 77.9339L200.194 78.0034L200.234 78.0729L200.275 78.1423L200.315 78.2117L200.355 78.2811L200.395 78.3504L200.435 78.4197L200.475 78.4889L200.515 78.5581L200.555 78.6273L200.594 78.6965L200.634 78.7656L200.674 78.8346L200.714 78.9036L200.754 78.9726L200.794 79.0416L200.833 79.1105L200.873 79.1793L200.913 79.2482L200.953 79.317L200.992 79.3857L201.032 79.4544L201.072 79.5231L201.111 79.5917L201.151 79.6603L201.191 79.7289L201.23 79.7974L201.27 79.8659L201.309 79.9343L201.349 80.0027L201.388 80.0711L201.428 80.1394L201.467 80.2076L201.506 80.2759L201.546 80.3441L201.585 80.4122L201.624 80.4803L201.664 80.5484L201.703 80.6164L201.742 80.6844L201.781 80.7523L201.821 80.8202L201.86 80.8881L201.883 80.9283Z" fill="white" stroke="#E3E5E5" stroke-width="5"/>
<path d="M665.506 103.14L669.683 97.8062H675.975V257.5H665.506V103.14Z" fill="white" stroke="#E3E5E5" stroke-width="5"/>
<path d="M669.479 92.8601C666.139 84.6393 669.288 75.0062 677.19 70.4439C685.092 65.8816 695.009 67.9707 700.459 74.9742L700.396 75.0106L700.325 75.0511L700.255 75.0917L700.185 75.1323L700.114 75.1729L700.044 75.2135L699.974 75.2541L699.903 75.2947L699.833 75.3353L699.763 75.3759L699.692 75.4166L699.622 75.4573L699.551 75.4979L699.481 75.5386L699.411 75.5793L699.34 75.62L699.27 75.6607L699.199 75.7014L699.128 75.7421L699.058 75.7828L698.987 75.8236L698.917 75.8643L698.846 75.9051L698.776 75.9459L698.705 75.9866L698.634 76.0274L698.564 76.0682L698.493 76.109L698.422 76.1498L698.352 76.1907L698.281 76.2315L698.21 76.2723L698.139 76.3132L698.069 76.354L697.998 76.3949L697.927 76.4357L697.856 76.4766L697.785 76.5175L697.715 76.5584L697.644 76.5993L697.573 76.6402L697.502 76.6811L697.431 76.722L697.36 76.7629L697.289 76.8039L697.219 76.8448L697.148 76.8858L697.077 76.9267L697.006 76.9677L696.935 77.0087L696.864 77.0496L696.793 77.0906L696.722 77.1316L696.651 77.1726L696.58 77.2136L696.509 77.2546L696.438 77.2956L696.367 77.3366L696.296 77.3777L696.225 77.4187L696.153 77.4597L696.082 77.5008L696.011 77.5418L695.94 77.5829L695.869 77.624L695.798 77.665L695.727 77.7061L695.656 77.7472L695.584 77.7883L695.513 77.8293L695.442 77.8704L695.371 77.9115L695.3 77.9526L695.229 77.9938L695.157 78.0349L695.086 78.076L695.015 78.1171L694.944 78.1582L694.872 78.1994L694.801 78.2405L694.73 78.2817L694.659 78.3228L694.587 78.3639L694.516 78.4051L694.445 78.4463L694.373 78.4874L694.302 78.5286L694.231 78.5698L694.16 78.6109L694.088 78.6521L694.017 78.6933L693.946 78.7345L693.874 78.7757L693.803 78.8169L693.732 78.8581L693.66 78.8993L693.589 78.9405L693.517 78.9817L693.446 79.0229L693.375 79.0641L693.303 79.1053L693.232 79.1465L693.16 79.1877L693.089 79.229L693.018 79.2702L692.946 79.3114L692.875 79.3526L692.803 79.3939L692.732 79.4351L692.661 79.4763L692.589 79.5176L692.518 79.5588L692.446 79.6001L692.375 79.6413L692.303 79.6825L692.232 79.7238L692.161 79.765L692.089 79.8063L692.018 79.8476L691.946 79.8888L691.875 79.9301L691.803 79.9713L691.732 80.0126L691.66 80.0538L691.589 80.0951L691.517 80.1364L691.446 80.1776L691.374 80.2189L691.303 80.2601L691.232 80.3014L691.16 80.3427L691.089 80.3839L691.017 80.4252L690.946 80.4665L690.874 80.5077L690.803 80.549L690.731 80.5903L690.66 80.6315L690.588 80.6728L690.517 80.7141L690.445 80.7553L690.374 80.7966L690.302 80.8379L690.231 80.8791L690.159 80.9204L690.088 80.9617L690.016 81.0029L689.945 81.0442L689.874 81.0855L689.802 81.1267L689.731 81.168L689.659 81.2092L689.588 81.2505L689.516 81.2917L689.445 81.333L689.373 81.3743L689.302 81.4155L689.23 81.4568L689.159 81.498L689.088 81.5393L689.016 81.5805L688.945 81.6218L688.873 81.663L688.802 81.7042L688.73 81.7455L688.659 81.7867L688.587 81.828L688.516 81.8692L688.445 81.9104L688.373 81.9516L688.302 81.9929L688.23 82.0341L688.159 82.0753L688.088 82.1165L688.016 82.1577L687.945 82.199L687.874 82.2402L687.802 82.2814L687.731 82.3226L687.659 82.3638L687.588 82.405L687.517 82.4462L687.445 82.4874L687.374 82.5285L687.303 82.5697L687.231 82.6109L687.16 82.6521L687.089 82.6932L687.017 82.7344L686.946 82.7756L686.875 82.8167L686.804 82.8579L686.732 82.899L686.661 82.9402L686.59 82.9813L686.519 83.0225L686.447 83.0636L686.376 83.1047L686.305 83.1459L686.234 83.187L686.162 83.2281L686.091 83.2692L686.02 83.3103L685.949 83.3514L685.878 83.3925L685.806 83.4336L685.735 83.4747L685.664 83.5158L685.593 83.5568L685.522 83.5979L685.451 83.639L685.38 83.68L685.308 83.7211L685.237 83.7621L685.166 83.8032L685.095 83.8442L685.024 83.8852L684.953 83.9263L684.882 83.9673L684.811 84.0083L684.74 84.0493L684.669 84.0903L684.598 84.1313L684.527 84.1723L684.456 84.2132L684.385 84.2542L684.314 84.2952L684.243 84.3361L684.172 84.3771L684.101 84.418L684.03 84.459L683.96 84.4999L683.889 84.5408L683.818 84.5817L683.747 84.6226L683.676 84.6635L683.605 84.7044L683.534 84.7453L683.464 84.7862L683.393 84.8271L683.322 84.8679L683.251 84.9088L683.181 84.9496L683.11 84.9905L683.039 85.0313L682.968 85.0721L682.898 85.1129L682.827 85.1537L682.756 85.1945L682.686 85.2353L682.615 85.2761L682.545 85.3169L682.474 85.3576L682.403 85.3984L682.333 85.4391L682.262 85.4799L682.192 85.5206L682.121 85.5613L682.051 85.602L681.98 85.6427L681.91 85.6834L681.839 85.7241L681.769 85.7648L681.698 85.8054L681.628 85.8461L681.558 85.8867L681.487 85.9273L681.417 85.968L681.346 86.0086L681.276 86.0492L681.206 86.0898L681.136 86.1303L681.065 86.1709L680.995 86.2115L680.925 86.252L680.855 86.2926L680.784 86.3331L680.714 86.3736L680.644 86.4141L680.574 86.4546L680.504 86.4951L680.434 86.5356L680.364 86.576L680.293 86.6165L680.223 86.6569L680.153 86.6974L680.083 86.7378L680.013 86.7782L679.943 86.8186L679.874 86.859L679.804 86.8993L679.734 86.9397L679.664 86.9801L679.594 87.0204L679.524 87.0607L679.454 87.101L679.384 87.1413L679.315 87.1816L679.245 87.2219L679.175 87.2622L679.105 87.3024L679.036 87.3426L678.966 87.3829L678.896 87.4231L678.827 87.4633L678.757 87.5035L678.688 87.5437L678.618 87.5838L678.549 87.624L678.479 87.6641L678.409 87.7042L678.34 87.7443L678.271 87.7844L678.201 87.8245L678.132 87.8646L678.062 87.9046L677.993 87.9447L677.924 87.9847L677.854 88.0247L677.785 88.0647L677.716 88.1047L677.647 88.1447L677.577 88.1846L677.508 88.2246L677.439 88.2645L677.37 88.3044L677.301 88.3443L677.232 88.3842L677.163 88.4241L677.094 88.4639L677.025 88.5038L676.956 88.5436L676.887 88.5834L676.818 88.6232L676.749 88.663L676.68 88.7028L676.611 88.7425L676.542 88.7823L676.473 88.822L676.405 88.8617L676.336 88.9014L676.267 88.9411L676.199 88.9807L676.13 89.0204L676.061 89.06L675.993 89.0996L675.924 89.1392L675.855 89.1788L675.787 89.2184L675.718 89.2579L675.65 89.2974L675.582 89.337L675.513 89.3765L675.445 89.4159L675.376 89.4554L675.308 89.4949L675.24 89.5343L675.171 89.5737L675.103 89.6131L675.035 89.6525L674.967 89.6919L674.899 89.7312L674.831 89.7705L674.762 89.8098L674.694 89.8491L674.626 89.8884L674.558 89.9277L674.49 89.9669L674.422 90.0062L674.355 90.0454L674.287 90.0846L674.219 90.1237L674.151 90.1629L674.083 90.202L674.015 90.2411L673.948 90.2802L673.88 90.3193L673.812 90.3584L673.745 90.3974L673.677 90.4365L673.61 90.4755L673.542 90.5145L673.475 90.5534L673.407 90.5924L673.34 90.6313L673.272 90.6702L673.205 90.7091L673.138 90.748L673.07 90.7869L673.003 90.8257L672.936 90.8645L672.868 90.9033L672.801 90.9421L672.734 90.9809L672.667 91.0196L672.6 91.0583L672.533 91.097L672.466 91.1357L672.399 91.1744L672.332 91.213L672.265 91.2516L672.198 91.2902L672.132 91.3288L672.065 91.3674L671.998 91.4059L671.931 91.4444L671.865 91.4829L671.798 91.5214L671.731 91.5599L671.665 91.5983L671.598 91.6367L671.532 91.6751L671.465 91.7135L671.399 91.7518L671.332 91.7902L671.266 91.8285L671.2 91.8668L671.133 91.905L671.067 91.9433L671.001 91.9815L670.935 92.0197L670.869 92.0579L670.803 92.0961L670.737 92.1342L670.671 92.1723L670.605 92.2104L670.539 92.2485L670.473 92.2865L670.407 92.3246L670.341 92.3626L670.275 92.4006L670.209 92.4385L670.144 92.4765L670.078 92.5144L670.012 92.5523L669.947 92.5901L669.881 92.628L669.816 92.6658L669.75 92.7036L669.685 92.7414L669.619 92.7791L669.554 92.8169L669.489 92.8546L669.479 92.8601Z" fill="white" stroke="#E3E5E5" stroke-width="5"/>
<path d="M671.916 97.3242C680.137 93.9835 689.77 97.1329 694.333 105.035C698.895 112.937 696.806 122.854 689.802 128.303L689.766 128.24L689.725 128.17L689.685 128.1L689.644 128.03L689.604 127.959L689.563 127.889L689.522 127.819L689.482 127.748L689.441 127.678L689.4 127.608L689.36 127.537L689.319 127.467L689.279 127.396L689.238 127.326L689.197 127.255L689.156 127.185L689.116 127.114L689.075 127.044L689.034 126.973L688.994 126.903L688.953 126.832L688.912 126.762L688.871 126.691L688.831 126.62L688.79 126.55L688.749 126.479L688.708 126.409L688.667 126.338L688.627 126.267L688.586 126.197L688.545 126.126L688.504 126.055L688.463 125.984L688.422 125.914L688.382 125.843L688.341 125.772L688.3 125.701L688.259 125.63L688.218 125.56L688.177 125.489L688.136 125.418L688.095 125.347L688.054 125.276L688.013 125.205L687.973 125.134L687.932 125.063L687.891 124.993L687.85 124.922L687.809 124.851L687.768 124.78L687.727 124.709L687.686 124.638L687.645 124.567L687.604 124.496L687.563 124.425L687.522 124.354L687.481 124.283L687.44 124.212L687.399 124.141L687.358 124.069L687.317 123.998L687.276 123.927L687.235 123.856L687.194 123.785L687.152 123.714L687.111 123.643L687.07 123.572L687.029 123.501L686.988 123.429L686.947 123.358L686.906 123.287L686.865 123.216L686.824 123.145L686.783 123.073L686.742 123.002L686.7 122.931L686.659 122.86L686.618 122.789L686.577 122.717L686.536 122.646L686.495 122.575L686.454 122.504L686.412 122.432L686.371 122.361L686.33 122.29L686.289 122.218L686.248 122.147L686.207 122.076L686.165 122.004L686.124 121.933L686.083 121.862L686.042 121.79L686.001 121.719L685.96 121.648L685.918 121.576L685.877 121.505L685.836 121.434L685.795 121.362L685.754 121.291L685.712 121.22L685.671 121.148L685.63 121.077L685.589 121.005L685.547 120.934L685.506 120.863L685.465 120.791L685.424 120.72L685.383 120.648L685.341 120.577L685.3 120.506L685.259 120.434L685.218 120.363L685.176 120.291L685.135 120.22L685.094 120.148L685.053 120.077L685.011 120.005L684.97 119.934L684.929 119.863L684.888 119.791L684.846 119.72L684.805 119.648L684.764 119.577L684.723 119.505L684.681 119.434L684.64 119.362L684.599 119.291L684.558 119.219L684.516 119.148L684.475 119.076L684.434 119.005L684.392 118.934L684.351 118.862L684.31 118.791L684.269 118.719L684.227 118.648L684.186 118.576L684.145 118.505L684.104 118.433L684.062 118.362L684.021 118.29L683.98 118.219L683.939 118.147L683.897 118.076L683.856 118.004L683.815 117.933L683.774 117.861L683.732 117.79L683.691 117.718L683.65 117.647L683.608 117.576L683.567 117.504L683.526 117.433L683.485 117.361L683.443 117.29L683.402 117.218L683.361 117.147L683.32 117.075L683.278 117.004L683.237 116.932L683.196 116.861L683.155 116.79L683.113 116.718L683.072 116.647L683.031 116.575L682.99 116.504L682.948 116.432L682.907 116.361L682.866 116.29L682.825 116.218L682.784 116.147L682.742 116.075L682.701 116.004L682.66 115.933L682.619 115.861L682.577 115.79L682.536 115.718L682.495 115.647L682.454 115.576L682.413 115.504L682.371 115.433L682.33 115.362L682.289 115.29L682.248 115.219L682.207 115.148L682.166 115.076L682.124 115.005L682.083 114.934L682.042 114.862L682.001 114.791L681.96 114.72L681.919 114.649L681.877 114.577L681.836 114.506L681.795 114.435L681.754 114.363L681.713 114.292L681.672 114.221L681.631 114.15L681.589 114.078L681.548 114.007L681.507 113.936L681.466 113.865L681.425 113.794L681.384 113.723L681.343 113.651L681.302 113.58L681.261 113.509L681.22 113.438L681.179 113.367L681.137 113.296L681.096 113.225L681.055 113.153L681.014 113.082L680.973 113.011L680.932 112.94L680.891 112.869L680.85 112.798L680.809 112.727L680.768 112.656L680.727 112.585L680.686 112.514L680.645 112.443L680.604 112.372L680.563 112.301L680.522 112.23L680.481 112.159L680.44 112.088L680.399 112.017L680.358 111.946L680.317 111.875L680.277 111.804L680.236 111.734L680.195 111.663L680.154 111.592L680.113 111.521L680.072 111.45L680.031 111.379L679.99 111.309L679.949 111.238L679.908 111.167L679.868 111.096L679.827 111.026L679.786 110.955L679.745 110.884L679.704 110.813L679.663 110.743L679.623 110.672L679.582 110.601L679.541 110.531L679.5 110.46L679.46 110.389L679.419 110.319L679.378 110.248L679.337 110.178L679.297 110.107L679.256 110.037L679.215 109.966L679.174 109.896L679.134 109.825L679.093 109.755L679.052 109.684L679.012 109.614L678.971 109.543L678.93 109.473L678.89 109.402L678.849 109.332L678.808 109.262L678.768 109.191L678.727 109.121L678.687 109.051L678.646 108.98L678.606 108.91L678.565 108.84L678.524 108.77L678.484 108.699L678.443 108.629L678.403 108.559L678.362 108.489L678.322 108.419L678.281 108.349L678.241 108.279L678.2 108.208L678.16 108.138L678.119 108.068L678.079 107.998L678.039 107.928L677.998 107.858L677.958 107.788L677.917 107.718L677.877 107.649L677.837 107.579L677.796 107.509L677.756 107.439L677.716 107.369L677.675 107.299L677.635 107.229L677.595 107.16L677.555 107.09L677.514 107.02L677.474 106.95L677.434 106.881L677.394 106.811L677.353 106.741L677.313 106.672L677.273 106.602L677.233 106.533L677.193 106.463L677.152 106.393L677.112 106.324L677.072 106.254L677.032 106.185L676.992 106.115L676.952 106.046L676.912 105.977L676.872 105.907L676.832 105.838L676.792 105.769L676.752 105.699L676.712 105.63L676.672 105.561L676.632 105.492L676.592 105.422L676.552 105.353L676.512 105.284L676.472 105.215L676.432 105.146L676.392 105.077L676.352 105.008L676.312 104.939L676.273 104.87L676.233 104.801L676.193 104.732L676.153 104.663L676.113 104.594L676.074 104.525L676.034 104.456L675.994 104.387L675.954 104.318L675.915 104.25L675.875 104.181L675.835 104.112L675.796 104.043L675.756 103.975L675.716 103.906L675.677 103.838L675.637 103.769L675.598 103.7L675.558 103.632L675.519 103.563L675.479 103.495L675.439 103.426L675.4 103.358L675.36 103.29L675.321 103.221L675.282 103.153L675.242 103.085L675.203 103.016L675.163 102.948L675.124 102.88L675.085 102.812L675.045 102.744L675.006 102.675L674.967 102.607L674.927 102.539L674.888 102.471L674.849 102.403L674.81 102.335L674.77 102.267L674.731 102.199L674.692 102.132L674.653 102.064L674.614 101.996L674.574 101.928L674.535 101.86L674.496 101.793L674.457 101.725L674.418 101.657L674.379 101.59L674.34 101.522L674.301 101.454L674.262 101.387L674.223 101.319L674.184 101.252L674.145 101.185L674.106 101.117L674.067 101.05L674.028 100.982L673.99 100.915L673.951 100.848L673.912 100.781L673.873 100.713L673.834 100.646L673.796 100.579L673.757 100.512L673.718 100.445L673.679 100.378L673.641 100.311L673.602 100.244L673.563 100.177L673.525 100.11L673.486 100.043L673.448 99.9764L673.409 99.9097L673.371 99.8429L673.332 99.7762L673.293 99.7095L673.255 99.6429L673.217 99.5762L673.178 99.5097L673.14 99.4431L673.101 99.3766L673.063 99.3102L673.025 99.2437L672.986 99.1773L672.948 99.111L672.91 99.0447L672.871 98.9784L672.833 98.9121L672.795 98.8459L672.757 98.7798L672.719 98.7136L672.68 98.6475L672.642 98.5815L672.604 98.5154L672.566 98.4495L672.528 98.3835L672.49 98.3176L672.452 98.2517L672.414 98.1859L672.376 98.1201L672.338 98.0544L672.3 97.9887L672.262 97.923L672.224 97.8574L672.186 97.7918L672.148 97.7262L672.111 97.6607L672.073 97.5952L672.035 97.5298L671.997 97.4644L671.96 97.3991L671.922 97.3337L671.916 97.3242Z" fill="white" stroke="#E3E5E5" stroke-width="5"/>
<path d="M667.554 99.762C670.894 107.983 667.745 117.616 659.843 122.178C651.941 126.74 642.024 124.651 636.574 117.648L636.637 117.612L636.708 117.571L636.778 117.53L636.848 117.49L636.919 117.449L636.989 117.409L637.059 117.368L637.13 117.327L637.2 117.287L637.27 117.246L637.341 117.205L637.411 117.165L637.482 117.124L637.552 117.083L637.622 117.043L637.693 117.002L637.763 116.961L637.834 116.921L637.905 116.88L637.975 116.839L638.046 116.798L638.116 116.758L638.187 116.717L638.257 116.676L638.328 116.635L638.399 116.595L638.469 116.554L638.54 116.513L638.611 116.472L638.681 116.431L638.752 116.391L638.823 116.35L638.894 116.309L638.964 116.268L639.035 116.227L639.106 116.186L639.177 116.145L639.248 116.105L639.318 116.064L639.389 116.023L639.46 115.982L639.531 115.941L639.602 115.9L639.673 115.859L639.744 115.818L639.814 115.777L639.885 115.736L639.956 115.695L640.027 115.654L640.098 115.613L640.169 115.572L640.24 115.531L640.311 115.49L640.382 115.449L640.453 115.408L640.524 115.367L640.595 115.326L640.666 115.285L640.737 115.244L640.808 115.203L640.88 115.162L640.951 115.121L641.022 115.08L641.093 115.039L641.164 114.998L641.235 114.957L641.306 114.916L641.377 114.875L641.449 114.834L641.52 114.793L641.591 114.752L641.662 114.711L641.733 114.669L641.804 114.628L641.876 114.587L641.947 114.546L642.018 114.505L642.089 114.464L642.161 114.423L642.232 114.382L642.303 114.34L642.374 114.299L642.446 114.258L642.517 114.217L642.588 114.176L642.66 114.135L642.731 114.093L642.802 114.052L642.873 114.011L642.945 113.97L643.016 113.929L643.087 113.888L643.159 113.846L643.23 113.805L643.302 113.764L643.373 113.723L643.444 113.682L643.516 113.64L643.587 113.599L643.658 113.558L643.73 113.517L643.801 113.476L643.873 113.434L643.944 113.393L644.015 113.352L644.087 113.311L644.158 113.269L644.23 113.228L644.301 113.187L644.372 113.146L644.444 113.104L644.515 113.063L644.587 113.022L644.658 112.981L644.73 112.94L644.801 112.898L644.872 112.857L644.944 112.816L645.015 112.775L645.087 112.733L645.158 112.692L645.23 112.651L645.301 112.609L645.373 112.568L645.444 112.527L645.516 112.486L645.587 112.444L645.659 112.403L645.73 112.362L645.801 112.321L645.873 112.279L645.944 112.238L646.016 112.197L646.087 112.156L646.159 112.114L646.23 112.073L646.302 112.032L646.373 111.991L646.445 111.949L646.516 111.908L646.588 111.867L646.659 111.825L646.731 111.784L646.802 111.743L646.874 111.702L646.945 111.66L647.017 111.619L647.088 111.578L647.159 111.537L647.231 111.495L647.302 111.454L647.374 111.413L647.445 111.372L647.517 111.33L647.588 111.289L647.66 111.248L647.731 111.207L647.803 111.165L647.874 111.124L647.945 111.083L648.017 111.042L648.088 111L648.16 110.959L648.231 110.918L648.303 110.877L648.374 110.835L648.446 110.794L648.517 110.753L648.588 110.712L648.66 110.67L648.731 110.629L648.803 110.588L648.874 110.547L648.945 110.506L649.017 110.464L649.088 110.423L649.159 110.382L649.231 110.341L649.302 110.299L649.374 110.258L649.445 110.217L649.516 110.176L649.588 110.135L649.659 110.094L649.73 110.052L649.802 110.011L649.873 109.97L649.944 109.929L650.016 109.888L650.087 109.846L650.158 109.805L650.229 109.764L650.301 109.723L650.372 109.682L650.443 109.641L650.514 109.6L650.586 109.558L650.657 109.517L650.728 109.476L650.799 109.435L650.871 109.394L650.942 109.353L651.013 109.312L651.084 109.271L651.155 109.23L651.227 109.188L651.298 109.147L651.369 109.106L651.44 109.065L651.511 109.024L651.582 108.983L651.653 108.942L651.725 108.901L651.796 108.86L651.867 108.819L651.938 108.778L652.009 108.737L652.08 108.696L652.151 108.655L652.222 108.614L652.293 108.573L652.364 108.532L652.435 108.491L652.506 108.45L652.577 108.409L652.648 108.368L652.719 108.327L652.79 108.286L652.861 108.245L652.932 108.204L653.003 108.163L653.073 108.122L653.144 108.081L653.215 108.04L653.286 107.999L653.357 107.959L653.428 107.918L653.499 107.877L653.569 107.836L653.64 107.795L653.711 107.754L653.782 107.713L653.852 107.672L653.923 107.632L653.994 107.591L654.065 107.55L654.135 107.509L654.206 107.468L654.277 107.428L654.347 107.387L654.418 107.346L654.489 107.305L654.559 107.264L654.63 107.224L654.7 107.183L654.771 107.142L654.841 107.101L654.912 107.061L654.982 107.02L655.053 106.979L655.123 106.939L655.194 106.898L655.264 106.857L655.335 106.817L655.405 106.776L655.475 106.735L655.546 106.695L655.616 106.654L655.687 106.613L655.757 106.573L655.827 106.532L655.897 106.492L655.968 106.451L656.038 106.411L656.108 106.37L656.178 106.33L656.249 106.289L656.319 106.248L656.389 106.208L656.459 106.167L656.529 106.127L656.599 106.086L656.669 106.046L656.74 106.006L656.81 105.965L656.88 105.925L656.95 105.884L657.02 105.844L657.09 105.803L657.159 105.763L657.229 105.723L657.299 105.682L657.369 105.642L657.439 105.602L657.509 105.561L657.579 105.521L657.649 105.481L657.718 105.44L657.788 105.4L657.858 105.36L657.928 105.32L657.997 105.279L658.067 105.239L658.137 105.199L658.206 105.159L658.276 105.119L658.345 105.078L658.415 105.038L658.484 104.998L658.554 104.958L658.624 104.918L658.693 104.878L658.762 104.838L658.832 104.798L658.901 104.757L658.971 104.717L659.04 104.677L659.109 104.637L659.179 104.597L659.248 104.557L659.317 104.517L659.386 104.477L659.456 104.437L659.525 104.397L659.594 104.358L659.663 104.318L659.732 104.278L659.801 104.238L659.87 104.198L659.939 104.158L660.008 104.118L660.077 104.078L660.146 104.039L660.215 103.999L660.284 103.959L660.353 103.919L660.422 103.88L660.491 103.84L660.56 103.8L660.628 103.76L660.697 103.721L660.766 103.681L660.834 103.641L660.903 103.602L660.972 103.562L661.04 103.522L661.109 103.483L661.178 103.443L661.246 103.404L661.315 103.364L661.383 103.325L661.451 103.285L661.52 103.246L661.588 103.206L661.657 103.167L661.725 103.127L661.793 103.088L661.862 103.048L661.93 103.009L661.998 102.97L662.066 102.93L662.134 102.891L662.202 102.852L662.271 102.812L662.339 102.773L662.407 102.734L662.475 102.694L662.543 102.655L662.611 102.616L662.678 102.577L662.746 102.538L662.814 102.498L662.882 102.459L662.95 102.42L663.018 102.381L663.085 102.342L663.153 102.303L663.221 102.264L663.288 102.225L663.356 102.186L663.423 102.147L663.491 102.108L663.558 102.069L663.626 102.03L663.693 101.991L663.761 101.952L663.828 101.913L663.895 101.874L663.963 101.835L664.03 101.796L664.097 101.758L664.165 101.719L664.232 101.68L664.299 101.641L664.366 101.602L664.433 101.564L664.5 101.525L664.567 101.486L664.634 101.448L664.701 101.409L664.768 101.37L664.835 101.332L664.901 101.293L664.968 101.255L665.035 101.216L665.102 101.178L665.168 101.139L665.235 101.101L665.302 101.062L665.368 101.024L665.435 100.985L665.501 100.947L665.568 100.909L665.634 100.87L665.701 100.832L665.767 100.794L665.833 100.755L665.9 100.717L665.966 100.679L666.032 100.641L666.098 100.602L666.164 100.564L666.23 100.526L666.296 100.488L666.362 100.45L666.428 100.412L666.494 100.374L666.56 100.336L666.626 100.298L666.692 100.26L666.758 100.222L666.824 100.184L666.889 100.146L666.955 100.108L667.021 100.07L667.086 100.032L667.152 99.9941L667.217 99.9563L667.283 99.9185L667.348 99.8807L667.414 99.8429L667.479 99.8052L667.544 99.7675L667.554 99.762Z" fill="white" stroke="#E3E5E5" stroke-width="5"/>
<path d="M665.015 95.3985C656.795 98.7391 647.161 95.5898 642.599 87.6876C638.037 79.7854 640.126 69.8683 647.129 64.4192L647.166 64.4822L647.206 64.5524L647.247 64.6227L647.287 64.693L647.328 64.7633L647.369 64.8336L647.409 64.9039L647.45 64.9743L647.491 65.0446L647.531 65.115L647.572 65.1854L647.612 65.2559L647.653 65.3263L647.694 65.3968L647.734 65.4672L647.775 65.5377L647.816 65.6082L647.857 65.6787L647.897 65.7493L647.938 65.8198L647.979 65.8904L648.02 65.961L648.06 66.0316L648.101 66.1022L648.142 66.1728L648.183 66.2434L648.223 66.3141L648.264 66.3848L648.305 66.4555L648.346 66.5262L648.387 66.5969L648.428 66.6676L648.468 66.7383L648.509 66.8091L648.55 66.8799L648.591 66.9506L648.632 67.0214L648.673 67.0923L648.714 67.1631L648.754 67.2339L648.795 67.3048L648.836 67.3756L648.877 67.4465L648.918 67.5174L648.959 67.5883L649 67.6592L649.041 67.7301L649.082 67.8011L649.123 67.872L649.164 67.943L649.205 68.014L649.246 68.0849L649.287 68.1559L649.328 68.2269L649.369 68.298L649.41 68.369L649.451 68.44L649.492 68.5111L649.533 68.5821L649.574 68.6532L649.615 68.7243L649.656 68.7954L649.697 68.8665L649.738 68.9376L649.779 69.0087L649.82 69.0798L649.861 69.151L649.902 69.2221L649.943 69.2933L649.985 69.3645L650.026 69.4356L650.067 69.5068L650.108 69.578L650.149 69.6492L650.19 69.7204L650.231 69.7916L650.272 69.8629L650.313 69.9341L650.355 70.0054L650.396 70.0766L650.437 70.1479L650.478 70.2191L650.519 70.2904L650.56 70.3617L650.601 70.433L650.643 70.5043L650.684 70.5756L650.725 70.6469L650.766 70.7182L650.807 70.7895L650.849 70.8609L650.89 70.9322L650.931 71.0035L650.972 71.0749L651.013 71.1462L651.054 71.2176L651.096 71.289L651.137 71.3603L651.178 71.4317L651.219 71.5031L651.261 71.5745L651.302 71.6458L651.343 71.7172L651.384 71.7886L651.425 71.86L651.467 71.9315L651.508 72.0029L651.549 72.0743L651.59 72.1457L651.632 72.2171L651.673 72.2886L651.714 72.36L651.755 72.4314L651.797 72.5029L651.838 72.5743L651.879 72.6457L651.92 72.7172L651.962 72.7886L652.003 72.8601L652.044 72.9315L652.085 73.003L652.127 73.0745L652.168 73.1459L652.209 73.2174L652.25 73.2888L652.292 73.3603L652.333 73.4318L652.374 73.5032L652.415 73.5747L652.457 73.6462L652.498 73.7177L652.539 73.7891L652.58 73.8606L652.622 73.9321L652.663 74.0036L652.704 74.075L652.745 74.1465L652.787 74.218L652.828 74.2895L652.869 74.3609L652.911 74.4324L652.952 74.5039L652.993 74.5754L653.034 74.6468L653.076 74.7183L653.117 74.7898L653.158 74.8613L653.199 74.9327L653.241 75.0042L653.282 75.0757L653.323 75.1471L653.364 75.2186L653.406 75.2901L653.447 75.3615L653.488 75.433L653.529 75.5044L653.571 75.5759L653.612 75.6473L653.653 75.7188L653.694 75.7902L653.736 75.8617L653.777 75.9331L653.818 76.0045L653.859 76.076L653.901 76.1474L653.942 76.2188L653.983 76.2902L654.024 76.3617L654.066 76.4331L654.107 76.5045L654.148 76.5759L654.189 76.6473L654.231 76.7187L654.272 76.7901L654.313 76.8615L654.354 76.9328L654.395 77.0042L654.437 77.0756L654.478 77.147L654.519 77.2183L654.56 77.2897L654.601 77.361L654.643 77.4324L654.684 77.5037L654.725 77.575L654.766 77.6463L654.807 77.7177L654.848 77.789L654.89 77.8603L654.931 77.9316L654.972 78.0029L655.013 78.0742L655.054 78.1454L655.095 78.2167L655.137 78.288L655.178 78.3592L655.219 78.4305L655.26 78.5017L655.301 78.5729L655.342 78.6442L655.383 78.7154L655.424 78.7866L655.466 78.8578L655.507 78.929L655.548 79.0001L655.589 79.0713L655.63 79.1425L655.671 79.2136L655.712 79.2848L655.753 79.3559L655.794 79.427L655.835 79.4981L655.876 79.5693L655.917 79.6403L655.958 79.7114L655.999 79.7825L656.04 79.8536L656.081 79.9246L656.122 79.9957L656.163 80.0667L656.204 80.1377L656.245 80.2087L656.286 80.2797L656.327 80.3507L656.368 80.4217L656.409 80.4927L656.45 80.5636L656.491 80.6346L656.532 80.7055L656.573 80.7764L656.614 80.8473L656.655 80.9182L656.696 80.9891L656.737 81.0599L656.778 81.1308L656.819 81.2016L656.86 81.2725L656.901 81.3433L656.941 81.4141L656.982 81.4849L657.023 81.5556L657.064 81.6264L657.105 81.6972L657.146 81.7679L657.187 81.8386L657.227 81.9093L657.268 81.98L657.309 82.0507L657.35 82.1213L657.391 82.192L657.431 82.2626L657.472 82.3332L657.513 82.4038L657.554 82.4744L657.594 82.545L657.635 82.6155L657.676 82.6861L657.717 82.7566L657.757 82.8271L657.798 82.8976L657.839 82.9681L657.879 83.0385L657.92 83.109L657.961 83.1794L658.001 83.2498L658.042 83.3202L658.083 83.3906L658.123 83.4609L658.164 83.5313L658.204 83.6016L658.245 83.6719L658.286 83.7422L658.326 83.8125L658.367 83.8827L658.407 83.953L658.448 84.0232L658.488 84.0934L658.529 84.1636L658.569 84.2337L658.61 84.3039L658.65 84.374L658.691 84.4441L658.731 84.5142L658.772 84.5842L658.812 84.6543L658.853 84.7243L658.893 84.7943L658.933 84.8643L658.974 84.9343L659.014 85.0042L659.055 85.0741L659.095 85.1441L659.135 85.2139L659.176 85.2838L659.216 85.3537L659.256 85.4235L659.297 85.4933L659.337 85.5631L659.377 85.6328L659.417 85.7026L659.458 85.7723L659.498 85.842L659.538 85.9116L659.578 85.9813L659.618 86.0509L659.659 86.1205L659.699 86.1901L659.739 86.2597L659.779 86.3292L659.819 86.3987L659.859 86.4682L659.9 86.5377L659.94 86.6072L659.98 86.6766L660.02 86.746L660.06 86.8154L660.1 86.8847L660.14 86.9541L660.18 87.0234L660.22 87.0926L660.26 87.1619L660.3 87.2311L660.34 87.3003L660.38 87.3695L660.42 87.4387L660.46 87.5078L660.5 87.5769L660.539 87.646L660.579 87.7151L660.619 87.7841L660.659 87.8531L660.699 87.9221L660.739 87.9911L660.778 88.06L660.818 88.1289L660.858 88.1978L660.898 88.2667L660.937 88.3355L660.977 88.4043L661.017 88.4731L661.057 88.5418L661.096 88.6105L661.136 88.6792L661.176 88.7479L661.215 88.8165L661.255 88.8851L661.294 88.9537L661.334 89.0223L661.374 89.0908L661.413 89.1593L661.453 89.2278L661.492 89.2962L661.532 89.3646L661.571 89.433L661.611 89.5014L661.65 89.5697L661.689 89.638L661.729 89.7063L661.768 89.7745L661.808 89.8427L661.847 89.9109L661.886 89.9791L661.926 90.0472L661.965 90.1153L662.004 90.1833L662.044 90.2514L662.083 90.3194L662.122 90.3874L662.161 90.4553L662.201 90.5232L662.24 90.5911L662.279 90.6589L662.318 90.7268L662.357 90.7945L662.396 90.8623L662.435 90.93L662.475 90.9977L662.514 91.0654L662.553 91.133L662.592 91.2006L662.631 91.2682L662.67 91.3357L662.709 91.4032L662.748 91.4707L662.787 91.5381L662.825 91.6055L662.864 91.6729L662.903 91.7402L662.942 91.8075L662.981 91.8748L663.02 91.942L663.059 92.0092L663.097 92.0764L663.136 92.1435L663.175 92.2106L663.214 92.2777L663.252 92.3447L663.291 92.4117L663.33 92.4787L663.368 92.5456L663.407 92.6125L663.445 92.6794L663.484 92.7462L663.523 92.813L663.561 92.8798L663.6 92.9465L663.638 93.0132L663.677 93.0798L663.715 93.1464L663.754 93.213L663.792 93.2795L663.83 93.346L663.869 93.4125L663.907 93.4789L663.945 93.5453L663.984 93.6117L664.022 93.678L664.06 93.7443L664.098 93.8105L664.137 93.8767L664.175 93.9429L664.213 94.009L664.251 94.0751L664.289 94.1412L664.328 94.2072L664.366 94.2732L664.404 94.3391L664.442 94.405L664.48 94.4709L664.518 94.5367L664.556 94.6025L664.594 94.6683L664.632 94.734L664.67 94.7997L664.707 94.8653L664.745 94.9309L664.783 94.9964L664.821 95.0619L664.859 95.1274L664.897 95.1929L664.934 95.2583L664.972 95.3236L665.01 95.3889L665.015 95.3985Z" fill="white" stroke="#E3E5E5" stroke-width="5"/>
<rect x="171.5" y="197" width="64" height="55" fill="white"/>
<path d="M243.205 157.602L243.208 157.599C243.501 157.407 243.84 157.297 244.19 157.281C244.539 157.265 244.887 157.344 245.196 157.509C245.504 157.675 245.763 157.92 245.943 158.22C246.123 158.519 246.22 158.86 246.222 159.209V271.778C246.222 272.294 246.017 272.789 245.653 273.153C245.288 273.518 244.793 273.723 244.278 273.723H99.9444C99.4288 273.723 98.9342 273.518 98.5695 273.153C98.2049 272.789 98 272.294 98 271.778V182.723H104.389H106.889V180.223V133.17L128.556 138.045V180.223V182.723H131.056H160.144H161.052L161.748 182.14L189.731 158.733C190.015 158.506 190.356 158.364 190.716 158.321C191.082 158.278 191.452 158.339 191.784 158.498C192.116 158.657 192.396 158.907 192.591 159.218C192.787 159.53 192.89 159.891 192.889 160.259V160.267V186V190.632L196.761 188.09L243.205 157.602ZM150.833 247.389H153.333V244.889V236V233.5H150.833H115.278H112.778V236V244.889V247.389H115.278H150.833ZM150.833 229.612H153.333V227.112V218.223V215.723H150.833H115.278H112.778V218.223V227.112V229.612H115.278H150.833ZM150.833 211.834H153.333V209.334V200.445V197.945H150.833H115.278H112.778V200.445V209.334V211.834H115.278H150.833ZM189.389 247.389H191.889V244.889V231.556V229.056H189.389H180.5H178V231.556V244.889V247.389H180.5H189.389ZM189.389 220.723H191.889V218.223V204.889V202.389H189.389H180.5H178V204.889V218.223V220.723H180.5H189.389ZM207.167 247.389H209.667V244.889V231.556V229.056H207.167H198.278H195.778V231.556V244.889V247.389H198.278H207.167ZM207.167 220.723H209.667V218.223V204.889V202.389H207.167H198.278H195.778V204.889V218.223V220.723H198.278H207.167ZM224.944 247.389H227.444V244.889V231.556V229.056H224.944H216.056H213.556V231.556V244.889V247.389H216.056H224.944ZM224.944 220.723H227.444V218.223V204.889V202.389H224.944H216.056H213.556V204.889V218.223V220.723H216.056H224.944Z" fill="white" stroke="#E3E5E5" stroke-width="5"/>
<rect x="243.5" y="84" width="118" height="176" fill="white"/>
<path fill-rule="evenodd" clip-rule="evenodd" d="M231.938 275.409C231.184 275.409 230.431 275.158 229.803 274.656C229.176 274.028 229.05 273.149 229.05 272.521C229.05 271.768 229.301 271.015 229.803 270.387C230.18 269.885 231.184 269.633 231.938 269.633H243.238V89.7835V84.1335H271.488V82.2501C271.488 80.2412 272.241 78.3579 273.622 76.8512C275.003 75.4701 276.887 74.7168 279.021 74.7168H326.104C328.113 74.7168 329.997 75.4701 331.503 76.8512C332.884 78.2324 333.638 80.1157 333.638 82.2501V84.1335H361.888V89.7835V269.633H373.062C373.816 269.633 374.443 269.633 375.197 270.387C375.699 270.889 376.076 271.768 376.076 272.521C376.076 273.275 375.824 274.028 375.322 274.656C374.946 275.158 373.941 275.409 373.188 275.409H231.938ZM333.638 269.633H356.238V89.7835H333.638V129.333C333.638 131.342 332.884 133.226 331.503 134.732C330.122 136.113 328.239 136.867 326.104 136.867H279.021C277.012 136.867 275.129 136.113 273.622 134.732C272.241 133.226 271.488 131.342 271.488 129.333V89.7835H248.888V269.633H271.488H277.138H299.738H305.388H327.988H333.638ZM277.138 131.217H327.988V80.3668H277.138V131.217Z" fill="#E3E5E5"/>
<path fill-rule="evenodd" clip-rule="evenodd" d="M300.056 121V108.444H287.5V103.444H300.056V91H305.056V103.444H317.5V108.444H305.056V121H300.056Z" fill="#E3E5E5"/>
<path d="M323.217 207.554V197.133H338.283V207.554H323.217ZM294.967 207.554V197.133H310.033V207.554H294.967ZM266.717 207.554V197.133H281.783V207.554H266.717ZM323.217 183.95V173.654H338.283V183.95H323.217ZM294.967 183.95V173.654H310.033V183.95H294.967ZM266.717 183.95V173.654H281.783V183.95H266.717ZM323.217 160.471V150.05H338.283V160.471H323.217ZM294.967 160.471V150.05H310.033V160.471H294.967ZM266.717 160.471V150.05H281.783V160.471H266.717Z" fill="#E3E5E5"/>
<rect x="287.5" y="234" width="31" height="37" fill="white" stroke="#E3E5E5" stroke-width="4"/>
<rect x="285.5" y="232" width="35" height="10" fill="#E3E5E5"/>
<path d="M359 272.5V41.5H522V272.5H359Z" fill="white" stroke="#E3E5E5" stroke-width="5"/>
<path d="M432.148 61.864L440.74 85.384L448.996 61.864H457.876L444.004 97H437.044L422.788 61.864H432.148Z" fill="#E3E5E5"/>
<rect x="381.5" y="85" width="19" height="12" fill="#E3E5E5"/>
<rect x="381.5" y="108" width="19" height="12" fill="#E3E5E5"/>
<rect x="483.5" y="85" width="19" height="12" fill="#E3E5E5"/>
<rect x="456.5" y="107" width="19" height="12" fill="#E3E5E5"/>
<rect x="483.5" y="107" width="19" height="12" fill="#E3E5E5"/>
<rect x="381.5" y="158" width="19" height="12" fill="#E3E5E5"/>
<rect x="406.5" y="158" width="19" height="12" fill="#E3E5E5"/>
<rect x="456.5" y="158" width="19" height="12" fill="#E3E5E5"/>
<rect x="483.5" y="158" width="19" height="12" fill="#E3E5E5"/>
<rect x="381.5" y="182" width="19" height="12" fill="#E3E5E5"/>
<rect x="456.5" y="182" width="19" height="12" fill="#E3E5E5"/>
<rect x="483.5" y="182" width="19" height="12" fill="#E3E5E5"/>
<rect x="381.5" y="206" width="19" height="12" fill="#E3E5E5"/>
<rect x="406.5" y="206" width="19" height="12" fill="#E3E5E5"/>
<rect x="456.5" y="206" width="19" height="12" fill="#E3E5E5"/>
<rect x="483.5" y="206" width="19" height="12" fill="#E3E5E5"/>
<rect x="381.5" y="230" width="19" height="12" fill="#E3E5E5"/>
<rect x="456.5" y="230" width="19" height="12" fill="#E3E5E5"/>
<rect x="406.5" y="230" width="19" height="12" fill="#E3E5E5"/>
<mask id="path-40-inside-1_1746_7345" fill="white">
<rect x="519.5" y="135" width="121" height="124" rx="2"/>
</mask>
<rect x="519.5" y="135" width="121" height="124" rx="2" fill="white" stroke="#E3E5E5" stroke-width="10" mask="url(#path-40-inside-1_1746_7345)"/>
<rect x="521.5" y="139" width="117" height="5" fill="#E3E5E5"/>
<path d="M578.5 94H582.5V132H578.5V94Z" fill="#E3E5E5"/>
<path d="M597.5 94H578.5V106H597.5C598 104 598.3 101.7 597.5 100.5C596.7 99.3 596.333 95.5 597.5 94Z" fill="#E3E5E5"/>
<path d="M522 272.5V141.5H556.722C557.688 141.5 558.629 141.189 559.404 140.613L580.283 125.114L601.161 140.613C601.937 141.189 602.877 141.5 603.843 141.5H638V272.5H522Z" fill="white" stroke="#E3E5E5" stroke-width="5"/>
<circle cx="580.5" cy="165" r="12" fill="white" stroke="#E3E5E5" stroke-width="4"/>
<rect x="567.5" y="229" width="26" height="43" stroke="#E3E5E5" stroke-width="4"/>
<rect x="536.5" y="173" width="8" height="8" stroke="#E3E5E5" stroke-width="4"/>
<rect x="536.5" y="201" width="8" height="8" stroke="#E3E5E5" stroke-width="4"/>
<rect x="561.5" y="201" width="8" height="8" stroke="#E3E5E5" stroke-width="4"/>
<rect x="590.5" y="201" width="8" height="8" stroke="#E3E5E5" stroke-width="4"/>
<rect x="536.5" y="228" width="8" height="8" stroke="#E3E5E5" stroke-width="4"/>
<rect x="615.5" y="173" width="8" height="8" stroke="#E3E5E5" stroke-width="4"/>
<rect x="615.5" y="201" width="8" height="8" stroke="#E3E5E5" stroke-width="4"/>
<rect x="615.5" y="228" width="8" height="8" stroke="#E3E5E5" stroke-width="4"/>
<rect x="578.5" y="160" width="2" height="5" fill="#E3E5E5"/>
<rect x="586.5" y="165" width="2" height="8" transform="rotate(90 586.5 165)" fill="#E3E5E5"/>
<path d="M637.5 212L631 186L648 164.5H710.5L729 185L723.5 212V263H637.5V212Z" fill="white"/>
<path d="M637.7 279C637 279 636.3 278.7 635.8 278.2C635.3 277.7 635 277 635 276.3V208.3L634.8 208.2C630.8 204.6 628.5 199.4 628.5 194V184.2C628.5 183.6 628.7 182.9 629.1 182.4L645.3 163C645.6 162.7 645.9 162.4 646.2 162.3C646.6 162.1 647 162 647.4 162H712.4C712.8 162 713.2 162.1 713.6 162.3C714 162.5 714.3 162.7 714.5 163L730.8 182.5C731.4 183.3 731.4 183.6 731.4 184.1V194C731.4 199.4 729.1 204.6 725.1 208.2L724.9 208.3V276.2C724.9 276.9 724.6 277.6 724.1 278.1C723.6 278.6 722.9 278.9 722.2 278.9H637.7V279ZM676.7 222.5C677.4 222.5 678.1 222.8 678.6 223.3C679.1 223.8 679.4 224.5 679.4 225.2V273.5H719.4V211.7L718.7 211.9C716.7 212.6 714.5 213 712.4 213C710.4 213 708.3 212.7 706.4 212C702.4 210.7 698.9 208 696.6 204.5L696.2 203.9L695.7 204.5C694 207.1 691.6 209.3 688.9 210.7C686.1 212.2 683 213 679.9 213C676.8 213 673.6 212.2 670.9 210.7C668.1 209.2 665.8 207.1 664.1 204.5L663.7 203.9L663.2 204.5C660.9 208 657.4 210.7 653.4 212C651.5 212.6 649.4 213 647.4 213C645.2 213 643.1 212.6 641.1 211.9L640.4 211.7V273.5H647.9V225.3C647.9 224.6 648.2 223.9 648.7 223.4C649.2 222.9 649.9 222.6 650.6 222.6H676.7V222.5ZM653.4 273.5H673.9V228H653.4V273.5ZM698.9 194C698.9 197.6 700.3 201 702.9 203.5C705.4 206 708.8 207.5 712.4 207.5C716 207.5 719.4 206.1 721.9 203.5C724.4 201 725.9 197.6 725.9 194V187H698.9V194ZM666.4 194C666.4 197.6 667.8 201 670.4 203.5C672.9 206 676.3 207.5 679.9 207.5C683.5 207.5 686.9 206.1 689.4 203.5C691.9 201 693.4 197.6 693.4 194V187H666.4V194ZM633.9 194C633.9 197.6 635.3 201 637.9 203.5C640.4 206 643.8 207.5 647.4 207.5C651 207.5 654.4 206.1 656.9 203.5C659.4 201 660.9 197.6 660.9 194V187H633.9V194ZM698.1 181.5H722.8L711.1 167.5H693.5L698.1 181.5ZM667.5 181.5H692.4L687.7 167.5H672.1L667.5 181.5ZM637 181.5H661.6L666.3 167.5H648.7L637 181.5ZM689.7 247.5C689 247.5 688.3 247.2 687.8 246.7C687.2 246.2 686.9 245.5 686.9 244.8V225.3C686.9 224.6 687.2 223.9 687.7 223.4C688.2 222.9 688.9 222.6 689.6 222.6H709.1C709.8 222.6 710.5 222.9 711 223.4C711.5 223.9 711.8 224.6 711.8 225.3V244.8C711.8 245.5 711.5 246.2 711 246.7C710.6 247.2 709.9 247.5 709.2 247.5H689.7ZM692.4 242H706.4V228H692.4V242Z" fill="#E3E5E5"/>
<rect x="727.5" y="251" width="5" height="19" fill="#E3E5E5"/>
<path d="M742.25 242.306C742.25 248.516 741.17 253.473 739.165 256.8C737.241 259.992 734.447 261.75 730.5 261.75C726.347 261.75 723.571 259.974 721.707 256.817C719.747 253.499 718.75 248.546 718.75 242.306C718.75 231.047 724.523 221.133 730.572 215.845C736.743 220.799 742.25 230.965 742.25 242.306Z" fill="white" stroke="#E3E5E5" stroke-width="4.5"/>
<rect x="201.5" y="250" width="6" height="22" fill="#E3E5E5"/>
<path d="M216.5 241C216.5 247.033 214.954 252.401 212.561 256.197C210.152 260.019 207.074 262 204 262C200.926 262 197.848 260.019 195.439 256.197C193.046 252.401 191.5 247.033 191.5 241C191.5 234.967 193.046 229.599 195.439 225.803C197.848 221.981 200.926 220 204 220C207.074 220 210.152 221.981 212.561 225.803C214.954 229.599 216.5 234.967 216.5 241Z" fill="white" stroke="#E3E5E5" stroke-width="4"/>
<rect x="44.5" y="271" width="766" height="20" rx="10" fill="white" stroke="#E3E5E5" stroke-width="4"/>
<rect x="64.5" y="276" width="11" height="5" rx="2.5" fill="#E3E5E5"/>
<rect x="81.5" y="279" width="44" height="5" rx="2.5" fill="#E3E5E5"/>
<rect x="631.5" y="281" width="148" height="5" rx="2.5" fill="#E3E5E5"/>
<rect x="317.5" y="279" width="151" height="5" rx="2.5" fill="#E3E5E5"/>
<rect x="603.5" y="281" width="18" height="5" rx="2.5" fill="#E3E5E5"/>
<path d="M295.5 224C295.5 221.791 297.291 220 299.5 220H429.375C431.236 220 432.852 221.284 433.272 223.096L438.397 245.196C438.465 245.493 438.5 245.796 438.5 246.1V270.827H295.5V224Z" fill="white" stroke="#E3E5E5" stroke-width="4"/>
<path d="M295.5 248.605H438.5V270.827H295.5V248.605Z" fill="white" stroke="#E3E5E5" stroke-width="4"/>
<rect x="307.5" y="228.124" width="19.0703" height="12.7135" fill="#E3E5E5"/>
<rect x="332.581" y="228.124" width="19.0703" height="12.7135" fill="#E3E5E5"/>
<rect x="357.581" y="228.124" width="19.0703" height="12.7135" fill="#E3E5E5"/>
<rect x="382.581" y="228.124" width="19.0703" height="12.7135" fill="#E3E5E5"/>
<rect x="412.5" y="240" width="13" height="31" fill="white" stroke="#E3E5E5" stroke-width="4"/>
<circle cx="332.462" cy="269.649" r="10.3297" fill="#E3E5E5"/>
<circle cx="332.462" cy="269.649" r="6.35676" fill="white"/>
<circle cx="392.798" cy="269.649" r="10.3297" fill="#E3E5E5"/>
<circle cx="392.797" cy="269.649" r="6.35676" fill="white"/>
<rect x="435.5" y="224" width="8" height="4" fill="#E3E5E5"/>
<rect x="443.5" y="224" width="14" height="4" transform="rotate(90 443.5 224)" fill="#E3E5E5"/>
<rect x="256.5" y="266" width="6" height="25" fill="#E3E5E5"/>
<rect x="281.5" y="266" width="6" height="25" fill="#E3E5E5"/>
<path d="M298.5 261C298.5 266.712 296.866 271.799 294.325 275.404C291.781 279.016 288.454 281 285 281C281.546 281 278.219 279.016 275.675 275.404C273.134 271.799 271.5 266.712 271.5 261C271.5 255.288 273.134 250.201 275.675 246.596C278.219 242.984 281.546 241 285 241C288.454 241 291.781 242.984 294.325 246.596C296.866 250.201 298.5 255.288 298.5 261Z" fill="white" stroke="#E3E5E5" stroke-width="4"/>
<path d="M277.25 254.5C277.25 262.712 275.778 269.359 272.965 273.878C270.234 278.264 266.192 280.75 260.5 280.75C254.535 280.75 250.513 278.245 247.858 273.895C245.107 269.385 243.75 262.742 243.75 254.5C243.75 239.2 252.012 225.752 260.574 218.789C269.379 225.292 277.25 239.114 277.25 254.5Z" fill="white" stroke="#E3E5E5" stroke-width="4.5"/>
<rect x="536.5" y="266" width="6" height="25" fill="#E3E5E5"/>
<path d="M554.5 255.5C554.5 262.772 552.62 269.262 549.687 273.872C546.739 278.505 542.912 281 539 281C535.088 281 531.261 278.505 528.313 273.872C525.38 269.262 523.5 262.772 523.5 255.5C523.5 248.228 525.38 241.738 528.313 237.128C531.261 232.495 535.088 230 539 230C542.912 230 546.739 232.495 549.687 237.128C552.62 241.738 554.5 248.228 554.5 255.5Z" fill="white" stroke="#E3E5E5" stroke-width="4"/>
<rect x="509.5" y="266" width="6" height="25" fill="#E3E5E5"/>
<path d="M527.55 246.406L526.898 247.459L527.55 248.512C529.399 251.497 530.5 254.988 530.5 258.77C530.5 269.404 521.955 278 511.459 278C500.974 278 492.5 269.414 492.5 258.77C492.5 254.988 493.601 251.497 495.45 248.512L496.102 247.459L495.45 246.406C493.601 243.421 492.5 239.931 492.5 236.148C492.5 225.591 500.969 217 511.459 217C521.955 217 530.5 225.596 530.5 236.23C530.5 239.927 529.401 243.418 527.55 246.406Z" fill="white" stroke="#E3E5E5" stroke-width="4"/>
<path d="M0 225H166.5" stroke="#5CB2FF" stroke-width="2"/>
<circle cx="164.5" cy="226" r="3" fill="white" stroke="#5CB2FF" stroke-width="2"/>
<path d="M75.5 115H176L204 85" stroke="#5CB2FF" stroke-width="2"/>
<circle cx="206.5" cy="84" r="3" fill="white" stroke="#5CB2FF" stroke-width="2"/>
<path d="M101.5 1H248L292 130" stroke="#5CB2FF" stroke-width="2"/>
<circle cx="293.5" cy="133" r="3" fill="white" stroke="#5CB2FF" stroke-width="2"/>
<path d="M677.5 3H593L561.5 164" stroke="#5CB2FF" stroke-width="2"/>
<circle r="3" transform="matrix(-1 0 0 1 560.5 167)" fill="white" stroke="#5CB2FF" stroke-width="2"/>
<path d="M770.5 115H742L677.5 196" stroke="#5CB2FF" stroke-width="2"/>
<circle r="3" transform="matrix(-1 0 0 1 675.5 199)" fill="white" stroke="#5CB2FF" stroke-width="2"/>
<path d="M822 227H677L614.5 271" stroke="#5CB2FF" stroke-width="2"/>
<circle r="3" transform="matrix(-1 0 0 1 611.5 273)" fill="white" stroke="#5CB2FF" stroke-width="2"/>
</svg>
