<svg width="1200" height="310" viewBox="0 0 1200 310" fill="none" xmlns="http://www.w3.org/2000/svg">
<path d="M374.896 105.997L379.078 100.423H385.284V266.5H374.896V105.997Z" fill="white" stroke="#E3E5E5" stroke-width="5"/>
<path d="M378.833 95.3831C375.272 86.7688 378.556 76.6385 386.848 71.851C395.141 67.0635 405.556 69.2843 411.235 76.6756L411.218 76.6858L411.145 76.7279L411.072 76.77L410.999 76.8122L410.926 76.8544L410.853 76.8966L410.78 76.9388L410.706 76.981L410.633 77.0232L410.56 77.0654L410.487 77.1076L410.414 77.1499L410.341 77.1922L410.267 77.2344L410.194 77.2767L410.121 77.319L410.048 77.3613L409.974 77.4036L409.901 77.4459L409.828 77.4882L409.754 77.5306L409.681 77.5729L409.608 77.6153L409.534 77.6576L409.461 77.7L409.388 77.7424L409.314 77.7848L409.241 77.8272L409.167 77.8696L409.094 77.912L409.02 77.9544L408.947 77.9969L408.873 78.0393L408.8 78.0818L408.726 78.1242L408.653 78.1667L408.579 78.2092L408.506 78.2517L408.432 78.2941L408.358 78.3367L408.285 78.3792L408.211 78.4217L408.137 78.4642L408.064 78.5067L407.99 78.5493L407.916 78.5918L407.843 78.6344L407.769 78.6769L407.695 78.7195L407.621 78.7621L407.548 78.8047L407.474 78.8473L407.4 78.8899L407.326 78.9325L407.253 78.9751L407.179 79.0177L407.105 79.0603L407.031 79.103L406.957 79.1456L406.883 79.1882L406.809 79.2309L406.736 79.2736L406.662 79.3162L406.588 79.3589L406.514 79.4016L406.44 79.4442L406.366 79.4869L406.292 79.5296L406.218 79.5723L406.144 79.615L406.07 79.6577L405.996 79.7005L405.922 79.7432L405.848 79.7859L405.774 79.8286L405.7 79.8714L405.626 79.9141L405.552 79.9569L405.478 79.9996L405.404 80.0424L405.33 80.0851L405.256 80.1279L405.182 80.1707L405.108 80.2135L405.033 80.2562L404.959 80.299L404.885 80.3418L404.811 80.3846L404.737 80.4274L404.663 80.4702L404.589 80.513L404.515 80.5558L404.44 80.5986L404.366 80.6414L404.292 80.6843L404.218 80.7271L404.144 80.7699L404.07 80.8127L403.995 80.8556L403.921 80.8984L403.847 80.9413L403.773 80.9841L403.699 81.0269L403.624 81.0698L403.55 81.1126L403.476 81.1555L403.402 81.1984L403.327 81.2412L403.253 81.2841L403.179 81.3269L403.105 81.3698L403.03 81.4127L402.956 81.4555L402.882 81.4984L402.808 81.5413L402.733 81.5842L402.659 81.6271L402.585 81.6699L402.511 81.7128L402.436 81.7557L402.362 81.7986L402.288 81.8415L402.213 81.8844L402.139 81.9273L402.065 81.9702L401.991 82.013L401.916 82.0559L401.842 82.0988L401.768 82.1417L401.693 82.1846L401.619 82.2275L401.545 82.2704L401.471 82.3133L401.396 82.3562L401.322 82.3991L401.248 82.442L401.173 82.4849L401.099 82.5278L401.025 82.5707L400.95 82.6136L400.876 82.6565L400.802 82.6994L400.727 82.7423L400.653 82.7852L400.579 82.8281L400.505 82.871L400.43 82.9139L400.356 82.9568L400.282 82.9997L400.207 83.0426L400.133 83.0855L400.059 83.1284L399.984 83.1713L399.91 83.2142L399.836 83.2571L399.762 83.3L399.687 83.3429L399.613 83.3858L399.539 83.4287L399.464 83.4715L399.39 83.5144L399.316 83.5573L399.242 83.6002L399.167 83.6431L399.093 83.6859L399.019 83.7288L398.945 83.7717L398.87 83.8146L398.796 83.8574L398.722 83.9003L398.648 83.9432L398.573 83.986L398.499 84.0289L398.425 84.0717L398.351 84.1146L398.276 84.1574L398.202 84.2003L398.128 84.2431L398.054 84.286L397.98 84.3288L397.905 84.3716L397.831 84.4145L397.757 84.4573L397.683 84.5001L397.609 84.5429L397.535 84.5858L397.46 84.6286L397.386 84.6714L397.312 84.7142L397.238 84.757L397.164 84.7998L397.09 84.8426L397.016 84.8854L396.941 84.9282L396.867 84.9709L396.793 85.0137L396.719 85.0565L396.645 85.0993L396.571 85.142L396.497 85.1848L396.423 85.2275L396.349 85.2703L396.275 85.313L396.201 85.3558L396.127 85.3985L396.053 85.4412L395.979 85.484L395.905 85.5267L395.831 85.5694L395.757 85.6121L395.683 85.6548L395.609 85.6975L395.535 85.7402L395.461 85.7829L395.387 85.8255L395.313 85.8682L395.239 85.9109L395.165 85.9535L395.092 85.9962L395.018 86.0388L394.944 86.0815L394.87 86.1241L394.796 86.1667L394.722 86.2094L394.649 86.252L394.575 86.2946L394.501 86.3372L394.427 86.3798L394.353 86.4224L394.28 86.4649L394.206 86.5075L394.132 86.5501L394.059 86.5926L393.985 86.6352L393.911 86.6777L393.837 86.7203L393.764 86.7628L393.69 86.8053L393.617 86.8478L393.543 86.8903L393.469 86.9328L393.396 86.9753L393.322 87.0178L393.249 87.0603L393.175 87.1027L393.101 87.1452L393.028 87.1876L392.954 87.2301L392.881 87.2725L392.807 87.3149L392.734 87.3573L392.661 87.3997L392.587 87.4421L392.514 87.4845L392.44 87.5269L392.367 87.5693L392.294 87.6116L392.22 87.654L392.147 87.6963L392.074 87.7386L392 87.781L391.927 87.8233L391.854 87.8656L391.78 87.9079L391.707 87.9501L391.634 87.9924L391.561 88.0347L391.488 88.0769L391.414 88.1192L391.341 88.1614L391.268 88.2036L391.195 88.2458L391.122 88.288L391.049 88.3302L390.976 88.3724L390.903 88.4146L390.83 88.4567L390.757 88.4989L390.684 88.541L390.611 88.5831L390.538 88.6252L390.465 88.6673L390.392 88.7094L390.319 88.7515L390.246 88.7936L390.174 88.8356L390.101 88.8777L390.028 88.9197L389.955 88.9617L389.882 89.0037L389.81 89.0457L389.737 89.0877L389.664 89.1297L389.592 89.1716L389.519 89.2136L389.446 89.2555L389.374 89.2974L389.301 89.3393L389.229 89.3812L389.156 89.4231L389.083 89.465L389.011 89.5068L388.938 89.5487L388.866 89.5905L388.794 89.6323L388.721 89.6741L388.649 89.7159L388.576 89.7577L388.504 89.7995L388.432 89.8412L388.359 89.883L388.287 89.9247L388.215 89.9664L388.143 90.0081L388.071 90.0498L387.998 90.0915L387.926 90.1331L387.854 90.1748L387.782 90.2164L387.71 90.258L387.638 90.2996L387.566 90.3412L387.494 90.3828L387.422 90.4243L387.35 90.4659L387.278 90.5074L387.206 90.5489L387.134 90.5904L387.062 90.6319L386.991 90.6733L386.919 90.7148L386.847 90.7562L386.775 90.7977L386.704 90.8391L386.632 90.8805L386.56 90.9218L386.489 90.9632L386.417 91.0045L386.345 91.0459L386.274 91.0872L386.202 91.1285L386.131 91.1697L386.059 91.211L385.988 91.2523L385.916 91.2935L385.845 91.3347L385.774 91.3759L385.702 91.4171L385.631 91.4582L385.56 91.4994L385.489 91.5405L385.417 91.5816L385.346 91.6227L385.275 91.6638L385.204 91.7049L385.133 91.7459L385.062 91.787L384.991 91.828L384.92 91.869L384.849 91.9099L384.778 91.9509L384.707 91.9918L384.636 92.0328L384.565 92.0737L384.494 92.1146L384.423 92.1554L384.353 92.1963L384.282 92.2371L384.211 92.2779L384.141 92.3187L384.07 92.3595L383.999 92.4003L383.929 92.441L383.858 92.4817L383.788 92.5225L383.717 92.5631L383.647 92.6038L383.576 92.6445L383.506 92.6851L383.436 92.7257L383.365 92.7663L383.295 92.8069L383.225 92.8474L383.155 92.888L383.085 92.9285L383.014 92.969L382.944 93.0094L382.874 93.0499L382.804 93.0903L382.734 93.1307L382.664 93.1711L382.594 93.2115L382.524 93.2519L382.455 93.2922L382.385 93.3325L382.315 93.3728L382.245 93.4131L382.175 93.4534L382.106 93.4936L382.036 93.5338L381.966 93.574L381.897 93.6142L381.827 93.6543L381.758 93.6944L381.688 93.7346L381.619 93.7746L381.55 93.8147L381.48 93.8548L381.411 93.8948L381.342 93.9348L381.272 93.9748L381.203 94.0147L381.134 94.0547L381.065 94.0946L380.996 94.1345L380.927 94.1743L380.858 94.2142L380.789 94.254L380.72 94.2938L380.651 94.3336L380.582 94.3734L380.513 94.4131L380.444 94.4528L380.376 94.4925L380.307 94.5322L380.238 94.5718L380.169 94.6115L380.101 94.6511L380.032 94.6907L379.964 94.7302L379.895 94.7697L379.827 94.8093L379.759 94.8487L379.69 94.8882L379.622 94.9276L379.554 94.9671L379.485 95.0065L379.417 95.0458L379.349 95.0852L379.281 95.1245L379.213 95.1638L379.145 95.2031L379.077 95.2423L379.009 95.2815L378.941 95.3207L378.873 95.3599L378.833 95.3831Z" fill="white" stroke="#E3E5E5" stroke-width="5"/>
<path d="M381.272 99.8327C389.886 96.2714 400.016 99.5558 404.804 107.848C409.592 116.14 407.371 126.556 399.979 132.235L399.969 132.218L399.927 132.145L399.885 132.072L399.843 131.998L399.801 131.925L399.758 131.852L399.716 131.779L399.674 131.706L399.632 131.633L399.59 131.56L399.547 131.487L399.505 131.414L399.463 131.34L399.421 131.267L399.378 131.194L399.336 131.121L399.294 131.047L399.251 130.974L399.209 130.901L399.167 130.828L399.124 130.754L399.082 130.681L399.04 130.608L398.997 130.534L398.955 130.461L398.913 130.387L398.87 130.314L398.828 130.241L398.785 130.167L398.743 130.094L398.701 130.02L398.658 129.947L398.616 129.873L398.573 129.8L398.531 129.726L398.488 129.652L398.446 129.579L398.403 129.505L398.361 129.432L398.318 129.358L398.276 129.284L398.233 129.211L398.191 129.137L398.148 129.063L398.106 128.99L398.063 128.916L398.021 128.842L397.978 128.769L397.936 128.695L397.893 128.621L397.85 128.547L397.808 128.474L397.765 128.4L397.723 128.326L397.68 128.252L397.637 128.178L397.595 128.105L397.552 128.031L397.509 127.957L397.467 127.883L397.424 127.809L397.381 127.735L397.339 127.661L397.296 127.587L397.253 127.514L397.211 127.44L397.168 127.366L397.125 127.292L397.083 127.218L397.04 127.144L396.997 127.07L396.955 126.996L396.912 126.922L396.869 126.848L396.826 126.774L396.784 126.7L396.741 126.626L396.698 126.552L396.655 126.478L396.613 126.404L396.57 126.33L396.527 126.256L396.484 126.181L396.442 126.107L396.399 126.033L396.356 125.959L396.313 125.885L396.27 125.811L396.228 125.737L396.185 125.663L396.142 125.589L396.099 125.514L396.056 125.44L396.014 125.366L395.971 125.292L395.928 125.218L395.885 125.144L395.842 125.069L395.799 124.995L395.757 124.921L395.714 124.847L395.671 124.773L395.628 124.698L395.585 124.624L395.542 124.55L395.5 124.476L395.457 124.401L395.414 124.327L395.371 124.253L395.328 124.179L395.285 124.104L395.242 124.03L395.199 123.956L395.157 123.882L395.114 123.807L395.071 123.733L395.028 123.659L394.985 123.585L394.942 123.51L394.899 123.436L394.856 123.362L394.814 123.288L394.771 123.213L394.728 123.139L394.685 123.065L394.642 122.99L394.599 122.916L394.556 122.842L394.513 122.767L394.47 122.693L394.428 122.619L394.385 122.545L394.342 122.47L394.299 122.396L394.256 122.322L394.213 122.247L394.17 122.173L394.127 122.099L394.084 122.024L394.041 121.95L393.999 121.876L393.956 121.802L393.913 121.727L393.87 121.653L393.827 121.579L393.784 121.504L393.741 121.43L393.698 121.356L393.655 121.281L393.612 121.207L393.57 121.133L393.527 121.058L393.484 120.984L393.441 120.91L393.398 120.836L393.355 120.761L393.312 120.687L393.269 120.613L393.226 120.538L393.183 120.464L393.141 120.39L393.098 120.316L393.055 120.241L393.012 120.167L392.969 120.093L392.926 120.019L392.883 119.944L392.84 119.87L392.798 119.796L392.755 119.722L392.712 119.647L392.669 119.573L392.626 119.499L392.583 119.425L392.54 119.35L392.498 119.276L392.455 119.202L392.412 119.128L392.369 119.054L392.326 118.979L392.283 118.905L392.241 118.831L392.198 118.757L392.155 118.683L392.112 118.608L392.069 118.534L392.026 118.46L391.984 118.386L391.941 118.312L391.898 118.238L391.855 118.164L391.812 118.089L391.77 118.015L391.727 117.941L391.684 117.867L391.641 117.793L391.599 117.719L391.556 117.645L391.513 117.571L391.47 117.497L391.427 117.423L391.385 117.349L391.342 117.275L391.299 117.201L391.257 117.127L391.214 117.053L391.171 116.979L391.128 116.905L391.086 116.831L391.043 116.757L391 116.683L390.958 116.609L390.915 116.535L390.872 116.461L390.829 116.387L390.787 116.313L390.744 116.239L390.701 116.165L390.659 116.091L390.616 116.017L390.574 115.944L390.531 115.87L390.488 115.796L390.446 115.722L390.403 115.648L390.36 115.575L390.318 115.501L390.275 115.427L390.233 115.353L390.19 115.279L390.148 115.206L390.105 115.132L390.062 115.058L390.02 114.985L389.977 114.911L389.935 114.837L389.892 114.764L389.85 114.69L389.807 114.616L389.765 114.543L389.722 114.469L389.68 114.395L389.637 114.322L389.595 114.248L389.552 114.175L389.51 114.101L389.467 114.028L389.425 113.954L389.383 113.881L389.34 113.807L389.298 113.734L389.255 113.66L389.213 113.587L389.171 113.513L389.128 113.44L389.086 113.367L389.043 113.293L389.001 113.22L388.959 113.147L388.916 113.073L388.874 113L388.832 112.927L388.789 112.853L388.747 112.78L388.705 112.707L388.663 112.634L388.62 112.561L388.578 112.487L388.536 112.414L388.494 112.341L388.451 112.268L388.409 112.195L388.367 112.122L388.325 112.049L388.283 111.976L388.24 111.903L388.198 111.83L388.156 111.757L388.114 111.684L388.072 111.611L388.03 111.538L387.988 111.465L387.946 111.392L387.904 111.319L387.861 111.246L387.819 111.173L387.777 111.101L387.735 111.028L387.693 110.955L387.651 110.882L387.609 110.809L387.567 110.737L387.525 110.664L387.483 110.591L387.441 110.519L387.4 110.446L387.358 110.373L387.316 110.301L387.274 110.228L387.232 110.156L387.19 110.083L387.148 110.011L387.106 109.938L387.065 109.866L387.023 109.793L386.981 109.721L386.939 109.649L386.897 109.576L386.856 109.504L386.814 109.432L386.772 109.359L386.73 109.287L386.689 109.215L386.647 109.142L386.605 109.07L386.564 108.998L386.522 108.926L386.48 108.854L386.439 108.782L386.397 108.71L386.355 108.638L386.314 108.566L386.272 108.494L386.231 108.422L386.189 108.35L386.148 108.278L386.106 108.206L386.065 108.134L386.023 108.062L385.982 107.99L385.94 107.918L385.899 107.847L385.857 107.775L385.816 107.703L385.775 107.632L385.733 107.56L385.692 107.488L385.651 107.417L385.609 107.345L385.568 107.274L385.527 107.202L385.485 107.131L385.444 107.059L385.403 106.988L385.362 106.916L385.32 106.845L385.279 106.773L385.238 106.702L385.197 106.631L385.156 106.56L385.115 106.488L385.073 106.417L385.032 106.346L384.991 106.275L384.95 106.204L384.909 106.133L384.868 106.061L384.827 105.99L384.786 105.919L384.745 105.848L384.704 105.777L384.663 105.707L384.622 105.636L384.581 105.565L384.54 105.494L384.5 105.423L384.459 105.352L384.418 105.282L384.377 105.211L384.336 105.14L384.296 105.07L384.255 104.999L384.214 104.929L384.173 104.858L384.133 104.788L384.092 104.717L384.051 104.647L384.011 104.576L383.97 104.506L383.929 104.436L383.889 104.365L383.848 104.295L383.808 104.225L383.767 104.154L383.727 104.084L383.686 104.014L383.646 103.944L383.605 103.874L383.565 103.804L383.524 103.734L383.484 103.664L383.444 103.594L383.403 103.524L383.363 103.454L383.323 103.384L383.282 103.315L383.242 103.245L383.202 103.175L383.161 103.105L383.121 103.036L383.081 102.966L383.041 102.897L383.001 102.827L382.961 102.758L382.92 102.688L382.88 102.619L382.84 102.549L382.8 102.48L382.76 102.411L382.72 102.341L382.68 102.272L382.64 102.203L382.6 102.134L382.56 102.065L382.521 101.995L382.481 101.926L382.441 101.857L382.401 101.788L382.361 101.719L382.321 101.651L382.282 101.582L382.242 101.513L382.202 101.444L382.163 101.375L382.123 101.307L382.083 101.238L382.044 101.169L382.004 101.101L381.964 101.032L381.925 100.964L381.885 100.895L381.846 100.827L381.806 100.758L381.767 100.69L381.727 100.622L381.688 100.553L381.649 100.485L381.609 100.417L381.57 100.349L381.531 100.281L381.491 100.213L381.452 100.145L381.413 100.077L381.373 100.009L381.334 99.9407L381.295 99.8729L381.272 99.8327Z" fill="white" stroke="#E3E5E5" stroke-width="5"/>
<path d="M376.929 102.274C380.49 110.888 377.206 121.018 368.913 125.806C360.621 130.593 350.206 128.372 344.526 120.981L344.544 120.971L344.617 120.929L344.69 120.887L344.763 120.845L344.836 120.802L344.909 120.76L344.982 120.718L345.055 120.676L345.128 120.634L345.202 120.591L345.275 120.549L345.348 120.507L345.421 120.465L345.494 120.422L345.568 120.38L345.641 120.338L345.714 120.295L345.787 120.253L345.861 120.211L345.934 120.169L346.007 120.126L346.081 120.084L346.154 120.041L346.227 119.999L346.301 119.957L346.374 119.914L346.448 119.872L346.521 119.83L346.594 119.787L346.668 119.745L346.741 119.702L346.815 119.66L346.888 119.617L346.962 119.575L347.035 119.533L347.109 119.49L347.183 119.448L347.256 119.405L347.33 119.363L347.403 119.32L347.477 119.278L347.551 119.235L347.624 119.193L347.698 119.15L347.772 119.107L347.845 119.065L347.919 119.022L347.993 118.98L348.067 118.937L348.14 118.895L348.214 118.852L348.288 118.809L348.362 118.767L348.435 118.724L348.509 118.682L348.583 118.639L348.657 118.596L348.731 118.554L348.805 118.511L348.878 118.468L348.952 118.426L349.026 118.383L349.1 118.341L349.174 118.298L349.248 118.255L349.322 118.212L349.396 118.17L349.47 118.127L349.544 118.084L349.618 118.042L349.692 117.999L349.766 117.956L349.84 117.914L349.914 117.871L349.988 117.828L350.062 117.785L350.136 117.743L350.21 117.7L350.284 117.657L350.358 117.614L350.432 117.572L350.506 117.529L350.58 117.486L350.654 117.443L350.728 117.401L350.802 117.358L350.876 117.315L350.951 117.272L351.025 117.229L351.099 117.187L351.173 117.144L351.247 117.101L351.321 117.058L351.395 117.015L351.47 116.972L351.544 116.93L351.618 116.887L351.692 116.844L351.766 116.801L351.841 116.758L351.915 116.715L351.989 116.673L352.063 116.63L352.137 116.587L352.212 116.544L352.286 116.501L352.36 116.458L352.434 116.416L352.508 116.373L352.583 116.33L352.657 116.287L352.731 116.244L352.805 116.201L352.88 116.158L352.954 116.115L353.028 116.073L353.103 116.03L353.177 115.987L353.251 115.944L353.325 115.901L353.4 115.858L353.474 115.815L353.548 115.772L353.623 115.729L353.697 115.687L353.771 115.644L353.845 115.601L353.92 115.558L353.994 115.515L354.068 115.472L354.143 115.429L354.217 115.386L354.291 115.343L354.366 115.301L354.44 115.258L354.514 115.215L354.588 115.172L354.663 115.129L354.737 115.086L354.811 115.043L354.886 115L354.96 114.957L355.034 114.914L355.109 114.872L355.183 114.829L355.257 114.786L355.331 114.743L355.406 114.7L355.48 114.657L355.554 114.614L355.629 114.571L355.703 114.528L355.777 114.485L355.852 114.443L355.926 114.4L356 114.357L356.074 114.314L356.149 114.271L356.223 114.228L356.297 114.185L356.372 114.142L356.446 114.099L356.52 114.057L356.594 114.014L356.669 113.971L356.743 113.928L356.817 113.885L356.891 113.842L356.966 113.799L357.04 113.756L357.114 113.714L357.188 113.671L357.263 113.628L357.337 113.585L357.411 113.542L357.485 113.499L357.56 113.456L357.634 113.414L357.708 113.371L357.782 113.328L357.856 113.285L357.93 113.242L358.005 113.199L358.079 113.157L358.153 113.114L358.227 113.071L358.301 113.028L358.375 112.985L358.45 112.943L358.524 112.9L358.598 112.857L358.672 112.814L358.746 112.771L358.82 112.729L358.894 112.686L358.968 112.643L359.043 112.6L359.117 112.557L359.191 112.515L359.265 112.472L359.339 112.429L359.413 112.386L359.487 112.344L359.561 112.301L359.635 112.258L359.709 112.216L359.783 112.173L359.857 112.13L359.931 112.087L360.005 112.045L360.079 112.002L360.153 111.959L360.227 111.917L360.301 111.874L360.375 111.831L360.448 111.789L360.522 111.746L360.596 111.703L360.67 111.661L360.744 111.618L360.818 111.575L360.892 111.533L360.966 111.49L361.039 111.447L361.113 111.405L361.187 111.362L361.261 111.32L361.335 111.277L361.408 111.234L361.482 111.192L361.556 111.149L361.629 111.107L361.703 111.064L361.777 111.022L361.851 110.979L361.924 110.936L361.998 110.894L362.072 110.851L362.145 110.809L362.219 110.766L362.292 110.724L362.366 110.681L362.44 110.639L362.513 110.596L362.587 110.554L362.66 110.512L362.734 110.469L362.807 110.427L362.881 110.384L362.954 110.342L363.028 110.299L363.101 110.257L363.175 110.215L363.248 110.172L363.321 110.13L363.395 110.087L363.468 110.045L363.541 110.003L363.615 109.96L363.688 109.918L363.761 109.876L363.835 109.833L363.908 109.791L363.981 109.749L364.054 109.707L364.128 109.664L364.201 109.622L364.274 109.58L364.347 109.538L364.42 109.495L364.493 109.453L364.567 109.411L364.64 109.369L364.713 109.327L364.786 109.284L364.859 109.242L364.932 109.2L365.005 109.158L365.078 109.116L365.151 109.074L365.224 109.032L365.297 108.989L365.37 108.947L365.442 108.905L365.515 108.863L365.588 108.821L365.661 108.779L365.734 108.737L365.807 108.695L365.879 108.653L365.952 108.611L366.025 108.569L366.097 108.527L366.17 108.485L366.243 108.443L366.315 108.401L366.388 108.359L366.461 108.317L366.533 108.276L366.606 108.234L366.678 108.192L366.751 108.15L366.823 108.108L366.896 108.066L366.968 108.024L367.041 107.983L367.113 107.941L367.185 107.899L367.258 107.857L367.33 107.815L367.402 107.774L367.475 107.732L367.547 107.69L367.619 107.649L367.691 107.607L367.763 107.565L367.836 107.524L367.908 107.482L367.98 107.44L368.052 107.399L368.124 107.357L368.196 107.316L368.268 107.274L368.34 107.232L368.412 107.191L368.484 107.149L368.556 107.108L368.628 107.066L368.699 107.025L368.771 106.983L368.843 106.942L368.915 106.901L368.987 106.859L369.058 106.818L369.13 106.776L369.202 106.735L369.273 106.694L369.345 106.652L369.416 106.611L369.488 106.57L369.559 106.528L369.631 106.487L369.702 106.446L369.774 106.404L369.845 106.363L369.917 106.322L369.988 106.281L370.059 106.24L370.131 106.198L370.202 106.157L370.273 106.116L370.344 106.075L370.416 106.034L370.487 105.993L370.558 105.952L370.629 105.911L370.7 105.87L370.771 105.829L370.842 105.788L370.913 105.747L370.984 105.706L371.055 105.665L371.126 105.624L371.197 105.583L371.267 105.542L371.338 105.501L371.409 105.46L371.48 105.42L371.55 105.379L371.621 105.338L371.692 105.297L371.762 105.256L371.833 105.216L371.903 105.175L371.974 105.134L372.044 105.094L372.115 105.053L372.185 105.012L372.256 104.972L372.326 104.931L372.396 104.89L372.467 104.85L372.537 104.809L372.607 104.769L372.677 104.728L372.747 104.688L372.817 104.647L372.887 104.607L372.958 104.566L373.028 104.526L373.098 104.486L373.167 104.445L373.237 104.405L373.307 104.365L373.377 104.324L373.447 104.284L373.517 104.244L373.586 104.203L373.656 104.163L373.726 104.123L373.795 104.083L373.865 104.043L373.934 104.002L374.004 103.962L374.073 103.922L374.143 103.882L374.212 103.842L374.282 103.802L374.351 103.762L374.42 103.722L374.489 103.682L374.559 103.642L374.628 103.602L374.697 103.562L374.766 103.522L374.835 103.482L374.904 103.443L374.973 103.403L375.042 103.363L375.111 103.323L375.18 103.283L375.249 103.244L375.317 103.204L375.386 103.164L375.455 103.125L375.524 103.085L375.592 103.045L375.661 103.006L375.729 102.966L375.798 102.927L375.866 102.887L375.935 102.847L376.003 102.808L376.072 102.769L376.14 102.729L376.208 102.69L376.276 102.65L376.345 102.611L376.413 102.572L376.481 102.532L376.549 102.493L376.617 102.454L376.685 102.414L376.753 102.375L376.821 102.336L376.889 102.297L376.929 102.274Z" fill="white" stroke="#E3E5E5" stroke-width="5"/>
<path d="M374.382 97.9283C365.768 101.49 355.638 98.2051 350.85 89.9129C346.063 81.6207 348.284 71.2054 355.675 65.5258L355.685 65.5435L355.727 65.6165L355.769 65.6895L355.811 65.7625L355.854 65.8356L355.896 65.9086L355.938 65.9817L355.98 66.0548L356.022 66.1279L356.065 66.2011L356.107 66.2742L356.149 66.3474L356.191 66.4206L356.234 66.4938L356.276 66.567L356.318 66.6403L356.361 66.7135L356.403 66.7868L356.445 66.8601L356.488 66.9334L356.53 67.0067L356.572 67.0801L356.615 67.1534L356.657 67.2268L356.699 67.3002L356.742 67.3736L356.784 67.447L356.826 67.5205L356.869 67.5939L356.911 67.6674L356.954 67.7409L356.996 67.8144L357.039 67.8879L357.081 67.9614L357.123 68.035L357.166 68.1085L357.208 68.1821L357.251 68.2557L357.293 68.3293L357.336 68.4029L357.378 68.4766L357.421 68.5502L357.463 68.6239L357.506 68.6975L357.549 68.7712L357.591 68.8449L357.634 68.9186L357.676 68.9923L357.719 69.0661L357.761 69.1398L357.804 69.2136L357.847 69.2873L357.889 69.3611L357.932 69.4349L357.974 69.5087L358.017 69.5825L358.06 69.6564L358.102 69.7302L358.145 69.8041L358.188 69.8779L358.23 69.9518L358.273 70.0257L358.315 70.0996L358.358 70.1735L358.401 70.2474L358.444 70.3213L358.486 70.3953L358.529 70.4692L358.572 70.5432L358.614 70.6171L358.657 70.6911L358.7 70.7651L358.742 70.8391L358.785 70.9131L358.828 70.9871L358.871 71.0611L358.913 71.1352L358.956 71.2092L358.999 71.2833L359.042 71.3573L359.084 71.4314L359.127 71.5055L359.17 71.5795L359.213 71.6536L359.256 71.7277L359.298 71.8018L359.341 71.876L359.384 71.9501L359.427 72.0242L359.469 72.0983L359.512 72.1725L359.555 72.2466L359.598 72.3208L359.641 72.3949L359.684 72.4691L359.726 72.5433L359.769 72.6174L359.812 72.6916L359.855 72.7658L359.898 72.84L359.941 72.9142L359.983 72.9884L360.026 73.0626L360.069 73.1369L360.112 73.2111L360.155 73.2853L360.198 73.3595L360.24 73.4338L360.283 73.508L360.326 73.5823L360.369 73.6565L360.412 73.7308L360.455 73.805L360.498 73.8793L360.541 73.9535L360.583 74.0278L360.626 74.1021L360.669 74.1763L360.712 74.2506L360.755 74.3249L360.798 74.3992L360.841 74.4735L360.884 74.5478L360.927 74.622L360.969 74.6963L361.012 74.7706L361.055 74.8449L361.098 74.9192L361.141 74.9935L361.184 75.0678L361.227 75.1421L361.27 75.2164L361.313 75.2907L361.355 75.365L361.398 75.4393L361.441 75.5136L361.484 75.5879L361.527 75.6622L361.57 75.7366L361.613 75.8109L361.656 75.8852L361.699 75.9595L361.742 76.0338L361.784 76.1081L361.827 76.1824L361.87 76.2567L361.913 76.331L361.956 76.4053L361.999 76.4796L362.042 76.5539L362.085 76.6282L362.128 76.7025L362.171 76.7768L362.213 76.8511L362.256 76.9254L362.299 76.9997L362.342 77.074L362.385 77.1482L362.428 77.2225L362.471 77.2968L362.514 77.3711L362.557 77.4454L362.599 77.5196L362.642 77.5939L362.685 77.6682L362.728 77.7424L362.771 77.8167L362.814 77.8909L362.857 77.9652L362.9 78.0394L362.942 78.1137L362.985 78.1879L363.028 78.2621L363.071 78.3364L363.114 78.4106L363.157 78.4848L363.2 78.559L363.242 78.6332L363.285 78.7074L363.328 78.7816L363.371 78.8558L363.414 78.93L363.457 79.0042L363.499 79.0784L363.542 79.1525L363.585 79.2267L363.628 79.3009L363.671 79.375L363.713 79.4491L363.756 79.5233L363.799 79.5974L363.842 79.6715L363.885 79.7456L363.927 79.8197L363.97 79.8938L364.013 79.9679L364.056 80.042L364.099 80.1161L364.141 80.1902L364.184 80.2642L364.227 80.3383L364.27 80.4123L364.312 80.4864L364.355 80.5604L364.398 80.6344L364.44 80.7084L364.483 80.7824L364.526 80.8564L364.569 80.9304L364.611 81.0044L364.654 81.0783L364.697 81.1523L364.739 81.2262L364.782 81.3001L364.825 81.3741L364.867 81.448L364.91 81.5219L364.953 81.5958L364.995 81.6696L365.038 81.7435L365.081 81.8174L365.123 81.8912L365.166 81.965L365.209 82.0389L365.251 82.1127L365.294 82.1865L365.336 82.2603L365.379 82.334L365.422 82.4078L365.464 82.4815L365.507 82.5553L365.549 82.629L365.592 82.7027L365.634 82.7764L365.677 82.8501L365.72 82.9238L365.762 82.9974L365.805 83.0711L365.847 83.1447L365.89 83.2183L365.932 83.2919L365.975 83.3655L366.017 83.4391L366.06 83.5127L366.102 83.5862L366.144 83.6598L366.187 83.7333L366.229 83.8068L366.272 83.8803L366.314 83.9538L366.357 84.0272L366.399 84.1007L366.441 84.1741L366.484 84.2475L366.526 84.3209L366.569 84.3943L366.611 84.4676L366.653 84.541L366.696 84.6143L366.738 84.6876L366.78 84.7609L366.823 84.8342L366.865 84.9075L366.907 84.9807L366.949 85.054L366.992 85.1272L367.034 85.2004L367.076 85.2736L367.118 85.3467L367.161 85.4199L367.203 85.493L367.245 85.5661L367.287 85.6392L367.329 85.7123L367.372 85.7853L367.414 85.8584L367.456 85.9314L367.498 86.0044L367.54 86.0774L367.582 86.1503L367.624 86.2233L367.667 86.2962L367.709 86.3691L367.751 86.442L367.793 86.5148L367.835 86.5877L367.877 86.6605L367.919 86.7333L367.961 86.8061L368.003 86.8788L368.045 86.9516L368.087 87.0243L368.129 87.097L368.171 87.1696L368.213 87.2423L368.255 87.3149L368.297 87.3875L368.339 87.4601L368.381 87.5327L368.422 87.6052L368.464 87.6778L368.506 87.7503L368.548 87.8227L368.59 87.8952L368.632 87.9676L368.673 88.04L368.715 88.1124L368.757 88.1848L368.799 88.2571L368.841 88.3295L368.882 88.4018L368.924 88.474L368.966 88.5463L369.007 88.6185L369.049 88.6907L369.091 88.7629L369.132 88.835L369.174 88.9071L369.216 88.9792L369.257 89.0513L369.299 89.1234L369.34 89.1954L369.382 89.2674L369.424 89.3394L369.465 89.4113L369.507 89.4833L369.548 89.5552L369.59 89.627L369.631 89.6989L369.673 89.7707L369.714 89.8425L369.756 89.9143L369.797 89.986L369.838 90.0577L369.88 90.1294L369.921 90.2011L369.962 90.2727L370.004 90.3443L370.045 90.4159L370.086 90.4875L370.128 90.559L370.169 90.6305L370.21 90.702L370.252 90.7734L370.293 90.8448L370.334 90.9162L370.375 90.9876L370.416 91.0589L370.458 91.1302L370.499 91.2015L370.54 91.2727L370.581 91.3439L370.622 91.4151L370.663 91.4862L370.704 91.5574L370.745 91.6285L370.786 91.6995L370.827 91.7706L370.868 91.8416L370.909 91.9125L370.95 91.9835L370.991 92.0544L371.032 92.1253L371.073 92.1961L371.114 92.267L371.155 92.3378L371.196 92.4085L371.236 92.4792L371.277 92.5499L371.318 92.6206L371.359 92.6912L371.4 92.7618L371.44 92.8324L371.481 92.9029L371.522 92.9734L371.562 93.0439L371.603 93.1144L371.644 93.1848L371.684 93.2551L371.725 93.3255L371.766 93.3958L371.806 93.4661L371.847 93.5363L371.887 93.6065L371.928 93.6767L371.968 93.7468L372.009 93.8169L372.049 93.887L372.09 93.957L372.13 94.027L372.17 94.097L372.211 94.1669L372.251 94.2368L372.291 94.3067L372.332 94.3765L372.372 94.4463L372.412 94.5161L372.453 94.5858L372.493 94.6555L372.533 94.7252L372.573 94.7948L372.613 94.8644L372.654 94.9339L372.694 95.0034L372.734 95.0729L372.774 95.1423L372.814 95.2117L372.854 95.2811L372.894 95.3504L372.934 95.4197L372.974 95.4889L373.014 95.5581L373.054 95.6273L373.094 95.6965L373.134 95.7656L373.174 95.8346L373.213 95.9036L373.253 95.9726L373.293 96.0416L373.333 96.1105L373.373 96.1793L373.412 96.2482L373.452 96.317L373.492 96.3857L373.531 96.4544L373.571 96.5231L373.611 96.5917L373.65 96.6603L373.69 96.7289L373.729 96.7974L373.769 96.8659L373.809 96.9343L373.848 97.0027L373.887 97.0711L373.927 97.1394L373.966 97.2076L374.006 97.2759L374.045 97.3441L374.084 97.4122L374.124 97.4803L374.163 97.5484L374.202 97.6164L374.242 97.6844L374.281 97.7523L374.32 97.8202L374.359 97.8881L374.382 97.9283Z" fill="white" stroke="#E3E5E5" stroke-width="5"/>
<path d="M838.008 120.14L842.185 114.806H848.476V274.5H838.008V120.14Z" fill="white" stroke="#E3E5E5" stroke-width="5"/>
<path d="M841.981 109.86C838.641 101.639 841.79 92.0062 849.692 87.4439C857.594 82.8816 867.511 84.9707 872.96 91.9742L872.897 92.0106L872.827 92.0511L872.757 92.0917L872.687 92.1323L872.616 92.1729L872.546 92.2135L872.476 92.2541L872.405 92.2947L872.335 92.3353L872.265 92.3759L872.194 92.4166L872.124 92.4573L872.053 92.4979L871.983 92.5386L871.912 92.5793L871.842 92.62L871.771 92.6607L871.701 92.7014L871.63 92.7421L871.56 92.7828L871.489 92.8236L871.419 92.8643L871.348 92.9051L871.277 92.9459L871.207 92.9866L871.136 93.0274L871.066 93.0682L870.995 93.109L870.924 93.1498L870.853 93.1907L870.783 93.2315L870.712 93.2723L870.641 93.3132L870.571 93.354L870.5 93.3949L870.429 93.4357L870.358 93.4766L870.287 93.5175L870.217 93.5584L870.146 93.5993L870.075 93.6402L870.004 93.6811L869.933 93.722L869.862 93.7629L869.791 93.8039L869.72 93.8448L869.65 93.8858L869.579 93.9267L869.508 93.9677L869.437 94.0087L869.366 94.0496L869.295 94.0906L869.224 94.1316L869.153 94.1726L869.082 94.2136L869.011 94.2546L868.94 94.2956L868.869 94.3366L868.798 94.3777L868.726 94.4187L868.655 94.4597L868.584 94.5008L868.513 94.5418L868.442 94.5829L868.371 94.624L868.3 94.665L868.229 94.7061L868.158 94.7472L868.086 94.7883L868.015 94.8293L867.944 94.8704L867.873 94.9115L867.802 94.9526L867.73 94.9938L867.659 95.0349L867.588 95.076L867.517 95.1171L867.446 95.1582L867.374 95.1994L867.303 95.2405L867.232 95.2817L867.161 95.3228L867.089 95.3639L867.018 95.4051L866.947 95.4463L866.875 95.4874L866.804 95.5286L866.733 95.5698L866.661 95.6109L866.59 95.6521L866.519 95.6933L866.447 95.7345L866.376 95.7757L866.305 95.8169L866.233 95.8581L866.162 95.8993L866.091 95.9405L866.019 95.9817L865.948 96.0229L865.877 96.0641L865.805 96.1053L865.734 96.1465L865.662 96.1877L865.591 96.229L865.52 96.2702L865.448 96.3114L865.377 96.3526L865.305 96.3939L865.234 96.4351L865.163 96.4763L865.091 96.5176L865.02 96.5588L864.948 96.6001L864.877 96.6413L864.805 96.6825L864.734 96.7238L864.662 96.765L864.591 96.8063L864.52 96.8475L864.448 96.8888L864.377 96.9301L864.305 96.9713L864.234 97.0126L864.162 97.0538L864.091 97.0951L864.019 97.1364L863.948 97.1776L863.876 97.2189L863.805 97.2601L863.733 97.3014L863.662 97.3427L863.591 97.3839L863.519 97.4252L863.448 97.4665L863.376 97.5077L863.305 97.549L863.233 97.5903L863.162 97.6315L863.09 97.6728L863.019 97.7141L862.947 97.7553L862.876 97.7966L862.804 97.8379L862.733 97.8791L862.661 97.9204L862.59 97.9617L862.518 98.0029L862.447 98.0442L862.375 98.0855L862.304 98.1267L862.233 98.168L862.161 98.2092L862.09 98.2505L862.018 98.2917L861.947 98.333L861.875 98.3743L861.804 98.4155L861.732 98.4568L861.661 98.498L861.589 98.5393L861.518 98.5805L861.447 98.6218L861.375 98.663L861.304 98.7042L861.232 98.7455L861.161 98.7867L861.089 98.828L861.018 98.8692L860.947 98.9104L860.875 98.9516L860.804 98.9929L860.732 99.0341L860.661 99.0753L860.59 99.1165L860.518 99.1577L860.447 99.199L860.375 99.2402L860.304 99.2814L860.233 99.3226L860.161 99.3638L860.09 99.405L860.019 99.4462L859.947 99.4874L859.876 99.5285L859.805 99.5697L859.733 99.6109L859.662 99.6521L859.591 99.6932L859.519 99.7344L859.448 99.7756L859.377 99.8167L859.305 99.8579L859.234 99.899L859.163 99.9402L859.092 99.9813L859.02 100.022L858.949 100.064L858.878 100.105L858.807 100.146L858.735 100.187L858.664 100.228L858.593 100.269L858.522 100.31L858.451 100.351L858.379 100.393L858.308 100.434L858.237 100.475L858.166 100.516L858.095 100.557L858.024 100.598L857.953 100.639L857.881 100.68L857.81 100.721L857.739 100.762L857.668 100.803L857.597 100.844L857.526 100.885L857.455 100.926L857.384 100.967L857.313 101.008L857.242 101.049L857.171 101.09L857.1 101.131L857.029 101.172L856.958 101.213L856.887 101.254L856.816 101.295L856.745 101.336L856.674 101.377L856.603 101.418L856.532 101.459L856.461 101.5L856.391 101.541L856.32 101.582L856.249 101.623L856.178 101.664L856.107 101.704L856.036 101.745L855.966 101.786L855.895 101.827L855.824 101.868L855.753 101.909L855.682 101.95L855.612 101.99L855.541 102.031L855.47 102.072L855.4 102.113L855.329 102.154L855.258 102.195L855.188 102.235L855.117 102.276L855.046 102.317L854.976 102.358L854.905 102.398L854.835 102.439L854.764 102.48L854.694 102.521L854.623 102.561L854.553 102.602L854.482 102.643L854.412 102.683L854.341 102.724L854.271 102.765L854.2 102.805L854.13 102.846L854.059 102.887L853.989 102.927L853.919 102.968L853.848 103.009L853.778 103.049L853.708 103.09L853.637 103.13L853.567 103.171L853.497 103.211L853.427 103.252L853.356 103.293L853.286 103.333L853.216 103.374L853.146 103.414L853.076 103.455L853.006 103.495L852.936 103.536L852.865 103.576L852.795 103.616L852.725 103.657L852.655 103.697L852.585 103.738L852.515 103.778L852.445 103.819L852.375 103.859L852.305 103.899L852.236 103.94L852.166 103.98L852.096 104.02L852.026 104.061L851.956 104.101L851.886 104.141L851.817 104.182L851.747 104.222L851.677 104.262L851.607 104.302L851.538 104.343L851.468 104.383L851.398 104.423L851.329 104.463L851.259 104.503L851.19 104.544L851.12 104.584L851.05 104.624L850.981 104.664L850.911 104.704L850.842 104.744L850.772 104.784L850.703 104.825L850.634 104.865L850.564 104.905L850.495 104.945L850.426 104.985L850.356 105.025L850.287 105.065L850.218 105.105L850.149 105.145L850.079 105.185L850.01 105.225L849.941 105.265L849.872 105.304L849.803 105.344L849.734 105.384L849.665 105.424L849.596 105.464L849.527 105.504L849.458 105.544L849.389 105.583L849.32 105.623L849.251 105.663L849.182 105.703L849.113 105.743L849.044 105.782L848.975 105.822L848.907 105.862L848.838 105.901L848.769 105.941L848.7 105.981L848.632 106.02L848.563 106.06L848.495 106.1L848.426 106.139L848.357 106.179L848.289 106.218L848.22 106.258L848.152 106.297L848.083 106.337L848.015 106.376L847.947 106.416L847.878 106.455L847.81 106.495L847.742 106.534L847.673 106.574L847.605 106.613L847.537 106.652L847.469 106.692L847.401 106.731L847.332 106.771L847.264 106.81L847.196 106.849L847.128 106.888L847.06 106.928L846.992 106.967L846.924 107.006L846.856 107.045L846.789 107.085L846.721 107.124L846.653 107.163L846.585 107.202L846.517 107.241L846.45 107.28L846.382 107.319L846.314 107.358L846.247 107.397L846.179 107.436L846.111 107.475L846.044 107.514L845.976 107.553L845.909 107.592L845.842 107.631L845.774 107.67L845.707 107.709L845.639 107.748L845.572 107.787L845.505 107.826L845.438 107.865L845.37 107.903L845.303 107.942L845.236 107.981L845.169 108.02L845.102 108.058L845.035 108.097L844.968 108.136L844.901 108.174L844.834 108.213L844.767 108.252L844.7 108.29L844.633 108.329L844.567 108.367L844.5 108.406L844.433 108.444L844.366 108.483L844.3 108.521L844.233 108.56L844.167 108.598L844.1 108.637L844.034 108.675L843.967 108.713L843.901 108.752L843.834 108.79L843.768 108.828L843.702 108.867L843.635 108.905L843.569 108.943L843.503 108.982L843.437 109.02L843.371 109.058L843.305 109.096L843.238 109.134L843.172 109.172L843.106 109.21L843.041 109.248L842.975 109.287L842.909 109.325L842.843 109.363L842.777 109.401L842.711 109.439L842.646 109.476L842.58 109.514L842.514 109.552L842.449 109.59L842.383 109.628L842.318 109.666L842.252 109.704L842.187 109.741L842.121 109.779L842.056 109.817L841.991 109.855L841.981 109.86Z" fill="white" stroke="#E3E5E5" stroke-width="5"/>
<path d="M844.418 114.324C852.639 110.984 862.272 114.133 866.834 122.035C871.397 129.937 869.308 139.854 862.304 145.303L862.268 145.24L862.227 145.17L862.187 145.1L862.146 145.03L862.105 144.959L862.065 144.889L862.024 144.819L861.984 144.748L861.943 144.678L861.902 144.608L861.862 144.537L861.821 144.467L861.78 144.396L861.74 144.326L861.699 144.255L861.658 144.185L861.618 144.114L861.577 144.044L861.536 143.973L861.495 143.903L861.455 143.832L861.414 143.762L861.373 143.691L861.332 143.62L861.292 143.55L861.251 143.479L861.21 143.409L861.169 143.338L861.128 143.267L861.088 143.197L861.047 143.126L861.006 143.055L860.965 142.984L860.924 142.914L860.883 142.843L860.843 142.772L860.802 142.701L860.761 142.63L860.72 142.56L860.679 142.489L860.638 142.418L860.597 142.347L860.556 142.276L860.515 142.205L860.474 142.134L860.433 142.063L860.393 141.993L860.352 141.922L860.311 141.851L860.27 141.78L860.229 141.709L860.188 141.638L860.147 141.567L860.106 141.496L860.065 141.425L860.024 141.354L859.983 141.283L859.942 141.212L859.901 141.141L859.86 141.069L859.819 140.998L859.778 140.927L859.736 140.856L859.695 140.785L859.654 140.714L859.613 140.643L859.572 140.572L859.531 140.501L859.49 140.429L859.449 140.358L859.408 140.287L859.367 140.216L859.326 140.145L859.285 140.073L859.243 140.002L859.202 139.931L859.161 139.86L859.12 139.789L859.079 139.717L859.038 139.646L858.997 139.575L858.956 139.504L858.914 139.432L858.873 139.361L858.832 139.29L858.791 139.218L858.75 139.147L858.709 139.076L858.667 139.004L858.626 138.933L858.585 138.862L858.544 138.79L858.503 138.719L858.461 138.648L858.42 138.576L858.379 138.505L858.338 138.434L858.297 138.362L858.255 138.291L858.214 138.22L858.173 138.148L858.132 138.077L858.091 138.005L858.049 137.934L858.008 137.863L857.967 137.791L857.926 137.72L857.884 137.648L857.843 137.577L857.802 137.506L857.761 137.434L857.72 137.363L857.678 137.291L857.637 137.22L857.596 137.148L857.555 137.077L857.513 137.005L857.472 136.934L857.431 136.863L857.39 136.791L857.348 136.72L857.307 136.648L857.266 136.577L857.224 136.505L857.183 136.434L857.142 136.362L857.101 136.291L857.059 136.219L857.018 136.148L856.977 136.076L856.936 136.005L856.894 135.934L856.853 135.862L856.812 135.791L856.771 135.719L856.729 135.648L856.688 135.576L856.647 135.505L856.606 135.433L856.564 135.362L856.523 135.29L856.482 135.219L856.44 135.147L856.399 135.076L856.358 135.004L856.317 134.933L856.275 134.861L856.234 134.79L856.193 134.718L856.152 134.647L856.11 134.576L856.069 134.504L856.028 134.433L855.987 134.361L855.945 134.29L855.904 134.218L855.863 134.147L855.822 134.075L855.78 134.004L855.739 133.932L855.698 133.861L855.657 133.79L855.615 133.718L855.574 133.647L855.533 133.575L855.492 133.504L855.45 133.432L855.409 133.361L855.368 133.29L855.327 133.218L855.285 133.147L855.244 133.075L855.203 133.004L855.162 132.933L855.121 132.861L855.079 132.79L855.038 132.718L854.997 132.647L854.956 132.576L854.915 132.504L854.873 132.433L854.832 132.362L854.791 132.29L854.75 132.219L854.709 132.148L854.667 132.076L854.626 132.005L854.585 131.934L854.544 131.862L854.503 131.791L854.462 131.72L854.42 131.649L854.379 131.577L854.338 131.506L854.297 131.435L854.256 131.363L854.215 131.292L854.174 131.221L854.132 131.15L854.091 131.078L854.05 131.007L854.009 130.936L853.968 130.865L853.927 130.794L853.886 130.723L853.845 130.651L853.804 130.58L853.763 130.509L853.721 130.438L853.68 130.367L853.639 130.296L853.598 130.225L853.557 130.153L853.516 130.082L853.475 130.011L853.434 129.94L853.393 129.869L853.352 129.798L853.311 129.727L853.27 129.656L853.229 129.585L853.188 129.514L853.147 129.443L853.106 129.372L853.065 129.301L853.024 129.23L852.983 129.159L852.942 129.088L852.901 129.017L852.86 128.946L852.819 128.875L852.778 128.804L852.737 128.734L852.697 128.663L852.656 128.592L852.615 128.521L852.574 128.45L852.533 128.379L852.492 128.309L852.451 128.238L852.41 128.167L852.37 128.096L852.329 128.026L852.288 127.955L852.247 127.884L852.206 127.813L852.165 127.743L852.125 127.672L852.084 127.601L852.043 127.531L852.002 127.46L851.961 127.389L851.921 127.319L851.88 127.248L851.839 127.178L851.798 127.107L851.758 127.037L851.717 126.966L851.676 126.896L851.636 126.825L851.595 126.755L851.554 126.684L851.514 126.614L851.473 126.543L851.432 126.473L851.392 126.402L851.351 126.332L851.31 126.262L851.27 126.191L851.229 126.121L851.189 126.051L851.148 125.98L851.107 125.91L851.067 125.84L851.026 125.77L850.986 125.699L850.945 125.629L850.905 125.559L850.864 125.489L850.824 125.419L850.783 125.349L850.743 125.279L850.702 125.208L850.662 125.138L850.621 125.068L850.581 124.998L850.541 124.928L850.5 124.858L850.46 124.788L850.419 124.718L850.379 124.649L850.339 124.579L850.298 124.509L850.258 124.439L850.218 124.369L850.177 124.299L850.137 124.229L850.097 124.16L850.056 124.09L850.016 124.02L849.976 123.95L849.936 123.881L849.895 123.811L849.855 123.741L849.815 123.672L849.775 123.602L849.735 123.533L849.695 123.463L849.654 123.393L849.614 123.324L849.574 123.254L849.534 123.185L849.494 123.115L849.454 123.046L849.414 122.977L849.374 122.907L849.334 122.838L849.294 122.769L849.254 122.699L849.214 122.63L849.174 122.561L849.134 122.492L849.094 122.422L849.054 122.353L849.014 122.284L848.974 122.215L848.934 122.146L848.894 122.077L848.854 122.008L848.814 121.939L848.775 121.87L848.735 121.801L848.695 121.732L848.655 121.663L848.615 121.594L848.576 121.525L848.536 121.456L848.496 121.387L848.456 121.318L848.417 121.25L848.377 121.181L848.337 121.112L848.298 121.043L848.258 120.975L848.218 120.906L848.179 120.838L848.139 120.769L848.1 120.7L848.06 120.632L848.02 120.563L847.981 120.495L847.941 120.426L847.902 120.358L847.862 120.29L847.823 120.221L847.783 120.153L847.744 120.085L847.705 120.016L847.665 119.948L847.626 119.88L847.586 119.812L847.547 119.744L847.508 119.675L847.468 119.607L847.429 119.539L847.39 119.471L847.351 119.403L847.311 119.335L847.272 119.267L847.233 119.199L847.194 119.132L847.155 119.064L847.115 118.996L847.076 118.928L847.037 118.86L846.998 118.793L846.959 118.725L846.92 118.657L846.881 118.59L846.842 118.522L846.803 118.454L846.764 118.387L846.725 118.319L846.686 118.252L846.647 118.185L846.608 118.117L846.569 118.05L846.53 117.982L846.491 117.915L846.453 117.848L846.414 117.781L846.375 117.713L846.336 117.646L846.297 117.579L846.259 117.512L846.22 117.445L846.181 117.378L846.143 117.311L846.104 117.244L846.065 117.177L846.027 117.11L845.988 117.043L845.95 116.976L845.911 116.91L845.872 116.843L845.834 116.776L845.795 116.71L845.757 116.643L845.718 116.576L845.68 116.51L845.642 116.443L845.603 116.377L845.565 116.31L845.526 116.244L845.488 116.177L845.45 116.111L845.412 116.045L845.373 115.978L845.335 115.912L845.297 115.846L845.259 115.78L845.22 115.714L845.182 115.648L845.144 115.581L845.106 115.515L845.068 115.449L845.03 115.384L844.992 115.318L844.954 115.252L844.916 115.186L844.878 115.12L844.84 115.054L844.802 114.989L844.764 114.923L844.726 114.857L844.688 114.792L844.65 114.726L844.613 114.661L844.575 114.595L844.537 114.53L844.499 114.464L844.461 114.399L844.424 114.334L844.418 114.324Z" fill="white" stroke="#E3E5E5" stroke-width="5"/>
<path d="M840.054 116.762C843.395 124.983 840.245 134.616 832.343 139.178C824.441 143.74 814.524 141.651 809.075 134.648L809.138 134.612L809.208 134.571L809.278 134.53L809.348 134.49L809.419 134.449L809.489 134.409L809.559 134.368L809.63 134.327L809.7 134.287L809.771 134.246L809.841 134.205L809.911 134.165L809.982 134.124L810.052 134.083L810.123 134.043L810.193 134.002L810.264 133.961L810.334 133.921L810.405 133.88L810.475 133.839L810.546 133.798L810.616 133.758L810.687 133.717L810.758 133.676L810.828 133.635L810.899 133.595L810.97 133.554L811.04 133.513L811.111 133.472L811.182 133.431L811.252 133.391L811.323 133.35L811.394 133.309L811.465 133.268L811.535 133.227L811.606 133.186L811.677 133.145L811.748 133.105L811.819 133.064L811.889 133.023L811.96 132.982L812.031 132.941L812.102 132.9L812.173 132.859L812.244 132.818L812.315 132.777L812.386 132.736L812.457 132.695L812.528 132.654L812.598 132.613L812.669 132.572L812.74 132.531L812.811 132.49L812.882 132.449L812.953 132.408L813.024 132.367L813.096 132.326L813.167 132.285L813.238 132.244L813.309 132.203L813.38 132.162L813.451 132.121L813.522 132.08L813.593 132.039L813.664 131.998L813.735 131.957L813.806 131.916L813.878 131.875L813.949 131.834L814.02 131.793L814.091 131.752L814.162 131.711L814.234 131.669L814.305 131.628L814.376 131.587L814.447 131.546L814.518 131.505L814.59 131.464L814.661 131.423L814.732 131.382L814.803 131.34L814.875 131.299L814.946 131.258L815.017 131.217L815.088 131.176L815.16 131.135L815.231 131.093L815.302 131.052L815.374 131.011L815.445 130.97L815.516 130.929L815.588 130.888L815.659 130.846L815.73 130.805L815.802 130.764L815.873 130.723L815.944 130.682L816.016 130.64L816.087 130.599L816.159 130.558L816.23 130.517L816.301 130.476L816.373 130.434L816.444 130.393L816.516 130.352L816.587 130.311L816.658 130.269L816.73 130.228L816.801 130.187L816.873 130.146L816.944 130.104L817.015 130.063L817.087 130.022L817.158 129.981L817.23 129.94L817.301 129.898L817.373 129.857L817.444 129.816L817.516 129.775L817.587 129.733L817.659 129.692L817.73 129.651L817.801 129.609L817.873 129.568L817.944 129.527L818.016 129.486L818.087 129.444L818.159 129.403L818.23 129.362L818.302 129.321L818.373 129.279L818.445 129.238L818.516 129.197L818.588 129.156L818.659 129.114L818.731 129.073L818.802 129.032L818.874 128.991L818.945 128.949L819.016 128.908L819.088 128.867L819.159 128.825L819.231 128.784L819.302 128.743L819.374 128.702L819.445 128.66L819.517 128.619L819.588 128.578L819.66 128.537L819.731 128.495L819.803 128.454L819.874 128.413L819.946 128.372L820.017 128.33L820.088 128.289L820.16 128.248L820.231 128.207L820.303 128.165L820.374 128.124L820.446 128.083L820.517 128.042L820.589 128L820.66 127.959L820.731 127.918L820.803 127.877L820.874 127.835L820.946 127.794L821.017 127.753L821.089 127.712L821.16 127.67L821.231 127.629L821.303 127.588L821.374 127.547L821.446 127.506L821.517 127.464L821.588 127.423L821.66 127.382L821.731 127.341L821.802 127.299L821.874 127.258L821.945 127.217L822.017 127.176L822.088 127.135L822.159 127.094L822.231 127.052L822.302 127.011L822.373 126.97L822.444 126.929L822.516 126.888L822.587 126.846L822.658 126.805L822.73 126.764L822.801 126.723L822.872 126.682L822.943 126.641L823.015 126.6L823.086 126.558L823.157 126.517L823.228 126.476L823.3 126.435L823.371 126.394L823.442 126.353L823.513 126.312L823.584 126.271L823.656 126.23L823.727 126.188L823.798 126.147L823.869 126.106L823.94 126.065L824.011 126.024L824.083 125.983L824.154 125.942L824.225 125.901L824.296 125.86L824.367 125.819L824.438 125.778L824.509 125.737L824.58 125.696L824.651 125.655L824.722 125.614L824.793 125.573L824.864 125.532L824.935 125.491L825.006 125.45L825.077 125.409L825.148 125.368L825.219 125.327L825.29 125.286L825.361 125.245L825.432 125.204L825.503 125.163L825.574 125.122L825.645 125.081L825.715 125.04L825.786 124.999L825.857 124.959L825.928 124.918L825.999 124.877L826.07 124.836L826.14 124.795L826.211 124.754L826.282 124.713L826.353 124.672L826.423 124.632L826.494 124.591L826.565 124.55L826.636 124.509L826.706 124.468L826.777 124.428L826.847 124.387L826.918 124.346L826.989 124.305L827.059 124.264L827.13 124.224L827.201 124.183L827.271 124.142L827.342 124.101L827.412 124.061L827.483 124.02L827.553 123.979L827.624 123.939L827.694 123.898L827.765 123.857L827.835 123.817L827.905 123.776L827.976 123.735L828.046 123.695L828.116 123.654L828.187 123.613L828.257 123.573L828.327 123.532L828.398 123.492L828.468 123.451L828.538 123.411L828.608 123.37L828.679 123.33L828.749 123.289L828.819 123.248L828.889 123.208L828.959 123.167L829.029 123.127L829.1 123.086L829.17 123.046L829.24 123.006L829.31 122.965L829.38 122.925L829.45 122.884L829.52 122.844L829.59 122.803L829.66 122.763L829.73 122.723L829.8 122.682L829.869 122.642L829.939 122.602L830.009 122.561L830.079 122.521L830.149 122.481L830.219 122.44L830.288 122.4L830.358 122.36L830.428 122.32L830.497 122.279L830.567 122.239L830.637 122.199L830.706 122.159L830.776 122.119L830.846 122.078L830.915 122.038L830.985 121.998L831.054 121.958L831.124 121.918L831.193 121.878L831.263 121.838L831.332 121.798L831.402 121.757L831.471 121.717L831.54 121.677L831.61 121.637L831.679 121.597L831.748 121.557L831.817 121.517L831.887 121.477L831.956 121.437L832.025 121.397L832.094 121.358L832.163 121.318L832.232 121.278L832.302 121.238L832.371 121.198L832.44 121.158L832.509 121.118L832.578 121.078L832.647 121.039L832.716 120.999L832.784 120.959L832.853 120.919L832.922 120.88L832.991 120.84L833.06 120.8L833.129 120.76L833.197 120.721L833.266 120.681L833.335 120.641L833.403 120.602L833.472 120.562L833.541 120.522L833.609 120.483L833.678 120.443L833.746 120.404L833.815 120.364L833.883 120.325L833.952 120.285L834.02 120.246L834.089 120.206L834.157 120.167L834.225 120.127L834.294 120.088L834.362 120.048L834.43 120.009L834.498 119.97L834.566 119.93L834.635 119.891L834.703 119.852L834.771 119.812L834.839 119.773L834.907 119.734L834.975 119.694L835.043 119.655L835.111 119.616L835.179 119.577L835.247 119.538L835.314 119.498L835.382 119.459L835.45 119.42L835.518 119.381L835.586 119.342L835.653 119.303L835.721 119.264L835.789 119.225L835.856 119.186L835.924 119.147L835.991 119.108L836.059 119.069L836.126 119.03L836.194 118.991L836.261 118.952L836.328 118.913L836.396 118.874L836.463 118.835L836.53 118.796L836.598 118.758L836.665 118.719L836.732 118.68L836.799 118.641L836.866 118.602L836.933 118.564L837 118.525L837.067 118.486L837.134 118.448L837.201 118.409L837.268 118.37L837.335 118.332L837.402 118.293L837.469 118.255L837.535 118.216L837.602 118.178L837.669 118.139L837.735 118.101L837.802 118.062L837.869 118.024L837.935 117.985L838.002 117.947L838.068 117.909L838.134 117.87L838.201 117.832L838.267 117.794L838.334 117.755L838.4 117.717L838.466 117.679L838.532 117.641L838.598 117.602L838.665 117.564L838.731 117.526L838.797 117.488L838.863 117.45L838.929 117.412L838.995 117.374L839.061 117.336L839.126 117.298L839.192 117.26L839.258 117.222L839.324 117.184L839.389 117.146L839.455 117.108L839.521 117.07L839.586 117.032L839.652 116.994L839.717 116.956L839.783 116.918L839.848 116.881L839.914 116.843L839.979 116.805L840.044 116.767L840.054 116.762Z" fill="white" stroke="#E3E5E5" stroke-width="5"/>
<path d="M837.515 112.398C829.295 115.739 819.662 112.59 815.099 104.688C810.537 96.7854 812.626 86.8683 819.629 81.4192L819.666 81.4822L819.706 81.5524L819.747 81.6227L819.788 81.693L819.828 81.7633L819.869 81.8336L819.909 81.9039L819.95 81.9743L819.991 82.0446L820.031 82.115L820.072 82.1854L820.113 82.2559L820.153 82.3263L820.194 82.3968L820.235 82.4672L820.275 82.5377L820.316 82.6082L820.357 82.6787L820.397 82.7493L820.438 82.8198L820.479 82.8904L820.52 82.961L820.56 83.0316L820.601 83.1022L820.642 83.1728L820.683 83.2434L820.723 83.3141L820.764 83.3848L820.805 83.4554L820.846 83.5262L820.887 83.5969L820.928 83.6676L820.968 83.7383L821.009 83.8091L821.05 83.8799L821.091 83.9506L821.132 84.0214L821.173 84.0923L821.214 84.1631L821.255 84.2339L821.295 84.3048L821.336 84.3756L821.377 84.4465L821.418 84.5174L821.459 84.5883L821.5 84.6592L821.541 84.7301L821.582 84.8011L821.623 84.872L821.664 84.943L821.705 85.014L821.746 85.0849L821.787 85.1559L821.828 85.2269L821.869 85.298L821.91 85.369L821.951 85.44L821.992 85.5111L822.033 85.5821L822.074 85.6532L822.115 85.7243L822.156 85.7954L822.197 85.8665L822.238 85.9376L822.279 86.0087L822.32 86.0798L822.361 86.151L822.402 86.2221L822.444 86.2933L822.485 86.3645L822.526 86.4356L822.567 86.5068L822.608 86.578L822.649 86.6492L822.69 86.7204L822.731 86.7916L822.772 86.8629L822.814 86.9341L822.855 87.0054L822.896 87.0766L822.937 87.1479L822.978 87.2191L823.019 87.2904L823.06 87.3617L823.102 87.433L823.143 87.5043L823.184 87.5756L823.225 87.6469L823.266 87.7182L823.307 87.7895L823.349 87.8609L823.39 87.9322L823.431 88.0035L823.472 88.0749L823.513 88.1462L823.555 88.2176L823.596 88.289L823.637 88.3603L823.678 88.4317L823.719 88.5031L823.761 88.5745L823.802 88.6458L823.843 88.7172L823.884 88.7886L823.925 88.86L823.967 88.9315L824.008 89.0029L824.049 89.0743L824.09 89.1457L824.132 89.2171L824.173 89.2885L824.214 89.36L824.255 89.4314L824.297 89.5029L824.338 89.5743L824.379 89.6457L824.42 89.7172L824.462 89.7886L824.503 89.8601L824.544 89.9315L824.585 90.003L824.627 90.0745L824.668 90.1459L824.709 90.2174L824.75 90.2888L824.792 90.3603L824.833 90.4318L824.874 90.5032L824.915 90.5747L824.957 90.6462L824.998 90.7177L825.039 90.7891L825.08 90.8606L825.122 90.9321L825.163 91.0036L825.204 91.075L825.246 91.1465L825.287 91.218L825.328 91.2895L825.369 91.3609L825.411 91.4324L825.452 91.5039L825.493 91.5754L825.534 91.6468L825.576 91.7183L825.617 91.7898L825.658 91.8613L825.699 91.9327L825.741 92.0042L825.782 92.0757L825.823 92.1471L825.865 92.2186L825.906 92.2901L825.947 92.3615L825.988 92.433L826.03 92.5044L826.071 92.5759L826.112 92.6473L826.153 92.7188L826.195 92.7902L826.236 92.8617L826.277 92.9331L826.318 93.0045L826.36 93.076L826.401 93.1474L826.442 93.2188L826.483 93.2902L826.524 93.3617L826.566 93.4331L826.607 93.5045L826.648 93.5759L826.689 93.6473L826.731 93.7187L826.772 93.7901L826.813 93.8615L826.854 93.9328L826.895 94.0042L826.937 94.0756L826.978 94.147L827.019 94.2183L827.06 94.2897L827.101 94.361L827.143 94.4324L827.184 94.5037L827.225 94.575L827.266 94.6463L827.307 94.7177L827.349 94.789L827.39 94.8603L827.431 94.9316L827.472 95.0029L827.513 95.0742L827.554 95.1454L827.595 95.2167L827.637 95.288L827.678 95.3592L827.719 95.4305L827.76 95.5017L827.801 95.5729L827.842 95.6442L827.883 95.7154L827.924 95.7866L827.966 95.8578L828.007 95.929L828.048 96.0001L828.089 96.0713L828.13 96.1425L828.171 96.2136L828.212 96.2848L828.253 96.3559L828.294 96.427L828.335 96.4981L828.376 96.5693L828.417 96.6403L828.458 96.7114L828.499 96.7825L828.541 96.8536L828.582 96.9246L828.623 96.9957L828.664 97.0667L828.705 97.1377L828.746 97.2087L828.787 97.2797L828.828 97.3507L828.869 97.4217L828.909 97.4927L828.95 97.5636L828.991 97.6346L829.032 97.7055L829.073 97.7764L829.114 97.8473L829.155 97.9182L829.196 97.9891L829.237 98.0599L829.278 98.1308L829.319 98.2016L829.36 98.2725L829.401 98.3433L829.441 98.4141L829.482 98.4849L829.523 98.5556L829.564 98.6264L829.605 98.6972L829.646 98.7679L829.687 98.8386L829.727 98.9093L829.768 98.98L829.809 99.0507L829.85 99.1213L829.891 99.192L829.931 99.2626L829.972 99.3332L830.013 99.4038L830.054 99.4744L830.094 99.545L830.135 99.6155L830.176 99.6861L830.217 99.7566L830.257 99.8271L830.298 99.8976L830.339 99.9681L830.379 100.039L830.42 100.109L830.461 100.179L830.501 100.25L830.542 100.32L830.583 100.391L830.623 100.461L830.664 100.531L830.704 100.602L830.745 100.672L830.786 100.742L830.826 100.812L830.867 100.883L830.907 100.953L830.948 101.023L830.988 101.093L831.029 101.164L831.069 101.234L831.11 101.304L831.15 101.374L831.191 101.444L831.231 101.514L831.272 101.584L831.312 101.654L831.353 101.724L831.393 101.794L831.433 101.864L831.474 101.934L831.514 102.004L831.555 102.074L831.595 102.144L831.635 102.214L831.676 102.284L831.716 102.354L831.756 102.423L831.797 102.493L831.837 102.563L831.877 102.633L831.917 102.703L831.958 102.772L831.998 102.842L832.038 102.912L832.078 102.981L832.119 103.051L832.159 103.121L832.199 103.19L832.239 103.26L832.279 103.329L832.319 103.399L832.359 103.468L832.4 103.538L832.44 103.607L832.48 103.677L832.52 103.746L832.56 103.815L832.6 103.885L832.64 103.954L832.68 104.023L832.72 104.093L832.76 104.162L832.8 104.231L832.84 104.3L832.88 104.37L832.92 104.439L832.96 104.508L833 104.577L833.039 104.646L833.079 104.715L833.119 104.784L833.159 104.853L833.199 104.922L833.239 104.991L833.279 105.06L833.318 105.129L833.358 105.198L833.398 105.267L833.438 105.335L833.477 105.404L833.517 105.473L833.557 105.542L833.596 105.611L833.636 105.679L833.676 105.748L833.715 105.817L833.755 105.885L833.794 105.954L833.834 106.022L833.874 106.091L833.913 106.159L833.953 106.228L833.992 106.296L834.032 106.365L834.071 106.433L834.111 106.501L834.15 106.57L834.19 106.638L834.229 106.706L834.268 106.775L834.308 106.843L834.347 106.911L834.386 106.979L834.426 107.047L834.465 107.115L834.504 107.183L834.544 107.251L834.583 107.319L834.622 107.387L834.661 107.455L834.701 107.523L834.74 107.591L834.779 107.659L834.818 107.727L834.857 107.795L834.896 107.862L834.936 107.93L834.975 107.998L835.014 108.065L835.053 108.133L835.092 108.201L835.131 108.268L835.17 108.336L835.209 108.403L835.248 108.471L835.287 108.538L835.326 108.606L835.364 108.673L835.403 108.74L835.442 108.808L835.481 108.875L835.52 108.942L835.559 109.009L835.597 109.076L835.636 109.144L835.675 109.211L835.714 109.278L835.752 109.345L835.791 109.412L835.83 109.479L835.868 109.546L835.907 109.613L835.946 109.679L835.984 109.746L836.023 109.813L836.061 109.88L836.1 109.946L836.138 110.013L836.177 110.08L836.215 110.146L836.254 110.213L836.292 110.28L836.33 110.346L836.369 110.412L836.407 110.479L836.445 110.545L836.484 110.612L836.522 110.678L836.56 110.744L836.599 110.811L836.637 110.877L836.675 110.943L836.713 111.009L836.751 111.075L836.789 111.141L836.828 111.207L836.866 111.273L836.904 111.339L836.942 111.405L836.98 111.471L837.018 111.537L837.056 111.603L837.094 111.668L837.132 111.734L837.17 111.8L837.208 111.865L837.245 111.931L837.283 111.996L837.321 112.062L837.359 112.127L837.397 112.193L837.434 112.258L837.472 112.324L837.51 112.389L837.515 112.398Z" fill="white" stroke="#E3E5E5" stroke-width="5"/>
<rect x="344" y="214" width="64" height="55" fill="white"/>
<path d="M415.705 174.602L415.708 174.599C416.001 174.407 416.34 174.297 416.69 174.281C417.039 174.265 417.387 174.344 417.696 174.509C418.004 174.675 418.263 174.92 418.443 175.22C418.623 175.519 418.72 175.86 418.722 176.209V288.778C418.722 289.294 418.517 289.789 418.153 290.153C417.788 290.518 417.293 290.723 416.778 290.723H272.444C271.929 290.723 271.434 290.518 271.07 290.153C270.705 289.789 270.5 289.294 270.5 288.778V199.723H276.889H279.389V197.223V150.17L301.056 155.045V197.223V199.723H303.556H332.644H333.552L334.248 199.14L362.231 175.733C362.515 175.506 362.856 175.364 363.216 175.321C363.582 175.278 363.952 175.339 364.284 175.498C364.616 175.657 364.896 175.907 365.091 176.218C365.287 176.53 365.39 176.891 365.389 177.259V177.267V203V207.632L369.261 205.09L415.705 174.602ZM323.333 264.389H325.833V261.889V253V250.5H323.333H287.778H285.278V253V261.889V264.389H287.778H323.333ZM323.333 246.612H325.833V244.112V235.223V232.723H323.333H287.778H285.278V235.223V244.112V246.612H287.778H323.333ZM323.333 228.834H325.833V226.334V217.445V214.945H323.333H287.778H285.278V217.445V226.334V228.834H287.778H323.333ZM361.889 264.389H364.389V261.889V248.556V246.056H361.889H353H350.5V248.556V261.889V264.389H353H361.889ZM361.889 237.723H364.389V235.223V221.889V219.389H361.889H353H350.5V221.889V235.223V237.723H353H361.889ZM379.667 264.389H382.167V261.889V248.556V246.056H379.667H370.778H368.278V248.556V261.889V264.389H370.778H379.667ZM379.667 237.723H382.167V235.223V221.889V219.389H379.667H370.778H368.278V221.889V235.223V237.723H370.778H379.667ZM397.444 264.389H399.944V261.889V248.556V246.056H397.444H388.556H386.056V248.556V261.889V264.389H388.556H397.444ZM397.444 237.723H399.944V235.223V221.889V219.389H397.444H388.556H386.056V221.889V235.223V237.723H388.556H397.444Z" fill="white" stroke="#E3E5E5" stroke-width="5"/>
<rect x="416" y="101" width="118" height="176" fill="white"/>
<path fill-rule="evenodd" clip-rule="evenodd" d="M404.439 292.409C403.685 292.409 402.932 292.158 402.304 291.656C401.676 291.028 401.551 290.149 401.551 289.521C401.551 288.768 401.802 288.015 402.304 287.387C402.681 286.885 403.685 286.633 404.439 286.633H415.739V106.783V101.133H443.989V99.2501C443.989 97.2412 444.742 95.3579 446.123 93.8512C447.504 92.4701 449.387 91.7168 451.522 91.7168H498.605C500.614 91.7168 502.497 92.4701 504.004 93.8512C505.385 95.2324 506.139 97.1157 506.139 99.2501V101.133H534.389V106.783V286.633H545.563C546.316 286.633 546.944 286.633 547.697 287.387C548.2 287.889 548.576 288.768 548.576 289.521C548.576 290.275 548.325 291.028 547.823 291.656C547.446 292.158 546.442 292.409 545.689 292.409H404.439ZM506.139 286.633H528.739V106.783H506.139V146.333C506.139 148.342 505.385 150.226 504.004 151.732C502.623 153.113 500.74 153.867 498.605 153.867H451.522C449.513 153.867 447.63 153.113 446.123 151.732C444.742 150.226 443.989 148.342 443.989 146.333V106.783H421.389V286.633H443.989H449.639H472.239H477.889H500.489H506.139ZM449.639 148.217H500.489V97.3668H449.639V148.217Z" fill="#E3E5E5"/>
<path fill-rule="evenodd" clip-rule="evenodd" d="M472.556 138V125.444H460V120.444H472.556V108H477.556V120.444H490V125.444H477.556V138H472.556Z" fill="#E3E5E5"/>
<path d="M495.717 224.554V214.133H510.783V224.554H495.717ZM467.467 224.554V214.133H482.533V224.554H467.467ZM439.217 224.554V214.133H454.283V224.554H439.217ZM495.717 200.95V190.654H510.783V200.95H495.717ZM467.467 200.95V190.654H482.533V200.95H467.467ZM439.217 200.95V190.654H454.283V200.95H439.217ZM495.717 177.471V167.05H510.783V177.471H495.717ZM467.467 177.471V167.05H482.533V177.471H467.467ZM439.217 177.471V167.05H454.283V177.471H439.217Z" fill="#E3E5E5"/>
<rect x="460" y="251" width="31" height="37" fill="white" stroke="#E3E5E5" stroke-width="4"/>
<rect x="458" y="249" width="35" height="10" fill="#E3E5E5"/>
<path d="M531.5 289.5V58.5H694.5V289.5H531.5Z" fill="white" stroke="#E3E5E5" stroke-width="5"/>
<path d="M604.648 78.864L613.24 102.384L621.496 78.864H630.376L616.504 114H609.544L595.288 78.864H604.648Z" fill="#E3E5E5"/>
<rect x="554" y="102" width="19" height="12" fill="#E3E5E5"/>
<rect x="554" y="125" width="19" height="12" fill="#E3E5E5"/>
<rect x="656" y="102" width="19" height="12" fill="#E3E5E5"/>
<rect x="629" y="124" width="19" height="12" fill="#E3E5E5"/>
<rect x="656" y="124" width="19" height="12" fill="#E3E5E5"/>
<rect x="554" y="175" width="19" height="12" fill="#E3E5E5"/>
<rect x="579" y="175" width="19" height="12" fill="#E3E5E5"/>
<rect x="629" y="175" width="19" height="12" fill="#E3E5E5"/>
<rect x="656" y="175" width="19" height="12" fill="#E3E5E5"/>
<rect x="554" y="199" width="19" height="12" fill="#E3E5E5"/>
<rect x="629" y="199" width="19" height="12" fill="#E3E5E5"/>
<rect x="656" y="199" width="19" height="12" fill="#E3E5E5"/>
<rect x="554" y="223" width="19" height="12" fill="#E3E5E5"/>
<rect x="579" y="223" width="19" height="12" fill="#E3E5E5"/>
<rect x="629" y="223" width="19" height="12" fill="#E3E5E5"/>
<rect x="656" y="223" width="19" height="12" fill="#E3E5E5"/>
<rect x="554" y="247" width="19" height="12" fill="#E3E5E5"/>
<rect x="629" y="247" width="19" height="12" fill="#E3E5E5"/>
<rect x="579" y="247" width="19" height="12" fill="#E3E5E5"/>
<mask id="path-40-inside-1_1897_7979" fill="white">
<rect x="692" y="152" width="121" height="124" rx="2"/>
</mask>
<rect x="692" y="152" width="121" height="124" rx="2" fill="white" stroke="#E3E5E5" stroke-width="10" mask="url(#path-40-inside-1_1897_7979)"/>
<rect x="694" y="156" width="117" height="5" fill="#E3E5E5"/>
<path d="M751 111H755V149H751V111Z" fill="#E3E5E5"/>
<path d="M770 111H751V123H770C770.5 121 770.8 118.7 770 117.5C769.2 116.3 768.833 112.5 770 111Z" fill="#E3E5E5"/>
<path d="M776.343 158.5H810.5V289.5H694.5V158.5H729.222C730.188 158.5 731.129 158.189 731.904 157.613L752.783 142.114L773.661 157.613C774.437 158.189 775.377 158.5 776.343 158.5Z" fill="white" stroke="#E3E5E5" stroke-width="5"/>
<circle cx="753" cy="182" r="12" fill="white" stroke="#E3E5E5" stroke-width="4"/>
<rect x="740" y="246" width="26" height="43" stroke="#E3E5E5" stroke-width="4"/>
<rect x="709" y="190" width="8" height="8" stroke="#E3E5E5" stroke-width="4"/>
<rect x="709" y="218" width="8" height="8" stroke="#E3E5E5" stroke-width="4"/>
<rect x="734" y="218" width="8" height="8" stroke="#E3E5E5" stroke-width="4"/>
<rect x="763" y="218" width="8" height="8" stroke="#E3E5E5" stroke-width="4"/>
<rect x="709" y="245" width="8" height="8" stroke="#E3E5E5" stroke-width="4"/>
<rect x="788" y="190" width="8" height="8" stroke="#E3E5E5" stroke-width="4"/>
<rect x="788" y="218" width="8" height="8" stroke="#E3E5E5" stroke-width="4"/>
<rect x="788" y="245" width="8" height="8" stroke="#E3E5E5" stroke-width="4"/>
<rect x="751" y="177" width="2" height="5" fill="#E3E5E5"/>
<rect x="759" y="182" width="2" height="8" transform="rotate(90 759 182)" fill="#E3E5E5"/>
<path d="M810 229L803.5 203L820.5 181.5H883L901.5 202L896 229V280H810V229Z" fill="white"/>
<path d="M810.2 296C809.5 296 808.8 295.7 808.3 295.2C807.8 294.7 807.5 294 807.5 293.3V225.3L807.3 225.2C803.3 221.6 801 216.4 801 211V201.2C801 200.6 801.2 199.9 801.6 199.4L817.8 180C818.1 179.7 818.4 179.4 818.7 179.3C819.1 179.1 819.5 179 819.9 179H884.9C885.3 179 885.7 179.1 886.1 179.3C886.5 179.5 886.8 179.7 887 180L903.3 199.5C903.9 200.3 903.9 200.6 903.9 201.1V211C903.9 216.4 901.6 221.6 897.6 225.2L897.4 225.3V293.2C897.4 293.9 897.1 294.6 896.6 295.1C896.1 295.6 895.4 295.9 894.7 295.9H810.2V296ZM849.2 239.5C849.9 239.5 850.6 239.8 851.1 240.3C851.6 240.8 851.9 241.5 851.9 242.2V290.5H891.9V228.7L891.2 228.9C889.2 229.6 887 230 884.9 230C882.9 230 880.8 229.7 878.9 229C874.9 227.7 871.4 225 869.1 221.5L868.7 220.9L868.2 221.5C866.5 224.1 864.1 226.3 861.4 227.7C858.6 229.2 855.5 230 852.4 230C849.3 230 846.1 229.2 843.4 227.7C840.6 226.2 838.3 224.1 836.6 221.5L836.2 220.9L835.7 221.5C833.4 225 829.9 227.7 825.9 229C824 229.6 821.9 230 819.9 230C817.7 230 815.6 229.6 813.6 228.9L812.9 228.7V290.5H820.4V242.3C820.4 241.6 820.7 240.9 821.2 240.4C821.7 239.9 822.4 239.6 823.1 239.6H849.2V239.5ZM825.9 290.5H846.4V245H825.9V290.5ZM871.4 211C871.4 214.6 872.8 218 875.4 220.5C877.9 223 881.3 224.5 884.9 224.5C888.5 224.5 891.9 223.1 894.4 220.5C896.9 218 898.4 214.6 898.4 211V204H871.4V211ZM838.9 211C838.9 214.6 840.3 218 842.9 220.5C845.4 223 848.8 224.5 852.4 224.5C856 224.5 859.4 223.1 861.9 220.5C864.4 218 865.9 214.6 865.9 211V204H838.9V211ZM806.4 211C806.4 214.6 807.8 218 810.4 220.5C812.9 223 816.3 224.5 819.9 224.5C823.5 224.5 826.9 223.1 829.4 220.5C831.9 218 833.4 214.6 833.4 211V204H806.4V211ZM870.6 198.5H895.3L883.6 184.5H866L870.6 198.5ZM840 198.5H864.9L860.2 184.5H844.6L840 198.5ZM809.5 198.5H834.1L838.8 184.5H821.2L809.5 198.5ZM862.2 264.5C861.5 264.5 860.8 264.2 860.3 263.7C859.7 263.2 859.4 262.5 859.4 261.8V242.3C859.4 241.6 859.7 240.9 860.2 240.4C860.7 239.9 861.4 239.6 862.1 239.6H881.6C882.3 239.6 883 239.9 883.5 240.4C884 240.9 884.3 241.6 884.3 242.3V261.8C884.3 262.5 884 263.2 883.5 263.7C883.1 264.2 882.4 264.5 881.7 264.5H862.2ZM864.9 259H878.9V245H864.9V259Z" fill="#E3E5E5"/>
<rect x="900" y="268" width="5" height="19" fill="#E3E5E5"/>
<path d="M914.75 259.306C914.75 265.516 913.67 270.473 911.665 273.8C909.741 276.992 906.947 278.75 903 278.75C898.847 278.75 896.071 276.974 894.207 273.817C892.247 270.499 891.25 265.546 891.25 259.306C891.25 248.047 897.023 238.133 903.072 232.845C909.243 237.799 914.75 247.965 914.75 259.306Z" fill="white" stroke="#E3E5E5" stroke-width="4.5"/>
<rect x="374" y="267" width="6" height="22" fill="#E3E5E5"/>
<path d="M389 258C389 264.033 387.454 269.401 385.061 273.197C382.652 277.019 379.574 279 376.5 279C373.426 279 370.348 277.019 367.939 273.197C365.546 269.401 364 264.033 364 258C364 251.967 365.546 246.599 367.939 242.803C370.348 238.981 373.426 237 376.5 237C379.574 237 382.652 238.981 385.061 242.803C387.454 246.599 389 251.967 389 258Z" fill="white" stroke="#E3E5E5" stroke-width="4"/>
<rect x="217" y="288" width="766" height="20" rx="10" fill="white" stroke="#E3E5E5" stroke-width="4"/>
<rect x="237" y="293" width="11" height="5" rx="2.5" fill="#E3E5E5"/>
<rect x="254" y="296" width="44" height="5" rx="2.5" fill="#E3E5E5"/>
<rect x="804" y="298" width="148" height="5" rx="2.5" fill="#E3E5E5"/>
<rect x="490" y="296" width="151" height="5" rx="2.5" fill="#E3E5E5"/>
<rect x="776" y="298" width="18" height="5" rx="2.5" fill="#E3E5E5"/>
<path d="M472 237H601.875C603.736 237 605.352 238.284 605.772 240.096L610.897 262.196C610.965 262.493 611 262.796 611 263.1V287.827H468V241C468 238.791 469.791 237 472 237Z" fill="white" stroke="#E3E5E5" stroke-width="4"/>
<path d="M468 265.605H611V287.827H468V265.605Z" fill="white" stroke="#E3E5E5" stroke-width="4"/>
<rect x="480" y="245.124" width="19.0703" height="12.7135" fill="#E3E5E5"/>
<rect x="505.082" y="245.124" width="19.0703" height="12.7135" fill="#E3E5E5"/>
<rect x="530.082" y="245.124" width="19.0703" height="12.7135" fill="#E3E5E5"/>
<rect x="555.082" y="245.124" width="19.0703" height="12.7135" fill="#E3E5E5"/>
<rect x="585" y="257" width="13" height="31" fill="white" stroke="#E3E5E5" stroke-width="4"/>
<circle cx="504.963" cy="286.649" r="10.3297" fill="#E3E5E5"/>
<circle cx="504.962" cy="286.649" r="6.35676" fill="white"/>
<circle cx="565.298" cy="286.649" r="10.3297" fill="#E3E5E5"/>
<circle cx="565.298" cy="286.649" r="6.35676" fill="white"/>
<rect x="608" y="241" width="8" height="4" fill="#E3E5E5"/>
<rect x="616" y="241" width="14" height="4" transform="rotate(90 616 241)" fill="#E3E5E5"/>
<rect x="429" y="283" width="6" height="25" fill="#E3E5E5"/>
<rect x="454" y="283" width="6" height="25" fill="#E3E5E5"/>
<path d="M471 278C471 283.712 469.366 288.799 466.825 292.404C464.281 296.016 460.954 298 457.5 298C454.046 298 450.719 296.016 448.175 292.404C445.634 288.799 444 283.712 444 278C444 272.288 445.634 267.201 448.175 263.596C450.719 259.984 454.046 258 457.5 258C460.954 258 464.281 259.984 466.825 263.596C469.366 267.201 471 272.288 471 278Z" fill="white" stroke="#E3E5E5" stroke-width="4"/>
<path d="M449.75 271.5C449.75 279.712 448.278 286.359 445.465 290.878C442.734 295.264 438.692 297.75 433 297.75C427.035 297.75 423.013 295.245 420.358 290.895C417.607 286.385 416.25 279.742 416.25 271.5C416.25 256.2 424.512 242.752 433.074 235.789C441.879 242.292 449.75 256.114 449.75 271.5Z" fill="white" stroke="#E3E5E5" stroke-width="4.5"/>
<rect x="709" y="283" width="6" height="25" fill="#E3E5E5"/>
<path d="M727 272.5C727 279.772 725.12 286.262 722.187 290.872C719.239 295.505 715.412 298 711.5 298C707.588 298 703.761 295.505 700.813 290.872C697.88 286.262 696 279.772 696 272.5C696 265.228 697.88 258.738 700.813 254.128C703.761 249.495 707.588 247 711.5 247C715.412 247 719.239 249.495 722.187 254.128C725.12 258.738 727 265.228 727 272.5Z" fill="white" stroke="#E3E5E5" stroke-width="4"/>
<rect x="682" y="283" width="6" height="25" fill="#E3E5E5"/>
<path d="M700.05 263.406L699.398 264.459L700.05 265.512C701.899 268.497 703 271.988 703 275.77C703 286.404 694.455 295 683.959 295C673.474 295 665 286.414 665 275.77C665 271.988 666.101 268.497 667.95 265.512L668.602 264.459L667.95 263.406C666.101 260.421 665 256.931 665 253.148C665 242.591 673.469 234 683.959 234C694.455 234 703 242.596 703 253.23C703 256.927 701.901 260.418 700.05 263.406Z" fill="white" stroke="#E3E5E5" stroke-width="4"/>
<circle cx="20" cy="244" r="20" fill="#0C83F2" fill-opacity="0.08"/>
<path fill-rule="evenodd" clip-rule="evenodd" d="M23.4375 243.327L29.4151 239.177C30.1006 238.701 31 239.24 31 240.126V252.875C31 253.496 30.5383 254 29.9688 254H10.0312C9.4617 254 9 253.496 9 252.875V234.125C9 233.504 9.4617 233 10.0312 233H14.8438C15.4133 233 15.875 233.504 15.875 234.125V243.327L21.8526 239.177C22.5381 238.701 23.4375 239.24 23.4375 240.126V243.327ZM26 247H22V253H26V247Z" fill="#0C83F2"/>
<path d="M66.08 235.46V237.02H82V235.46H66.08ZM65.02 248.58V250.08H83V248.58H65.02ZM73.1 236.24V249.2H74.78V236.24H73.1ZM85.36 249.08V250.58H103V249.08H85.36ZM90.96 233.46V249.7H92.48V233.46H90.96ZM95.86 233.46V249.8H97.38V233.46H95.86ZM101.22 237.86C100.44 240.08 99.02 242.98 97.9 244.8L99.14 245.46C100.28 243.58 101.64 240.82 102.6 238.5L101.22 237.86ZM85.8 238.22C86.84 240.48 88.04 243.52 88.52 245.3L90.02 244.74C89.48 242.98 88.24 240.02 87.18 237.8L85.8 238.22ZM114.42 234.32V235.66H123.32V234.32H114.42ZM118.38 235.16C118.16 236.04 117.7 237.34 117.36 238.16L118.54 238.5C118.92 237.72 119.32 236.56 119.72 235.5L118.38 235.16ZM114.94 237.76V247.2H116.3V238.94H121.32V247.16H122.74V237.76H114.94ZM118.2 239.86C118.14 246.82 117.92 249.26 113.14 250.64C113.42 250.9 113.78 251.38 113.9 251.7C119.02 250.14 119.4 247.24 119.48 239.86H118.2ZM118.82 248.14C120.16 249.18 121.84 250.66 122.68 251.58L123.62 250.66C122.8 249.76 121.06 248.34 119.74 247.34L118.82 248.14ZM109.62 233.18C108.74 235.54 107.02 238.2 104.98 239.9C105.3 240.12 105.8 240.58 106.02 240.84C108.14 238.94 109.88 236.24 110.94 233.56L109.62 233.18ZM106.64 247.02C108.14 248.36 109.96 250.22 110.82 251.4L111.9 250.52C111.02 249.34 109.14 247.54 107.64 246.26L106.64 247.02ZM106.32 242.28V243.62H112.48V242.28H106.32ZM108.42 239.06C109.12 239.78 109.96 240.82 110.38 241.48L111.4 240.76C110.98 240.14 110.16 239.18 109.38 238.46L108.42 239.06ZM112 242.28V242.62C111.34 244.32 109.74 247 108.7 248.3C109.02 248.48 109.54 248.84 109.78 249.08C110.88 247.56 112.56 244.92 113.42 242.8L112.46 242.2L112.22 242.28H112ZM109.26 235.4C110.74 236.86 112.54 238.9 113.36 240.2L114.3 239.14C113.46 237.9 111.62 235.92 110.12 234.5L109.26 235.4ZM125.32 238.1V239.52H130.68V238.1H125.32ZM127.44 233.44V246.84H128.84V233.44H127.44ZM125.18 247.42L125.76 248.92C127.34 248.14 129.28 247.14 131.12 246.2L130.72 244.86C128.68 245.86 126.58 246.84 125.18 247.42ZM131 236.18V237.54H143.44V236.18H131ZM130.34 247.96L130.74 249.38C132.66 248.84 135.18 248.12 137.6 247.42L137.44 246.14C134.84 246.84 132.12 247.56 130.34 247.96ZM137.7 233.22C137.78 243 138.62 251.6 141.78 251.6C143.04 251.6 143.46 250.74 143.68 248.08C143.36 247.92 142.9 247.62 142.6 247.28C142.54 249.36 142.34 250.16 141.96 250.16C140.24 250.16 139.08 242.68 139.16 233.22H137.7ZM139.94 234C140.82 234.64 141.84 235.56 142.36 236.18L143.26 235.32C142.76 234.72 141.68 233.84 140.82 233.26L139.94 234ZM141.7 239.44C140.48 244.32 138.16 248.16 134.56 250.44C134.88 250.68 135.44 251.18 135.66 251.44C139.26 248.9 141.68 244.92 143.08 239.7L141.7 239.44ZM132.78 240.66H135.38V244.02H132.78V240.66ZM131.6 239.44V245.26H136.6V239.44H131.6Z" fill="#1A272E"/>
<path d="M172.5 242H339" stroke="#5CB2FF" stroke-width="2"/>
<circle cx="337" cy="243" r="3" fill="white" stroke="#5CB2FF" stroke-width="2"/>
<circle cx="76" cy="132" r="20" fill="#0C83F2" fill-opacity="0.08"/>
<path d="M76 121.5C70.4 121.5 65.5 126.003 65.5 132C65.5 134.473 66.3633 136.748 67.7983 138.545L65.5 140.855L67.145 142.5L69.4433 140.202C71.3053 141.689 73.6171 142.499 76 142.5C78.6833 142.5 81.3783 141.473 83.42 139.42C84.3979 138.448 85.1735 137.292 85.7022 136.018C86.2308 134.745 86.502 133.379 86.5 132V121.5H76ZM80.4683 132.303L74.4483 137.705C74.2617 137.88 73.97 137.868 73.795 137.693C73.7153 137.615 73.6667 137.51 73.6581 137.399C73.6495 137.287 73.6816 137.176 73.7483 137.087L76.595 133.202L71.87 132.735C71.7546 132.724 71.6447 132.68 71.5538 132.608C71.4629 132.536 71.3948 132.439 71.3578 132.33C71.3207 132.22 71.3164 132.101 71.3451 131.989C71.3739 131.877 71.4347 131.775 71.52 131.697L77.54 126.295C77.7267 126.12 78.0183 126.132 78.1933 126.307C78.3567 126.47 78.38 126.727 78.24 126.913L75.3933 130.798L80.1183 131.265C80.6433 131.312 80.8533 131.953 80.4683 132.303V132.303Z" fill="#0C83F2"/>
<path d="M123.28 129.44V130.84H136.52V129.44H123.28ZM129.02 122.24V137.32C129.02 139.66 129.68 140.26 131.92 140.26C132.44 140.26 135.82 140.26 136.36 140.26C138.48 140.26 138.98 139.2 139.24 136.16C138.76 136.04 138.12 135.78 137.74 135.5C137.58 138.08 137.38 138.74 136.28 138.74C135.56 138.74 132.62 138.74 132.02 138.74C130.84 138.74 130.6 138.52 130.6 137.34V122.24H129.02ZM123.4 125.12V126.58H135.76V133.74H123.4V135.2H137.28V125.12H123.4ZM122.5 125.12V136.42H124.06V125.12H122.5ZM141.8 126.58V128.1H157.32V126.58H141.8ZM156.74 126.58V126.9C156.34 134.84 155.9 137.96 155.14 138.7C154.88 138.94 154.64 139 154.2 139C153.7 139 152.42 138.98 151.06 138.86C151.34 139.3 151.54 139.96 151.56 140.4C152.8 140.48 154.08 140.52 154.78 140.44C155.54 140.38 156.02 140.22 156.5 139.64C157.38 138.64 157.8 135.66 158.26 127.38C158.28 127.14 158.3 126.58 158.3 126.58H156.74ZM148.34 122.24V125.72C148.34 129.86 147.86 135.54 141.22 139.5C141.58 139.76 142.14 140.32 142.36 140.68C149.36 136.46 149.92 130.28 149.92 125.72V122.24H148.34ZM174.7 139H172.38L170.6 137.02C169.373 138.487 167.853 139.22 166.04 139.22C165.16 139.22 164.36 139.053 163.64 138.72C162.92 138.387 162.347 137.893 161.92 137.24C161.493 136.587 161.28 135.813 161.28 134.92C161.28 133.8 161.58 132.893 162.18 132.2C162.78 131.507 163.607 130.887 164.66 130.34C164.087 129.66 163.68 129.073 163.44 128.58C163.2 128.073 163.08 127.54 163.08 126.98C163.08 126.26 163.253 125.647 163.6 125.14C163.96 124.62 164.433 124.227 165.02 123.96C165.607 123.693 166.253 123.56 166.96 123.56C167.707 123.56 168.353 123.707 168.9 124C169.46 124.28 169.887 124.667 170.18 125.16C170.487 125.653 170.64 126.213 170.64 126.84C170.64 127.467 170.487 128.007 170.18 128.46C169.873 128.913 169.487 129.3 169.02 129.62C168.553 129.927 167.947 130.267 167.2 130.64L170.46 134.26C170.98 133.1 171.313 131.787 171.46 130.32H173.18C172.887 132.387 172.36 134.127 171.6 135.54L174.7 139ZM164.94 126.96C164.94 127.333 165.04 127.713 165.24 128.1C165.44 128.487 165.78 128.967 166.26 129.54C167.087 129.127 167.713 128.727 168.14 128.34C168.567 127.94 168.78 127.447 168.78 126.86C168.78 126.367 168.62 125.96 168.3 125.64C167.993 125.32 167.54 125.16 166.94 125.16C166.34 125.16 165.853 125.327 165.48 125.66C165.12 125.98 164.94 126.413 164.94 126.96ZM166.12 137.62C167.467 137.62 168.607 137.02 169.54 135.82L165.62 131.44C164.833 131.893 164.22 132.38 163.78 132.9C163.353 133.42 163.14 134.073 163.14 134.86C163.14 135.753 163.42 136.44 163.98 136.92C164.54 137.387 165.253 137.62 166.12 137.62ZM178.741 122.2C178.261 123.66 177.321 125.76 176.561 127.04L177.841 127.42C178.641 126.16 179.581 124.22 180.301 122.56L178.741 122.2ZM175.381 126.44L175.521 127.9C177.701 127.78 180.801 127.62 183.781 127.44L183.801 126.1C180.661 126.24 177.481 126.38 175.381 126.44ZM176.601 129.34V140.58H178.001V130.62H182.941V129.34H176.601ZM182.261 129.34V138.86C182.261 139.12 182.181 139.18 181.921 139.18C181.641 139.2 180.781 139.22 179.841 139.18C180.041 139.56 180.261 140.16 180.341 140.56C181.601 140.56 182.481 140.54 183.041 140.3C183.581 140.06 183.741 139.64 183.741 138.88V129.34H182.261ZM177.261 132.32V133.5H183.041V132.32H177.261ZM177.261 135.32V136.52H183.041V135.32H177.261ZM185.621 122.24V128.88C185.621 130.54 186.121 131 188.041 131C188.441 131 191.061 131 191.481 131C193.101 131 193.541 130.34 193.721 127.9C193.281 127.8 192.681 127.58 192.361 127.32C192.281 129.3 192.141 129.64 191.361 129.64C190.781 129.64 188.601 129.64 188.181 129.64C187.261 129.64 187.101 129.5 187.101 128.86V122.24H185.621ZM191.741 123.72C190.381 124.42 188.101 125.3 186.121 125.92C186.301 126.22 186.501 126.66 186.581 126.98C188.641 126.4 191.041 125.62 192.741 124.82L191.741 123.72ZM185.621 131.54V138.32C185.621 139.98 186.141 140.44 188.081 140.44C188.501 140.44 191.201 140.44 191.641 140.44C193.321 140.44 193.761 139.72 193.961 137.02C193.541 136.94 192.941 136.7 192.601 136.46C192.501 138.72 192.381 139.1 191.521 139.1C190.921 139.1 188.661 139.1 188.241 139.1C187.281 139.1 187.101 138.98 187.101 138.3V131.54H185.621ZM191.981 132.64C190.621 133.52 188.201 134.44 186.121 135.04C186.281 135.34 186.501 135.82 186.581 136.12C188.741 135.54 191.301 134.72 192.981 133.76L191.981 132.64ZM181.241 124.1C182.301 125.52 183.381 127.44 183.801 128.66L185.121 128.08C184.661 126.84 183.541 125 182.481 123.6L181.241 124.1ZM202.021 123.18V124.56H213.761V123.18H202.021ZM201.521 123.18V128.68C201.521 131.98 201.301 136.52 199.021 139.74C199.381 139.88 200.001 140.28 200.281 140.54C202.641 137.18 202.981 132.16 202.981 128.68V123.18H201.521ZM205.501 130.74H211.601V132.5H205.501V130.74ZM205.501 127.9H211.601V129.64H205.501V127.9ZM204.141 126.74V133.66H213.001V126.74H204.141ZM204.841 134.78C204.301 136.22 203.401 137.66 202.421 138.68C202.741 138.86 203.321 139.24 203.601 139.46C204.581 138.38 205.581 136.72 206.201 135.1L204.841 134.78ZM210.501 135.14C211.441 136.4 212.421 138.12 212.801 139.22L214.161 138.6C213.761 137.5 212.721 135.84 211.801 134.6L210.501 135.14ZM207.821 124.26C207.721 125.12 207.441 126.4 207.221 127.22L208.541 127.54C208.821 126.78 209.141 125.62 209.441 124.58L207.821 124.26ZM207.741 133.2V139.02C207.741 139.24 207.661 139.3 207.401 139.32C207.141 139.32 206.281 139.34 205.321 139.3C205.501 139.68 205.681 140.22 205.741 140.6C207.081 140.62 207.941 140.6 208.481 140.38C209.041 140.18 209.161 139.78 209.161 139.04V133.2H207.741ZM196.481 123.48C197.681 124.08 199.121 125.04 199.801 125.76L200.701 124.56C200.001 123.86 198.541 122.96 197.341 122.4L196.481 123.48ZM195.501 128.88C196.721 129.42 198.181 130.32 198.881 131L199.761 129.78C199.021 129.12 197.561 128.28 196.361 127.76L195.501 128.88ZM195.921 139.48L197.261 140.32C198.221 138.46 199.341 135.98 200.181 133.86L198.961 133.02C198.061 135.28 196.821 137.92 195.921 139.48Z" fill="#1A272E"/>
<path d="M248 132H348.5L376.5 102" stroke="#5CB2FF" stroke-width="2"/>
<circle cx="379" cy="101" r="3" fill="white" stroke="#5CB2FF" stroke-width="2"/>
<circle cx="164" cy="20" r="20" fill="#0C83F2" fill-opacity="0.08"/>
<path d="M164 11.3901L154.895 20.4234C154.827 20.4918 154.741 20.5237 154.667 20.5804V29.2495C154.667 29.4484 154.737 29.6392 154.862 29.7798C154.987 29.9205 155.157 29.9995 155.334 29.9995H172.667C172.844 29.9995 173.013 29.9205 173.138 29.7798C173.264 29.6392 173.334 29.4484 173.334 29.2495V20.5823C173.263 20.5279 173.179 20.497 173.115 20.4323L164 11.3901ZM168 23.6245C168 23.7239 167.965 23.8193 167.903 23.8897C167.84 23.96 167.755 23.9995 167.667 23.9995H165.334V26.6245C165.334 26.7239 165.299 26.8193 165.236 26.8897C165.174 26.96 165.089 26.9995 165 26.9995H163C162.912 26.9995 162.827 26.96 162.765 26.8897C162.702 26.8193 162.667 26.7239 162.667 26.6245V23.9995H160.334C160.245 23.9995 160.161 23.96 160.098 23.8897C160.036 23.8193 160 23.7239 160 23.6245V21.3745C160 21.275 160.036 21.1797 160.098 21.1093C160.161 21.039 160.245 20.9995 160.334 20.9995H162.667V18.3745C162.667 18.275 162.702 18.1797 162.765 18.1093C162.827 18.039 162.912 17.9995 163 17.9995H165C165.089 17.9995 165.174 18.039 165.236 18.1093C165.299 18.1797 165.334 18.275 165.334 18.3745V20.9995H167.667C167.755 20.9995 167.84 21.039 167.903 21.1093C167.965 21.1797 168 21.275 168 21.3745V23.6245ZM175.779 17.0751L165.115 6.48136C164.81 6.17091 164.413 5.99902 164.001 5.99902C163.59 5.99902 163.193 6.17091 162.888 6.48136L152.221 17.0751C152.156 17.1409 152.103 17.2206 152.065 17.3094C152.028 17.3983 152.006 17.4947 152.001 17.5931C151.996 17.6914 152.009 17.7899 152.038 17.8828C152.067 17.9757 152.112 18.0612 152.171 18.1345L153.063 19.2511C153.121 19.3244 153.192 19.384 153.271 19.4265C153.35 19.469 153.436 19.4936 153.523 19.4989C153.611 19.5042 153.698 19.49 153.781 19.4572C153.863 19.4244 153.939 19.3736 154.005 19.3078L163.56 9.8259C163.681 9.70502 163.838 9.63831 164.001 9.63831C164.163 9.63831 164.32 9.70502 164.442 9.8259L173.997 19.3073C174.062 19.3732 174.138 19.4239 174.22 19.4567C174.303 19.4895 174.39 19.5037 174.478 19.4984C174.565 19.4931 174.651 19.4685 174.73 19.426C174.809 19.3835 174.88 19.3239 174.938 19.2506L175.83 18.134C175.948 17.986 176.009 17.7913 175.999 17.5927C175.99 17.3942 175.911 17.208 175.779 17.0751V17.0751Z" fill="#0C83F2"/>
<path d="M215.16 14.96V16.26H225.26V14.96H215.16ZM212.56 18.66V19.98H226.2V18.66H212.56ZM218.46 15.44V18.6C218.46 20.46 217.92 22.84 212.5 24.32C212.82 24.6 213.24 25.12 213.42 25.42C219.1 23.7 219.96 20.98 219.96 18.62V15.44H218.46ZM215.56 13.06C214.94 14.68 213.8 16.22 212.5 17.22C212.86 17.38 213.48 17.76 213.76 17.98C215.02 16.88 216.28 15.22 216.98 13.42L215.56 13.06ZM219.96 19.52L218.66 19.8C219.78 22.76 222.02 24.6 225.42 25.38C225.62 24.98 226 24.42 226.34 24.12C223.12 23.54 220.92 21.98 219.96 19.52ZM209.88 11.3V28.58H211.38V12.76H226.58V11.3H209.88ZM210.84 26.2V27.66H227.02V26.2H210.84ZM232.92 12.7V14.08H247.3V12.7H232.92ZM232.12 12.7V18.52C232.12 21.36 231.84 25 229.28 27.58C229.6 27.76 230.18 28.3 230.4 28.62C233.18 25.88 233.6 21.62 233.6 18.52V12.7H232.12ZM229 14.6C229.66 15.74 230.48 17.3 230.88 18.22L232.06 17.54C231.68 16.68 230.82 15.18 230.14 14.06L229 14.6ZM228.76 21.58L229.3 22.96C230.42 22.28 231.66 21.52 232.86 20.72L232.5 19.52C231.1 20.32 229.72 21.1 228.76 21.58ZM238.46 10.46C238.86 11.42 239.28 12.7 239.44 13.54L241 13.16C240.8 12.34 240.36 11.1 239.94 10.14L238.46 10.46ZM234.86 16.34V17.68H245.32V16.34H234.86ZM239.9 20.16V26.82C239.9 27.12 239.8 27.2 239.44 27.2C239.1 27.22 237.82 27.24 236.52 27.18C236.74 27.58 236.98 28.16 237.06 28.56C238.72 28.56 239.84 28.56 240.52 28.36C241.22 28.12 241.42 27.72 241.42 26.86V20.16H239.9ZM244.84 16.34V16.66C243.78 17.8 241.66 19.3 239.9 20.16C240.16 20.38 240.56 20.8 240.78 21.06C242.76 20.12 245.06 18.56 246.62 17.06L245.58 16.26L245.24 16.34H244.84Z" fill="#1A272E"/>
<path d="M274 18H420.5L464.5 147" stroke="#5CB2FF" stroke-width="2"/>
<circle cx="466" cy="150" r="3" fill="white" stroke="#5CB2FF" stroke-width="2"/>
<circle cx="886" cy="20" r="20" fill="#0C83F2" fill-opacity="0.08"/>
<path d="M892.685 32V23.4286C889.942 23.4286 887.542 21.0286 887.542 18.2857V13.1429C887.542 10.2286 889.771 8 892.514 8H894.228C895.085 8 895.942 8.68571 895.942 9.71429V32H892.685ZM882.742 20V32H877.599V20C876.742 20 876.057 19.3143 876.057 18.2857V8H877.771V16.5714H879.485V8H881.199V16.5714H882.914V8H884.628V18.4571C884.285 19.3143 883.599 20 882.742 20V20Z" fill="#0C83F2"/>
<path d="M935.3 10.2V13.5H936.58V10.2H935.3ZM935.82 11.08V12.08H940V11.08H935.82ZM934.22 13.06L933.4 14.06H938.8V13.06H934.22ZM938.44 13.06V13.28C937.2 15.74 933.86 17.4 930.78 18.08C931.02 18.34 931.32 18.78 931.48 19.1C934.8 18.24 938.24 16.46 939.74 13.46L938.94 13.02L938.7 13.06H938.44ZM932.56 15.02C933.6 15.5 934.88 16.26 935.5 16.78L936.3 16.04C935.64 15.48 934.36 14.78 933.34 14.34L932.56 15.02ZM933.78 12.76C933.06 13.72 931.78 14.6 930.5 15.2C930.78 15.38 931.24 15.78 931.44 15.98C932.7 15.3 934.08 14.22 934.92 13.1L933.78 12.76ZM940.82 11.08V12.18H947.04V11.08H940.82ZM946.68 11.08V11.28C945.74 13.72 943.24 15.54 940.72 16.3C940.98 16.56 941.32 17.06 941.48 17.38C944.22 16.42 946.9 14.44 948.04 11.4L947.18 11.02L946.96 11.08H946.68ZM940.76 13.76C943.26 14.94 946.3 16.82 947.78 18.18L948.7 17.2C947.16 15.86 944.1 14.04 941.62 12.92L940.76 13.76ZM939.9 17.32C942 19.06 945.6 20.66 948.54 21.4C948.7 21.08 949 20.58 949.28 20.26C946.22 19.62 942.72 18.18 940.44 16.32H939.22C937.5 17.98 934.16 19.6 930.78 20.5C931.02 20.78 931.3 21.24 931.44 21.56C934.76 20.58 938.1 18.92 939.9 17.32ZM935.4 20.5V21.42H944.12V24.18H935.4V25.1H945.54V20.5H935.4ZM934.62 20.5V27.6L936.04 27.48V20.5H934.62ZM946.3 24.2C945.36 24.92 943.7 25.9 942.46 26.46L943.28 27.06C944.54 26.54 946.14 25.7 947.4 24.9L946.3 24.2ZM940.16 24.54L939.04 24.88C940.72 27.1 944.12 28.24 948.18 28.62C948.34 28.26 948.66 27.76 948.94 27.5C945.02 27.24 941.64 26.34 940.16 24.54ZM935.4 22.34V23.18H944.6V22.34H935.4ZM937.36 18.88V19.8H942.58V18.88H937.36ZM932.36 27.18L932.54 28.38C934.76 28.16 937.94 27.82 940.94 27.5V26.36C937.76 26.7 934.48 27 932.36 27.18ZM961.26 13.24V14.62H967.96V13.24H961.26ZM961.28 10.24C960.84 13.12 960 15.9 958.62 17.66C958.98 17.86 959.64 18.3 959.9 18.54C961.28 16.6 962.24 13.62 962.78 10.44L961.28 10.24ZM967.58 13.24V13.5C967.36 14.88 966.96 16.6 966.56 17.66L967.84 18.06C968.3 16.92 968.78 15.06 969.12 13.46L968.08 13.18L967.82 13.24H967.58ZM964.24 18.14L963.02 18.34C963.8 23.22 965.4 26.96 968.76 28.66C968.96 28.28 969.4 27.72 969.72 27.44C966.54 26.02 964.94 22.48 964.24 18.14ZM962.98 16.14V17.3C962.98 20.2 962.6 24.52 957.56 27.68C957.9 27.92 958.4 28.4 958.62 28.72C963.98 25.3 964.42 20.56 964.42 17.32V16.14H962.98ZM953.12 13.34V14.74H957.96V13.34H953.12ZM953.26 10.26C952.78 13.24 951.92 16.14 950.6 18.02C950.92 18.22 951.5 18.7 951.76 18.96C953.12 16.88 954.1 13.76 954.66 10.52L953.26 10.26ZM957.52 13.34V13.6C957.22 14.86 956.66 16.42 956.18 17.38L957.36 17.8C957.96 16.74 958.56 15.06 959.02 13.6L958 13.28L957.76 13.34H957.52ZM953.46 28.34C953.76 27.96 954.32 27.58 958.3 25C958.16 24.72 957.98 24.16 957.9 23.76L953.68 26.36L953.22 26.98L953.46 28.34ZM953.46 28.34C953.46 27.78 955.22 26.54 955.22 26.54V17.12H953.78V25.28C953.78 26.18 953.08 26.84 952.68 27.1C952.94 27.38 953.32 28 953.46 28.34Z" fill="#1A272E"/>
<path d="M850 20H765.5L734 181" stroke="#5CB2FF" stroke-width="2"/>
<circle r="3" transform="matrix(-1 0 0 1 733 184)" fill="white" stroke="#5CB2FF" stroke-width="2"/>
<circle cx="974" cy="131" r="20" fill="#0C83F2" fill-opacity="0.08"/>
<path d="M978.38 138.229H969.057C968.86 138.229 968.671 138.151 968.531 138.012C968.392 137.873 968.312 137.685 968.311 137.488C968.311 137.08 968.647 136.747 969.057 136.747H978.38C978.79 136.747 979.126 137.08 979.126 137.488C979.124 137.685 979.045 137.873 978.905 138.012C978.766 138.151 978.577 138.229 978.38 138.229V138.229ZM981.479 132.633C981.272 132.658 981.063 132.671 980.854 132.671C979.735 132.672 978.646 132.304 977.758 131.623C977.623 131.518 977.457 131.461 977.287 131.461C977.116 131.461 976.95 131.518 976.815 131.623C975.927 132.304 974.838 132.673 973.718 132.671C972.599 132.673 971.51 132.304 970.622 131.623C970.486 131.518 970.32 131.461 970.15 131.461C969.979 131.461 969.813 131.518 969.678 131.623C968.62 132.433 967.287 132.796 965.964 132.633C965.86 132.62 965.754 132.629 965.654 132.66C965.553 132.691 965.46 132.742 965.381 132.812C965.302 132.881 965.239 132.966 965.195 133.062C965.152 133.158 965.129 133.261 965.129 133.367V139.673C965.129 140.502 965.788 141.174 966.603 141.174H980.834C981.648 141.174 982.308 140.502 982.308 139.673V133.369C982.308 132.927 981.92 132.577 981.479 132.634V132.633ZM983.884 126.425L982.226 123.199C982.033 122.824 981.74 122.51 981.379 122.291C981.019 122.072 980.605 121.956 980.183 121.957H967.254C966.832 121.956 966.418 122.072 966.058 122.291C965.697 122.51 965.404 122.824 965.211 123.199L963.552 126.425C962.632 128.518 963.994 130.993 966.289 131.177C966.917 131.23 967.549 131.116 968.118 130.846C968.688 130.576 969.176 130.16 969.533 129.64C969.602 129.54 969.694 129.458 969.802 129.402C969.909 129.345 970.029 129.316 970.15 129.316C970.272 129.316 970.391 129.345 970.499 129.402C970.606 129.458 970.698 129.54 970.767 129.64C971.096 130.119 971.537 130.51 972.051 130.78C972.565 131.05 973.138 131.19 973.718 131.189C974.299 131.19 974.872 131.05 975.386 130.78C975.9 130.51 976.341 130.119 976.67 129.64C976.739 129.54 976.831 129.458 976.938 129.401C977.046 129.344 977.165 129.314 977.287 129.314C977.408 129.314 977.528 129.344 977.636 129.401C977.743 129.458 977.835 129.54 977.904 129.64C978.261 130.16 978.749 130.576 979.319 130.846C979.888 131.116 980.519 131.23 981.148 131.177C983.442 130.993 984.805 128.518 983.884 126.424" fill="#0C83F2"/>
<path d="M1020.68 122.02V123.16H1035.3V122.02H1020.68ZM1021.84 126.4V127.34H1026.18V126.4H1021.84ZM1024.36 132.04V133.12H1031.66V132.04H1024.36ZM1021.02 134.36V135.46H1033.54V134.36H1021.02ZM1021.42 128.38V129.36H1026.2V128.38H1021.42ZM1029.66 128.38V129.36H1034.62V128.38H1029.66ZM1029.66 126.4V127.34H1034.12V126.4H1029.66ZM1027.2 122.48V128.44H1028.66V122.48H1027.2ZM1025.84 134.78V139.6H1027.3V134.78H1025.84ZM1019.52 124.28V127.78H1020.88V125.32H1035.08V127.78H1036.5V124.28H1019.52ZM1027.92 129.92C1029.98 131.68 1033.62 133.28 1036.58 134C1036.76 133.64 1037.06 133.12 1037.34 132.76C1034.26 132.16 1030.78 130.74 1028.52 128.8H1027.16C1025.44 130.5 1022.14 132.14 1018.72 133C1018.98 133.3 1019.28 133.82 1019.4 134.16C1022.74 133.22 1026.14 131.54 1027.92 129.92ZM1032.82 134.36V137.12C1032.82 137.34 1032.76 137.42 1032.48 137.42C1032.18 137.44 1031.28 137.44 1030.14 137.42C1030.36 137.76 1030.6 138.24 1030.68 138.62C1032.08 138.62 1032.98 138.62 1033.56 138.42C1034.16 138.2 1034.3 137.84 1034.3 137.12V134.36H1032.82ZM1042.5 137.62V138.86H1053.96V137.62H1042.5ZM1042.46 125.94V127H1054.76V125.94H1042.46ZM1042.46 128.4V129.48H1054.82V128.4H1042.46ZM1041.76 133.44V139.64H1043.26V134.7H1053.44V139.64H1054.98V133.44H1041.76ZM1048.78 121.2C1048.52 122.02 1048 123.24 1047.58 124L1048.84 124.38C1049.28 123.68 1049.84 122.62 1050.3 121.6L1048.78 121.2ZM1043.14 121.16C1042.18 123.48 1040.56 125.74 1038.82 127.22C1039.14 127.48 1039.68 128.08 1039.9 128.38C1041.68 126.74 1043.44 124.18 1044.58 121.62L1043.14 121.16ZM1047.7 123.98V131.6H1049.16V123.98H1047.7ZM1042.58 123.44L1042 124.58H1055.78V123.44H1042.58ZM1041.66 124.32V132.18H1056.66V131H1043.1V124.32H1041.66Z" fill="#1A272E"/>
<path d="M943 132H914.5L850 213" stroke="#5CB2FF" stroke-width="2"/>
<circle r="3" transform="matrix(-1 0 0 1 848 216)" fill="white" stroke="#5CB2FF" stroke-width="2"/>
<circle cx="1030" cy="244" r="20" fill="#0C83F2" fill-opacity="0.08"/>
<path d="M1039.75 237.522C1039.75 237.364 1039.74 235.935 1038.34 234.559C1036.96 233.205 1035.57 233.166 1035.42 233.166H1024.58C1024.32 233.166 1022.96 233.234 1021.64 234.577C1020.29 235.959 1020.25 237.347 1020.25 237.499V240.749H1019.17V243.999H1020.25V250.499C1020.25 251.295 1020.69 251.987 1021.33 252.364V253.749C1021.33 254.037 1021.45 254.312 1021.65 254.515C1021.85 254.719 1022.13 254.833 1022.42 254.833H1023.5C1023.79 254.833 1024.06 254.719 1024.27 254.515C1024.47 254.312 1024.58 254.037 1024.58 253.749V252.666H1035.42V253.749C1035.42 254.037 1035.53 254.312 1035.73 254.515C1035.94 254.719 1036.21 254.833 1036.5 254.833H1037.58C1037.87 254.833 1038.15 254.719 1038.35 254.515C1038.55 254.312 1038.67 254.037 1038.67 253.749V252.366C1038.99 252.177 1039.27 251.906 1039.46 251.578C1039.65 251.25 1039.75 250.878 1039.75 250.499V243.999H1040.83V240.749H1039.75V237.522ZM1026.75 235.333H1033.25V237.499H1026.75V235.333ZM1024.04 250.499C1023.61 250.499 1023.2 250.328 1022.89 250.023C1022.59 249.718 1022.42 249.304 1022.42 248.873C1022.42 248.442 1022.59 248.029 1022.89 247.724C1023.2 247.419 1023.61 247.248 1024.04 247.248C1024.47 247.248 1024.89 247.42 1025.19 247.725C1025.5 248.03 1025.67 248.443 1025.67 248.874C1025.67 249.305 1025.5 249.719 1025.19 250.024C1024.89 250.328 1024.47 250.499 1024.04 250.499V250.499ZM1028.92 245.083H1022.42V239.666H1028.92V245.083ZM1035.96 250.499C1035.53 250.499 1035.11 250.328 1034.81 250.023C1034.5 249.718 1034.33 249.304 1034.33 248.873C1034.33 248.442 1034.5 248.029 1034.81 247.724C1035.11 247.419 1035.53 247.248 1035.96 247.248C1036.39 247.248 1036.8 247.42 1037.11 247.725C1037.41 248.03 1037.58 248.443 1037.58 248.874C1037.58 249.305 1037.41 249.719 1037.11 250.024C1036.8 250.328 1036.39 250.499 1035.96 250.499V250.499ZM1037.58 245.083H1031.08V239.666H1037.58V245.083Z" fill="#0C83F2"/>
<path d="M1086.88 242.34C1085.04 247.4 1080.84 250 1074.78 251.26C1075.1 251.62 1075.58 252.3 1075.74 252.68C1081.88 251.14 1086.28 248.36 1088.48 242.78L1086.88 242.34ZM1080.36 238.9C1079.14 240.6 1077.02 242.26 1075.06 243.3C1075.44 243.58 1076.02 244.18 1076.28 244.5C1078.22 243.28 1080.46 241.4 1081.88 239.48L1080.36 238.9ZM1081.16 242.44L1079.74 242.88C1081.88 248.2 1085.9 251.4 1092.28 252.62C1092.5 252.2 1092.94 251.52 1093.28 251.18C1087.08 250.16 1083.02 247.18 1081.16 242.44ZM1075.22 236.82V238.28H1092.78V236.82H1075.22ZM1083.18 234.18V237.76H1084.72V234.18H1083.18ZM1086.34 239.74C1088.26 241.04 1090.58 242.98 1091.66 244.3L1092.96 243.26C1091.82 241.94 1089.46 240.08 1087.58 238.82L1086.34 239.74ZM1099.32 242.1H1094.98V243.5H1097.9V249.18H1099.32V242.1ZM1099.32 248.58H1098.02C1096.96 249.44 1095.72 250.34 1094.72 250.96L1095.46 252.44C1096.6 251.58 1097.68 250.7 1098.7 249.84C1099.94 251.42 1101.76 252.12 1104.38 252.22C1106.62 252.32 1110.9 252.28 1113.12 252.18C1113.2 251.74 1113.42 251.04 1113.6 250.7C1111.2 250.86 1106.58 250.92 1104.38 250.82C1102.02 250.74 1100.3 250.06 1099.32 248.58ZM1095.32 235.6C1096.58 236.54 1098.04 237.96 1098.66 238.94L1099.8 237.9C1099.14 236.92 1097.64 235.56 1096.36 234.66L1095.32 235.6ZM1103.32 237.56C1105.26 238.3 1107.74 239.44 1109 240.22L1110.02 239.28C1108.68 238.48 1106.16 237.38 1104.28 236.72L1103.32 237.56ZM1101.42 239.24V249.6H1102.84V240.4H1111.76V239.24H1101.42ZM1111.04 239.24V248.08C1111.04 248.34 1110.98 248.42 1110.72 248.42C1110.46 248.42 1109.62 248.44 1108.68 248.4C1108.86 248.74 1109.04 249.26 1109.1 249.64C1110.44 249.64 1111.28 249.64 1111.8 249.4C1112.34 249.18 1112.48 248.84 1112.48 248.1V239.24H1111.04ZM1101.42 235.04V236.24H1111.4V235.04H1101.42ZM1102.2 242.16V243.28H1111.62V242.16H1102.2ZM1102.2 245.1V246.26H1111.62V245.1H1102.2ZM1106.2 239.72V249.52H1107.56V239.72H1106.2ZM1110.9 235.04V235.32C1110 236.26 1108.14 237.42 1106.5 238.06C1106.72 238.28 1107.1 238.68 1107.3 238.94C1109.12 238.18 1111.14 236.94 1112.48 235.68L1111.56 234.96L1111.24 235.04H1110.9Z" fill="#1A272E"/>
<path d="M994.5 244H849.5L787 288" stroke="#5CB2FF" stroke-width="2"/>
<circle r="3" transform="matrix(-1 0 0 1 784 290)" fill="white" stroke="#5CB2FF" stroke-width="2"/>
</svg>
