<svg width="96" height="96" viewBox="0 0 96 96" fill="none" xmlns="http://www.w3.org/2000/svg">
<g clip-path="url(#clip0_810_6697)">
<circle cx="48" cy="48" r="48" fill="url(#paint0_linear_810_6697)"/>
<g filter="url(#filter0_f_810_6697)">
<path d="M47.9996 81.1998C69.2073 81.1998 86.3996 77.9763 86.3996 73.9998C86.3996 70.0234 69.2073 66.7998 47.9996 66.7998C26.7919 66.7998 9.59961 70.0234 9.59961 73.9998C9.59961 77.9763 26.7919 81.1998 47.9996 81.1998Z" fill="#6E80E1" fill-opacity="0.3"/>
</g>
<g filter="url(#filter1_f_810_6697)">
<path d="M22.8002 69.8004C22.8002 72.7827 34.0826 75.2004 48.0002 75.2004C61.9178 75.2004 73.2002 72.7827 73.2002 69.8004C73.2002 66.8181 61.9178 64.4004 48.0002 64.4004C34.0826 64.4004 22.8002 66.8181 22.8002 69.8004Z" fill="#6E80E1" fill-opacity="0.5"/>
</g>
<path d="M63.92 65.9048L50.6416 67C43.0773 64.4409 39.1619 58.1583 38.2242 56.4707C38.0757 56.2034 38.0744 55.8942 38.2229 55.6269C39.4062 53.4964 45.3584 44 57.44 44C60.2967 44 62.8107 44.5309 65 45.3699L64.8433 48.3499L64 48.5L63.92 53L63.92 65.9048Z" fill="#6E80E1"/>
<g filter="url(#filter2_b_810_6697)">
<path d="M38.8029 32.1742C39.0406 27.0677 43.2912 23 48.5 23C53.7088 23 57.9594 27.0677 58.1971 32.1742C59.744 31.0187 61.6687 30.3336 63.7547 30.3336C68.8608 30.3336 73 34.4379 73 39.5007C73 44.0367 69.6774 47.8032 65.3137 48.5379C65.3137 48.5379 65.3137 62.7441 65.3137 66.1666C65.3137 67.1792 64.4859 68 63.4647 68H32.6471C31.6259 68 30.798 67.1792 30.798 66.1666C30.798 62.5417 30.7255 48.3231 30.7255 48.3231C26.8441 47.2354 24 43.6974 24 39.5007C24 34.4379 28.1393 30.3336 33.2453 30.3336C35.3313 30.3336 37.256 31.0187 38.8029 32.1742Z" fill="white" fill-opacity="0.5"/>
</g>
<g filter="url(#filter3_b_810_6697)">
<path d="M38.8029 32.1742C39.0406 27.0677 43.2912 23 48.5 23C53.7088 23 57.9594 27.0677 58.1971 32.1742C59.744 31.0187 61.6687 30.3336 63.7547 30.3336C68.8608 30.3336 73 34.4379 73 39.5007C73 44.0367 69.6774 47.8032 65.3137 48.5379C65.3137 48.5379 65.3137 62.7441 65.3137 66.1666C65.3137 67.1792 64.4859 68 63.4647 68H32.6471C31.6259 68 30.798 67.1792 30.798 66.1666C30.798 62.5417 30.7255 48.3231 30.7255 48.3231C26.8441 47.2354 24 43.6974 24 39.5007C24 34.4379 28.1393 30.3336 33.2453 30.3336C35.3313 30.3336 37.256 31.0187 38.8029 32.1742Z" fill="white" fill-opacity="0.2"/>
</g>
<path d="M38.3541 32.7751L39.4864 33.6209L39.5521 32.2091C39.771 27.5065 43.6881 23.75 48.5 23.75C53.3119 23.75 57.229 27.5065 57.4479 32.2091L57.5136 33.6209L58.6459 32.7751C60.0673 31.7133 61.8355 31.0836 63.7547 31.0836C68.4526 31.0836 72.25 34.8581 72.25 39.5007C72.25 43.6599 69.2024 47.1226 65.1892 47.7984L64.5637 47.9037V48.5379H65.3137C64.5637 48.5379 64.5637 48.538 64.5637 48.5381V48.5386V48.5394V48.5405V48.542V48.5438V48.5458V48.5483V48.551V48.554V48.5574V48.561V48.565V48.5693V48.5739V48.5788V48.584V48.5895V48.5954V48.6015V48.6079V48.6146V48.6217V48.629V48.6366V48.6446V48.6528V48.6613V48.6701V48.6792V48.6886V48.6983V48.7083V48.7186V48.7291V48.74V48.7511V48.7625V48.7742V48.7861V48.7984V48.8109V48.8237V48.8368V48.8502V48.8638V48.8777V48.8919V48.9064V48.9211V48.9361V48.9514V48.9669V48.9827V48.9988V49.0151V49.0317V49.0485V49.0656V49.083V49.1006V49.1185V49.1367V49.155V49.1737V49.1926V49.2117V49.2311V49.2508V49.2707V49.2908V49.3112V49.3319V49.3528V49.3739V49.3952V49.4169V49.4387V49.4608V49.4831V49.5057V49.5284V49.5515V49.5747V49.5982V49.6219V49.6459V49.67V49.6945V49.7191V49.7439V49.769V49.7943V49.8198V49.8456V49.8715V49.8977V49.9241V49.9507V49.9775V50.0046V50.0318V50.0593V50.0869V50.1148V50.1429V50.1712V50.1997V50.2284V50.2573V50.2864V50.3157V50.3452V50.3749V50.4048V50.4349V50.4652V50.4957V50.5264V50.5573V50.5884V50.6196V50.6511V50.6827V50.7145V50.7466V50.7787V50.8111V50.8437V50.8764V50.9093V50.9424V50.9757V51.0092V51.0428V51.0766V51.1106V51.1447V51.179V51.2135V51.2482V51.283V51.318V51.3532V51.3885V51.424V51.4596V51.4954V51.5314V51.5675V51.6038V51.6402V51.6768V51.7136V51.7505V51.7875V51.8248V51.8621V51.8996V51.9373V51.9751V52.013V52.0511V52.0893V52.1277V52.1662V52.2049V52.2437V52.2826V52.3216V52.3609V52.4002V52.4397V52.4793V52.519V52.5588V52.5988V52.639V52.6792V52.7196V52.7601V52.8007V52.8414V52.8823V52.9232V52.9643V53.0055V53.0469V53.0883V53.1299V53.1715V53.2133V53.2552V53.2972V53.3393V53.3816V53.4239V53.4663V53.5088V53.5515V53.5942V53.6371V53.68V53.723V53.7662V53.8094V53.8527V53.8961V53.9397V53.9833V54.027V54.0707V54.1146V54.1586V54.2026V54.2467V54.291V54.3353V54.3796V54.4241V54.4686V54.5133V54.5579V54.6027V54.6476V54.6925V54.7375V54.7825V54.8277V54.8729V54.9181V54.9635V55.0089V55.0544V55.0999V55.1455V55.1911V55.2369V55.2826V55.3285V55.3744V55.4203V55.4663V55.5124V55.5585V55.6046V55.6508V55.6971V55.7434V55.7898V55.8362V55.8826V55.9291V55.9756V56.0222V56.0688V56.1155V56.1622V56.2089V56.2556V56.3024V56.3493V56.3961V56.443V56.49V56.5369V56.5839V56.6309V56.6779V56.725V56.7721V56.8192V56.8663V56.9135V56.9606V57.0078V57.055V57.1022V57.1495V57.1967V57.244V57.2912V57.3385V57.3858V57.4331V57.4804V57.5277V57.575V57.6223V57.6697V57.717V57.7643V57.8116V57.8589V57.9062V57.9536V58.0009V58.0482V58.0954V58.1427V58.19V58.2373V58.2845V58.3317V58.3789V58.4262V58.4733V58.5205V58.5677V58.6148V58.6619V58.709V58.756V58.8031V58.8501V58.8971V58.944V58.991V59.0379V59.0847V59.1316V59.1784V59.2251V59.2719V59.3186V59.3652V59.4118V59.4584V59.505V59.5514V59.5979V59.6443V59.6907V59.737V59.7832V59.8295V59.8756V59.9217V59.9678V60.0138V60.0598V60.1057V60.1515V60.1973V60.243V60.2887V60.3343V60.3798V60.4253V60.4707V60.5161V60.5613V60.6066V60.6517V60.6968V60.7418V60.7867V60.8315V60.8763V60.921V60.9657V61.0102V61.0547V61.0991V61.1434V61.1876V61.2317V61.2758V61.3198V61.3636V61.4074V61.4511V61.4948V61.5383V61.5817V61.625V61.6683V61.7114V61.7545V61.7974V61.8403V61.883V61.9257V61.9682V62.0107V62.053V62.0952V62.1374V62.1794V62.2213V62.2631V62.3048V62.3463V62.3878V62.4291V62.4704V62.5115V62.5525V62.5933V62.6341V62.6747V62.7152V62.7556V62.7959V62.836V62.876V62.9159V62.9556V62.9953V63.0347V63.0741V63.1133V63.1524V63.1913V63.2301V63.2688V63.3073V63.3457V63.384V63.4221V63.46V63.4979V63.5355V63.5731V63.6104V63.6477V63.6847V63.7216V63.7584V63.795V63.8315V63.8678V63.9039V63.9399V63.9758V64.0114V64.0469V64.0823V64.1174V64.1525V64.1873V64.222V64.2565V64.2908V64.325V64.359V64.3928V64.4265V64.4599V64.4932V64.5264V64.5593V64.5921V64.6246V64.657V64.6893V64.7213V64.7531V64.7848V64.8163V64.8476V64.8787V64.9096V64.9403V64.9708V65.0011V65.0312V65.0612V65.0909V65.1204V65.1498V65.1789V65.2078V65.2366V65.2651V65.2934V65.3215V65.3494V65.3771V65.4046V65.4319V65.4589V65.4858V65.5124V65.5388V65.565V65.591V65.6168V65.6423V65.6677V65.6928V65.7176V65.7423V65.7667V65.7909V65.8149V65.8386V65.8622V65.8854V65.9085V65.9313V65.9539V65.9762V65.9984V66.0202V66.0419V66.0633V66.0844V66.1053V66.126V66.1464V66.1666C64.5637 66.7589 64.0777 67.25 63.4647 67.25H32.6471C32.034 67.25 31.548 66.7589 31.548 66.1666C31.548 64.352 31.5299 59.8891 31.5117 55.8821C31.5027 53.8781 31.4936 51.9874 31.4868 50.5977L31.4786 48.9374L31.4763 48.4799L31.4757 48.3602L31.4755 48.3296L31.4755 48.3219L31.4755 48.3199L31.4755 48.3195C31.4755 48.3193 31.4755 48.3193 30.7255 48.3231L31.4755 48.3193L31.4726 47.7536L30.9279 47.6009C27.3581 46.6005 24.75 43.3486 24.75 39.5007C24.75 34.8581 28.5474 31.0836 33.2453 31.0836C35.1645 31.0836 36.9327 31.7133 38.3541 32.7751Z" stroke="url(#paint1_linear_810_6697)" stroke-width="1.5"/>
<path d="M34 43C35.2706 40.8581 37.3854 39.0995 40 38" stroke="#6E80E1" stroke-width="2" stroke-linecap="round"/>
<path d="M68.7914 56.0954C68.9317 56.3514 68.9317 56.6486 68.7914 56.9046C67.9367 58.4643 64.416 64 57.5 64C50.584 64 47.0633 58.4643 46.2086 56.9046C46.0683 56.6486 46.0683 56.3514 46.2086 56.0954C47.0633 54.5357 50.584 49 57.5 49C64.416 49 67.9367 54.5357 68.7914 56.0954Z" fill="#6E80E1"/>
<circle cx="57.5" cy="56.5" r="3.5" stroke="url(#paint2_linear_810_6697)" stroke-width="2"/>
</g>
<defs>
<filter id="filter0_f_810_6697" x="-2.40039" y="54.7998" width="100.8" height="38.4004" filterUnits="userSpaceOnUse" color-interpolation-filters="sRGB">
<feFlood flood-opacity="0" result="BackgroundImageFix"/>
<feBlend mode="normal" in="SourceGraphic" in2="BackgroundImageFix" result="shape"/>
<feGaussianBlur stdDeviation="6" result="effect1_foregroundBlur_810_6697"/>
</filter>
<filter id="filter1_f_810_6697" x="10.7998" y="52.4004" width="74.4004" height="34.7998" filterUnits="userSpaceOnUse" color-interpolation-filters="sRGB">
<feFlood flood-opacity="0" result="BackgroundImageFix"/>
<feBlend mode="normal" in="SourceGraphic" in2="BackgroundImageFix" result="shape"/>
<feGaussianBlur stdDeviation="6" result="effect1_foregroundBlur_810_6697"/>
</filter>
<filter id="filter2_b_810_6697" x="18" y="17" width="61" height="57" filterUnits="userSpaceOnUse" color-interpolation-filters="sRGB">
<feFlood flood-opacity="0" result="BackgroundImageFix"/>
<feGaussianBlur in="BackgroundImageFix" stdDeviation="3"/>
<feComposite in2="SourceAlpha" operator="in" result="effect1_backgroundBlur_810_6697"/>
<feBlend mode="normal" in="SourceGraphic" in2="effect1_backgroundBlur_810_6697" result="shape"/>
</filter>
<filter id="filter3_b_810_6697" x="18" y="17" width="61" height="57" filterUnits="userSpaceOnUse" color-interpolation-filters="sRGB">
<feFlood flood-opacity="0" result="BackgroundImageFix"/>
<feGaussianBlur in="BackgroundImageFix" stdDeviation="3"/>
<feComposite in2="SourceAlpha" operator="in" result="effect1_backgroundBlur_810_6697"/>
<feBlend mode="normal" in="SourceGraphic" in2="effect1_backgroundBlur_810_6697" result="shape"/>
</filter>
<linearGradient id="paint0_linear_810_6697" x1="48" y1="1.43051e-06" x2="48" y2="96" gradientUnits="userSpaceOnUse">
<stop stop-color="#6E80E1" stop-opacity="0.04"/>
<stop offset="0.9999" stop-color="#6E80E1" stop-opacity="0.12"/>
<stop offset="1" stop-color="#6E80E1" stop-opacity="0.2"/>
</linearGradient>
<linearGradient id="paint1_linear_810_6697" x1="25.75" y1="23" x2="42.6049" y2="69.8801" gradientUnits="userSpaceOnUse">
<stop stop-color="white" stop-opacity="0.3"/>
<stop offset="1" stop-color="white"/>
</linearGradient>
<linearGradient id="paint2_linear_810_6697" x1="57.5" y1="52" x2="57.5" y2="63" gradientUnits="userSpaceOnUse">
<stop stop-color="white" stop-opacity="0.2"/>
<stop offset="1" stop-color="white" stop-opacity="0.7"/>
</linearGradient>
<clipPath id="clip0_810_6697">
<rect width="96" height="96" fill="white"/>
</clipPath>
</defs>
</svg>
