<svg width="96" height="96" viewBox="0 0 96 96" fill="none" xmlns="http://www.w3.org/2000/svg">
<g clip-path="url(#clip0_737_6826)">
<circle cx="48" cy="48" r="48" fill="url(#paint0_linear_737_6826)"/>
<g filter="url(#filter0_f_737_6826)">
<path d="M48.0001 81.1998C69.2078 81.1998 86.4001 77.9763 86.4001 73.9998C86.4001 70.0234 69.2078 66.7998 48.0001 66.7998C26.7924 66.7998 9.6001 70.0234 9.6001 73.9998C9.6001 77.9763 26.7924 81.1998 48.0001 81.1998Z" fill="#6E80E1" fill-opacity="0.3"/>
</g>
<g filter="url(#filter1_f_737_6826)">
<path d="M22.7999 69.8004C22.7999 72.7827 34.0824 75.2004 48 75.2004C61.9175 75.2004 73.2 72.7827 73.2 69.8004C73.2 66.8181 61.9175 64.4004 48 64.4004C34.0824 64.4004 22.7999 66.8181 22.7999 69.8004Z" fill="#6E80E1" fill-opacity="0.5"/>
</g>
<path d="M63.0117 57.7136L59.5 66.5L55.9959 66.4906L53 66.5L49.4113 56.8754L31.2395 50.593L63.0117 37.1792L63.0117 57.7136Z" fill="#6E80E1"/>
<g filter="url(#filter2_b_737_6826)">
<path d="M35 70C35 69.4477 35.4477 69 36 69H58C58.5523 69 59 69.4477 59 70C59 70.5523 58.5523 71 58 71H36C35.4477 71 35 70.5523 35 70Z" fill="#6E80E1"/>
</g>
<g filter="url(#filter3_b_737_6826)">
<path d="M31 25C31 23.8954 31.8954 23 33 23H61C62.1046 23 63 23.8954 63 25V65C63 66.1046 62.1046 67 61 67H33C31.8954 67 31 66.1046 31 65V25Z" fill="white" fill-opacity="0.5"/>
</g>
<g filter="url(#filter4_b_737_6826)">
<path d="M31 25C31 23.8954 31.8954 23 33 23H61C62.1046 23 63 23.8954 63 25V65C63 66.1046 62.1046 67 61 67H33C31.8954 67 31 66.1046 31 65V25Z" fill="white" fill-opacity="0.2"/>
</g>
<path d="M31.75 25C31.75 24.3096 32.3096 23.75 33 23.75H61C61.6904 23.75 62.25 24.3096 62.25 25V65C62.25 65.6904 61.6904 66.25 61 66.25H33C32.3096 66.25 31.75 65.6904 31.75 65V25Z" stroke="url(#paint1_linear_737_6826)" stroke-width="1.5"/>
<path d="M50 26H40.0001C39.4478 26 39 26.4477 39 27C39 27.5523 39.4478 28 40.0001 28H50C50.5523 28 51 27.5523 51 27C51 26.4477 50.5523 26 50 26Z" fill="#6E80E1"/>
<rect x="53" y="26" width="2" height="2" rx="1" fill="#6E80E1"/>
<path d="M66.7993 38.6438C67.6261 38.2947 68.4586 39.1272 68.1095 39.954L57.3873 65.3508C57.0307 66.1953 55.8204 66.155 55.5209 65.2886L51.9098 54.8435L41.4647 51.2324C40.5983 50.9329 40.558 49.7226 41.4025 49.366L66.7993 38.6438Z" fill="#6E80E1"/>
<path d="M47.5022 48.9585C47.3353 48.5494 47.5316 48.0824 47.9406 47.9155L52.3848 46.1019C52.7939 45.9349 53.2609 46.1312 53.4278 46.5403C53.5947 46.9494 53.3984 47.4163 52.9894 47.5833L48.5452 49.3969C48.1361 49.5638 47.6692 49.3675 47.5022 48.9585Z" fill="url(#paint2_linear_737_6826)"/>
</g>
<defs>
<filter id="filter0_f_737_6826" x="-2.3999" y="54.7998" width="100.8" height="38.4004" filterUnits="userSpaceOnUse" color-interpolation-filters="sRGB">
<feFlood flood-opacity="0" result="BackgroundImageFix"/>
<feBlend mode="normal" in="SourceGraphic" in2="BackgroundImageFix" result="shape"/>
<feGaussianBlur stdDeviation="6" result="effect1_foregroundBlur_737_6826"/>
</filter>
<filter id="filter1_f_737_6826" x="10.8" y="52.4004" width="74.3999" height="34.7998" filterUnits="userSpaceOnUse" color-interpolation-filters="sRGB">
<feFlood flood-opacity="0" result="BackgroundImageFix"/>
<feBlend mode="normal" in="SourceGraphic" in2="BackgroundImageFix" result="shape"/>
<feGaussianBlur stdDeviation="6" result="effect1_foregroundBlur_737_6826"/>
</filter>
<filter id="filter2_b_737_6826" x="29" y="63" width="36" height="14" filterUnits="userSpaceOnUse" color-interpolation-filters="sRGB">
<feFlood flood-opacity="0" result="BackgroundImageFix"/>
<feGaussianBlur in="BackgroundImageFix" stdDeviation="3"/>
<feComposite in2="SourceAlpha" operator="in" result="effect1_backgroundBlur_737_6826"/>
<feBlend mode="normal" in="SourceGraphic" in2="effect1_backgroundBlur_737_6826" result="shape"/>
</filter>
<filter id="filter3_b_737_6826" x="25" y="17" width="44" height="56" filterUnits="userSpaceOnUse" color-interpolation-filters="sRGB">
<feFlood flood-opacity="0" result="BackgroundImageFix"/>
<feGaussianBlur in="BackgroundImageFix" stdDeviation="3"/>
<feComposite in2="SourceAlpha" operator="in" result="effect1_backgroundBlur_737_6826"/>
<feBlend mode="normal" in="SourceGraphic" in2="effect1_backgroundBlur_737_6826" result="shape"/>
</filter>
<filter id="filter4_b_737_6826" x="25" y="17" width="44" height="56" filterUnits="userSpaceOnUse" color-interpolation-filters="sRGB">
<feFlood flood-opacity="0" result="BackgroundImageFix"/>
<feGaussianBlur in="BackgroundImageFix" stdDeviation="3"/>
<feComposite in2="SourceAlpha" operator="in" result="effect1_backgroundBlur_737_6826"/>
<feBlend mode="normal" in="SourceGraphic" in2="effect1_backgroundBlur_737_6826" result="shape"/>
</filter>
<linearGradient id="paint0_linear_737_6826" x1="48" y1="1.43051e-06" x2="48" y2="96" gradientUnits="userSpaceOnUse">
<stop stop-color="#6E80E1" stop-opacity="0.04"/>
<stop offset="0.9999" stop-color="#6E80E1" stop-opacity="0.12"/>
<stop offset="1" stop-color="#6E80E1" stop-opacity="0.2"/>
</linearGradient>
<linearGradient id="paint1_linear_737_6826" x1="32.1429" y1="23" x2="55.2385" y2="64.0792" gradientUnits="userSpaceOnUse">
<stop stop-color="white" stop-opacity="0.3"/>
<stop offset="1" stop-color="white"/>
</linearGradient>
<linearGradient id="paint2_linear_737_6826" x1="54.6069" y1="45.195" x2="49.7438" y2="51.2554" gradientUnits="userSpaceOnUse">
<stop stop-color="white" stop-opacity="0.2"/>
<stop offset="1" stop-color="white" stop-opacity="0.7"/>
</linearGradient>
<clipPath id="clip0_737_6826">
<rect width="96" height="96" fill="white"/>
</clipPath>
</defs>
</svg>
