<svg width="64" height="64" viewBox="0 0 64 64" fill="none" xmlns="http://www.w3.org/2000/svg">
<g clip-path="url(#clip0_810_6685)">
<rect width="64" height="64" rx="8" fill="url(#paint0_linear_810_6685)"/>
<g filter="url(#filter0_f_810_6685)">
<ellipse cx="32" cy="53" rx="32" ry="6" fill="#6E80E1" fill-opacity="0.3"/>
</g>
<g filter="url(#filter1_f_810_6685)">
<ellipse cx="32" cy="49.5" rx="4.5" ry="21" transform="rotate(90 32 49.5)" fill="#6E80E1" fill-opacity="0.5"/>
</g>
<path d="M45 51.5L28.8889 52C25.8606 48.9209 24 44.7435 24 40.1429C24 30.6751 31.8798 23 41.6 23C43.1193 23 44.5937 23.1875 46 23.5401C46 23.5401 45 43.5121 45 51.5Z" fill="#6E80E1"/>
<g filter="url(#filter2_b_810_6685)">
<path d="M14 13C14 11.8954 14.8954 11 16 11H44C45.1046 11 46 11.8954 46 13V50C46 51.1046 45.1046 52 44 52H16C14.8954 52 14 51.1046 14 50V13Z" fill="white" fill-opacity="0.5"/>
</g>
<g filter="url(#filter3_b_810_6685)">
<path d="M14 13C14 11.8954 14.8954 11 16 11H44C45.1046 11 46 11.8954 46 13V50C46 51.1046 45.1046 52 44 52H16C14.8954 52 14 51.1046 14 50V13Z" fill="white" fill-opacity="0.2"/>
</g>
<path d="M14.5 13C14.5 12.1716 15.1716 11.5 16 11.5H44C44.8284 11.5 45.5 12.1716 45.5 13V50C45.5 50.8284 44.8284 51.5 44 51.5H16C15.1716 51.5 14.5 50.8284 14.5 50V13Z" stroke="url(#paint1_linear_810_6685)"/>
<rect x="19" y="18" width="11" height="2" rx="1" fill="#6E80E1"/>
<rect x="19" y="23" width="14" height="2" rx="1" fill="#6E80E1"/>
<circle cx="41" cy="39" r="8" fill="#6E80E1"/>
<g filter="url(#filter4_b_810_6685)">
<path d="M39.5 34.5C39.5 33.9477 39.9477 33.5 40.5 33.5C41.0523 33.5 41.5 33.9477 41.5 34.5V38.5H46.5C47.0523 38.5 47.5 38.9477 47.5 39.5C47.5 40.0523 47.0523 40.5 46.5 40.5H40.5C39.9477 40.5 39.5 40.0523 39.5 39.5V34.5Z" fill="url(#paint2_linear_810_6685)"/>
</g>
</g>
<defs>
<filter id="filter0_f_810_6685" x="-12" y="35" width="88" height="36" filterUnits="userSpaceOnUse" color-interpolation-filters="sRGB">
<feFlood flood-opacity="0" result="BackgroundImageFix"/>
<feBlend mode="normal" in="SourceGraphic" in2="BackgroundImageFix" result="shape"/>
<feGaussianBlur stdDeviation="6" result="effect1_foregroundBlur_810_6685"/>
</filter>
<filter id="filter1_f_810_6685" x="-1" y="33" width="66" height="33" filterUnits="userSpaceOnUse" color-interpolation-filters="sRGB">
<feFlood flood-opacity="0" result="BackgroundImageFix"/>
<feBlend mode="normal" in="SourceGraphic" in2="BackgroundImageFix" result="shape"/>
<feGaussianBlur stdDeviation="6" result="effect1_foregroundBlur_810_6685"/>
</filter>
<filter id="filter2_b_810_6685" x="8" y="5" width="44" height="53" filterUnits="userSpaceOnUse" color-interpolation-filters="sRGB">
<feFlood flood-opacity="0" result="BackgroundImageFix"/>
<feGaussianBlur in="BackgroundImageFix" stdDeviation="3"/>
<feComposite in2="SourceAlpha" operator="in" result="effect1_backgroundBlur_810_6685"/>
<feBlend mode="normal" in="SourceGraphic" in2="effect1_backgroundBlur_810_6685" result="shape"/>
</filter>
<filter id="filter3_b_810_6685" x="8" y="5" width="44" height="53" filterUnits="userSpaceOnUse" color-interpolation-filters="sRGB">
<feFlood flood-opacity="0" result="BackgroundImageFix"/>
<feGaussianBlur in="BackgroundImageFix" stdDeviation="3"/>
<feComposite in2="SourceAlpha" operator="in" result="effect1_backgroundBlur_810_6685"/>
<feBlend mode="normal" in="SourceGraphic" in2="effect1_backgroundBlur_810_6685" result="shape"/>
</filter>
<filter id="filter4_b_810_6685" x="29.5" y="23.5" width="28" height="27" filterUnits="userSpaceOnUse" color-interpolation-filters="sRGB">
<feFlood flood-opacity="0" result="BackgroundImageFix"/>
<feGaussianBlur in="BackgroundImageFix" stdDeviation="5"/>
<feComposite in2="SourceAlpha" operator="in" result="effect1_backgroundBlur_810_6685"/>
<feBlend mode="normal" in="SourceGraphic" in2="effect1_backgroundBlur_810_6685" result="shape"/>
</filter>
<linearGradient id="paint0_linear_810_6685" x1="32" y1="9.53674e-07" x2="32" y2="64" gradientUnits="userSpaceOnUse">
<stop stop-color="#6E80E1" stop-opacity="0.04"/>
<stop offset="0.9999" stop-color="#6E80E1" stop-opacity="0.12"/>
<stop offset="1" stop-color="#6E80E1" stop-opacity="0.2"/>
</linearGradient>
<linearGradient id="paint1_linear_810_6685" x1="15.1429" y1="11" x2="35.8516" y2="50.5289" gradientUnits="userSpaceOnUse">
<stop stop-color="white" stop-opacity="0.3"/>
<stop offset="1" stop-color="white"/>
</linearGradient>
<linearGradient id="paint2_linear_810_6685" x1="39.5" y1="38.5" x2="46.256" y2="41.1273" gradientUnits="userSpaceOnUse">
<stop stop-color="white" stop-opacity="0.2"/>
<stop offset="1" stop-color="white" stop-opacity="0.7"/>
</linearGradient>
<clipPath id="clip0_810_6685">
<rect width="64" height="64" fill="white"/>
</clipPath>
</defs>
</svg>
