<svg width="480" height="384" viewBox="0 0 480 384" fill="none" xmlns="http://www.w3.org/2000/svg">
<g id="404illustrate">
<path id="Vector 29" d="M118.37 184.753C113.638 161.808 120.737 74.6174 123.103 65.4394C117.802 58.097 106.696 56.2607 101.806 56.2604C88.0812 56.2604 82.402 60.3405 79.5624 66.4582C84.1057 80.735 84.6106 157.048 84.2951 193.42H75.7762V156.199H70.5703V141.412H65.8376V132.744H60.1584V123.056H57.7921V132.744H52.1129V141.412H47.3802V156.199H42.6475V200.559H37.9149V146.001H20.8772V187.812H17.0911V169.456H15.198V166.396H2.89307V169.456H1V192.91L1 322C28.5 292.952 101.333 219.257 238.58 219.257C375.828 219.257 461.962 301.021 479 322V169.457H477.107V166.907H466.222V169.457H464.802V200.56H461.962V162.318H447.291V196.481H445.871C443.978 162.658 438.867 92.1575 433.566 80.736C426.373 94.605 421.104 163.678 419.368 196.481L414.636 192.91V132.745H410.85V141.923H405.644V132.745H402.331V192.91H397.598V75.9036L375.828 68.2553V96.809L360.21 91.7102V184.753H350.271V71.6093H339.386V53.7632H324.715V71.6093H312.883V193.42C310.832 190.531 306.731 183.53 306.731 178.635C299.916 138.659 303.891 63.2181 306.731 39.0831H272.182C280.133 63.149 278.335 141.751 276.442 169.456H262.244C263.979 169.456 267.355 156.913 266.976 106.74C266.598 56.5681 254.829 42.3248 248.992 41.4746L247.469 22.9047L246.152 41.4746C231.954 45.9868 231.954 90.9338 231.954 106.74C231.954 135.631 234.025 156.199 238.58 169.456H224.382V17H212.6L207.867 33.3164L200.768 17H191.727V178.635L174.216 156.199V66.4582L163.804 26.178H142.507V48.6131H137.774L133.515 56.2604V77.6767H128.782V184.753" stroke="url(#paint0_linear_343_6883)" stroke-width="2"/>
<path id="Ellipse 228" d="M480 349H0C0 278.86 107.452 222 240 222C372.548 222 480 278.86 480 349Z" fill="url(#paint1_linear_343_6883)"/>
<g id="Group 736">
<path id="Vector" d="M149.156 235.019V161L116.535 161.002L71 235.019V254.998H126.521V279H149.156V254.998H165V235.019H149.156ZM126.521 235.019H97.0963L126.521 188.624V235.019Z" fill="#5CB2FF"/>
<path id="Vector_2" d="M394.987 235.019V161L362.02 161.002L316 235.019V254.998H372.112V279H394.987V254.998H411V235.019H394.987ZM372.112 235.019H342.374L372.112 188.624V235.019Z" fill="#5CB2FF"/>
<path id="Vector_3" d="M151.987 235.019V161L119.02 161.002L73 235.019V254.998H129.112V279H151.987V254.998H168V235.019H151.987ZM129.112 235.019H99.3739L129.112 188.624V235.019Z" fill="#BADDFF"/>
<path id="Vector_4" d="M397.156 235.019V161L364.535 161.002L319 235.019V254.998H374.521V279H397.156V254.998H413V235.019H397.156ZM374.521 235.019H345.096L374.521 188.624V235.019Z" fill="#BADDFF"/>
<ellipse id="Ellipse 222" cx="243.5" cy="224" rx="48.5" ry="48" fill="#BADDFF"/>
<ellipse id="Ellipse 225" cx="218" cy="202.5" rx="11" ry="10.5" fill="url(#paint2_linear_343_6883)"/>
<ellipse id="Ellipse 227" cx="273.5" cy="215" rx="13.5" ry="14" fill="url(#paint3_linear_343_6883)"/>
<circle id="Ellipse 226" cx="232.5" cy="248.5" r="17.5" fill="url(#paint4_linear_343_6883)"/>
<path id="Ellipse 224" d="M284.916 188.884C295.506 185.477 302.722 184.832 304.389 187.719C308.09 194.128 283.031 215.524 248.418 235.508C213.806 255.491 182.747 266.495 179.046 260.085C177.316 257.088 181.874 250.814 190.756 242.94" stroke="#5CB2FF" stroke-width="6" stroke-linecap="round"/>
<path id="Ellipse 229" d="M287.435 190.225C298.026 186.818 305.242 186.173 306.908 189.059C310.609 195.469 285.55 216.865 250.938 236.848C216.325 256.832 185.266 267.836 181.566 261.426C179.835 258.429 184.393 252.155 193.276 244.281" stroke="#F6FAFE" stroke-width="6" stroke-linecap="round"/>
<path id="Ellipse 223" d="M286.256 190.225C296.847 186.818 304.062 186.173 305.729 189.059C309.43 195.469 284.371 216.865 249.758 236.848C215.146 256.832 184.087 267.836 180.386 261.426C178.656 258.429 183.214 252.155 192.096 244.281" stroke="#BADDFF" stroke-width="6" stroke-linecap="round"/>
<path id="Vector 30" d="M312.101 183C321.477 176.697 325.744 150.133 306.161 150.133C291.873 150.133 285.469 165.768 292.455 170.844C301.831 177.656 316.331 133.125 301.831 129.872C287.332 126.619 281.968 147.894 214.547 136.688C182.042 131.285 136.33 102.258 121 88" stroke="#5CB2FF" stroke-dasharray="2 2"/>
<path id="Vector 6" d="M131.591 91.8538L73.4453 67.6493L131.591 111.827L131.591 91.8538Z" fill="#5CB2FF"/>
<path id="Vector 4" d="M142.839 79.9463L73.445 67.6512L131.619 92.2491L142.839 79.9463Z" fill="#BADDFF"/>
<path id="Vector 5" d="M110.415 117.179L73.3587 67.6567L127.582 96.9279L110.415 117.179Z" fill="#BADDFF"/>
</g>
</g>
<defs>
<linearGradient id="paint0_linear_343_6883" x1="240" y1="37.4409" x2="240" y2="298" gradientUnits="userSpaceOnUse">
<stop stop-color="#0C83F2" stop-opacity="0.2"/>
<stop offset="1" stop-color="#0C83F2" stop-opacity="0"/>
</linearGradient>
<linearGradient id="paint1_linear_343_6883" x1="240" y1="222" x2="240" y2="367.344" gradientUnits="userSpaceOnUse">
<stop stop-color="#0C83F2" stop-opacity="0.08"/>
<stop offset="1" stop-color="#0C83F2" stop-opacity="0"/>
</linearGradient>
<linearGradient id="paint2_linear_343_6883" x1="209.895" y1="194.333" x2="225.649" y2="210.548" gradientUnits="userSpaceOnUse">
<stop stop-color="#5CB2FF" stop-opacity="0.5"/>
<stop offset="1" stop-color="#5CB2FF" stop-opacity="0"/>
</linearGradient>
<linearGradient id="paint3_linear_343_6883" x1="263.522" y1="205.87" x2="283.526" y2="223.406" gradientUnits="userSpaceOnUse">
<stop stop-color="#5CB2FF" stop-opacity="0.5"/>
<stop offset="1" stop-color="#5CB2FF" stop-opacity="0"/>
</linearGradient>
<linearGradient id="paint4_linear_343_6883" x1="222" y1="233.917" x2="242.417" y2="261.333" gradientUnits="userSpaceOnUse">
<stop stop-color="#5CB2FF" stop-opacity="0.5"/>
<stop offset="1" stop-color="#5CB2FF" stop-opacity="0"/>
</linearGradient>
</defs>
</svg>
