<svg width="1920" height="772" viewBox="0 0 1920 772" fill="none" xmlns="http://www.w3.org/2000/svg">
<mask id="mask0_479_5601" style="mask-type:alpha" maskUnits="userSpaceOnUse" x="0" y="0" width="1920" height="772">
<path d="M0 0H1920V772H0V0Z" fill="#F8FEFF"/>
</mask>
<g mask="url(#mask0_479_5601)">
<path d="M1551 317.82C1744.43 167.065 2004.4 132.12 2139.96 140.639C2140.49 140.672 2140.87 141.112 2140.87 141.643L2130.85 1258.6C2130.85 1259.18 2130.35 1259.64 2129.77 1259.59L-27.9818 1092.18C-28.3955 1092.15 -28.7399 1091.88 -28.8736 1091.48C-39.3262 1060.77 -146.994 1038.41 -77.8124 848.084C-1.13219 637.124 307.265 522.013 696.123 583.207C1084.98 644.401 1357.14 468.916 1551 317.82Z" stroke="#EAEEFF" stroke-opacity="0.5" stroke-width="2" stroke-linecap="round"/>
<path d="M1522.32 282.817C1715.75 132.062 1975.71 97.1168 2111.27 105.635C2111.8 105.669 2112.19 106.109 2112.18 106.64L2102.17 1223.6C2102.16 1224.18 2101.67 1224.63 2101.09 1224.59L-56.6657 1057.18C-57.0795 1057.15 -57.4239 1056.87 -57.5576 1056.48C-68.0101 1025.77 -175.678 1003.41 -106.496 813.081C-29.8162 602.121 278.581 487.009 667.439 548.204C1056.3 609.398 1328.45 433.913 1522.32 282.817Z" stroke="#EAEEFF" stroke-opacity="0.5" stroke-width="2" stroke-linecap="round"/>
<path d="M1493.64 247.813C1687.06 97.0589 1947.03 62.1135 2082.59 70.6322C2083.12 70.6655 2083.5 71.106 2083.5 71.6367L2073.48 1188.6C2073.48 1189.18 2072.98 1189.63 2072.41 1189.59L-85.3497 1022.18C-85.7634 1022.14 -86.1078 1021.87 -86.2415 1021.48C-96.6941 990.764 -204.362 968.407 -135.18 778.078C-58.5001 567.118 249.897 452.006 638.755 513.2C1027.61 574.395 1299.77 398.91 1493.64 247.813Z" stroke="#EAEEFF" stroke-opacity="0.5" stroke-width="2" stroke-linecap="round"/>
<path d="M1536.66 300.318C1730.09 149.564 1990.06 114.618 2125.61 123.137C2126.14 123.17 2126.53 123.611 2126.53 124.142L2116.51 1241.1C2116.5 1241.68 2116.01 1242.13 2115.43 1242.09L-42.3238 1074.68C-42.7376 1074.65 -43.0819 1074.38 -43.2156 1073.98C-53.6682 1043.27 -161.336 1020.91 -92.1545 830.582C-15.4742 619.623 292.923 504.511 681.781 565.705C1070.64 626.9 1342.8 451.414 1536.66 300.318Z" stroke="#EAEEFF" stroke-opacity="0.5" stroke-width="2" stroke-linecap="round"/>
<path d="M1507.98 265.315C1701.41 114.561 1961.37 79.6151 2096.93 88.1338C2097.46 88.1671 2097.85 88.6076 2097.84 89.1383L2087.82 1206.1C2087.82 1206.68 2087.32 1207.13 2086.75 1207.09L-71.0078 1039.68C-71.4215 1039.65 -71.7659 1039.37 -71.8996 1038.98C-82.3522 1008.27 -190.02 985.908 -120.838 795.579C-44.1582 584.62 264.239 469.508 653.097 530.702C1041.96 591.896 1314.11 416.411 1507.98 265.315Z" stroke="#EAEEFF" stroke-opacity="0.5" stroke-width="2" stroke-linecap="round"/>
<path d="M1479.29 230.312C1672.72 79.5574 1932.69 44.6119 2068.25 53.1306C2068.78 53.1639 2069.16 53.6044 2069.16 54.1351L2059.14 1171.1C2059.14 1171.67 2058.64 1172.13 2058.06 1172.08L-99.6917 1004.67C-100.105 1004.64 -100.45 1004.37 -100.584 1003.98C-111.036 973.262 -218.704 950.905 -149.522 760.576C-72.8422 549.616 235.555 434.505 624.413 495.699C1013.27 556.893 1285.43 381.408 1479.29 230.312Z" stroke="#EAEEFF" stroke-opacity="0.5" stroke-width="2" stroke-linecap="round"/>
<path d="M1456.99 212.02C1650.42 61.2659 1910.38 26.3204 2045.94 34.8391C2046.47 34.8724 2046.86 35.3129 2046.85 35.8436L2036.84 1152.8C2036.83 1153.38 2036.34 1153.84 2035.76 1153.79L-121.995 986.383C-122.408 986.351 -122.753 986.078 -122.887 985.685C-133.339 954.971 -241.007 932.613 -171.825 742.284C-95.1451 531.325 213.252 416.213 602.11 477.407C990.968 538.602 1263.12 363.116 1456.99 212.02Z" stroke="#EAEEFF" stroke-opacity="0.5" stroke-width="2" stroke-linecap="round"/>
<path d="M1428.31 177.017C1621.74 26.2624 1881.7 -8.68298 2017.26 -0.164305C2017.79 -0.13103 2018.18 0.309501 2018.17 0.840205L2008.15 1117.8C2008.15 1118.38 2007.65 1118.83 2007.08 1118.79L-150.679 951.379C-151.092 951.347 -151.437 951.074 -151.57 950.681C-162.023 919.967 -269.691 897.61 -200.509 707.281C-123.829 496.321 184.568 381.21 573.426 442.404C962.284 503.598 1234.44 328.113 1428.31 177.017Z" stroke="#EAEEFF" stroke-opacity="0.5" stroke-width="2" stroke-linecap="round"/>
<path d="M1399.62 142.014C1593.05 -8.74074 1853.02 -43.6862 1988.57 -35.1675C1989.1 -35.1342 1989.49 -34.6937 1989.49 -34.163L1979.47 1082.8C1979.46 1083.38 1978.97 1083.83 1978.39 1083.79L-179.363 916.376C-179.776 916.344 -180.121 916.071 -180.254 915.678C-190.707 884.964 -298.375 862.607 -229.193 672.278C-152.513 461.318 155.884 346.206 544.742 407.401C933.6 468.595 1205.76 293.11 1399.62 142.014Z" stroke="#EAEEFF" stroke-opacity="0.5" stroke-width="2" stroke-linecap="round"/>
<path d="M1456.99 212.02C1650.42 61.2659 1910.38 26.3204 2045.94 34.8391C2046.47 34.8724 2046.86 35.3129 2046.85 35.8436L2036.84 1152.8C2036.83 1153.38 2036.34 1153.84 2035.76 1153.79L-121.995 986.383C-122.408 986.351 -122.753 986.078 -122.887 985.685C-133.339 954.971 -241.007 932.613 -171.825 742.284C-95.1451 531.325 213.252 416.213 602.11 477.407C990.968 538.602 1263.12 363.116 1456.99 212.02Z" stroke="#EAEEFF" stroke-opacity="0.5" stroke-width="2" stroke-linecap="round"/>
<path d="M1428.31 177.017C1621.74 26.2624 1881.7 -8.68298 2017.26 -0.164305C2017.79 -0.13103 2018.18 0.309501 2018.17 0.840205L2008.15 1117.8C2008.15 1118.38 2007.65 1118.83 2007.08 1118.79L-150.679 951.379C-151.092 951.347 -151.437 951.074 -151.57 950.681C-162.023 919.967 -269.691 897.61 -200.509 707.281C-123.829 496.321 184.568 381.21 573.426 442.404C962.284 503.598 1234.44 328.113 1428.31 177.017Z" stroke="#EAEEFF" stroke-opacity="0.5" stroke-width="2" stroke-linecap="round"/>
<path d="M1399.62 142.014C1593.05 -8.74074 1853.02 -43.6862 1988.57 -35.1675C1989.1 -35.1342 1989.49 -34.6937 1989.49 -34.163L1979.47 1082.8C1979.46 1083.38 1978.97 1083.83 1978.39 1083.79L-179.363 916.376C-179.776 916.344 -180.121 916.071 -180.254 915.678C-190.707 884.964 -298.375 862.607 -229.193 672.278C-152.513 461.318 155.884 346.206 544.742 407.401C933.6 468.595 1205.76 293.11 1399.62 142.014Z" stroke="#EAEEFF" stroke-opacity="0.5" stroke-width="2" stroke-linecap="round"/>
<path d="M1442.65 194.518C1636.08 43.7641 1896.04 8.81873 2031.6 17.3374C2032.13 17.3707 2032.52 17.8112 2032.51 18.3419L2022.5 1135.3C2022.49 1135.88 2022 1136.34 2021.42 1136.29L-136.337 968.881C-136.75 968.849 -137.095 968.576 -137.228 968.183C-147.681 937.469 -255.349 915.112 -186.167 724.783C-109.487 513.823 198.91 398.711 587.768 459.906C976.626 521.1 1248.78 345.615 1442.65 194.518Z" stroke="#EAEEFF" stroke-opacity="0.5" stroke-width="2" stroke-linecap="round"/>
<path d="M1413.97 159.515C1607.39 8.76097 1867.36 -26.1844 2002.92 -17.6658C2003.45 -17.6325 2003.83 -17.192 2003.83 -16.6613L1993.81 1100.3C1993.81 1100.88 1993.31 1101.33 1992.73 1101.29L-165.021 933.878C-165.434 933.846 -165.779 933.573 -165.913 933.18C-176.365 902.466 -284.033 880.109 -214.851 689.78C-138.171 478.82 170.226 363.708 559.084 424.902C947.942 486.097 1220.1 310.612 1413.97 159.515Z" stroke="#EAEEFF" stroke-opacity="0.5" stroke-width="2" stroke-linecap="round"/>
<path d="M1385.28 124.512C1578.71 -26.2424 1838.67 -61.1879 1974.23 -52.6692C1974.76 -52.6359 1975.15 -52.1954 1975.14 -51.6647L1965.13 1065.3C1965.12 1065.87 1964.63 1066.33 1964.05 1066.28L-193.705 898.874C-194.118 898.842 -194.463 898.569 -194.597 898.176C-205.049 867.462 -312.717 845.105 -243.535 654.776C-166.855 443.817 141.542 328.705 530.4 389.899C919.258 451.093 1191.42 275.608 1385.28 124.512Z" stroke="#EAEEFF" stroke-opacity="0.5" stroke-width="2" stroke-linecap="round"/>
<path d="M1615 381.82C1808.43 231.065 2068.4 196.12 2203.96 204.639C2204.49 204.672 2204.87 205.112 2204.87 205.643L2194.85 1322.6C2194.85 1323.18 2194.35 1323.64 2193.77 1323.59L36.0182 1156.18C35.6045 1156.15 35.2601 1155.88 35.1264 1155.48C24.6738 1124.77 -82.9939 1102.41 -13.8124 912.084C62.8678 701.124 371.265 586.013 760.123 647.207C1148.98 708.401 1421.14 532.916 1615 381.82Z" stroke="#EAEEFF" stroke-opacity="0.5" stroke-width="2" stroke-linecap="round"/>
<path d="M1599 365.82C1792.43 215.065 2052.4 180.12 2187.96 188.639C2188.49 188.672 2188.87 189.112 2188.87 189.643L2178.85 1306.6C2178.85 1307.18 2178.35 1307.64 2177.77 1307.59L20.0182 1140.18C19.6045 1140.15 19.2601 1139.88 19.1264 1139.48C8.67382 1108.77 -98.9939 1086.41 -29.8124 896.084C46.8678 685.124 355.265 570.013 744.123 631.207C1132.98 692.401 1405.14 516.916 1599 365.82Z" stroke="#EAEEFF" stroke-opacity="0.5" stroke-width="2" stroke-linecap="round"/>
<path d="M1583 349.82C1776.43 199.065 2036.4 164.12 2171.96 172.639C2172.49 172.672 2172.87 173.112 2172.87 173.643L2162.85 1290.6C2162.85 1291.18 2162.35 1291.64 2161.77 1291.59L4.01823 1124.18C3.60448 1124.15 3.26009 1123.88 3.1264 1123.48C-7.32618 1092.77 -114.994 1070.41 -45.8124 880.084C30.8678 669.124 339.265 554.013 728.123 615.207C1116.98 676.401 1389.14 500.916 1583 349.82Z" stroke="#EAEEFF" stroke-opacity="0.5" stroke-width="2" stroke-linecap="round"/>
<path d="M1567 333.82C1760.43 183.065 2020.4 148.12 2155.96 156.639C2156.49 156.672 2156.87 157.112 2156.87 157.643L2146.85 1274.6C2146.85 1275.18 2146.35 1275.64 2145.77 1275.59L-11.9818 1108.18C-12.3955 1108.15 -12.7399 1107.88 -12.8736 1107.48C-23.3262 1076.77 -130.994 1054.41 -61.8124 864.084C14.8678 653.124 323.265 538.013 712.123 599.207C1100.98 660.401 1373.14 484.916 1567 333.82Z" stroke="#EAEEFF" stroke-opacity="0.5" stroke-width="2" stroke-linecap="round"/>
<path d="M1551 317.82C1744.43 167.065 2004.4 132.12 2139.96 140.639C2140.49 140.672 2140.87 141.112 2140.87 141.643L2130.85 1258.6C2130.85 1259.18 2130.35 1259.64 2129.77 1259.59L-27.9818 1092.18C-28.3955 1092.15 -28.7399 1091.88 -28.8736 1091.48C-39.3262 1060.77 -146.994 1038.41 -77.8124 848.084C-1.13219 637.124 307.265 522.013 696.123 583.207C1084.98 644.401 1357.14 468.916 1551 317.82Z" stroke="#EAEEFF" stroke-opacity="0.5" stroke-width="2" stroke-linecap="round"/>
<path d="M1522.32 282.817C1715.75 132.062 1975.71 97.1168 2111.27 105.635C2111.8 105.669 2112.19 106.109 2112.18 106.64L2102.17 1223.6C2102.16 1224.18 2101.67 1224.63 2101.09 1224.59L-56.6657 1057.18C-57.0795 1057.15 -57.4239 1056.87 -57.5576 1056.48C-68.0101 1025.77 -175.678 1003.41 -106.496 813.081C-29.8162 602.121 278.581 487.009 667.439 548.204C1056.3 609.398 1328.45 433.913 1522.32 282.817Z" stroke="#EAEEFF" stroke-opacity="0.5" stroke-width="2" stroke-linecap="round"/>
<path d="M1493.64 247.813C1687.06 97.0589 1947.03 62.1135 2082.59 70.6322C2083.12 70.6655 2083.5 71.106 2083.5 71.6367L2073.48 1188.6C2073.48 1189.18 2072.98 1189.63 2072.41 1189.59L-85.3497 1022.18C-85.7634 1022.14 -86.1078 1021.87 -86.2415 1021.48C-96.6941 990.764 -204.362 968.407 -135.18 778.078C-58.5001 567.118 249.897 452.006 638.755 513.2C1027.61 574.395 1299.77 398.91 1493.64 247.813Z" stroke="#EAEEFF" stroke-opacity="0.5" stroke-width="2" stroke-linecap="round"/>
<path d="M1536.66 300.318C1730.09 149.564 1990.06 114.618 2125.61 123.137C2126.14 123.17 2126.53 123.611 2126.53 124.142L2116.51 1241.1C2116.5 1241.68 2116.01 1242.13 2115.43 1242.09L-42.3238 1074.68C-42.7376 1074.65 -43.0819 1074.38 -43.2156 1073.98C-53.6682 1043.27 -161.336 1020.91 -92.1545 830.582C-15.4742 619.623 292.923 504.511 681.781 565.705C1070.64 626.9 1342.8 451.414 1536.66 300.318Z" stroke="#EAEEFF" stroke-opacity="0.5" stroke-width="2" stroke-linecap="round"/>
<path d="M1507.98 265.315C1701.41 114.561 1961.37 79.6151 2096.93 88.1338C2097.46 88.1671 2097.85 88.6076 2097.84 89.1383L2087.82 1206.1C2087.82 1206.68 2087.32 1207.13 2086.75 1207.09L-71.0078 1039.68C-71.4215 1039.65 -71.7659 1039.37 -71.8996 1038.98C-82.3522 1008.27 -190.02 985.908 -120.838 795.579C-44.1582 584.62 264.239 469.508 653.097 530.702C1041.96 591.896 1314.11 416.411 1507.98 265.315Z" stroke="#EAEEFF" stroke-opacity="0.5" stroke-width="2" stroke-linecap="round"/>
<path d="M1479.29 230.312C1672.72 79.5574 1932.69 44.6119 2068.25 53.1306C2068.78 53.1639 2069.16 53.6044 2069.16 54.1351L2059.14 1171.1C2059.14 1171.67 2058.64 1172.13 2058.06 1172.08L-99.6917 1004.67C-100.105 1004.64 -100.45 1004.37 -100.584 1003.98C-111.036 973.262 -218.704 950.905 -149.522 760.576C-72.8422 549.616 235.555 434.505 624.413 495.699C1013.27 556.893 1285.43 381.408 1479.29 230.312Z" stroke="#EAEEFF" stroke-opacity="0.5" stroke-width="2" stroke-linecap="round"/>
<path d="M1456.99 212.02C1650.42 61.2659 1910.38 26.3204 2045.94 34.8391C2046.47 34.8724 2046.86 35.3129 2046.85 35.8436L2036.84 1152.8C2036.83 1153.38 2036.34 1153.84 2035.76 1153.79L-121.995 986.383C-122.408 986.351 -122.753 986.078 -122.887 985.685C-133.339 954.971 -241.007 932.613 -171.825 742.284C-95.1451 531.325 213.252 416.213 602.11 477.407C990.968 538.602 1263.12 363.116 1456.99 212.02Z" stroke="#EAEEFF" stroke-opacity="0.5" stroke-width="2" stroke-linecap="round"/>
<path d="M1428.31 177.017C1621.74 26.2624 1881.7 -8.68298 2017.26 -0.164305C2017.79 -0.13103 2018.18 0.309501 2018.17 0.840205L2008.15 1117.8C2008.15 1118.38 2007.65 1118.83 2007.08 1118.79L-150.679 951.379C-151.092 951.347 -151.437 951.074 -151.57 950.681C-162.023 919.967 -269.691 897.61 -200.509 707.281C-123.829 496.321 184.568 381.21 573.426 442.404C962.284 503.598 1234.44 328.113 1428.31 177.017Z" stroke="#EAEEFF" stroke-opacity="0.5" stroke-width="2" stroke-linecap="round"/>
<path d="M1399.62 142.014C1593.05 -8.74074 1853.02 -43.6862 1988.57 -35.1675C1989.1 -35.1342 1989.49 -34.6937 1989.49 -34.163L1979.47 1082.8C1979.46 1083.38 1978.97 1083.83 1978.39 1083.79L-179.363 916.376C-179.776 916.344 -180.121 916.071 -180.254 915.678C-190.707 884.964 -298.375 862.607 -229.193 672.278C-152.513 461.318 155.884 346.206 544.742 407.401C933.6 468.595 1205.76 293.11 1399.62 142.014Z" stroke="#EAEEFF" stroke-opacity="0.5" stroke-width="2" stroke-linecap="round"/>
<path d="M1456.99 212.02C1650.42 61.2659 1910.38 26.3204 2045.94 34.8391C2046.47 34.8724 2046.86 35.3129 2046.85 35.8436L2036.84 1152.8C2036.83 1153.38 2036.34 1153.84 2035.76 1153.79L-121.995 986.383C-122.408 986.351 -122.753 986.078 -122.887 985.685C-133.339 954.971 -241.007 932.613 -171.825 742.284C-95.1451 531.325 213.252 416.213 602.11 477.407C990.968 538.602 1263.12 363.116 1456.99 212.02Z" stroke="#EAEEFF" stroke-opacity="0.5" stroke-width="2" stroke-linecap="round"/>
<path d="M1428.31 177.017C1621.74 26.2624 1881.7 -8.68298 2017.26 -0.164305C2017.79 -0.13103 2018.18 0.309501 2018.17 0.840205L2008.15 1117.8C2008.15 1118.38 2007.65 1118.83 2007.08 1118.79L-150.679 951.379C-151.092 951.347 -151.437 951.074 -151.57 950.681C-162.023 919.967 -269.691 897.61 -200.509 707.281C-123.829 496.321 184.568 381.21 573.426 442.404C962.284 503.598 1234.44 328.113 1428.31 177.017Z" stroke="#EAEEFF" stroke-opacity="0.5" stroke-width="2" stroke-linecap="round"/>
<path d="M1399.62 142.014C1593.05 -8.74074 1853.02 -43.6862 1988.57 -35.1675C1989.1 -35.1342 1989.49 -34.6937 1989.49 -34.163L1979.47 1082.8C1979.46 1083.38 1978.97 1083.83 1978.39 1083.79L-179.363 916.376C-179.776 916.344 -180.121 916.071 -180.254 915.678C-190.707 884.964 -298.375 862.607 -229.193 672.278C-152.513 461.318 155.884 346.206 544.742 407.401C933.6 468.595 1205.76 293.11 1399.62 142.014Z" stroke="#EAEEFF" stroke-opacity="0.5" stroke-width="2" stroke-linecap="round"/>
<path d="M1442.65 194.518C1636.08 43.7641 1896.04 8.81873 2031.6 17.3374C2032.13 17.3707 2032.52 17.8112 2032.51 18.3419L2022.5 1135.3C2022.49 1135.88 2022 1136.34 2021.42 1136.29L-136.337 968.881C-136.75 968.849 -137.095 968.576 -137.228 968.183C-147.681 937.469 -255.349 915.112 -186.167 724.783C-109.487 513.823 198.91 398.711 587.768 459.906C976.626 521.1 1248.78 345.615 1442.65 194.518Z" stroke="#EAEEFF" stroke-opacity="0.5" stroke-width="2" stroke-linecap="round"/>
<path d="M1413.97 159.515C1607.39 8.76097 1867.36 -26.1844 2002.92 -17.6658C2003.45 -17.6325 2003.83 -17.192 2003.83 -16.6613L1993.81 1100.3C1993.81 1100.88 1993.31 1101.33 1992.73 1101.29L-165.021 933.878C-165.434 933.846 -165.779 933.573 -165.913 933.18C-176.365 902.466 -284.033 880.109 -214.851 689.78C-138.171 478.82 170.226 363.708 559.084 424.902C947.942 486.097 1220.1 310.612 1413.97 159.515Z" stroke="#EAEEFF" stroke-opacity="0.5" stroke-width="2" stroke-linecap="round"/>
<path d="M1385.28 124.512C1578.71 -26.2424 1838.67 -61.1879 1974.23 -52.6692C1974.76 -52.6359 1975.15 -52.1954 1975.14 -51.6647L1965.13 1065.3C1965.12 1065.87 1964.63 1066.33 1964.05 1066.28L-193.705 898.874C-194.118 898.842 -194.463 898.569 -194.597 898.176C-205.049 867.462 -312.717 845.105 -243.535 654.776C-166.855 443.817 141.542 328.705 530.4 389.899C919.258 451.093 1191.42 275.608 1385.28 124.512Z" stroke="#EAEEFF" stroke-opacity="0.5" stroke-width="2" stroke-linecap="round"/>
</g>
</svg>
