<svg width="24" height="24" viewBox="0 0 24 24" fill="none" xmlns="http://www.w3.org/2000/svg">
<g clip-path="url(#clip0_442_9520)">
<path fill-rule="evenodd" clip-rule="evenodd" d="M0 12C0 5.4 5.4 0 12 0C18.6 0 24 5.4 24 12C24 18.6 18.6 24 12 24C5.4 24 0 18.6 0 12ZM16.3835 5.7656C16.3411 5.66609 16.2789 5.57568 16.2005 5.49953C16.1222 5.42336 16.0291 5.36293 15.9268 5.32171C15.8244 5.28048 15.7146 5.25926 15.6038 5.25926C15.493 5.25926 15.3833 5.28048 15.2809 5.32171C15.1785 5.36293 15.0855 5.42336 15.0071 5.49953L13.2177 7.23937C13.1644 7.29054 13.1191 7.34827 13.0834 7.40863H10.9146C10.8788 7.34827 10.8343 7.29185 10.7809 7.24002L8.99085 5.50019C8.91299 5.42188 8.81987 5.35944 8.71692 5.31649C8.61397 5.27354 8.50324 5.25094 8.39121 5.25003C8.27918 5.24911 8.16808 5.26989 8.0644 5.31116C7.96072 5.35242 7.86653 5.41333 7.78733 5.49035C7.70813 5.56737 7.6455 5.65895 7.60311 5.75975C7.56071 5.86054 7.5394 5.96853 7.5404 6.07742C7.54141 6.1863 7.56471 6.2939 7.60896 6.39394C7.65321 6.49398 7.71752 6.58445 7.79812 6.66008L8.5683 7.40928H7.78125C7.10992 7.40928 6.46609 7.66848 5.99139 8.12985C5.51668 8.59123 5.25 9.21698 5.25 9.86946V14.7898C5.25 15.4423 5.51668 16.0681 5.99139 16.5294C6.46609 16.9908 7.10992 17.25 7.78125 17.25H16.2188C16.8901 17.25 17.5339 16.9908 18.0086 16.5294C18.4833 16.0681 18.75 15.4423 18.75 14.7898V9.86946C18.7501 9.54633 18.6847 9.22635 18.5575 8.92779C18.4303 8.62923 18.2439 8.35795 18.0089 8.12943C17.7738 7.90091 17.4947 7.71964 17.1876 7.59596C16.8804 7.47229 16.5512 7.40863 16.2188 7.40863H15.429L16.2005 6.65942C16.2789 6.58327 16.3411 6.49286 16.3835 6.39335C16.4259 6.29384 16.4477 6.18719 16.4477 6.07948C16.4477 5.97177 16.4259 5.86511 16.3835 5.7656ZM7.20705 9.27421C7.36317 9.13343 7.56829 9.05523 7.78125 9.05531H16.2188V9.05596C16.6845 9.05596 17.0625 9.42335 17.0625 9.87602V14.7964L17.0605 14.8574C17.0446 15.0638 16.9491 15.2568 16.7929 15.3975C16.6368 15.5383 16.4317 15.6165 16.2188 15.6164H7.78125L7.71847 15.6138C7.28175 15.583 6.9375 15.2287 6.9375 14.7964V9.87602L6.93952 9.81436C6.95537 9.60794 7.05094 9.41499 7.20705 9.27421ZM10.3125 11.5155C10.3125 11.0628 9.9345 10.6954 9.46875 10.6954C9.003 10.6954 8.625 11.0628 8.625 11.5155V12.3355C8.625 12.553 8.71389 12.7616 8.87213 12.9154C9.03036 13.0692 9.24497 13.1556 9.46875 13.1556C9.69253 13.1556 9.90714 13.0692 10.0654 12.9154C10.2236 12.7616 10.3125 12.553 10.3125 12.3355V11.5155ZM15.375 11.5155C15.375 11.0628 14.997 10.6954 14.5312 10.6954C14.0655 10.6954 13.6875 11.0628 13.6875 11.5155V12.3355C13.6875 12.553 13.7764 12.7616 13.9346 12.9154C14.0929 13.0692 14.3075 13.1556 14.5312 13.1556C14.755 13.1556 14.9696 13.0692 15.1279 12.9154C15.2861 12.7616 15.375 12.553 15.375 12.3355V11.5155Z" fill="#3F51B5"/>
</g>
<defs>
<clipPath id="clip0_442_9520">
<rect width="24" height="24" fill="white"/>
</clipPath>
</defs>
</svg>
