<svg width="24" height="24" viewBox="0 0 24 24" fill="none" xmlns="http://www.w3.org/2000/svg">
<g clip-path="url(#clip0_442_9513)">
<path fill-rule="evenodd" clip-rule="evenodd" d="M24 12C24 18.6274 18.6274 24 12 24C5.37258 24 0 18.6274 0 12C0 5.37258 5.37258 0 12 0C18.6274 0 24 5.37258 24 12ZM17.157 8.40288C17.7069 8.33978 18.2439 8.19798 18.75 7.98223C18.3875 8.51198 17.9305 8.9764 17.4 9.35421V9.69721C17.4072 10.6931 17.2075 11.6804 16.8125 12.6016C16.4175 13.5227 15.8351 14.3592 15.0993 15.0622C14.3636 15.7652 13.4891 16.3207 12.527 16.6963C11.5649 17.0718 10.5345 17.2599 9.49575 17.2496C7.99065 17.2515 6.51677 16.8381 5.25 16.0588C5.47402 16.0844 5.6994 16.0973 5.925 16.0976C7.17509 16.0964 8.38811 15.6905 9.3675 14.9457C8.78902 14.935 8.22844 14.7515 7.76383 14.4209C7.29923 14.0903 6.95374 13.629 6.7755 13.1013C6.94233 13.132 7.11187 13.1472 7.28175 13.1466C7.50997 13.1455 7.73701 13.1151 7.95675 13.056C7.32633 12.9371 6.75691 12.616 6.34223 12.1455C5.92754 11.675 5.69231 11.0831 5.67525 10.4673V10.435C5.67525 10.6356 6.5325 10.7521 6.9915 10.765C6.61891 10.5206 6.31619 10.1906 6.11101 9.80508C5.90582 9.41955 5.80474 8.99086 5.817 8.5582C5.81736 8.08953 5.94783 7.62939 6.195 7.22505C6.88987 8.04712 7.75745 8.71976 8.74131 9.1992C9.72517 9.67865 10.8033 9.95417 11.9055 10.0078C11.8571 9.81057 11.8322 9.60865 11.8313 9.40599C11.8307 8.87458 11.9966 8.35526 12.3074 7.91529C12.6183 7.47532 13.0598 7.13498 13.5747 6.93834C14.0896 6.7417 14.6542 6.69783 15.1955 6.81241C15.7367 6.927 16.2296 7.19475 16.6102 7.58099C17.2316 7.46291 17.8274 7.24405 18.372 6.93383C18.1664 7.54867 17.7346 8.07082 17.157 8.40288Z" fill="#3F51B5"/>
</g>
<defs>
<clipPath id="clip0_442_9513">
<rect width="24" height="24" fill="white"/>
</clipPath>
</defs>
</svg>
