<svg width="24" height="24" viewBox="0 0 24 24" fill="none" xmlns="http://www.w3.org/2000/svg">
<g clip-path="url(#clip0_442_9517)">
<path d="M14.25 11.9999L10.575 14.0999V9.8999L14.25 11.9999Z" fill="#3F51B5"/>
<path d="M12 0C5.4 0 0 5.4 0 12C0 18.6 5.4 24 12 24C18.6 24 24 18.6 24 12C24 5.4 18.6 0 12 0ZM18.075 15.375C17.925 15.975 17.4 16.425 16.8 16.575C15.675 16.875 12 16.875 12 16.875C12 16.875 8.325 16.875 7.2 16.575C6.6 16.425 6.075 15.975 5.925 15.375C5.625 14.25 5.625 12 5.625 12C5.625 12 5.625 9.75 5.925 8.625C6.075 8.025 6.6 7.575 7.2 7.425C8.325 7.125 12 7.125 12 7.125C12 7.125 15.675 7.125 16.8 7.425C17.4 7.575 17.925 8.025 18.075 8.625C18.375 9.675 18.375 12 18.375 12C18.375 12 18.375 14.25 18.075 15.375Z" fill="#3F51B5"/>
</g>
<defs>
<clipPath id="clip0_442_9517">
<rect width="24" height="24" fill="white"/>
</clipPath>
</defs>
</svg>
