<svg width="30" height="36" viewBox="0 0 30 36" fill="none" xmlns="http://www.w3.org/2000/svg">
<path d="M15.0008 0.5C7.15078 0.5 0.800781 6.8 0.800781 14.55C0.800781 23.2 9.25078 30.75 13.8008 35C14.5008 35.65 15.5508 35.65 16.2508 35C20.6508 30.85 29.2508 23.15 29.2508 14.55C29.2508 6.8 22.8508 0.5 15.0008 0.5ZM15.0008 19.85C12.0508 19.85 9.65078 17.5 9.65078 14.55C9.65078 11.6 12.0508 9.3 15.0008 9.3C17.9508 9.3 20.3508 11.65 20.3508 14.6C20.3508 17.55 17.9508 19.85 15.0008 19.85Z" fill="#0C83F2"/>
</svg>
