<svg width="282" height="224" viewBox="0 0 282 224" fill="none" xmlns="http://www.w3.org/2000/svg">
<g id="illustration_error">
<path id="Vector 29" d="M70.0494 115.773C67.2887 102.388 71.4297 51.5268 72.8101 46.173C69.7181 41.8899 63.2396 40.8188 60.3868 40.8186C52.3807 40.8186 49.0679 43.1987 47.4114 46.7673C50.0617 55.0955 50.3562 99.6116 50.1722 120.829H45.2029V99.1158H42.166V90.4902H39.4053V85.4338H36.0925V79.7826H34.7121V85.4338H31.3992V90.4902H28.6385V99.1158H25.8778V124.993H23.117V93.1671H13.1784V117.557H10.9698V106.849H9.86555V105.065H2.68766V106.849H1.58337V120.531L1.58337 187.833C17.625 170.889 60.1108 127.9 140.172 127.9C220.233 127.9 270.478 175.596 280.417 187.833V106.85H279.312V105.363H272.963V106.85H272.135V124.993H270.478V102.686H261.92V122.614H261.092C259.987 102.884 257.006 61.7586 253.914 55.0961C249.717 63.1863 246.644 103.479 245.632 122.614L242.871 120.531V85.4344H240.662V90.7882H237.625V85.4344H235.693V120.531H232.932V52.2771L220.233 47.8156V64.472L211.123 61.4976V115.773H205.325V49.7721H198.975V39.3619H190.417V49.7721H183.515V120.829C182.319 119.143 179.926 115.059 179.926 112.204C175.951 88.8846 178.27 44.8773 179.926 30.7985H159.773C164.411 44.8369 163.362 90.6883 162.258 106.849H153.975C154.988 106.849 156.957 99.5324 156.736 70.2652C156.515 40.9981 149.65 32.6895 146.245 32.1936L145.357 21.3611L144.589 32.1936C136.307 34.8256 136.307 61.0447 136.307 70.2652C136.307 87.1181 137.515 99.1158 140.172 106.849H131.89V17.9167H125.017L122.256 27.4346L118.115 17.9167H112.841V112.204L102.626 99.1158V46.7673L96.5524 23.2705H84.1291V36.3577H81.3684L78.8837 40.8186V53.3114H76.123V115.773" stroke="url(#paint0_linear_2559_11222)" stroke-width="2"/>
<path id="Ellipse 228" d="M281 203.583H1C1.5 173.5 63.6801 125.5 141 125.5C218.32 125.5 281 176 281 203.583Z" fill="url(#paint1_linear_2559_11222)"/>
<g id="Group 952">
<rect id="Rectangle 967" x="83" y="87" width="112" height="80" rx="6" fill="#5CB2FF"/>
<path id="Rectangle 964" d="M81 90C81 86.6863 83.6863 84 87 84H187C190.314 84 193 86.6863 193 90V158C193 161.314 190.314 164 187 164H87C83.6863 164 81 161.314 81 158V90Z" fill="white"/>
<path id="Rectangle 964 (Stroke)" fill-rule="evenodd" clip-rule="evenodd" d="M187 85H87C84.2386 85 82 87.2386 82 90V158C82 160.761 84.2386 163 87 163H187C189.761 163 192 160.761 192 158V90C192 87.2386 189.761 85 187 85ZM87 84C83.6863 84 81 86.6863 81 90V158C81 161.314 83.6863 164 87 164H187C190.314 164 193 161.314 193 158V90C193 86.6863 190.314 84 187 84H87Z" fill="#D7EBFF"/>
<path id="Vector 78" d="M181 158H93V133C106.106 136.061 109.851 146.776 116.872 146.776C123.894 146.776 128.574 139.122 137.468 139.122C146.362 139.122 150.574 149.327 155.723 149.327C160.872 149.327 173.511 135.551 181 135.551V158Z" fill="#EAF5FF"/>
<rect id="Rectangle 968" x="93" y="102" width="36" height="25" rx="4" fill="#EAF5FF"/>
<rect id="Rectangle 970" x="139" y="103" width="39" height="4" rx="2" fill="#EAF5FF"/>
<rect id="Rectangle 971" x="139" y="113" width="28" height="4" rx="2" fill="#EAF5FF"/>
<rect id="Rectangle 972" x="139" y="123" width="42" height="4" rx="2" fill="#EAF5FF"/>
<path id="Rectangle 966" d="M81 90C81 86.6863 83.6863 84 87 84H187C190.314 84 193 86.6863 193 90V94H81V90Z" fill="#EAF5FF"/>
<path id="Rectangle 966 (Stroke)" fill-rule="evenodd" clip-rule="evenodd" d="M187 85H87C84.2386 85 82 87.2386 82 90V93H192V90C192 87.2386 189.761 85 187 85ZM87 84C83.6863 84 81 86.6863 81 90V94H193V90C193 86.6863 190.314 84 187 84H87Z" fill="#D7EBFF"/>
<path id="Ellipse 359" d="M179 89.5C179 90.3284 178.328 91 177.5 91C176.672 91 176 90.3284 176 89.5C176 88.6716 176.672 88 177.5 88C178.328 88 179 88.6716 179 89.5Z" fill="white"/>
<path id="Ellipse 359 (Stroke)" fill-rule="evenodd" clip-rule="evenodd" d="M180 89.5C180 90.8807 178.881 92 177.5 92C176.119 92 175 90.8807 175 89.5C175 88.1193 176.119 87 177.5 87C178.881 87 180 88.1193 180 89.5ZM177.5 91C178.328 91 179 90.3284 179 89.5C179 88.6716 178.328 88 177.5 88C176.672 88 176 88.6716 176 89.5C176 90.3284 176.672 91 177.5 91Z" fill="#D7EBFF"/>
<path id="Ellipse 360" d="M173 89.5C173 90.3284 172.328 91 171.5 91C170.672 91 170 90.3284 170 89.5C170 88.6716 170.672 88 171.5 88C172.328 88 173 88.6716 173 89.5Z" fill="white"/>
<path id="Ellipse 360 (Stroke)" fill-rule="evenodd" clip-rule="evenodd" d="M174 89.5C174 90.8807 172.881 92 171.5 92C170.119 92 169 90.8807 169 89.5C169 88.1193 170.119 87 171.5 87C172.881 87 174 88.1193 174 89.5ZM171.5 91C172.328 91 173 90.3284 173 89.5C173 88.6716 172.328 88 171.5 88C170.672 88 170 88.6716 170 89.5C170 90.3284 170.672 91 171.5 91Z" fill="#D7EBFF"/>
<path id="Ellipse 361" d="M185 89.5C185 90.3284 184.328 91 183.5 91C182.672 91 182 90.3284 182 89.5C182 88.6716 182.672 88 183.5 88C184.328 88 185 88.6716 185 89.5Z" fill="white"/>
<path id="Ellipse 361 (Stroke)" fill-rule="evenodd" clip-rule="evenodd" d="M186 89.5C186 90.8807 184.881 92 183.5 92C182.119 92 181 90.8807 181 89.5C181 88.1193 182.119 87 183.5 87C184.881 87 186 88.1193 186 89.5ZM183.5 91C184.328 91 185 90.3284 185 89.5C185 88.6716 184.328 88 183.5 88C182.672 88 182 88.6716 182 89.5C182 90.3284 182.672 91 183.5 91Z" fill="#D7EBFF"/>
</g>
<g id="Group 736">
<path id="Vector 30 (Stroke)" fill-rule="evenodd" clip-rule="evenodd" d="M98.7393 104.985C98.4914 104.753 98.2457 104.524 98.002 104.297L98.683 103.565C98.9277 103.793 99.1742 104.023 99.4227 104.255L98.7393 104.985ZM100.922 107.04C100.686 106.817 100.451 106.595 100.219 106.377L100.905 105.649C101.139 105.87 101.373 106.091 101.609 106.313C101.863 106.553 102.119 106.795 102.379 107.039L101.693 107.767C101.435 107.524 101.177 107.281 100.922 107.04ZM104.659 110.545C104.156 110.078 103.66 109.615 103.172 109.158L103.856 108.428C104.343 108.885 104.837 109.346 105.339 109.811L104.659 110.545ZM107.664 113.285C107.154 112.829 106.652 112.375 106.157 111.923L106.831 111.184C107.324 111.634 107.824 112.086 108.331 112.54L107.664 113.285ZM110.727 115.964C110.207 115.521 109.693 115.077 109.187 114.634L109.846 113.881C110.349 114.322 110.859 114.763 111.376 115.203L110.727 115.964ZM113.867 118.561C113.333 118.134 112.806 117.705 112.287 117.275L112.924 116.504C113.44 116.931 113.963 117.357 114.492 117.781L113.867 118.561ZM117.093 121.055C116.544 120.647 116.003 120.236 115.468 119.822L116.08 119.031C116.61 119.441 117.146 119.848 117.689 120.252L117.093 121.055ZM120.414 123.424C119.849 123.038 119.291 122.649 118.741 122.256L119.322 121.442C119.867 121.831 120.419 122.217 120.977 122.598L120.414 123.424ZM123.835 125.648C123.253 125.289 122.679 124.924 122.111 124.555L122.657 123.717C123.218 124.082 123.786 124.442 124.36 124.797L123.835 125.648ZM127.359 127.708C126.76 127.378 126.169 127.042 125.584 126.7L126.089 125.836C126.666 126.174 127.251 126.506 127.842 126.832L127.359 127.708ZM130.987 129.584C130.371 129.287 129.763 128.982 129.161 128.67L129.62 127.782C130.214 128.09 130.815 128.39 131.423 128.684L130.987 129.584ZM134.715 131.259C134.083 130.996 133.458 130.726 132.839 130.448L133.249 129.536C133.859 129.81 134.475 130.077 135.099 130.336L134.715 131.259ZM138.534 132.715C137.887 132.49 137.247 132.257 136.614 132.015L136.97 131.081C137.594 131.319 138.225 131.549 138.863 131.77L138.534 132.715ZM142.434 133.938C141.774 133.753 141.121 133.559 140.475 133.356L140.774 132.402C141.411 132.602 142.054 132.793 142.704 132.975L142.434 133.938ZM146.402 134.919C145.731 134.775 145.067 134.622 144.41 134.459L144.65 133.489C145.297 133.649 145.951 133.8 146.611 133.942L146.402 134.919ZM149.418 135.493C149.079 135.437 148.742 135.378 148.406 135.317L148.586 134.333C148.916 134.393 149.248 134.451 149.582 134.507C149.912 134.562 150.241 134.615 150.572 134.666L150.417 135.654C150.084 135.602 149.751 135.549 149.418 135.493ZM154.423 136.21C153.754 136.129 153.086 136.042 152.418 135.95L152.555 134.959C153.217 135.051 153.88 135.137 154.543 135.217L154.423 136.21ZM206.782 136.317C206.136 136.306 205.466 136.303 204.775 136.306L204.77 135.306C205.468 135.303 206.145 135.306 206.799 135.317L206.782 136.317ZM202.766 136.332C202.114 136.345 201.446 136.362 200.762 136.383L200.731 135.383C201.418 135.362 202.09 135.345 202.746 135.332L202.766 136.332ZM210.765 136.519C210.137 136.459 209.473 136.414 208.775 136.38L208.823 135.381C209.534 135.416 210.214 135.462 210.86 135.524L210.765 136.519ZM158.444 136.634C157.774 136.573 157.103 136.508 156.432 136.437L156.537 135.443C157.202 135.513 157.868 135.578 158.534 135.638L158.444 136.634ZM198.754 136.452C198.097 136.477 197.427 136.504 196.745 136.533L196.702 135.534C197.385 135.505 198.057 135.478 198.717 135.453L198.754 136.452ZM194.734 136.622C194.073 136.652 193.402 136.682 192.722 136.713L192.677 135.714C193.356 135.683 194.028 135.653 194.689 135.623L194.734 136.622ZM213.678 136.958C213.373 136.889 213.054 136.827 212.719 136.77L212.885 135.784C213.236 135.843 213.573 135.909 213.897 135.982C214.287 136.069 214.654 136.194 214.997 136.354L214.574 137.26C214.298 137.132 214 137.03 213.678 136.958ZM162.474 136.939C161.803 136.897 161.131 136.851 160.459 136.8L160.534 135.803C161.202 135.853 161.87 135.899 162.536 135.94L162.474 136.939ZM190.71 136.805C190.047 136.835 189.375 136.865 188.697 136.894L188.654 135.895C189.331 135.866 190.002 135.836 190.665 135.806L190.71 136.805ZM186.682 136.979C186.017 137.005 185.345 137.031 184.667 137.056L184.631 136.056C185.307 136.032 185.978 136.006 186.642 135.979L186.682 136.979ZM166.508 137.138C165.837 137.113 165.165 137.084 164.491 137.051L164.54 136.052C165.21 136.085 165.878 136.114 166.545 136.139L166.508 137.138ZM182.651 137.123C181.983 137.144 181.311 137.163 180.633 137.18L180.608 136.181C181.283 136.164 181.954 136.145 182.62 136.124L182.651 137.123ZM170.547 137.244C169.876 137.233 169.203 137.219 168.527 137.202L168.554 136.202C169.225 136.22 169.895 136.234 170.563 136.244L170.547 137.244ZM178.617 137.225C177.949 137.237 177.277 137.247 176.601 137.255L176.59 136.255C177.263 136.247 177.933 136.237 178.599 136.225L178.617 137.225ZM174.584 137.269C173.914 137.271 173.242 137.27 172.566 137.266L172.572 136.266C173.244 136.27 173.914 136.271 174.581 136.269L174.584 137.269ZM217.023 140.087C216.762 139.437 216.438 138.875 216.05 138.41L216.817 137.769C217.284 138.328 217.658 138.986 217.951 139.715L217.023 140.087ZM217.811 144.047C217.77 143.333 217.69 142.655 217.571 142.02L218.553 141.835C218.682 142.517 218.766 143.239 218.809 143.989L217.811 144.047ZM217.679 148.172C217.755 147.468 217.806 146.777 217.829 146.104L218.829 146.139C218.804 146.838 218.752 147.554 218.673 148.279L217.679 148.172ZM217.254 151.002C217.303 150.744 217.349 150.486 217.393 150.228L218.379 150.395C218.261 151.091 218.123 151.79 217.966 152.488L216.99 152.269C217.011 152.179 217.03 152.09 217.05 152C217.033 152 217.017 152 217 152C216.683 152 216.371 152.011 216.065 152.032L215.997 151.034C216.326 151.012 216.66 151 217 151C217.085 151 217.17 151.001 217.254 151.002ZM214.218 152.292C213.594 152.428 212.999 152.607 212.434 152.825L212.074 151.892C212.687 151.656 213.331 151.461 214.006 151.315L214.218 152.292ZM221.692 152.923C221.145 152.671 220.545 152.464 219.89 152.311L220.117 151.337C220.836 151.505 221.5 151.733 222.111 152.015L221.692 152.923ZM210.757 153.627C210.211 153.943 209.701 154.298 209.23 154.682L208.598 153.907C209.109 153.49 209.663 153.105 210.256 152.762L210.757 153.627ZM224.634 155.245C224.249 154.752 223.807 154.303 223.304 153.907L223.923 153.122C224.491 153.569 224.989 154.075 225.422 154.629L224.634 155.245ZM215.875 156.281C216.092 155.627 216.296 154.961 216.483 154.288L217.446 154.556C217.255 155.245 217.047 155.927 216.824 156.596L215.875 156.281ZM207.887 155.968C207.467 156.44 207.094 156.936 206.77 157.448L205.925 156.913C206.278 156.355 206.684 155.815 207.14 155.303L207.887 155.968ZM226.294 158.663C226.122 158.032 225.902 157.429 225.63 156.862L226.532 156.43C226.832 157.056 227.072 157.716 227.259 158.399L226.294 158.663ZM214.356 160.149C214.638 159.537 214.91 158.897 215.168 158.238L216.099 158.602C215.834 159.279 215.555 159.937 215.264 160.568L214.356 160.149ZM205.915 159.091C205.673 159.678 205.493 160.268 205.378 160.849L204.397 160.655C204.525 160.006 204.725 159.353 204.991 158.709L205.915 159.091ZM226.766 162.511C226.769 161.852 226.735 161.2 226.659 160.564L227.652 160.446C227.733 161.126 227.77 161.818 227.766 162.516L226.766 162.511ZM212.347 163.756C212.713 163.223 213.074 162.634 213.424 162L214.299 162.483C213.936 163.142 213.558 163.759 213.171 164.323L212.347 163.756ZM205.232 162.658C205.26 163.279 205.374 163.865 205.573 164.399L204.637 164.75C204.397 164.107 204.265 163.417 204.233 162.703L205.232 162.658ZM226.33 166.402C226.467 165.762 226.574 165.114 226.648 164.465L227.642 164.578C227.564 165.26 227.452 165.941 227.307 166.612L226.33 166.402ZM209.571 166.55C210.058 166.291 210.566 165.885 211.083 165.34L211.808 166.028C211.242 166.625 210.65 167.109 210.041 167.433L209.571 166.55ZM206.475 165.881C206.668 166.091 206.884 166.284 207.126 166.46C207.389 166.651 207.648 166.771 207.902 166.834L207.662 167.804C207.271 167.707 206.895 167.528 206.538 167.269C206.243 167.055 205.977 166.817 205.739 166.559L206.475 165.881ZM225.136 170.136C225.392 169.546 225.623 168.931 225.824 168.299L226.777 168.603C226.566 169.266 226.323 169.912 226.054 170.534L225.136 170.136ZM223.179 173.497C223.562 173.007 223.924 172.466 224.26 171.884L225.126 172.383C224.769 173.002 224.382 173.582 223.967 174.113L223.179 173.497ZM221.127 175.467C221.379 175.298 221.627 175.106 221.871 174.894L222.529 175.647C222.256 175.885 221.974 176.103 221.685 176.297L221.127 175.467Z" fill="#5CB2FF"/>
<path id="Vector 6" d="M106.199 106.79L63.0642 88.8336L106.199 121.606L106.199 106.79Z" fill="#5CB2FF"/>
<path id="Vector 4" d="M114.544 97.9563L63.064 88.8352L106.22 107.083L114.544 97.9563Z" fill="#AFD8FF"/>
<path id="Vector 5" d="M90.4899 125.577L63 88.8392L103.225 110.554L90.4899 125.577Z" fill="#AFD8FF"/>
</g>
</g>
<defs>
<linearGradient id="paint0_linear_2559_11222" x1="141" y1="29.8406" x2="141" y2="181.833" gradientUnits="userSpaceOnUse">
<stop stop-color="#0C83F2" stop-opacity="0.12"/>
<stop offset="1" stop-color="#0C83F2" stop-opacity="0"/>
</linearGradient>
<linearGradient id="paint1_linear_2559_11222" x1="141" y1="129.5" x2="141" y2="214.284" gradientUnits="userSpaceOnUse">
<stop stop-color="#0C83F2" stop-opacity="0.08"/>
<stop offset="1" stop-color="#0C83F2" stop-opacity="0"/>
</linearGradient>
</defs>
</svg>
