<svg width="200" height="200" viewBox="0 0 200 200" fill="none" xmlns="http://www.w3.org/2000/svg">
<path d="M21.2184 78.973V160.001C21.2184 168.838 28.3819 176.001 37.2184 176.001H162.731C171.568 176.001 178.731 168.838 178.731 160.001V78.973L99.9749 35.8145L21.2184 78.973Z" fill="#5CB2FF"/>
<rect x="40" y="24" width="119.71" height="137.036" rx="6" fill="url(#paint0_linear_1243_8689)"/>
<rect x="41.5" y="25.5" width="116.71" height="134.036" rx="4.5" stroke="#0C83F2" stroke-opacity="0.2" stroke-width="3"/>
<g clip-path="url(#clip0_1243_8689)">
<path d="M100.027 49C86.3306 49 75.2275 60.1031 75.2275 73.7995C75.2275 87.496 86.3306 98.5991 100.027 98.5991C113.723 98.5991 124.827 87.496 124.827 73.7995C124.827 60.1031 113.723 49 100.027 49ZM113.074 67.9259L97.9017 83.0982C97.4289 83.5711 96.809 83.8076 96.1893 83.8076C95.5694 83.8076 94.9496 83.5711 94.4768 83.0982L94.4754 83.0968L86.9803 75.6018C86.0345 74.656 86.0345 73.1225 86.9803 72.1768C87.9261 71.231 89.4595 71.231 90.4053 72.1768L96.1893 77.9607L109.649 64.501C110.595 63.5552 112.128 63.5551 113.074 64.501C114.02 65.4467 114.02 66.9801 113.074 67.9259Z" fill="#72C655"/>
</g>
<path d="M21.2184 79.1309V160.001C21.2184 168.838 28.3819 176.001 37.2184 176.001H122.173C138.308 176.001 144.299 154.825 130.554 146.373L21.2184 79.1309Z" fill="#A6D5FF"/>
<mask id="mask0_1243_8689" style="mask-type:alpha" maskUnits="userSpaceOnUse" x="21" y="79" width="118" height="97">
<path d="M21.2184 79.0078V159.939C21.2184 168.775 28.3819 175.939 37.2184 175.939H122.203C138.336 175.939 144.328 154.768 130.588 146.312L21.2184 79.0078Z" fill="white"/>
</mask>
<g mask="url(#mask0_1243_8689)">
<path d="M178.731 79.1309V160.001C178.731 168.838 171.567 176.001 162.731 176.001H21.2178L178.731 79.1309Z" fill="#C1E0FF"/>
</g>
<path d="M178.731 79.1309V160.001C178.731 168.838 171.567 176.001 162.731 176.001H35.3575C31.3236 176.001 29.826 170.707 33.262 168.594L178.731 79.1309Z" fill="url(#paint1_linear_1243_8689)"/>
<rect x="111.787" y="157.098" width="50.4042" height="4.72539" fill="white"/>
<rect x="111.787" y="147.648" width="50.4042" height="4.72539" fill="white"/>
<defs>
<linearGradient id="paint0_linear_1243_8689" x1="62.8388" y1="122.446" x2="56.9373" y2="30.6038" gradientUnits="userSpaceOnUse">
<stop stop-color="#DBEEFF"/>
<stop offset="1" stop-color="white"/>
</linearGradient>
<linearGradient id="paint1_linear_1243_8689" x1="160.617" y1="174.032" x2="108.244" y2="122.447" gradientUnits="userSpaceOnUse">
<stop stop-color="#96CBFF"/>
<stop offset="1" stop-color="#C2E1FF"/>
</linearGradient>
<clipPath id="clip0_1243_8689">
<rect width="50" height="50" fill="white" transform="translate(75 48.7773)"/>
</clipPath>
</defs>
</svg>
