<svg width="475" height="549" viewBox="0 0 475 549" fill="none" xmlns="http://www.w3.org/2000/svg">
<path d="M239.107 310.541L275.705 273.46V49.7579L299.79 10.5781" stroke="#0C83F2" stroke-width="4"/>
<path d="M272.684 325.779L339 260V182L381.5 133.5" stroke="#0C83F2" stroke-width="4"/>
<path d="M292.219 306.293H344.59L423 228" stroke="#0C83F2" stroke-width="4"/>
<path d="M275.852 147.785H302.6L341.5 102.5" stroke="#0C83F2" stroke-width="4"/>
<path d="M227.207 23.5879V78.895L276 130" stroke="#0C83F2" stroke-width="4"/>
<path d="M109 241.5L208.072 329.154" stroke="#0C83F2" stroke-width="4"/>
<path d="M49.7344 245.52L110.341 302.138H176.514" stroke="#0C83F2" stroke-width="4"/>
<path d="M425 265L395.256 291.747H359.999" stroke="#0C83F2" stroke-width="4"/>
<path d="M207.308 278V203.048L114.5 113" stroke="#0C83F2" stroke-width="4"/>
<path d="M168.904 47.0762V79.6663L275.5 190" stroke="#0C83F2" stroke-width="4"/>
<path d="M86 165L241.486 310.542" stroke="#0C83F2" stroke-width="4"/>
<circle cx="107" cy="240" r="8" fill="#5CB2FF"/>
<circle cx="88" cy="166" r="8" fill="#5CB2FF"/>
<circle cx="302" cy="8" r="8" fill="#5CB2FF"/>
<circle cx="385" cy="133" r="8" fill="#5CB2FF"/>
<circle cx="427" cy="262" r="8" fill="#5CB2FF"/>
<circle cx="168.385" cy="53.2285" r="8" fill="#5CB2FF"/>
<mask id="mask0_1483_7298" style="mask-type:alpha" maskUnits="userSpaceOnUse" x="238" y="307" width="5" height="182">
<path d="M240.297 489C240.297 453.716 240.297 307.5 240.297 307.5" stroke="#0C83F2" stroke-width="4"/>
</mask>
<g mask="url(#mask0_1483_7298)">
<rect x="-12" y="308" width="528" height="216" fill="url(#paint0_linear_1483_7298)"/>
</g>
<mask id="mask1_1483_7298" style="mask-type:alpha" maskUnits="userSpaceOnUse" x="0" y="327" width="209" height="222">
<path d="M206.981 327.193C206.981 327.193 206.98 333.939 206.981 382.686C206.981 431.433 2.19336 428.425 2.19336 549" stroke="#0C83F2" stroke-width="4"/>
</mask>
<g mask="url(#mask1_1483_7298)">
<rect x="-12" y="327" width="528" height="234" fill="url(#paint1_linear_1483_7298)"/>
</g>
<mask id="mask2_1483_7298" style="mask-type:alpha" maskUnits="userSpaceOnUse" x="271" y="320" width="204" height="226">
<path d="M273.611 324.5C273.611 324.5 273.611 300.512 273.611 371.544C273.611 442.575 445 425.5 472.5 545" stroke="#0C83F2" stroke-width="4"/>
</mask>
<g mask="url(#mask2_1483_7298)">
<rect x="-12" y="324" width="528" height="250" fill="url(#paint2_linear_1483_7298)"/>
</g>
<defs>
<linearGradient id="paint0_linear_1483_7298" x1="252" y1="351.096" x2="252" y2="524" gradientUnits="userSpaceOnUse">
<stop stop-color="#0C83F2"/>
<stop offset="0.346393" stop-color="#53A1E9" stop-opacity="0.4"/>
<stop offset="1" stop-color="#D9D9D9" stop-opacity="0"/>
</linearGradient>
<linearGradient id="paint1_linear_1483_7298" x1="252" y1="373.688" x2="252" y2="561" gradientUnits="userSpaceOnUse">
<stop stop-color="#0C83F2"/>
<stop offset="0.346393" stop-color="#53A1E9" stop-opacity="0.4"/>
<stop offset="1" stop-color="#D9D9D9" stop-opacity="0"/>
</linearGradient>
<linearGradient id="paint2_linear_1483_7298" x1="252" y1="373.88" x2="252" y2="574" gradientUnits="userSpaceOnUse">
<stop stop-color="#0C83F2"/>
<stop offset="0.346393" stop-color="#53A1E9" stop-opacity="0.4"/>
<stop offset="1" stop-color="#D9D9D9" stop-opacity="0"/>
</linearGradient>
</defs>
</svg>
