<svg width="142" height="33" viewBox="0 0 142 33" fill="none" xmlns="http://www.w3.org/2000/svg">
<g clip-path="url(#clip0_1904_8128)">
<path d="M15.8973 32.497H9.94171L0 0H6.75457L12.8799 24.1442H12.9624L19.0877 0H25.8426L15.8973 32.497Z" fill="#0090D4"/>
<path d="M38.1353 21.8027C35.5793 22.2638 30.5006 22.5166 30.5006 25.9407C30.5006 27.3198 31.1712 28.4458 32.6411 28.4458C35.1988 28.4458 36.9587 26.9418 38.1353 25.3975V21.8027ZM38.468 30.3694C36.1629 31.9991 34.78 33.0008 31.8008 33.0008C27.7319 33.0008 24.418 30.2426 24.418 26.0666C24.418 19.4654 33.142 18.1298 38.1363 17.5866C38.5563 14.3273 37.4621 13.1591 35.1567 13.1591C33.186 13.1591 31.7587 14.0353 31.426 16.0835L25.4672 15.1642C26.8514 10.191 30.208 8.60352 35.114 8.60352C41.4486 8.60352 44.3438 11.6139 44.3438 15.9988V27.6119C44.3438 29.2834 44.4278 30.9542 45.1845 32.4981H39.1432L38.468 30.3694Z" fill="#0090D4"/>
<path d="M54.3673 11.5292C56.338 9.89695 58.7705 8.60156 61.3708 8.60156C63.93 8.60156 67.5388 10.1491 67.5388 15.9141V32.4959H61.3294V18.4205C61.3294 16.5384 61.4565 13.5745 58.7705 13.5745C56.9676 13.5745 55.5387 14.8699 54.3673 16.1211V32.4959H48.1562V9.10453H54.3673V11.5292Z" fill="#0090D4"/>
<path d="M77.9842 9.10589H82.8067V14.244H77.9842V26.1491C77.9842 27.277 78.3221 28.4465 80.3326 28.4465C81.3838 28.4465 82.0527 28.0263 82.8058 27.5704V32.2908C81.5056 32.6666 80.1644 33.0012 78.8245 33.0012C74.9635 33.0012 71.7764 30.8293 71.7764 25.7324V14.244H68.8828V9.10589H71.7764V3.25781H77.9842V9.10589Z" fill="#0090D4"/>
<path d="M90.4435 13.1997C92.8346 10.3993 94.7626 8.60156 97.6151 8.60156H98.7882V14.7861C98.2016 14.6589 97.6151 14.5334 96.9836 14.5334C95.3918 14.5334 90.4431 15.9955 90.4431 22.22V32.4949H84.2344V9.10453H90.4435V13.1997Z" fill="#0090D4"/>
<path d="M113.269 20.8026C113.269 17.8766 112.681 13.1572 109.327 13.1572C105.968 13.1572 105.38 17.8766 105.38 20.8026C105.38 23.7286 105.968 28.4452 109.327 28.4452C112.68 28.4452 113.269 23.7254 113.269 20.8026V20.8026ZM99.0098 20.8026C99.0098 14.5775 102.446 8.60156 109.328 8.60156C116.209 8.60156 119.645 14.5775 119.645 20.8026C119.645 26.9836 116.165 32.9988 109.328 32.9988C102.491 32.9988 99.0098 26.9836 99.0098 20.8026Z" fill="#0090D4"/>
<path d="M128.832 11.5292C130.802 9.89695 133.236 8.60156 135.836 8.60156C138.394 8.60156 142.001 10.1491 142.001 15.9141V32.4959H135.795V18.4205C135.795 16.5384 135.92 13.5745 133.236 13.5745C131.433 13.5745 130.006 14.8699 128.832 16.1211V32.4959H122.623V9.10453H128.832V11.5292Z" fill="#0090D4"/>
</g>
<defs>
<clipPath id="clip0_1904_8128">
<rect width="142" height="33" fill="white"/>
</clipPath>
</defs>
</svg>
