<svg width="120" height="120" viewBox="0 0 120 120" fill="none" xmlns="http://www.w3.org/2000/svg">
<path d="M94 64.6508C94 71.2857 88.3632 76.6984 81.4737 76.6984H72.5263V87H68.9474V76.6984H51.0526V87H47.4737V76.6984H42.1053C33.1579 76.6984 26 69.7143 26 61.246C26 54.6111 31.1895 48.2381 38.1684 46.2302L38.9737 45.9683L39.3316 45.1825C42.9105 37.1508 50.8737 32 60 32C71.8105 32 81.6526 40.5556 83.0842 51.4683L83.2632 52.6905L84.4263 52.9524C87.1105 53.5635 89.6158 55.1349 91.3158 57.2302C93.0158 59.3254 94 61.9444 94 64.6508Z" fill="#5CB2FF"/>
<path fill-rule="evenodd" clip-rule="evenodd" d="M60 33.5224C51.7729 33.5224 44.615 38.3009 41.3924 45.7604L41.3895 45.767L40.7232 47.2759L39.1743 47.7955L39.145 47.8042C32.9853 49.6321 28.5 55.4292 28.5 61.2612C28.5 68.8111 34.6973 75.0866 42.5 75.0866H81C86.7957 75.0866 91.5 70.3908 91.5 64.6955C91.5 62.3813 90.6825 60.121 89.2529 58.3036C87.832 56.4973 85.7236 55.1355 83.491 54.6109C83.4906 54.6108 83.4902 54.6107 83.4898 54.6106L81.1873 54.0759L80.8408 51.6349L80.8392 51.6221C79.5527 41.5075 70.6833 33.5224 60 33.5224ZM38.1855 44.3493C41.9643 35.6097 50.3796 30 60 30C72.4123 30 82.79 39.268 84.3092 51.1623L84.3127 51.1869C87.3191 51.8999 90.099 53.7044 91.9971 56.1173C93.8925 58.5268 95 61.55 95 64.6955C95 72.3854 88.6793 78.609 81 78.609H74V89H67V78.609H53V89H46V78.609H42.5C32.8027 78.609 25 70.7949 25 61.2612C25 53.7182 30.6496 46.6674 38.1249 44.4346L38.1518 44.4256L38.1855 44.3493Z" fill="white"/>
<path fill-rule="evenodd" clip-rule="evenodd" d="M60.0438 30.8806C50.7595 30.8806 42.6794 36.3216 38.9806 44.7948L38.9762 44.8049L38.8184 45.1222L38.4761 45.2942L38.437 45.3054C31.2488 47.3698 25.8761 54.1661 25.8761 61.2612C25.8761 70.3464 33.2961 77.7284 42.5219 77.7284H46.9024V88.1194H52.1589V77.7284H67.8411V88.1194H73.0976V77.7284H80.9825C88.2787 77.7284 94.1239 71.8457 94.1239 64.6955C94.1239 61.8055 93.1089 58.9935 91.3251 56.6882C89.5485 54.3924 87.008 52.7734 84.1237 52.0913L84.1044 52.0867L83.5232 51.892V51.3384C82.0497 39.7749 72.0821 30.8806 60.0438 30.8806ZM38.1828 44.4308C42.0204 35.6501 50.4082 30 60.0438 30C72.5252 30 82.876 39.2299 84.3953 51.2511C87.4393 51.9876 90.1282 53.7072 92.0166 56.1476C93.9124 58.5975 95 61.5975 95 64.6955C95 72.3394 88.7551 78.609 80.9825 78.609H73.9737V89H66.965V78.609H53.035V89H46.0263V78.609H42.5219C32.8241 78.609 25 70.8446 25 61.2612C25 53.7515 30.6464 46.6461 38.1569 44.4701L38.1654 44.4659L38.1828 44.4308Z" fill="#1A272E" fill-opacity="0.8"/>
<path d="M56 80H64V90H56V80Z" fill="#5CB2FF"/>
<path fill-rule="evenodd" clip-rule="evenodd" d="M56 80H64V90H56V80ZM57 80.9091V89.0909H63V80.9091H57Z" fill="#1A272E" fill-opacity="0.8"/>
<path d="M73.5857 60.4931L71.318 58.6039C71.4053 57.9169 71.4925 57.3158 71.4925 56.6288C71.4925 55.9418 71.4053 55.2548 71.318 54.6537L73.5857 52.7645C73.7602 52.5928 73.8474 52.4211 73.9346 52.2493C74.0218 51.9917 74.0218 51.8199 73.9346 51.5623V51.4765C73.3241 49.759 72.3647 48.1274 71.2308 46.7535L71.1436 46.6676C70.9692 46.4958 70.7947 46.41 70.6203 46.3241C70.4459 46.2382 70.1842 46.2382 70.0098 46.3241L67.2188 47.3546C66.1722 46.4958 65.0383 45.8089 63.8173 45.3795L63.2068 42.2022C63.2068 41.9446 63.0323 41.7729 62.9451 41.6011C62.7707 41.4294 62.5962 41.3435 62.3346 41.2576H62.2474C60.503 40.9141 58.5842 40.9141 56.8398 41.2576H56.7526C56.491 41.2576 56.3165 41.4294 56.1421 41.6011C55.9677 41.7729 55.8804 41.9446 55.8804 42.2022L55.3571 45.1219C54.1361 45.5512 53.0023 46.2382 51.9556 47.097L49.1647 46.0665C48.9902 45.9806 48.7286 45.9806 48.5541 46.0665C48.3797 46.1524 48.118 46.2382 48.0308 46.41L47.9436 46.4958C46.7226 47.8698 45.8504 49.5014 45.2398 51.2188V51.3047C45.0654 51.7341 45.2398 52.2493 45.5887 52.5069L47.8564 54.482C47.5075 55.2548 47.5075 55.856 47.5075 56.5429C47.5075 57.2299 47.5947 57.831 47.682 58.518L45.4143 60.4931C45.2398 60.6648 45.1526 60.8366 45.0654 61.0083C44.9782 61.2659 44.9782 61.4377 45.0654 61.6953V61.7812C45.6759 63.4986 46.6353 65.1302 47.7692 66.5042L47.8564 66.59C48.0308 66.7618 48.2053 66.8476 48.3797 66.9335C48.5541 67.0194 48.8158 67.0194 48.9902 66.9335L51.7812 65.903C52.8278 66.7618 53.9617 67.4488 55.1827 67.8781L55.706 70.7978C55.706 71.0554 55.8805 71.2271 55.9677 71.3989C56.1421 71.5706 56.3165 71.6565 56.5782 71.7424H56.6654C58.497 72.0859 60.3286 72.0859 62.0729 71.7424H62.1602C62.4218 71.7424 62.5962 71.5706 62.7707 71.3989C62.9451 71.2271 63.0323 71.0554 63.0323 70.7978L63.5556 67.8781C64.7767 67.4488 65.9105 66.7618 66.9571 65.903L69.7481 66.9335C69.9226 67.0194 70.1842 67.0194 70.3586 66.9335C70.5331 66.8476 70.7947 66.7618 70.882 66.59L70.9692 66.5042C72.1902 65.0443 73.0624 63.4986 73.6729 61.7812V61.6953C74.109 61.2659 73.9346 60.7507 73.5857 60.4931Z" fill="white"/>
<path fill-rule="evenodd" clip-rule="evenodd" d="M62.5312 42.1102C60.8747 41.7784 59.0363 41.7775 57.2833 42.1111L57.2394 42.1194H57.1123C57.1118 42.1199 57.1113 42.1203 57.1107 42.1207C57.0991 42.1305 57.0863 42.1425 57.062 42.1656C57.0378 42.1887 57.0252 42.2008 57.0149 42.2119C57.0144 42.2124 57.014 42.2129 57.0136 42.2134V42.2433L56.4706 45.171V45.702L55.8996 45.8831C54.7855 46.2922 53.6607 46.9483 52.7021 47.692L52.3394 48.0371L51.7947 47.8643L48.9677 46.8556H48.6965C48.696 46.856 48.695 46.8564 48.6945 46.8568C48.6828 46.8666 48.67 46.8786 48.6457 46.9017L48.5719 46.972C47.452 48.2875 46.5856 49.765 45.9729 51.407V51.4893L45.9496 51.5556C45.9361 51.5942 45.9305 51.6622 45.95 51.7424C45.9679 51.8165 45.9982 51.8643 46.016 51.8845L48.3645 53.8612L48.6878 54.1689V54.6362L48.6832 54.6664C48.5928 55.2687 48.5068 55.9308 48.5068 56.5C48.5068 57.0692 48.5928 57.7313 48.6832 58.3336L48.6878 58.3638V58.8311L48.3645 59.1388L46.0117 61.1192C45.9935 61.1365 45.983 61.1468 45.9742 61.1564C45.9737 61.1569 45.9733 61.1573 45.9729 61.1578V61.2516L45.9251 61.3426C45.9204 61.3514 45.9166 61.359 45.9136 61.3653C45.9166 61.3716 45.9204 61.3791 45.9251 61.388L45.9729 61.4789V61.593C46.5856 63.235 47.452 64.7125 48.5719 66.028L48.6452 66.0978C48.6447 66.0973 48.65 66.102 48.6627 66.1103C48.6762 66.119 48.6925 66.1282 48.7091 66.1361C48.7164 66.1395 48.7228 66.1423 48.728 66.1444H48.8752L48.9004 66.1685L51.7947 65.1357L52.3394 64.9629L52.7021 65.3081C53.6695 66.0594 54.7033 66.7097 55.8943 67.1152L56.4706 67.298V67.829L56.9262 70.2859L57.0136 70.2693V70.7561C57.0158 70.7611 57.0187 70.7672 57.0224 70.7741C57.0307 70.79 57.0403 70.8055 57.0495 70.8183C57.0562 70.8277 57.0606 70.8328 57.0621 70.8344C57.0638 70.8358 57.0692 70.84 57.079 70.8464C57.0925 70.8552 57.1088 70.8643 57.1254 70.8722C57.1327 70.8757 57.1391 70.8784 57.1443 70.8806H57.2394L57.2833 70.8889C59.0347 71.2222 60.7843 71.2222 62.5357 70.8889L62.5796 70.8806H62.7067C62.7072 70.8801 62.7077 70.8797 62.7083 70.8793C62.7199 70.8695 62.7327 70.8575 62.757 70.8344C62.7812 70.8113 62.7938 70.7992 62.8041 70.7881C62.8046 70.7876 62.805 70.7871 62.8054 70.7866V70.7567L63.3484 67.829V67.298L63.9247 67.1152C65.1446 66.7002 66.2606 66.1256 67.1991 65.316L67.5701 64.9629L68.1148 65.1357L70.9417 66.1444H71.213C71.2135 66.144 71.2145 66.1436 71.215 66.1432C71.2267 66.1334 71.2395 66.1214 71.2638 66.0983L71.3376 66.028C72.4576 64.7125 73.3239 63.235 73.9367 61.593V61.5107L73.9599 61.4444C73.9734 61.4058 73.979 61.3378 73.9596 61.2576C73.9422 61.1861 73.9134 61.1391 73.8954 61.1178L71.5485 59.2282L71.2217 58.9172V58.45L71.2263 58.4197C71.3114 57.8525 71.3122 57.281 71.3122 56.5861C71.3122 55.9704 71.3091 55.3443 71.1486 54.8099L71.1312 54.752V54.255L71.457 53.945L73.9908 51.8785C74.0074 51.8625 74.0174 51.8528 74.0258 51.8437C74.0263 51.8431 74.0267 51.8427 74.0271 51.8422V51.7484L74.0749 51.6575C74.0796 51.6486 74.0834 51.641 74.0864 51.6347C74.0834 51.6284 74.0796 51.6209 74.0749 51.612L74.0271 51.5211V51.407C73.4144 49.765 72.548 48.2875 71.4281 46.972L71.3548 46.9022C71.3549 46.9023 71.3551 46.9024 71.3548 46.9022C71.3534 46.901 71.3476 46.8964 71.3373 46.8897C71.3238 46.881 71.3075 46.8718 71.2909 46.8639C71.2836 46.8605 71.2772 46.8577 71.272 46.8556H71.1248L71.0996 46.8315L68.2053 47.8643L67.6606 48.0371L67.3047 47.6984C66.2388 46.9391 65.2051 46.2899 64.0152 45.8848L63.5337 45.732L63.3611 45.2394L62.8056 42.2443C62.8033 42.2392 62.8004 42.233 62.7966 42.2259C62.7883 42.21 62.7787 42.1945 62.7695 42.1817C62.7628 42.1724 62.7584 42.1672 62.7569 42.1656C62.7552 42.1642 62.7498 42.16 62.74 42.1536C62.7265 42.1449 62.7102 42.1357 62.6936 42.1278C62.6863 42.1243 62.6799 42.1216 62.6747 42.1194H62.5773L62.5312 42.1102ZM62.6711 41.2583C60.9152 40.9133 58.9876 40.9145 57.1501 41.2583H57.1041C56.7346 41.2583 56.529 41.4547 56.4303 41.5489C56.4275 41.5516 56.4248 41.5542 56.4221 41.5567C56.4195 41.5592 56.4168 41.5618 56.4139 41.5644C56.3191 41.6544 56.1257 41.8378 56.1097 42.1621L55.5682 45.0818C54.3446 45.5319 53.1331 46.2438 52.1117 47.039L52.0952 47.0518L49.1318 45.9944H48.6878C48.3184 45.9944 48.1127 46.1908 48.014 46.285C48.0112 46.2877 48.0085 46.2903 48.0058 46.2928L47.8988 46.3946L47.8841 46.4118C46.6738 47.8293 45.7435 49.4233 45.0933 51.1911L45.0679 51.2602V51.3591C45.016 51.5559 45.0253 51.7592 45.0681 51.9361C45.1161 52.1339 45.2169 52.3424 45.3814 52.4989L45.3912 52.5082L47.7441 54.4888L47.7828 54.5256V54.575C47.6936 55.1719 47.6018 55.8743 47.6018 56.5C47.6018 57.1257 47.6936 57.8281 47.7828 58.425V58.4744L47.7441 58.5112L45.3912 60.4918L45.3814 60.5011C45.3788 60.5036 45.376 60.5062 45.3732 60.5089C45.2849 60.5926 45.1113 60.7573 45.0747 61.0412C45.0341 61.1323 45 61.2408 45 61.3653C45 61.4827 45.0304 61.5858 45.0679 61.6736V61.7398L45.0933 61.8089C45.7435 63.5767 46.6738 65.1707 47.8841 66.5882L47.8988 66.6054L48.0058 66.7072C48.0958 66.7929 48.2085 66.8606 48.3044 66.9063C48.3534 66.9296 48.4257 66.9606 48.5092 66.9818C48.6282 67.0459 48.7575 67.0701 48.8688 67.0701C48.9944 67.0701 49.143 67.0393 49.2738 66.9549L52.0952 65.9482L52.1117 65.961C53.1223 66.7478 54.2457 67.465 55.5683 67.9188L56.0386 70.4548L56.0199 70.4584L56.1973 71.3028L56.289 71.2853C56.327 71.3404 56.3716 71.3952 56.4221 71.4433C56.5121 71.529 56.6248 71.5967 56.7207 71.6424C56.8024 71.6812 56.949 71.7417 57.1041 71.7417H57.1501C58.9892 72.0861 60.8299 72.0861 62.6689 71.7417H62.7149C63.0844 71.7417 63.29 71.5453 63.3887 71.4511C63.3915 71.4485 63.3942 71.4459 63.3969 71.4433L63.4051 71.4356C63.4999 71.3456 63.6933 71.1622 63.7093 70.8379L64.2507 67.9188C65.5491 67.4748 66.7715 66.8491 67.8138 65.948L70.7777 67.0056H71.2217C71.5911 67.0056 71.7968 66.8092 71.8955 66.715C71.8983 66.7123 71.901 66.7097 71.9037 66.7072L72.0107 66.6054L72.0254 66.5882C73.2357 65.1707 74.166 63.5767 74.8162 61.8089L74.8416 61.7398V61.6409C74.8935 61.4441 74.8842 61.2408 74.8414 61.0639C74.7934 60.8661 74.6926 60.6576 74.5281 60.5011L74.5148 60.4884L72.1619 58.594L72.1267 58.5605V58.5107C72.2172 57.8879 72.2172 57.2685 72.2172 56.6029V56.5595C72.2172 55.9914 72.2173 55.2789 72.0362 54.6334V54.6117L72.0724 54.5772L74.6063 52.5106L74.6186 52.4989C74.6212 52.4964 74.624 52.4938 74.6268 52.4911C74.7151 52.4074 74.8887 52.2427 74.9253 51.9588C74.9659 51.8677 75 51.7592 75 51.6347C75 51.5173 74.9696 51.4142 74.9321 51.3264V51.2602L74.9067 51.1911C74.2565 49.4233 73.3262 47.8293 72.1159 46.4118L72.1012 46.3946L71.9942 46.2928C71.9042 46.2071 71.7915 46.1394 71.6956 46.0937C71.6466 46.0704 71.5743 46.0394 71.4908 46.0182C71.3718 45.9541 71.2425 45.9299 71.1312 45.9299C71.0056 45.9299 70.857 45.9607 70.7262 46.0451L67.905 47.0518L67.899 47.0461L67.8733 47.0278C66.7776 46.2458 65.6477 45.5252 64.3151 45.0723L64.2491 45.0513L64.2407 45.0273L63.708 42.1549C63.6961 42.0266 63.6422 41.9095 63.6061 41.8408C63.5581 41.7495 63.4869 41.6423 63.3969 41.5567C63.3069 41.471 63.1942 41.4033 63.0983 41.3576C63.0166 41.3188 62.87 41.2583 62.7149 41.2583H62.6711Z" fill="#1A272E" fill-opacity="0.8"/>
<path d="M60 64C64.4183 64 68 60.6421 68 56.5C68 52.3579 64.4183 49 60 49C55.5817 49 52 52.3579 52 56.5C52 60.6421 55.5817 64 60 64Z" fill="#5CB2FF"/>
<path d="M60 60C62.2091 60 64 58.433 64 56.5C64 54.567 62.2091 53 60 53C57.7909 53 56 54.567 56 56.5C56 58.433 57.7909 60 60 60Z" fill="white"/>
</svg>
