<svg width="600" height="440" viewBox="0 0 600 440" fill="none" xmlns="http://www.w3.org/2000/svg">
<path d="M0 24C0 10.7452 10.7452 0 24 0H576C589.255 0 600 10.7452 600 24V416C600 429.255 589.255 440 576 440H24C10.7452 440 0 429.255 0 416V24Z" fill="#47518B"/>
<circle cx="523.5" cy="316.5" r="56.5" fill="#64B6F7"/>
<rect x="44" y="140" width="119" height="52" rx="8" fill="#E798D1"/>
<g filter="url(#filter0_b_672_5452)">
<path d="M61 48C61 43.5817 64.5817 40 69 40H533C537.418 40 541 43.5817 541 48V390C541 394.418 537.418 398 533 398H69C64.5817 398 61 394.418 61 390V48Z" fill="#6E78AF" fill-opacity="0.5"/>
</g>
<g filter="url(#filter1_b_672_5452)">
<path d="M61 48C61 43.5817 64.5817 40 69 40H533C537.418 40 541 43.5817 541 48V390C541 394.418 537.418 398 533 398H69C64.5817 398 61 394.418 61 390V48Z" fill="#6E78AF" fill-opacity="0.2"/>
</g>
<path d="M61.75 48C61.75 43.9959 64.9959 40.75 69 40.75H533C537.004 40.75 540.25 43.9959 540.25 48V390C540.25 394.004 537.004 397.25 533 397.25H69C64.9959 397.25 61.75 394.004 61.75 390V48Z" stroke="url(#paint0_linear_672_5452)" stroke-width="1.5"/>
<circle opacity="0.5" cx="79" cy="56" r="6" fill="white"/>
<circle opacity="0.5" cx="97" cy="56" r="6" fill="white"/>
<circle opacity="0.5" cx="115" cy="56" r="6" fill="white"/>
<g filter="url(#filter2_d_672_5452)">
<rect x="73" y="72" width="440" height="320" rx="8" fill="#F5F9FF"/>
</g>
<g filter="url(#filter3_d_672_5452)">
<path d="M73 80C73 75.5817 76.5817 72 81 72H505C509.418 72 513 75.5817 513 80V102C513 103.105 512.105 104 511 104H75C73.8954 104 73 103.105 73 102V80Z" fill="white"/>
</g>
<rect x="89" y="80" width="229" height="16" rx="4" fill="#6E80E1" fill-opacity="0.08"/>
<rect x="479" y="79" width="18" height="18" rx="9" fill="#6E80E1" fill-opacity="0.16"/>
<rect x="96" y="85" width="91" height="6" rx="3" fill="#6E80E1" fill-opacity="0.16"/>
<g filter="url(#filter4_d_672_5452)">
<path d="M73 110H513V384C513 388.418 509.418 392 505 392H81C76.5817 392 73 388.418 73 384V110Z" fill="white"/>
</g>
<mask id="mask0_672_5452" style="mask-type:alpha" maskUnits="userSpaceOnUse" x="73" y="110" width="440" height="282">
<path d="M73 110H513V384C513 388.418 509.418 392 505 392H81C76.5817 392 73 388.418 73 384V110Z" fill="white"/>
</mask>
<g mask="url(#mask0_672_5452)">
<rect x="81" y="382" width="208" height="80" rx="4" fill="white"/>
<rect x="81.5" y="382.5" width="207" height="79" rx="3.5" stroke="#0D1024" stroke-opacity="0.08"/>
<rect x="297" y="382" width="208" height="80" rx="4" fill="white"/>
<rect x="297.5" y="382.5" width="207" height="79" rx="3.5" stroke="#0D1024" stroke-opacity="0.08"/>
</g>
<rect x="81" y="118" width="208" height="80" rx="4" fill="white"/>
<rect x="81.5" y="118.5" width="207" height="79" rx="3.5" stroke="#0D1024" stroke-opacity="0.08"/>
<rect x="129" y="134" width="144" height="48" rx="4" fill="#6E80E1" fill-opacity="0.08"/>
<rect x="97" y="134" width="24" height="24" rx="4" fill="#6E80E1" fill-opacity="0.36"/>
<rect x="141" y="142" width="64" height="8" rx="4" fill="#6E80E1" fill-opacity="0.16"/>
<rect x="297" y="118" width="208" height="80" rx="4" fill="white"/>
<rect x="297.5" y="118.5" width="207" height="79" rx="3.5" stroke="#0D1024" stroke-opacity="0.08"/>
<rect x="345" y="134" width="144" height="48" rx="4" fill="#6E80E1" fill-opacity="0.08"/>
<rect x="313" y="134" width="24" height="24" rx="4" fill="#6E80E1" fill-opacity="0.36"/>
<rect x="357" y="142" width="64" height="8" rx="4" fill="#6E80E1" fill-opacity="0.16"/>
<rect x="81" y="206" width="208" height="80" rx="4" fill="white"/>
<rect x="81.5" y="206.5" width="207" height="79" rx="3.5" stroke="#0D1024" stroke-opacity="0.08"/>
<rect x="129" y="222" width="144" height="48" rx="4" fill="#6E80E1" fill-opacity="0.08"/>
<rect x="97" y="222" width="24" height="24" rx="4" fill="#6E80E1" fill-opacity="0.36"/>
<rect x="141" y="230" width="64" height="8" rx="4" fill="#6E80E1" fill-opacity="0.16"/>
<rect x="297" y="206" width="208" height="80" rx="4" fill="white"/>
<rect x="297.5" y="206.5" width="207" height="79" rx="3.5" stroke="#0D1024" stroke-opacity="0.08"/>
<rect x="345" y="222" width="144" height="48" rx="4" fill="#6E80E1" fill-opacity="0.08"/>
<rect x="313" y="222" width="24" height="24" rx="4" fill="#6E80E1" fill-opacity="0.36"/>
<rect x="357" y="230" width="64" height="8" rx="4" fill="#6E80E1" fill-opacity="0.16"/>
<rect x="81" y="294" width="208" height="80" rx="4" fill="white"/>
<rect x="81.5" y="294.5" width="207" height="79" rx="3.5" stroke="#0D1024" stroke-opacity="0.08"/>
<rect x="129" y="310" width="144" height="48" rx="4" fill="#6E80E1" fill-opacity="0.08"/>
<rect x="97" y="310" width="24" height="24" rx="4" fill="#6E80E1" fill-opacity="0.36"/>
<rect x="141" y="318" width="64" height="8" rx="4" fill="#6E80E1" fill-opacity="0.16"/>
<rect x="297" y="294" width="208" height="80" rx="4" fill="white"/>
<rect x="297.5" y="294.5" width="207" height="79" rx="3.5" stroke="#0D1024" stroke-opacity="0.08"/>
<rect x="345" y="310" width="144" height="48" rx="4" fill="#6E80E1" fill-opacity="0.08"/>
<rect x="313" y="310" width="24" height="24" rx="4" fill="#6E80E1" fill-opacity="0.36"/>
<rect x="357" y="318" width="64" height="8" rx="4" fill="#6E80E1" fill-opacity="0.16"/>
<path d="M290.273 187.141L290.285 187.152V209.547L290.273 209.559H267.879L267.867 209.547V187.152L267.879 187.141H290.273ZM290.285 179.641H267.867C263.742 179.641 260.367 183.016 260.367 187.141V209.559C260.367 213.684 263.742 217.059 267.867 217.059H290.285C294.41 217.059 297.785 213.684 297.785 209.559V187.141C297.785 183.016 294.41 179.641 290.285 179.641ZM350.203 187.141L350.215 187.152V209.547L350.203 209.559H327.809L327.797 209.547V187.152L327.809 187.141H350.203ZM350.227 179.641H327.797C323.672 179.641 320.297 183.016 320.297 187.141V209.559C320.297 213.684 323.672 217.059 327.797 217.059H350.215C354.34 217.059 357.715 213.684 357.715 209.559V187.141C357.727 183.016 354.352 179.641 350.227 179.641ZM350.203 254.629L350.215 254.641V277.035L350.203 277.047H327.809L327.797 277.035V254.641L327.809 254.629H350.203ZM350.227 247.129H327.797C323.672 247.129 320.297 250.504 320.297 254.629V277.047C320.297 281.172 323.672 284.547 327.797 284.547H350.215C354.34 284.547 357.715 281.172 357.715 277.047V254.629C357.727 250.504 354.352 247.129 350.227 247.129ZM290.297 254.629L290.309 254.641V277.035L290.297 277.047H267.902L267.891 277.035V254.641L267.902 254.629H290.297ZM290.32 247.129H267.891C263.766 247.129 260.391 250.504 260.391 254.629V277.047C260.391 281.172 263.766 284.547 267.891 284.547H290.309C294.434 284.547 297.809 281.172 297.809 277.047V254.629C297.82 250.504 294.445 247.129 290.32 247.129Z" fill="#6E80E1"/>
<path d="M278.871 253.973C276.797 253.973 275.121 252.297 275.121 250.223V213.461C275.121 211.387 276.797 209.711 278.871 209.711C280.945 209.711 282.621 211.387 282.621 213.461V250.223C282.621 252.297 280.945 253.973 278.871 253.973ZM323.895 269.582H294.246C292.172 269.582 290.496 267.906 290.496 265.832C290.496 263.758 292.172 262.082 294.246 262.082H323.895C325.969 262.082 327.645 263.758 327.645 265.832C327.645 267.906 325.969 269.582 323.895 269.582ZM338.93 254.184C336.855 254.184 335.18 252.508 335.18 250.434V213.52C335.18 211.445 336.855 209.77 338.93 209.77C341.004 209.77 342.68 211.445 342.68 213.52V250.422C342.68 252.496 341.004 254.184 338.93 254.184ZM323.895 202.094H294.129C292.055 202.094 290.379 200.418 290.379 198.344C290.379 196.27 292.055 194.594 294.129 194.594H323.895C325.969 194.594 327.645 196.27 327.645 198.344C327.645 200.418 325.969 202.094 323.895 202.094Z" fill="#6E80E1"/>
<g filter="url(#filter5_d_672_5452)">
<rect x="20" y="216" width="178" height="139" rx="8" fill="white"/>
</g>
<g clip-path="url(#clip0_672_5452)">
<path d="M55.1999 318.467C56.5333 319.267 57.5999 318.733 57.5999 317.133V298.467C57.5999 296.867 56.5333 295.267 55.1999 294.467L39.7333 284.867C38.3999 284.333 37.3333 284.867 37.3333 286.2V304.867C37.3333 306.467 38.3999 308.067 39.7333 308.867L55.1999 318.467ZM42.1333 279C40.7999 279.8 40.7999 280.867 42.1333 281.667L57.3333 291.267C58.6666 292.067 60.5333 292.067 61.8666 291.533L77.0666 283.8C78.3999 283 78.3999 281.933 77.0666 281.133L61.0666 271.533C59.9999 270.733 57.8666 270.733 56.5333 271.533L42.1333 279ZM61.8666 317.133C61.8666 318.733 62.9333 319.267 64.2666 318.467L79.4666 310.733C80.7999 309.933 81.8666 308.333 81.8666 306.733V288.067C81.8666 286.467 80.7999 285.933 79.4666 286.733L64.2666 294.467C62.9333 295.267 61.8666 296.867 61.8666 298.467V317.133Z" fill="#6E80E1"/>
</g>
<path d="M40.1484 238.225L37.3242 246H36.1699L39.4219 237.469H40.166L40.1484 238.225ZM42.5156 246L39.6855 238.225L39.668 237.469H40.4121L43.6758 246H42.5156ZM42.3691 242.842V243.768H37.5762V242.842H42.3691ZM45.7383 240.879V248.438H44.6484V239.66H45.6445L45.7383 240.879ZM50.0098 242.777V242.9C50.0098 243.361 49.9551 243.789 49.8457 244.184C49.7363 244.574 49.5762 244.914 49.3652 245.203C49.1582 245.492 48.9023 245.717 48.5977 245.877C48.293 246.037 47.9434 246.117 47.5488 246.117C47.1465 246.117 46.791 246.051 46.4824 245.918C46.1738 245.785 45.9121 245.592 45.6973 245.338C45.4824 245.084 45.3105 244.779 45.1816 244.424C45.0566 244.068 44.9707 243.668 44.9238 243.223V242.566C44.9707 242.098 45.0586 241.678 45.1875 241.307C45.3164 240.936 45.4863 240.619 45.6973 240.357C45.9121 240.092 46.1719 239.891 46.4766 239.754C46.7812 239.613 47.1328 239.543 47.5312 239.543C47.9297 239.543 48.2832 239.621 48.5918 239.777C48.9004 239.93 49.1602 240.148 49.3711 240.434C49.582 240.719 49.7402 241.061 49.8457 241.459C49.9551 241.854 50.0098 242.293 50.0098 242.777ZM48.9199 242.9V242.777C48.9199 242.461 48.8867 242.164 48.8203 241.887C48.7539 241.605 48.6504 241.359 48.5098 241.148C48.373 240.934 48.1973 240.766 47.9824 240.645C47.7676 240.52 47.5117 240.457 47.2148 240.457C46.9414 240.457 46.7031 240.504 46.5 240.598C46.3008 240.691 46.1309 240.818 45.9902 240.979C45.8496 241.135 45.7344 241.314 45.6445 241.518C45.5586 241.717 45.4941 241.924 45.4512 242.139V243.656C45.5293 243.93 45.6387 244.188 45.7793 244.43C45.9199 244.668 46.1074 244.861 46.3418 245.01C46.5762 245.154 46.8711 245.227 47.2266 245.227C47.5195 245.227 47.7715 245.166 47.9824 245.045C48.1973 244.92 48.373 244.75 48.5098 244.535C48.6504 244.32 48.7539 244.074 48.8203 243.797C48.8867 243.516 48.9199 243.217 48.9199 242.9ZM52.4766 240.879V248.438H51.3867V239.66H52.3828L52.4766 240.879ZM56.748 242.777V242.9C56.748 243.361 56.6934 243.789 56.584 244.184C56.4746 244.574 56.3145 244.914 56.1035 245.203C55.8965 245.492 55.6406 245.717 55.3359 245.877C55.0312 246.037 54.6816 246.117 54.2871 246.117C53.8848 246.117 53.5293 246.051 53.2207 245.918C52.9121 245.785 52.6504 245.592 52.4355 245.338C52.2207 245.084 52.0488 244.779 51.9199 244.424C51.7949 244.068 51.709 243.668 51.6621 243.223V242.566C51.709 242.098 51.7969 241.678 51.9258 241.307C52.0547 240.936 52.2246 240.619 52.4355 240.357C52.6504 240.092 52.9102 239.891 53.2148 239.754C53.5195 239.613 53.8711 239.543 54.2695 239.543C54.668 239.543 55.0215 239.621 55.3301 239.777C55.6387 239.93 55.8984 240.148 56.1094 240.434C56.3203 240.719 56.4785 241.061 56.584 241.459C56.6934 241.854 56.748 242.293 56.748 242.777ZM55.6582 242.9V242.777C55.6582 242.461 55.625 242.164 55.5586 241.887C55.4922 241.605 55.3887 241.359 55.248 241.148C55.1113 240.934 54.9355 240.766 54.7207 240.645C54.5059 240.52 54.25 240.457 53.9531 240.457C53.6797 240.457 53.4414 240.504 53.2383 240.598C53.0391 240.691 52.8691 240.818 52.7285 240.979C52.5879 241.135 52.4727 241.314 52.3828 241.518C52.2969 241.717 52.2324 241.924 52.1895 242.139V243.656C52.2676 243.93 52.377 244.188 52.5176 244.43C52.6582 244.668 52.8457 244.861 53.0801 245.01C53.3145 245.154 53.6094 245.227 53.9648 245.227C54.2578 245.227 54.5098 245.166 54.7207 245.045C54.9355 244.92 55.1113 244.75 55.248 244.535C55.3887 244.32 55.4922 244.074 55.5586 243.797C55.625 243.516 55.6582 243.217 55.6582 242.9ZM59.3086 237V246H58.2188V237H59.3086ZM62.2266 239.66V246H61.1367V239.66H62.2266ZM61.0547 237.979C61.0547 237.803 61.1074 237.654 61.2129 237.533C61.3223 237.412 61.4824 237.352 61.6934 237.352C61.9004 237.352 62.0586 237.412 62.168 237.533C62.2812 237.654 62.3379 237.803 62.3379 237.979C62.3379 238.146 62.2812 238.291 62.168 238.412C62.0586 238.529 61.9004 238.588 61.6934 238.588C61.4824 238.588 61.3223 238.529 61.2129 238.412C61.1074 238.291 61.0547 238.146 61.0547 237.979ZM66.5039 245.227C66.7617 245.227 67 245.174 67.2188 245.068C67.4375 244.963 67.6172 244.818 67.7578 244.635C67.8984 244.447 67.9785 244.234 67.998 243.996H69.0293C69.0098 244.371 68.8828 244.721 68.6484 245.045C68.418 245.365 68.1152 245.625 67.7402 245.824C67.3652 246.02 66.9531 246.117 66.5039 246.117C66.0273 246.117 65.6113 246.033 65.2559 245.865C64.9043 245.697 64.6113 245.467 64.377 245.174C64.1465 244.881 63.9727 244.545 63.8555 244.166C63.7422 243.783 63.6855 243.379 63.6855 242.953V242.707C63.6855 242.281 63.7422 241.879 63.8555 241.5C63.9727 241.117 64.1465 240.779 64.377 240.486C64.6113 240.193 64.9043 239.963 65.2559 239.795C65.6113 239.627 66.0273 239.543 66.5039 239.543C67 239.543 67.4336 239.645 67.8047 239.848C68.1758 240.047 68.4668 240.32 68.6777 240.668C68.8926 241.012 69.0098 241.402 69.0293 241.84H67.998C67.9785 241.578 67.9043 241.342 67.7754 241.131C67.6504 240.92 67.4785 240.752 67.2598 240.627C67.0449 240.498 66.793 240.434 66.5039 240.434C66.1719 240.434 65.8926 240.5 65.666 240.633C65.4434 240.762 65.2656 240.938 65.1328 241.16C65.0039 241.379 64.9102 241.623 64.8516 241.893C64.7969 242.158 64.7695 242.43 64.7695 242.707V242.953C64.7695 243.23 64.7969 243.504 64.8516 243.773C64.9062 244.043 64.998 244.287 65.127 244.506C65.2598 244.725 65.4375 244.9 65.6602 245.033C65.8867 245.162 66.168 245.227 66.5039 245.227ZM73.9863 244.916V241.652C73.9863 241.402 73.9355 241.186 73.834 241.002C73.7363 240.814 73.5879 240.67 73.3887 240.568C73.1895 240.467 72.9434 240.416 72.6504 240.416C72.377 240.416 72.1367 240.463 71.9297 240.557C71.7266 240.65 71.5664 240.773 71.4492 240.926C71.3359 241.078 71.2793 241.242 71.2793 241.418H70.1953C70.1953 241.191 70.2539 240.967 70.3711 240.744C70.4883 240.521 70.6562 240.32 70.875 240.141C71.0977 239.957 71.3633 239.812 71.6719 239.707C71.9844 239.598 72.332 239.543 72.7148 239.543C73.1758 239.543 73.582 239.621 73.9336 239.777C74.2891 239.934 74.5664 240.17 74.7656 240.486C74.9688 240.799 75.0703 241.191 75.0703 241.664V244.617C75.0703 244.828 75.0879 245.053 75.123 245.291C75.1621 245.529 75.2188 245.734 75.293 245.906V246H74.1621C74.1074 245.875 74.0645 245.709 74.0332 245.502C74.002 245.291 73.9863 245.096 73.9863 244.916ZM74.1738 242.156L74.1855 242.918H73.0898C72.7812 242.918 72.5059 242.943 72.2637 242.994C72.0215 243.041 71.8184 243.113 71.6543 243.211C71.4902 243.309 71.3652 243.432 71.2793 243.58C71.1934 243.725 71.1504 243.895 71.1504 244.09C71.1504 244.289 71.1953 244.471 71.2852 244.635C71.375 244.799 71.5098 244.93 71.6895 245.027C71.873 245.121 72.0977 245.168 72.3633 245.168C72.6953 245.168 72.9883 245.098 73.2422 244.957C73.4961 244.816 73.6973 244.645 73.8457 244.441C73.998 244.238 74.0801 244.041 74.0918 243.85L74.5547 244.371C74.5273 244.535 74.4531 244.717 74.332 244.916C74.2109 245.115 74.0488 245.307 73.8457 245.49C73.6465 245.67 73.4082 245.82 73.1309 245.941C72.8574 246.059 72.5488 246.117 72.2051 246.117C71.7754 246.117 71.3984 246.033 71.0742 245.865C70.7539 245.697 70.5039 245.473 70.3242 245.191C70.1484 244.906 70.0605 244.588 70.0605 244.236C70.0605 243.896 70.127 243.598 70.2598 243.34C70.3926 243.078 70.584 242.861 70.834 242.689C71.084 242.514 71.3848 242.381 71.7363 242.291C72.0879 242.201 72.4805 242.156 72.9141 242.156H74.1738ZM79.4297 239.66V240.492H76.002V239.66H79.4297ZM77.1621 238.119H78.2461V244.43C78.2461 244.645 78.2793 244.807 78.3457 244.916C78.4121 245.025 78.498 245.098 78.6035 245.133C78.709 245.168 78.8223 245.186 78.9434 245.186C79.0332 245.186 79.127 245.178 79.2246 245.162C79.3262 245.143 79.4023 245.127 79.4531 245.115L79.459 246C79.373 246.027 79.2598 246.053 79.1191 246.076C78.9824 246.104 78.8164 246.117 78.6211 246.117C78.3555 246.117 78.1113 246.064 77.8887 245.959C77.666 245.854 77.4883 245.678 77.3555 245.432C77.2266 245.182 77.1621 244.846 77.1621 244.424V238.119ZM81.8789 239.66V246H80.7891V239.66H81.8789ZM80.707 237.979C80.707 237.803 80.7598 237.654 80.8652 237.533C80.9746 237.412 81.1348 237.352 81.3457 237.352C81.5527 237.352 81.7109 237.412 81.8203 237.533C81.9336 237.654 81.9902 237.803 81.9902 237.979C81.9902 238.146 81.9336 238.291 81.8203 238.412C81.7109 238.529 81.5527 238.588 81.3457 238.588C81.1348 238.588 80.9746 238.529 80.8652 238.412C80.7598 238.291 80.707 238.146 80.707 237.979ZM83.332 242.9V242.766C83.332 242.309 83.3984 241.885 83.5312 241.494C83.6641 241.1 83.8555 240.758 84.1055 240.469C84.3555 240.176 84.6582 239.949 85.0137 239.789C85.3691 239.625 85.7676 239.543 86.209 239.543C86.6543 239.543 87.0547 239.625 87.4102 239.789C87.7695 239.949 88.0742 240.176 88.3242 240.469C88.5781 240.758 88.7715 241.1 88.9043 241.494C89.0371 241.885 89.1035 242.309 89.1035 242.766V242.9C89.1035 243.357 89.0371 243.781 88.9043 244.172C88.7715 244.562 88.5781 244.904 88.3242 245.197C88.0742 245.486 87.7715 245.713 87.416 245.877C87.0645 246.037 86.666 246.117 86.2207 246.117C85.7754 246.117 85.375 246.037 85.0195 245.877C84.6641 245.713 84.3594 245.486 84.1055 245.197C83.8555 244.904 83.6641 244.562 83.5312 244.172C83.3984 243.781 83.332 243.357 83.332 242.9ZM84.416 242.766V242.9C84.416 243.217 84.4531 243.516 84.5273 243.797C84.6016 244.074 84.7129 244.32 84.8613 244.535C85.0137 244.75 85.2031 244.92 85.4297 245.045C85.6562 245.166 85.9199 245.227 86.2207 245.227C86.5176 245.227 86.7773 245.166 87 245.045C87.2266 244.92 87.4141 244.75 87.5625 244.535C87.7109 244.32 87.8223 244.074 87.8965 243.797C87.9746 243.516 88.0137 243.217 88.0137 242.9V242.766C88.0137 242.453 87.9746 242.158 87.8965 241.881C87.8223 241.6 87.709 241.352 87.5566 241.137C87.4082 240.918 87.2207 240.746 86.9941 240.621C86.7715 240.496 86.5098 240.434 86.209 240.434C85.9121 240.434 85.6504 240.496 85.4238 240.621C85.2012 240.746 85.0137 240.918 84.8613 241.137C84.7129 241.352 84.6016 241.6 84.5273 241.881C84.4531 242.158 84.416 242.453 84.416 242.766ZM91.5469 241.014V246H90.4629V239.66H91.4883L91.5469 241.014ZM91.2891 242.59L90.8379 242.572C90.8418 242.139 90.9062 241.738 91.0312 241.371C91.1562 241 91.332 240.678 91.5586 240.404C91.7852 240.131 92.0547 239.92 92.3672 239.771C92.6836 239.619 93.0332 239.543 93.416 239.543C93.7285 239.543 94.0098 239.586 94.2598 239.672C94.5098 239.754 94.7227 239.887 94.8984 240.07C95.0781 240.254 95.2148 240.492 95.3086 240.785C95.4023 241.074 95.4492 241.428 95.4492 241.846V246H94.3594V241.834C94.3594 241.502 94.3105 241.236 94.2129 241.037C94.1152 240.834 93.9727 240.688 93.7852 240.598C93.5977 240.504 93.3672 240.457 93.0938 240.457C92.8242 240.457 92.5781 240.514 92.3555 240.627C92.1367 240.74 91.9473 240.896 91.7871 241.096C91.6309 241.295 91.5078 241.523 91.418 241.781C91.332 242.035 91.2891 242.305 91.2891 242.59Z" fill="#0D1024" fill-opacity="0.88"/>
<rect x="92" y="291" width="90" height="48" rx="4" fill="#6E80E1" fill-opacity="0.08"/>
<rect x="100" y="299" width="43" height="8" rx="4" fill="#6E80E1" fill-opacity="0.16"/>
<rect x="92" y="259" width="90" height="8" rx="4" fill="#6E80E1" fill-opacity="0.16"/>
<rect x="92" y="275" width="51" height="8" rx="4" fill="#6E80E1" fill-opacity="0.16"/>
<g filter="url(#filter6_d_672_5452)">
<rect x="428" y="118" width="152" height="180" rx="8" fill="white"/>
</g>
<path d="M447.804 189.316L444 203.265V176.5C444.001 175.837 444.264 175.202 444.733 174.733C445.202 174.264 445.837 174.001 446.5 174H458.379C458.707 173.999 459.033 174.063 459.336 174.189C459.639 174.315 459.915 174.499 460.147 174.732L465.268 179.853C465.314 179.9 465.369 179.937 465.43 179.962C465.49 179.987 465.556 180 465.621 180H483.5C484.163 180.001 484.798 180.264 485.267 180.733C485.736 181.202 485.999 181.837 486 182.5V186H452.146C451.159 186.002 450.2 186.327 449.416 186.926C448.632 187.525 448.066 188.364 447.804 189.316ZM491.023 188.982C490.791 188.676 490.49 188.428 490.145 188.257C489.801 188.087 489.421 187.999 489.036 188H452.146C451.597 188.001 451.064 188.182 450.629 188.515C450.193 188.848 449.879 189.315 449.734 189.844L444.552 208.844C444.451 209.215 444.437 209.604 444.511 209.981C444.585 210.358 444.744 210.713 444.978 211.018C445.211 211.323 445.512 211.571 445.856 211.741C446.2 211.911 446.58 212 446.964 212H483.854C484.403 211.999 484.936 211.818 485.371 211.485C485.807 211.152 486.121 210.685 486.266 210.156L491.448 191.156C491.55 190.786 491.565 190.397 491.491 190.019C491.418 189.642 491.257 189.287 491.023 188.982H491.023Z" fill="#6E80E1"/>
<path d="M447.299 148H445.518L445.529 147.08H447.299C447.908 147.08 448.416 146.953 448.822 146.699C449.229 146.441 449.533 146.082 449.736 145.621C449.943 145.156 450.047 144.613 450.047 143.992V143.471C450.047 142.982 449.988 142.549 449.871 142.17C449.754 141.787 449.582 141.465 449.355 141.203C449.129 140.938 448.852 140.736 448.523 140.6C448.199 140.463 447.826 140.395 447.404 140.395H445.482V139.469H447.404C447.963 139.469 448.473 139.562 448.934 139.75C449.395 139.934 449.791 140.201 450.123 140.553C450.459 140.9 450.717 141.322 450.896 141.818C451.076 142.311 451.166 142.865 451.166 143.482V143.992C451.166 144.609 451.076 145.166 450.896 145.662C450.717 146.154 450.457 146.574 450.117 146.922C449.781 147.27 449.375 147.537 448.898 147.725C448.426 147.908 447.893 148 447.299 148ZM446.121 139.469V148H444.99V139.469H446.121ZM452.414 144.9V144.766C452.414 144.309 452.48 143.885 452.613 143.494C452.746 143.1 452.938 142.758 453.188 142.469C453.438 142.176 453.74 141.949 454.096 141.789C454.451 141.625 454.85 141.543 455.291 141.543C455.736 141.543 456.137 141.625 456.492 141.789C456.852 141.949 457.156 142.176 457.406 142.469C457.66 142.758 457.854 143.1 457.986 143.494C458.119 143.885 458.186 144.309 458.186 144.766V144.9C458.186 145.357 458.119 145.781 457.986 146.172C457.854 146.562 457.66 146.904 457.406 147.197C457.156 147.486 456.854 147.713 456.498 147.877C456.146 148.037 455.748 148.117 455.303 148.117C454.857 148.117 454.457 148.037 454.102 147.877C453.746 147.713 453.441 147.486 453.188 147.197C452.938 146.904 452.746 146.562 452.613 146.172C452.48 145.781 452.414 145.357 452.414 144.9ZM453.498 144.766V144.9C453.498 145.217 453.535 145.516 453.609 145.797C453.684 146.074 453.795 146.32 453.943 146.535C454.096 146.75 454.285 146.92 454.512 147.045C454.738 147.166 455.002 147.227 455.303 147.227C455.6 147.227 455.859 147.166 456.082 147.045C456.309 146.92 456.496 146.75 456.645 146.535C456.793 146.32 456.904 146.074 456.979 145.797C457.057 145.516 457.096 145.217 457.096 144.9V144.766C457.096 144.453 457.057 144.158 456.979 143.881C456.904 143.6 456.791 143.352 456.639 143.137C456.49 142.918 456.303 142.746 456.076 142.621C455.854 142.496 455.592 142.434 455.291 142.434C454.994 142.434 454.732 142.496 454.506 142.621C454.283 142.746 454.096 142.918 453.943 143.137C453.795 143.352 453.684 143.6 453.609 143.881C453.535 144.158 453.498 144.453 453.498 144.766ZM462.082 147.227C462.34 147.227 462.578 147.174 462.797 147.068C463.016 146.963 463.195 146.818 463.336 146.635C463.477 146.447 463.557 146.234 463.576 145.996H464.607C464.588 146.371 464.461 146.721 464.227 147.045C463.996 147.365 463.693 147.625 463.318 147.824C462.943 148.02 462.531 148.117 462.082 148.117C461.605 148.117 461.189 148.033 460.834 147.865C460.482 147.697 460.189 147.467 459.955 147.174C459.725 146.881 459.551 146.545 459.434 146.166C459.32 145.783 459.264 145.379 459.264 144.953V144.707C459.264 144.281 459.32 143.879 459.434 143.5C459.551 143.117 459.725 142.779 459.955 142.486C460.189 142.193 460.482 141.963 460.834 141.795C461.189 141.627 461.605 141.543 462.082 141.543C462.578 141.543 463.012 141.645 463.383 141.848C463.754 142.047 464.045 142.32 464.256 142.668C464.471 143.012 464.588 143.402 464.607 143.84H463.576C463.557 143.578 463.482 143.342 463.354 143.131C463.229 142.92 463.057 142.752 462.838 142.627C462.623 142.498 462.371 142.434 462.082 142.434C461.75 142.434 461.471 142.5 461.244 142.633C461.021 142.762 460.844 142.938 460.711 143.16C460.582 143.379 460.488 143.623 460.43 143.893C460.375 144.158 460.348 144.43 460.348 144.707V144.953C460.348 145.23 460.375 145.504 460.43 145.773C460.484 146.043 460.576 146.287 460.705 146.506C460.838 146.725 461.016 146.9 461.238 147.033C461.465 147.162 461.746 147.227 462.082 147.227ZM469.705 146.535V141.66H470.795V148H469.758L469.705 146.535ZM469.91 145.199L470.361 145.188C470.361 145.609 470.316 146 470.227 146.359C470.141 146.715 470 147.023 469.805 147.285C469.609 147.547 469.354 147.752 469.037 147.9C468.721 148.045 468.336 148.117 467.883 148.117C467.574 148.117 467.291 148.072 467.033 147.982C466.779 147.893 466.561 147.754 466.377 147.566C466.193 147.379 466.051 147.135 465.949 146.834C465.852 146.533 465.803 146.172 465.803 145.75V141.66H466.887V145.762C466.887 146.047 466.918 146.283 466.98 146.471C467.047 146.654 467.135 146.801 467.244 146.91C467.357 147.016 467.482 147.09 467.619 147.133C467.76 147.176 467.904 147.197 468.053 147.197C468.514 147.197 468.879 147.109 469.148 146.934C469.418 146.754 469.611 146.514 469.729 146.213C469.85 145.908 469.91 145.57 469.91 145.199ZM473.525 142.92V148H472.436V141.66H473.467L473.525 142.92ZM473.303 144.59L472.799 144.572C472.803 144.139 472.859 143.738 472.969 143.371C473.078 143 473.24 142.678 473.455 142.404C473.67 142.131 473.938 141.92 474.258 141.771C474.578 141.619 474.949 141.543 475.371 141.543C475.668 141.543 475.941 141.586 476.191 141.672C476.441 141.754 476.658 141.885 476.842 142.064C477.025 142.244 477.168 142.475 477.27 142.756C477.371 143.037 477.422 143.377 477.422 143.775V148H476.338V143.828C476.338 143.496 476.281 143.23 476.168 143.031C476.059 142.832 475.902 142.688 475.699 142.598C475.496 142.504 475.258 142.457 474.984 142.457C474.664 142.457 474.396 142.514 474.182 142.627C473.967 142.74 473.795 142.896 473.666 143.096C473.537 143.295 473.443 143.523 473.385 143.781C473.33 144.035 473.303 144.305 473.303 144.59ZM477.41 143.992L476.684 144.215C476.688 143.867 476.744 143.533 476.854 143.213C476.967 142.893 477.129 142.607 477.34 142.357C477.555 142.107 477.818 141.91 478.131 141.766C478.443 141.617 478.801 141.543 479.203 141.543C479.543 141.543 479.844 141.588 480.105 141.678C480.371 141.768 480.594 141.906 480.773 142.094C480.957 142.277 481.096 142.514 481.189 142.803C481.283 143.092 481.33 143.436 481.33 143.834V148H480.24V143.822C480.24 143.467 480.184 143.191 480.07 142.996C479.961 142.797 479.805 142.658 479.602 142.58C479.402 142.498 479.164 142.457 478.887 142.457C478.648 142.457 478.438 142.498 478.254 142.58C478.07 142.662 477.916 142.775 477.791 142.92C477.666 143.061 477.57 143.223 477.504 143.406C477.441 143.59 477.41 143.785 477.41 143.992ZM485.602 148.117C485.16 148.117 484.76 148.043 484.4 147.895C484.045 147.742 483.738 147.529 483.48 147.256C483.227 146.982 483.031 146.658 482.895 146.283C482.758 145.908 482.689 145.498 482.689 145.053V144.807C482.689 144.291 482.766 143.832 482.918 143.43C483.07 143.023 483.277 142.68 483.539 142.398C483.801 142.117 484.098 141.904 484.43 141.76C484.762 141.615 485.105 141.543 485.461 141.543C485.914 141.543 486.305 141.621 486.633 141.777C486.965 141.934 487.236 142.152 487.447 142.434C487.658 142.711 487.814 143.039 487.916 143.418C488.018 143.793 488.068 144.203 488.068 144.648V145.135H483.334V144.25H486.984V144.168C486.969 143.887 486.91 143.613 486.809 143.348C486.711 143.082 486.555 142.863 486.34 142.691C486.125 142.52 485.832 142.434 485.461 142.434C485.215 142.434 484.988 142.486 484.781 142.592C484.574 142.693 484.396 142.846 484.248 143.049C484.1 143.252 483.984 143.5 483.902 143.793C483.82 144.086 483.779 144.424 483.779 144.807V145.053C483.779 145.354 483.82 145.637 483.902 145.902C483.988 146.164 484.111 146.395 484.271 146.594C484.436 146.793 484.633 146.949 484.863 147.062C485.098 147.176 485.363 147.232 485.66 147.232C486.043 147.232 486.367 147.154 486.633 146.998C486.898 146.842 487.131 146.633 487.33 146.371L487.986 146.893C487.85 147.1 487.676 147.297 487.465 147.484C487.254 147.672 486.994 147.824 486.686 147.941C486.381 148.059 486.02 148.117 485.602 148.117ZM490.418 143.014V148H489.334V141.66H490.359L490.418 143.014ZM490.16 144.59L489.709 144.572C489.713 144.139 489.777 143.738 489.902 143.371C490.027 143 490.203 142.678 490.43 142.404C490.656 142.131 490.926 141.92 491.238 141.771C491.555 141.619 491.904 141.543 492.287 141.543C492.6 141.543 492.881 141.586 493.131 141.672C493.381 141.754 493.594 141.887 493.77 142.07C493.949 142.254 494.086 142.492 494.18 142.785C494.273 143.074 494.32 143.428 494.32 143.846V148H493.23V143.834C493.23 143.502 493.182 143.236 493.084 143.037C492.986 142.834 492.844 142.688 492.656 142.598C492.469 142.504 492.238 142.457 491.965 142.457C491.695 142.457 491.449 142.514 491.227 142.627C491.008 142.74 490.818 142.896 490.658 143.096C490.502 143.295 490.379 143.523 490.289 143.781C490.203 144.035 490.16 144.305 490.16 144.59ZM498.621 141.66V142.492H495.193V141.66H498.621ZM496.354 140.119H497.438V146.43C497.438 146.645 497.471 146.807 497.537 146.916C497.604 147.025 497.689 147.098 497.795 147.133C497.9 147.168 498.014 147.186 498.135 147.186C498.225 147.186 498.318 147.178 498.416 147.162C498.518 147.143 498.594 147.127 498.645 147.115L498.65 148C498.564 148.027 498.451 148.053 498.311 148.076C498.174 148.104 498.008 148.117 497.812 148.117C497.547 148.117 497.303 148.064 497.08 147.959C496.857 147.854 496.68 147.678 496.547 147.432C496.418 147.182 496.354 146.846 496.354 146.424V140.119Z" fill="#0D1024" fill-opacity="0.88"/>
<rect x="444" y="230" width="120" height="48" rx="4" fill="#6E80E1" fill-opacity="0.08"/>
<rect x="452" y="238" width="71" height="8" rx="4" fill="#6E80E1" fill-opacity="0.16"/>
<rect x="500" y="182" width="47" height="8" rx="4" fill="#6E80E1" fill-opacity="0.16"/>
<rect x="500" y="198" width="64" height="8" rx="4" fill="#6E80E1" fill-opacity="0.16"/>
<path fill-rule="evenodd" clip-rule="evenodd" d="M242.567 233.172C255.975 230.701 268.524 230.225 272.954 230.807L272.563 233.781C268.585 233.258 256.391 233.675 243.11 236.122C233.156 237.957 222.852 240.888 215.044 245.252C216.095 245.121 217.066 245.08 217.956 245.123C220.891 245.265 223.172 246.345 224.301 248.334C225.421 250.306 225.132 252.692 224 254.841C222.86 257.007 220.79 259.117 217.94 260.823C215.438 262.321 212.614 263.188 209.993 263.442C207.405 263.694 204.837 263.363 202.953 262.258C201.992 261.694 201.175 260.905 200.679 259.863C200.179 258.813 200.061 257.622 200.312 256.358C200.506 255.38 200.921 254.347 201.565 253.26C195.426 256.311 187.94 260.593 180.712 265.251C170.826 271.622 161.612 278.574 156.997 283.916L154.726 281.955C159.645 276.261 169.179 269.114 179.087 262.73C188.907 256.402 199.283 250.703 206.261 247.79C214.727 240.092 229.298 235.617 242.567 233.172ZM207.903 250.358C204.817 253.258 203.549 255.456 203.255 256.941C203.112 257.663 203.202 258.185 203.388 258.574C203.577 258.971 203.921 259.347 204.471 259.67C205.611 260.339 207.469 260.673 209.703 260.456C211.903 260.243 214.296 259.508 216.4 258.249C218.888 256.759 220.516 255.019 221.346 253.443C222.184 251.851 222.14 250.603 221.692 249.815C221.253 249.042 220.153 248.233 217.812 248.12C215.518 248.009 212.243 248.595 207.903 250.358Z" fill="#60CDD3"/>
<path fill-rule="evenodd" clip-rule="evenodd" d="M163.536 279.386C166.639 279.162 169.483 279.491 171.313 279.875L170.697 282.811C169.101 282.476 166.539 282.177 163.753 282.378C160.959 282.58 158.049 283.277 155.655 284.841L153.513 282.875C154.901 280.292 155.779 277.329 156.098 274.596C156.422 271.822 156.149 269.481 155.443 268.036L158.139 266.72C159.202 268.897 159.433 271.899 159.078 274.944C158.866 276.756 158.439 278.653 157.803 280.505C159.723 279.85 161.694 279.519 163.536 279.386Z" fill="#60CDD3"/>
<defs>
<filter id="filter0_b_672_5452" x="15" y="-6" width="572" height="450" filterUnits="userSpaceOnUse" color-interpolation-filters="sRGB">
<feFlood flood-opacity="0" result="BackgroundImageFix"/>
<feGaussianBlur in="BackgroundImageFix" stdDeviation="23"/>
<feComposite in2="SourceAlpha" operator="in" result="effect1_backgroundBlur_672_5452"/>
<feBlend mode="normal" in="SourceGraphic" in2="effect1_backgroundBlur_672_5452" result="shape"/>
</filter>
<filter id="filter1_b_672_5452" x="15" y="-6" width="572" height="450" filterUnits="userSpaceOnUse" color-interpolation-filters="sRGB">
<feFlood flood-opacity="0" result="BackgroundImageFix"/>
<feGaussianBlur in="BackgroundImageFix" stdDeviation="23"/>
<feComposite in2="SourceAlpha" operator="in" result="effect1_backgroundBlur_672_5452"/>
<feBlend mode="normal" in="SourceGraphic" in2="effect1_backgroundBlur_672_5452" result="shape"/>
</filter>
<filter id="filter2_d_672_5452" x="57" y="58" width="472" height="352" filterUnits="userSpaceOnUse" color-interpolation-filters="sRGB">
<feFlood flood-opacity="0" result="BackgroundImageFix"/>
<feColorMatrix in="SourceAlpha" type="matrix" values="0 0 0 0 0 0 0 0 0 0 0 0 0 0 0 0 0 0 127 0" result="hardAlpha"/>
<feMorphology radius="4" operator="dilate" in="SourceAlpha" result="effect1_dropShadow_672_5452"/>
<feOffset dy="2"/>
<feGaussianBlur stdDeviation="6"/>
<feComposite in2="hardAlpha" operator="out"/>
<feColorMatrix type="matrix" values="0 0 0 0 0.247059 0 0 0 0 0.317647 0 0 0 0 0.709804 0 0 0 0.08 0"/>
<feBlend mode="normal" in2="BackgroundImageFix" result="effect1_dropShadow_672_5452"/>
<feBlend mode="normal" in="SourceGraphic" in2="effect1_dropShadow_672_5452" result="shape"/>
</filter>
<filter id="filter3_d_672_5452" x="67" y="68" width="452" height="44" filterUnits="userSpaceOnUse" color-interpolation-filters="sRGB">
<feFlood flood-opacity="0" result="BackgroundImageFix"/>
<feColorMatrix in="SourceAlpha" type="matrix" values="0 0 0 0 0 0 0 0 0 0 0 0 0 0 0 0 0 0 127 0" result="hardAlpha"/>
<feOffset dy="2"/>
<feGaussianBlur stdDeviation="3"/>
<feComposite in2="hardAlpha" operator="out"/>
<feColorMatrix type="matrix" values="0 0 0 0 0.247059 0 0 0 0 0.317647 0 0 0 0 0.709804 0 0 0 0.08 0"/>
<feBlend mode="normal" in2="BackgroundImageFix" result="effect1_dropShadow_672_5452"/>
<feBlend mode="normal" in="SourceGraphic" in2="effect1_dropShadow_672_5452" result="shape"/>
</filter>
<filter id="filter4_d_672_5452" x="67" y="106" width="452" height="294" filterUnits="userSpaceOnUse" color-interpolation-filters="sRGB">
<feFlood flood-opacity="0" result="BackgroundImageFix"/>
<feColorMatrix in="SourceAlpha" type="matrix" values="0 0 0 0 0 0 0 0 0 0 0 0 0 0 0 0 0 0 127 0" result="hardAlpha"/>
<feOffset dy="2"/>
<feGaussianBlur stdDeviation="3"/>
<feComposite in2="hardAlpha" operator="out"/>
<feColorMatrix type="matrix" values="0 0 0 0 0.247059 0 0 0 0 0.317647 0 0 0 0 0.709804 0 0 0 0.08 0"/>
<feBlend mode="normal" in2="BackgroundImageFix" result="effect1_dropShadow_672_5452"/>
<feBlend mode="normal" in="SourceGraphic" in2="effect1_dropShadow_672_5452" result="shape"/>
</filter>
<filter id="filter5_d_672_5452" x="4" y="202" width="210" height="171" filterUnits="userSpaceOnUse" color-interpolation-filters="sRGB">
<feFlood flood-opacity="0" result="BackgroundImageFix"/>
<feColorMatrix in="SourceAlpha" type="matrix" values="0 0 0 0 0 0 0 0 0 0 0 0 0 0 0 0 0 0 127 0" result="hardAlpha"/>
<feMorphology radius="4" operator="dilate" in="SourceAlpha" result="effect1_dropShadow_672_5452"/>
<feOffset dy="2"/>
<feGaussianBlur stdDeviation="6"/>
<feComposite in2="hardAlpha" operator="out"/>
<feColorMatrix type="matrix" values="0 0 0 0 0.247059 0 0 0 0 0.317647 0 0 0 0 0.709804 0 0 0 0.08 0"/>
<feBlend mode="normal" in2="BackgroundImageFix" result="effect1_dropShadow_672_5452"/>
<feBlend mode="normal" in="SourceGraphic" in2="effect1_dropShadow_672_5452" result="shape"/>
</filter>
<filter id="filter6_d_672_5452" x="412" y="104" width="184" height="212" filterUnits="userSpaceOnUse" color-interpolation-filters="sRGB">
<feFlood flood-opacity="0" result="BackgroundImageFix"/>
<feColorMatrix in="SourceAlpha" type="matrix" values="0 0 0 0 0 0 0 0 0 0 0 0 0 0 0 0 0 0 127 0" result="hardAlpha"/>
<feMorphology radius="4" operator="dilate" in="SourceAlpha" result="effect1_dropShadow_672_5452"/>
<feOffset dy="2"/>
<feGaussianBlur stdDeviation="6"/>
<feComposite in2="hardAlpha" operator="out"/>
<feColorMatrix type="matrix" values="0 0 0 0 0.247059 0 0 0 0 0.317647 0 0 0 0 0.709804 0 0 0 0.08 0"/>
<feBlend mode="normal" in2="BackgroundImageFix" result="effect1_dropShadow_672_5452"/>
<feBlend mode="normal" in="SourceGraphic" in2="effect1_dropShadow_672_5452" result="shape"/>
</filter>
<linearGradient id="paint0_linear_672_5452" x1="78.1429" y1="40" x2="200.877" y2="442.456" gradientUnits="userSpaceOnUse">
<stop stop-color="#9FAAE6" stop-opacity="0.2"/>
<stop offset="1" stop-color="#8994CE"/>
</linearGradient>
<clipPath id="clip0_672_5452">
<rect width="48" height="48" fill="white" transform="translate(36 271)"/>
</clipPath>
</defs>
</svg>
