<svg width="600" height="440" viewBox="0 0 600 440" fill="none" xmlns="http://www.w3.org/2000/svg">
<path d="M0 24C0 10.7452 10.7452 0 24 0H576C589.255 0 600 10.7452 600 24V416C600 429.255 589.255 440 576 440H24C10.7452 440 0 429.255 0 416V24Z" fill="#47518B"/>
<circle cx="534" cy="149" r="40" fill="#60CDD3"/>
<path d="M80.4751 286.383C85.8122 283.293 92.4908 287.149 92.4834 293.316L92.4255 341.742C92.4182 347.896 85.7552 351.737 80.4255 348.66L38.5745 324.497C33.2449 321.42 33.2403 313.729 38.5662 310.646L80.4751 286.383Z" fill="#E798D1"/>
<path d="M37.3422 203.198C38.3235 206.632 41.4626 209 45.0344 209H144.394C149.709 209 153.547 203.913 152.086 198.802L140.658 158.802C139.677 155.368 136.537 153 132.966 153H33.6058C28.2908 153 24.4535 158.087 25.9136 163.198L37.3422 203.198Z" fill="#64B6F7"/>
<g filter="url(#filter0_b_665_5435)">
<path d="M58 48C58 43.5817 61.5817 40 66 40H530C534.418 40 538 43.5817 538 48V390C538 394.418 534.418 398 530 398H66C61.5817 398 58 394.418 58 390V48Z" fill="#6E78AF" fill-opacity="0.5"/>
</g>
<g filter="url(#filter1_b_665_5435)">
<path d="M58 48C58 43.5817 61.5817 40 66 40H530C534.418 40 538 43.5817 538 48V390C538 394.418 534.418 398 530 398H66C61.5817 398 58 394.418 58 390V48Z" fill="#6E78AF" fill-opacity="0.2"/>
</g>
<path d="M58.75 48C58.75 43.9959 61.9959 40.75 66 40.75H530C534.004 40.75 537.25 43.9959 537.25 48V390C537.25 394.004 534.004 397.25 530 397.25H66C61.9959 397.25 58.75 394.004 58.75 390V48Z" stroke="url(#paint0_linear_665_5435)" stroke-width="1.5"/>
<circle opacity="0.5" cx="76" cy="56" r="6" fill="white"/>
<circle opacity="0.5" cx="94" cy="56" r="6" fill="white"/>
<circle opacity="0.5" cx="112" cy="56" r="6" fill="white"/>
<g filter="url(#filter2_d_665_5435)">
<rect x="70" y="72" width="440" height="320" rx="8" fill="#F5F9FF"/>
</g>
<g filter="url(#filter3_d_665_5435)">
<path d="M70 80C70 75.5817 73.5817 72 78 72H502C506.418 72 510 75.5817 510 80V102C510 103.105 509.105 104 508 104H72C70.8954 104 70 103.105 70 102V80Z" fill="white"/>
</g>
<rect x="86" y="80" width="229" height="16" rx="4" fill="#6E80E1" fill-opacity="0.08"/>
<rect x="476" y="79" width="18" height="18" rx="9" fill="#6E80E1" fill-opacity="0.16"/>
<rect x="93" y="85" width="91" height="6" rx="3" fill="#6E80E1" fill-opacity="0.16"/>
<g filter="url(#filter4_d_665_5435)">
<path d="M70 110H510V384C510 388.418 506.418 392 502 392H78C73.5817 392 70 388.418 70 384V110Z" fill="white"/>
</g>
<g filter="url(#filter5_d_665_5435)">
<path d="M70 110H510V142H70V110Z" fill="white"/>
</g>
<rect x="86" y="118" width="120" height="16" rx="4" fill="#6E80E1" fill-opacity="0.08"/>
<rect x="366" y="119" width="40" height="14" rx="4" fill="#6E80E1" fill-opacity="0.08"/>
<rect x="410" y="119" width="40" height="14" rx="4" fill="#6E80E1" fill-opacity="0.08"/>
<rect x="454" y="119" width="40" height="14" rx="4" fill="#6E80E1" fill-opacity="0.2"/>
<rect x="98" y="123" width="40" height="6" rx="3" fill="#6E80E1" fill-opacity="0.16"/>
<rect x="78" y="150" width="208" height="105" rx="4" fill="white"/>
<rect x="78.5" y="150.5" width="207" height="104" rx="3.5" stroke="#0D1024" stroke-opacity="0.08"/>
<rect x="94" y="231" width="16" height="16" rx="4" fill="#6E80E1" fill-opacity="0.08"/>
<rect x="118" y="231" width="40" height="16" rx="4" fill="#6E80E1" fill-opacity="0.08"/>
<rect x="166" y="231" width="80" height="16" rx="4" fill="#6E80E1" fill-opacity="0.08"/>
<rect x="79.25" y="222.25" width="205.5" height="0.5" stroke="#0D1024" stroke-opacity="0.08" stroke-width="0.5"/>
<rect x="94" y="166" width="144" height="24" rx="4" fill="#6E80E1" fill-opacity="0.08"/>
<rect x="94" y="202" width="176" height="8" rx="4" fill="#6E80E1" fill-opacity="0.08"/>
<rect x="94" y="202" width="78" height="8" rx="4" fill="#6E80E1" fill-opacity="0.3"/>
<rect x="294" y="150" width="208" height="105" rx="4" fill="white"/>
<rect x="294.5" y="150.5" width="207" height="104" rx="3.5" stroke="#0D1024" stroke-opacity="0.08"/>
<rect x="310" y="231" width="16" height="16" rx="4" fill="#6E80E1" fill-opacity="0.08"/>
<rect x="334" y="231" width="40" height="16" rx="4" fill="#6E80E1" fill-opacity="0.08"/>
<rect x="382" y="231" width="80" height="16" rx="4" fill="#6E80E1" fill-opacity="0.08"/>
<rect x="295.25" y="222.25" width="205.5" height="0.5" stroke="#0D1024" stroke-opacity="0.08" stroke-width="0.5"/>
<rect x="310" y="166" width="144" height="24" rx="4" fill="#6E80E1" fill-opacity="0.08"/>
<rect x="310" y="202" width="176" height="8" rx="4" fill="#6E80E1" fill-opacity="0.08"/>
<rect x="310" y="202" width="78" height="8" rx="4" fill="#6E80E1" fill-opacity="0.3"/>
<rect x="342" y="263" width="160" height="120" rx="4" fill="white"/>
<rect x="342.5" y="263.5" width="159" height="119" rx="3.5" stroke="#0D1024" stroke-opacity="0.08"/>
<rect x="358" y="351" width="34" height="16" rx="4" fill="#6E80E1" fill-opacity="0.08"/>
<rect x="358" y="303" width="34" height="16" rx="4" fill="#6E80E1" fill-opacity="0.08"/>
<rect x="358" y="327" width="34" height="16" rx="4" fill="#6E80E1" fill-opacity="0.08"/>
<rect x="399" y="351" width="87" height="16" rx="4" fill="#6E80E1" fill-opacity="0.08"/>
<rect x="399" y="303" width="87" height="16" rx="4" fill="#6E80E1" fill-opacity="0.08"/>
<rect x="399" y="327" width="58" height="16" rx="4" fill="#6E80E1" fill-opacity="0.08"/>
<rect x="358" y="279" width="120" height="16" rx="4" fill="#6E80E1" fill-opacity="0.08"/>
<rect x="370" y="284" width="40" height="6" rx="3" fill="#6E80E1" fill-opacity="0.16"/>
<rect x="79" y="263" width="255" height="120" rx="4" fill="white"/>
<rect x="79.5" y="263.5" width="254" height="119" rx="3.5" stroke="#0D1024" stroke-opacity="0.08"/>
<rect x="95" y="279" width="191" height="16" rx="4" fill="#6E80E1" fill-opacity="0.08"/>
<rect x="107" y="284" width="56" height="6" rx="3" fill="#6E80E1" fill-opacity="0.16"/>
<path d="M95 307C95 304.791 96.7909 303 99 303H314C316.209 303 318 304.791 318 307V383H95V307Z" fill="#6E80E1" fill-opacity="0.08"/>
<mask id="mask0_665_5435" style="mask-type:alpha" maskUnits="userSpaceOnUse" x="95" y="303" width="223" height="80">
<path d="M95 307C95 304.791 96.7909 303 99 303H314C316.209 303 318 304.791 318 307V383H95V307Z" fill="#6E80E1"/>
</mask>
<g mask="url(#mask0_665_5435)">
<path d="M89 329V389.5L330.5 383.5V317L312.5 308.5C302.333 315.333 280.6 329 275 329C268 329 266 322.5 255.5 317C245 311.5 243 325.5 239 329C235 332.5 208.5 332.5 206 332.5C203.5 332.5 194.5 317 187.5 314.5C180.5 312 165.5 314.5 159.5 317C153.5 319.5 136 325 133 322.5C130 320 119.5 329 116.5 332.5C113.5 336 106.5 334 104 332.5C102 331.3 93.1667 329.667 89 329Z" fill="#6E80E1" fill-opacity="0.16"/>
</g>
<path d="M167.742 341.333C165.062 341.333 162.888 343.507 162.888 346.188C162.888 349.828 167.742 355.202 167.742 355.202C167.742 355.202 172.596 349.828 172.596 346.188C172.596 343.507 170.422 341.333 167.742 341.333ZM167.742 347.921C166.785 347.921 166.008 347.144 166.008 346.188C166.008 345.231 166.785 344.454 167.742 344.454C168.699 344.454 169.476 345.231 169.476 346.188C169.476 347.144 168.699 347.921 167.742 347.921Z" fill="#6E80E1"/>
<g filter="url(#filter6_d_665_5435)">
<rect x="255" y="180" width="299" height="221" rx="16" fill="white"/>
</g>
<rect x="385" y="186" width="32" height="4" rx="2" fill="#6E80E1" fill-opacity="0.32"/>
<rect x="421" y="186" width="4" height="4" rx="2" fill="#6E80E1" fill-opacity="0.32"/>
<rect x="266" y="194" width="278" height="185" fill="#6E80E1" fill-opacity="0.08"/>
<rect x="274" y="202" width="116" height="169" rx="4" fill="white"/>
<path opacity="0.7" fill-rule="evenodd" clip-rule="evenodd" d="M332 226.69C313.603 226.69 298.69 241.603 298.69 260C298.69 278.397 313.603 293.31 332 293.31C350.397 293.31 365.31 278.397 365.31 260C365.31 241.603 350.397 226.69 332 226.69ZM290 260C290 236.804 308.804 218 332 218C355.196 218 374 236.804 374 260C374 283.196 355.196 302 332 302C308.804 302 290 283.196 290 260Z" fill="#6E80E1"/>
<path d="M332 226.69C313.603 226.69 298.69 241.603 298.69 260C298.69 278.397 313.603 293.31 332 293.31V302C308.804 302 290 283.196 290 260C290 236.804 308.804 218 332 218V226.69Z" fill="#64B6F7"/>
<path fill-rule="evenodd" clip-rule="evenodd" d="M332.25 226.535C317.426 226.535 304.852 235.98 300.524 249.05L292.25 246.442C297.703 229.972 313.544 218.05 332.25 218.05V226.535Z" fill="#85E6EC"/>
<path d="M316.822 276.77V269H317.912V278H316.916L316.822 276.77ZM312.557 274.9V274.777C312.557 274.293 312.615 273.854 312.732 273.459C312.854 273.061 313.023 272.719 313.242 272.434C313.465 272.148 313.729 271.93 314.033 271.777C314.342 271.621 314.686 271.543 315.064 271.543C315.463 271.543 315.811 271.613 316.107 271.754C316.408 271.891 316.662 272.092 316.869 272.357C317.08 272.619 317.246 272.936 317.367 273.307C317.488 273.678 317.572 274.098 317.619 274.566V275.105C317.576 275.57 317.492 275.988 317.367 276.359C317.246 276.73 317.08 277.047 316.869 277.309C316.662 277.57 316.408 277.771 316.107 277.912C315.807 278.049 315.455 278.117 315.053 278.117C314.682 278.117 314.342 278.037 314.033 277.877C313.729 277.717 313.465 277.492 313.242 277.203C313.023 276.914 312.854 276.574 312.732 276.184C312.615 275.789 312.557 275.361 312.557 274.9ZM313.646 274.777V274.9C313.646 275.217 313.678 275.514 313.74 275.791C313.807 276.068 313.908 276.312 314.045 276.523C314.182 276.734 314.355 276.9 314.566 277.021C314.777 277.139 315.029 277.197 315.322 277.197C315.682 277.197 315.977 277.121 316.207 276.969C316.441 276.816 316.629 276.615 316.77 276.365C316.91 276.115 317.02 275.844 317.098 275.551V274.139C317.051 273.924 316.982 273.717 316.893 273.518C316.807 273.314 316.693 273.135 316.553 272.979C316.416 272.818 316.246 272.691 316.043 272.598C315.844 272.504 315.607 272.457 315.334 272.457C315.037 272.457 314.781 272.52 314.566 272.645C314.355 272.766 314.182 272.934 314.045 273.148C313.908 273.359 313.807 273.605 313.74 273.887C313.678 274.164 313.646 274.461 313.646 274.777ZM322.23 278.117C321.789 278.117 321.389 278.043 321.029 277.895C320.674 277.742 320.367 277.529 320.109 277.256C319.855 276.982 319.66 276.658 319.523 276.283C319.387 275.908 319.318 275.498 319.318 275.053V274.807C319.318 274.291 319.395 273.832 319.547 273.43C319.699 273.023 319.906 272.68 320.168 272.398C320.43 272.117 320.727 271.904 321.059 271.76C321.391 271.615 321.734 271.543 322.09 271.543C322.543 271.543 322.934 271.621 323.262 271.777C323.594 271.934 323.865 272.152 324.076 272.434C324.287 272.711 324.443 273.039 324.545 273.418C324.646 273.793 324.697 274.203 324.697 274.648V275.135H319.963V274.25H323.613V274.168C323.598 273.887 323.539 273.613 323.438 273.348C323.34 273.082 323.184 272.863 322.969 272.691C322.754 272.52 322.461 272.434 322.09 272.434C321.844 272.434 321.617 272.486 321.41 272.592C321.203 272.693 321.025 272.846 320.877 273.049C320.729 273.252 320.613 273.5 320.531 273.793C320.449 274.086 320.408 274.424 320.408 274.807V275.053C320.408 275.354 320.449 275.637 320.531 275.902C320.617 276.164 320.74 276.395 320.9 276.594C321.064 276.793 321.262 276.949 321.492 277.062C321.727 277.176 321.992 277.232 322.289 277.232C322.672 277.232 322.996 277.154 323.262 276.998C323.527 276.842 323.76 276.633 323.959 276.371L324.615 276.893C324.479 277.1 324.305 277.297 324.094 277.484C323.883 277.672 323.623 277.824 323.314 277.941C323.01 278.059 322.648 278.117 322.23 278.117ZM327.809 277.021L329.543 271.66H330.65L328.371 278H327.645L327.809 277.021ZM326.361 271.66L328.148 277.051L328.271 278H327.545L325.248 271.66H326.361ZM332.871 271.66V278H331.781V271.66H332.871ZM331.699 269.979C331.699 269.803 331.752 269.654 331.857 269.533C331.967 269.412 332.127 269.352 332.338 269.352C332.545 269.352 332.703 269.412 332.812 269.533C332.926 269.654 332.982 269.803 332.982 269.979C332.982 270.146 332.926 270.291 332.812 270.412C332.703 270.529 332.545 270.588 332.338 270.588C332.127 270.588 331.967 270.529 331.857 270.412C331.752 270.291 331.699 270.146 331.699 269.979ZM337.148 277.227C337.406 277.227 337.645 277.174 337.863 277.068C338.082 276.963 338.262 276.818 338.402 276.635C338.543 276.447 338.623 276.234 338.643 275.996H339.674C339.654 276.371 339.527 276.721 339.293 277.045C339.062 277.365 338.76 277.625 338.385 277.824C338.01 278.02 337.598 278.117 337.148 278.117C336.672 278.117 336.256 278.033 335.9 277.865C335.549 277.697 335.256 277.467 335.021 277.174C334.791 276.881 334.617 276.545 334.5 276.166C334.387 275.783 334.33 275.379 334.33 274.953V274.707C334.33 274.281 334.387 273.879 334.5 273.5C334.617 273.117 334.791 272.779 335.021 272.486C335.256 272.193 335.549 271.963 335.9 271.795C336.256 271.627 336.672 271.543 337.148 271.543C337.645 271.543 338.078 271.645 338.449 271.848C338.82 272.047 339.111 272.32 339.322 272.668C339.537 273.012 339.654 273.402 339.674 273.84H338.643C338.623 273.578 338.549 273.342 338.42 273.131C338.295 272.92 338.123 272.752 337.904 272.627C337.689 272.498 337.438 272.434 337.148 272.434C336.816 272.434 336.537 272.5 336.311 272.633C336.088 272.762 335.91 272.938 335.777 273.16C335.648 273.379 335.555 273.623 335.496 273.893C335.441 274.158 335.414 274.43 335.414 274.707V274.953C335.414 275.23 335.441 275.504 335.496 275.773C335.551 276.043 335.643 276.287 335.771 276.506C335.904 276.725 336.082 276.9 336.305 277.033C336.531 277.162 336.812 277.227 337.148 277.227ZM343.523 278.117C343.082 278.117 342.682 278.043 342.322 277.895C341.967 277.742 341.66 277.529 341.402 277.256C341.148 276.982 340.953 276.658 340.816 276.283C340.68 275.908 340.611 275.498 340.611 275.053V274.807C340.611 274.291 340.688 273.832 340.84 273.43C340.992 273.023 341.199 272.68 341.461 272.398C341.723 272.117 342.02 271.904 342.352 271.76C342.684 271.615 343.027 271.543 343.383 271.543C343.836 271.543 344.227 271.621 344.555 271.777C344.887 271.934 345.158 272.152 345.369 272.434C345.58 272.711 345.736 273.039 345.838 273.418C345.939 273.793 345.99 274.203 345.99 274.648V275.135H341.256V274.25H344.906V274.168C344.891 273.887 344.832 273.613 344.73 273.348C344.633 273.082 344.477 272.863 344.262 272.691C344.047 272.52 343.754 272.434 343.383 272.434C343.137 272.434 342.91 272.486 342.703 272.592C342.496 272.693 342.318 272.846 342.17 273.049C342.021 273.252 341.906 273.5 341.824 273.793C341.742 274.086 341.701 274.424 341.701 274.807V275.053C341.701 275.354 341.742 275.637 341.824 275.902C341.91 276.164 342.033 276.395 342.193 276.594C342.357 276.793 342.555 276.949 342.785 277.062C343.02 277.176 343.285 277.232 343.582 277.232C343.965 277.232 344.289 277.154 344.555 276.998C344.82 276.842 345.053 276.633 345.252 276.371L345.908 276.893C345.771 277.1 345.598 277.297 345.387 277.484C345.176 277.672 344.916 277.824 344.607 277.941C344.303 278.059 343.941 278.117 343.523 278.117ZM350.947 276.318C350.947 276.162 350.912 276.018 350.842 275.885C350.775 275.748 350.637 275.625 350.426 275.516C350.219 275.402 349.906 275.305 349.488 275.223C349.137 275.148 348.818 275.061 348.533 274.959C348.252 274.857 348.012 274.734 347.812 274.59C347.617 274.445 347.467 274.275 347.361 274.08C347.256 273.885 347.203 273.656 347.203 273.395C347.203 273.145 347.258 272.908 347.367 272.686C347.48 272.463 347.639 272.266 347.842 272.094C348.049 271.922 348.297 271.787 348.586 271.689C348.875 271.592 349.197 271.543 349.553 271.543C350.061 271.543 350.494 271.633 350.854 271.812C351.213 271.992 351.488 272.232 351.68 272.533C351.871 272.83 351.967 273.16 351.967 273.523H350.883C350.883 273.348 350.83 273.178 350.725 273.014C350.623 272.846 350.473 272.707 350.273 272.598C350.078 272.488 349.838 272.434 349.553 272.434C349.252 272.434 349.008 272.48 348.82 272.574C348.637 272.664 348.502 272.779 348.416 272.92C348.334 273.061 348.293 273.209 348.293 273.365C348.293 273.482 348.312 273.588 348.352 273.682C348.395 273.771 348.469 273.855 348.574 273.934C348.68 274.008 348.828 274.078 349.02 274.145C349.211 274.211 349.455 274.277 349.752 274.344C350.271 274.461 350.699 274.602 351.035 274.766C351.371 274.93 351.621 275.131 351.785 275.369C351.949 275.607 352.031 275.896 352.031 276.236C352.031 276.514 351.973 276.768 351.855 276.998C351.742 277.229 351.576 277.428 351.357 277.596C351.143 277.76 350.885 277.889 350.584 277.982C350.287 278.072 349.953 278.117 349.582 278.117C349.023 278.117 348.551 278.018 348.164 277.818C347.777 277.619 347.484 277.361 347.285 277.045C347.086 276.729 346.986 276.395 346.986 276.043H348.076C348.092 276.34 348.178 276.576 348.334 276.752C348.49 276.924 348.682 277.047 348.908 277.121C349.135 277.191 349.359 277.227 349.582 277.227C349.879 277.227 350.127 277.188 350.326 277.109C350.529 277.031 350.684 276.924 350.789 276.787C350.895 276.65 350.947 276.494 350.947 276.318Z" fill="#0D1024" fill-opacity="0.64"/>
<path d="M327.484 253.5V255H319.859V253.711L323.562 249.672C323.969 249.214 324.289 248.818 324.523 248.484C324.758 248.151 324.922 247.852 325.016 247.586C325.115 247.315 325.164 247.052 325.164 246.797C325.164 246.438 325.096 246.122 324.961 245.852C324.831 245.576 324.638 245.359 324.383 245.203C324.128 245.042 323.818 244.961 323.453 244.961C323.031 244.961 322.677 245.052 322.391 245.234C322.104 245.417 321.888 245.669 321.742 245.992C321.596 246.31 321.523 246.674 321.523 247.086H319.641C319.641 246.424 319.792 245.82 320.094 245.273C320.396 244.721 320.833 244.284 321.406 243.961C321.979 243.633 322.669 243.469 323.477 243.469C324.237 243.469 324.883 243.596 325.414 243.852C325.945 244.107 326.349 244.469 326.625 244.938C326.906 245.406 327.047 245.961 327.047 246.602C327.047 246.956 326.99 247.307 326.875 247.656C326.76 248.005 326.596 248.354 326.383 248.703C326.174 249.047 325.927 249.393 325.641 249.742C325.354 250.086 325.039 250.435 324.695 250.789L322.234 253.5H327.484ZM336.508 243.625V244.656L331.961 255H329.977L334.516 245.125H328.625V243.625H336.508ZM345.672 253.5V255H338.047V253.711L341.75 249.672C342.156 249.214 342.477 248.818 342.711 248.484C342.945 248.151 343.109 247.852 343.203 247.586C343.302 247.315 343.352 247.052 343.352 246.797C343.352 246.438 343.284 246.122 343.148 245.852C343.018 245.576 342.826 245.359 342.57 245.203C342.315 245.042 342.005 244.961 341.641 244.961C341.219 244.961 340.865 245.052 340.578 245.234C340.292 245.417 340.076 245.669 339.93 245.992C339.784 246.31 339.711 246.674 339.711 247.086H337.828C337.828 246.424 337.979 245.82 338.281 245.273C338.583 244.721 339.021 244.284 339.594 243.961C340.167 243.633 340.857 243.469 341.664 243.469C342.424 243.469 343.07 243.596 343.602 243.852C344.133 244.107 344.536 244.469 344.812 244.938C345.094 245.406 345.234 245.961 345.234 246.602C345.234 246.956 345.177 247.307 345.062 247.656C344.948 248.005 344.784 248.354 344.57 248.703C344.362 249.047 344.115 249.393 343.828 249.742C343.542 250.086 343.227 250.435 342.883 250.789L340.422 253.5H345.672Z" fill="#0D1024" fill-opacity="0.88"/>
<rect opacity="0.7" x="290" y="318" width="8" height="8" rx="2" fill="#6E80E1"/>
<rect x="306" y="318" width="62" height="8" rx="2" fill="#6E80E1" fill-opacity="0.08"/>
<rect x="290" y="338" width="8" height="8" rx="2" fill="#64B6F7"/>
<rect x="306" y="338" width="48" height="8" rx="2" fill="#6E80E1" fill-opacity="0.08"/>
<rect x="290" y="358" width="8" height="8" rx="2" fill="#85E6EC"/>
<rect x="306" y="358" width="68" height="8" rx="2" fill="#6E80E1" fill-opacity="0.08"/>
<rect x="398" y="202" width="138" height="81" rx="4" fill="white"/>
<rect x="406" y="210" width="72" height="12" rx="4" fill="#6E80E1" fill-opacity="0.08"/>
<rect x="410" y="214" width="24" height="4" rx="2" fill="#6E80E1" fill-opacity="0.16"/>
<path d="M412.807 242.645C410.236 242.645 407.339 245.938 406 247.585V271H528V247.015C524.25 245.368 520.099 242.645 517.528 242.645C514.314 242.645 507.896 244.348 505.485 244.348C503.074 244.348 498.27 236.957 496.06 236.957C493.85 236.957 491.506 234.783 490.3 234.783C489.095 234.783 486.872 230 485.064 230C483.256 230 475.511 246.087 472.498 246.087C469.485 246.087 466.531 239.565 464.12 239.565C459.628 239.565 457.374 236.087 453.124 236.087C450.714 236.087 441.641 247.015 440.034 247.015C435.845 247.015 434.273 242.645 431.657 242.645C428.594 242.645 426.091 250 422.755 250C420.144 250 416.021 242.645 412.807 242.645Z" fill="url(#paint1_linear_665_5435)"/>
<path d="M406 247.585C407.339 245.938 410.236 242.645 412.807 242.645C416.021 242.645 420.144 250 422.755 250C426.091 250 428.594 242.645 431.657 242.645C434.273 242.645 435.845 247.015 440.034 247.015C441.641 247.015 450.714 236.087 453.124 236.087C457.374 236.087 459.628 239.565 464.12 239.565C466.531 239.565 469.485 246.087 472.498 246.087C475.511 246.087 483.256 230 485.064 230C486.872 230 489.095 234.783 490.3 234.783C491.506 234.783 493.85 236.957 496.06 236.957C498.27 236.957 503.074 244.348 505.485 244.348C507.896 244.348 514.314 242.645 517.528 242.645C520.099 242.645 524.25 245.368 528 247.015" stroke="#6E80E1"/>
<rect x="398" y="290" width="138" height="81" rx="4" fill="white"/>
<path opacity="0.8" d="M467.5 306.564C451.543 306.564 437.915 316.49 432.394 330.5C437.915 344.51 451.543 354.436 467.5 354.436C483.473 354.436 497.085 344.51 502.606 330.5C497.085 316.49 483.473 306.564 467.5 306.564ZM467.5 346.457C458.692 346.457 451.543 339.308 451.543 330.5C451.543 321.692 458.692 314.543 467.5 314.543C476.308 314.543 483.457 321.692 483.457 330.5C483.457 339.308 476.308 346.457 467.5 346.457ZM467.5 320.926C462.218 320.926 457.926 325.218 457.926 330.5C457.926 335.782 462.218 340.074 467.5 340.074C472.782 340.074 477.074 335.782 477.074 330.5C477.074 325.218 472.782 320.926 467.5 320.926Z" fill="#6E80E1"/>
<path d="M173 176.349C181.336 174.784 222.509 175.418 239.5 189.5M239.5 189.5C253.375 201 239.5 205.5 230 200.5C218.988 194.704 220.801 182.959 239.5 189.5ZM239.5 189.5C253.515 194.403 282.374 210.004 292.5 220.5" stroke="#60CDD3" stroke-width="3"/>
<path d="M277.292 219.741C280.673 218.835 288.019 217.892 293.561 221.092C290.298 215.744 289.151 208.731 290.718 205.017" stroke="#60CDD3" stroke-width="3"/>
<defs>
<filter id="filter0_b_665_5435" x="12" y="-6" width="572" height="450" filterUnits="userSpaceOnUse" color-interpolation-filters="sRGB">
<feFlood flood-opacity="0" result="BackgroundImageFix"/>
<feGaussianBlur in="BackgroundImageFix" stdDeviation="23"/>
<feComposite in2="SourceAlpha" operator="in" result="effect1_backgroundBlur_665_5435"/>
<feBlend mode="normal" in="SourceGraphic" in2="effect1_backgroundBlur_665_5435" result="shape"/>
</filter>
<filter id="filter1_b_665_5435" x="12" y="-6" width="572" height="450" filterUnits="userSpaceOnUse" color-interpolation-filters="sRGB">
<feFlood flood-opacity="0" result="BackgroundImageFix"/>
<feGaussianBlur in="BackgroundImageFix" stdDeviation="23"/>
<feComposite in2="SourceAlpha" operator="in" result="effect1_backgroundBlur_665_5435"/>
<feBlend mode="normal" in="SourceGraphic" in2="effect1_backgroundBlur_665_5435" result="shape"/>
</filter>
<filter id="filter2_d_665_5435" x="54" y="58" width="472" height="352" filterUnits="userSpaceOnUse" color-interpolation-filters="sRGB">
<feFlood flood-opacity="0" result="BackgroundImageFix"/>
<feColorMatrix in="SourceAlpha" type="matrix" values="0 0 0 0 0 0 0 0 0 0 0 0 0 0 0 0 0 0 127 0" result="hardAlpha"/>
<feMorphology radius="4" operator="dilate" in="SourceAlpha" result="effect1_dropShadow_665_5435"/>
<feOffset dy="2"/>
<feGaussianBlur stdDeviation="6"/>
<feComposite in2="hardAlpha" operator="out"/>
<feColorMatrix type="matrix" values="0 0 0 0 0.247059 0 0 0 0 0.317647 0 0 0 0 0.709804 0 0 0 0.08 0"/>
<feBlend mode="normal" in2="BackgroundImageFix" result="effect1_dropShadow_665_5435"/>
<feBlend mode="normal" in="SourceGraphic" in2="effect1_dropShadow_665_5435" result="shape"/>
</filter>
<filter id="filter3_d_665_5435" x="64" y="68" width="452" height="44" filterUnits="userSpaceOnUse" color-interpolation-filters="sRGB">
<feFlood flood-opacity="0" result="BackgroundImageFix"/>
<feColorMatrix in="SourceAlpha" type="matrix" values="0 0 0 0 0 0 0 0 0 0 0 0 0 0 0 0 0 0 127 0" result="hardAlpha"/>
<feOffset dy="2"/>
<feGaussianBlur stdDeviation="3"/>
<feComposite in2="hardAlpha" operator="out"/>
<feColorMatrix type="matrix" values="0 0 0 0 0.247059 0 0 0 0 0.317647 0 0 0 0 0.709804 0 0 0 0.08 0"/>
<feBlend mode="normal" in2="BackgroundImageFix" result="effect1_dropShadow_665_5435"/>
<feBlend mode="normal" in="SourceGraphic" in2="effect1_dropShadow_665_5435" result="shape"/>
</filter>
<filter id="filter4_d_665_5435" x="64" y="106" width="452" height="294" filterUnits="userSpaceOnUse" color-interpolation-filters="sRGB">
<feFlood flood-opacity="0" result="BackgroundImageFix"/>
<feColorMatrix in="SourceAlpha" type="matrix" values="0 0 0 0 0 0 0 0 0 0 0 0 0 0 0 0 0 0 127 0" result="hardAlpha"/>
<feOffset dy="2"/>
<feGaussianBlur stdDeviation="3"/>
<feComposite in2="hardAlpha" operator="out"/>
<feColorMatrix type="matrix" values="0 0 0 0 0.247059 0 0 0 0 0.317647 0 0 0 0 0.709804 0 0 0 0.08 0"/>
<feBlend mode="normal" in2="BackgroundImageFix" result="effect1_dropShadow_665_5435"/>
<feBlend mode="normal" in="SourceGraphic" in2="effect1_dropShadow_665_5435" result="shape"/>
</filter>
<filter id="filter5_d_665_5435" x="64" y="106" width="452" height="44" filterUnits="userSpaceOnUse" color-interpolation-filters="sRGB">
<feFlood flood-opacity="0" result="BackgroundImageFix"/>
<feColorMatrix in="SourceAlpha" type="matrix" values="0 0 0 0 0 0 0 0 0 0 0 0 0 0 0 0 0 0 127 0" result="hardAlpha"/>
<feOffset dy="2"/>
<feGaussianBlur stdDeviation="3"/>
<feComposite in2="hardAlpha" operator="out"/>
<feColorMatrix type="matrix" values="0 0 0 0 0.247059 0 0 0 0 0.317647 0 0 0 0 0.709804 0 0 0 0.08 0"/>
<feBlend mode="normal" in2="BackgroundImageFix" result="effect1_dropShadow_665_5435"/>
<feBlend mode="normal" in="SourceGraphic" in2="effect1_dropShadow_665_5435" result="shape"/>
</filter>
<filter id="filter6_d_665_5435" x="239" y="166" width="331" height="253" filterUnits="userSpaceOnUse" color-interpolation-filters="sRGB">
<feFlood flood-opacity="0" result="BackgroundImageFix"/>
<feColorMatrix in="SourceAlpha" type="matrix" values="0 0 0 0 0 0 0 0 0 0 0 0 0 0 0 0 0 0 127 0" result="hardAlpha"/>
<feMorphology radius="4" operator="dilate" in="SourceAlpha" result="effect1_dropShadow_665_5435"/>
<feOffset dy="2"/>
<feGaussianBlur stdDeviation="6"/>
<feComposite in2="hardAlpha" operator="out"/>
<feColorMatrix type="matrix" values="0 0 0 0 0.247059 0 0 0 0 0.317647 0 0 0 0 0.709804 0 0 0 0.08 0"/>
<feBlend mode="normal" in2="BackgroundImageFix" result="effect1_dropShadow_665_5435"/>
<feBlend mode="normal" in="SourceGraphic" in2="effect1_dropShadow_665_5435" result="shape"/>
</filter>
<linearGradient id="paint0_linear_665_5435" x1="75.1429" y1="40" x2="197.877" y2="442.456" gradientUnits="userSpaceOnUse">
<stop stop-color="#9FAAE6" stop-opacity="0.2"/>
<stop offset="1" stop-color="#8994CE"/>
</linearGradient>
<linearGradient id="paint1_linear_665_5435" x1="467" y1="230" x2="467" y2="273" gradientUnits="userSpaceOnUse">
<stop stop-color="#6E80E1" stop-opacity="0.5"/>
<stop offset="1" stop-color="#6E80E1" stop-opacity="0"/>
</linearGradient>
</defs>
</svg>
