<svg width="600" height="440" viewBox="0 0 600 440" fill="none" xmlns="http://www.w3.org/2000/svg">
<path d="M0 24C0 10.7452 10.7452 0 24 0H576C589.255 0 600 10.7452 600 24V416C600 429.255 589.255 440 576 440H24C10.7452 440 0 429.255 0 416V24Z" fill="#47518B"/>
<circle cx="76" cy="342" r="32" fill="#60CDD3"/>
<rect x="436" y="112" width="144" height="72" rx="8" fill="#E798D1"/>
<g filter="url(#filter0_b_653_5857)">
<path d="M61 48C61 43.5817 64.5817 40 69 40H533C537.418 40 541 43.5817 541 48V390C541 394.418 537.418 398 533 398H69C64.5817 398 61 394.418 61 390V48Z" fill="#6E78AF" fill-opacity="0.5"/>
</g>
<g filter="url(#filter1_b_653_5857)">
<path d="M61 48C61 43.5817 64.5817 40 69 40H533C537.418 40 541 43.5817 541 48V390C541 394.418 537.418 398 533 398H69C64.5817 398 61 394.418 61 390V48Z" fill="#6E78AF" fill-opacity="0.2"/>
</g>
<path d="M61.75 48C61.75 43.9959 64.9959 40.75 69 40.75H533C537.004 40.75 540.25 43.9959 540.25 48V390C540.25 394.004 537.004 397.25 533 397.25H69C64.9959 397.25 61.75 394.004 61.75 390V48Z" stroke="url(#paint0_linear_653_5857)" stroke-width="1.5"/>
<circle opacity="0.5" cx="79" cy="56" r="6" fill="white"/>
<circle opacity="0.5" cx="97" cy="56" r="6" fill="white"/>
<circle opacity="0.5" cx="115" cy="56" r="6" fill="white"/>
<g filter="url(#filter2_d_653_5857)">
<rect x="73" y="72" width="440" height="320" rx="8" fill="#F5F9FF"/>
</g>
<g filter="url(#filter3_d_653_5857)">
<path d="M73 80C73 75.5817 76.5817 72 81 72H505C509.418 72 513 75.5817 513 80V102C513 103.105 512.105 104 511 104H75C73.8954 104 73 103.105 73 102V80Z" fill="white"/>
</g>
<rect x="89" y="80" width="229" height="16" rx="4" fill="#6E80E1" fill-opacity="0.08"/>
<rect x="479" y="79" width="18" height="18" rx="9" fill="#6E80E1" fill-opacity="0.16"/>
<rect x="96" y="85" width="91" height="6" rx="3" fill="#6E80E1" fill-opacity="0.16"/>
<g filter="url(#filter4_d_653_5857)">
<path d="M73 110H513V384C513 388.418 509.418 392 505 392H81C76.5817 392 73 388.418 73 384V110Z" fill="white"/>
</g>
<mask id="mask0_653_5857" style="mask-type:alpha" maskUnits="userSpaceOnUse" x="73" y="110" width="440" height="282">
<path d="M73 110H513V384C513 388.418 509.418 392 505 392H81C76.5817 392 73 388.418 73 384V110Z" fill="white"/>
</mask>
<g mask="url(#mask0_653_5857)">
<rect x="81" y="344" width="208" height="105" rx="4" fill="white"/>
<rect x="81.5" y="344.5" width="207" height="104" rx="3.5" stroke="#0D1024" stroke-opacity="0.08"/>
<rect x="129" y="360" width="144" height="48" rx="4" fill="#6E80E1" fill-opacity="0.08"/>
<rect x="97" y="360" width="24" height="24" rx="4" fill="#6E80E1" fill-opacity="0.36"/>
<rect x="141" y="368" width="64" height="8" rx="4" fill="#6E80E1" fill-opacity="0.16"/>
<rect x="297" y="344" width="208" height="105" rx="4" fill="white"/>
<rect x="297.5" y="344.5" width="207" height="104" rx="3.5" stroke="#0D1024" stroke-opacity="0.08"/>
<rect x="345" y="360" width="144" height="48" rx="4" fill="#6E80E1" fill-opacity="0.08"/>
<rect x="313" y="360" width="24" height="24" rx="4" fill="#6E80E1" fill-opacity="0.36"/>
<rect x="357" y="368" width="64" height="8" rx="4" fill="#6E80E1" fill-opacity="0.16"/>
</g>
<rect x="81" y="118" width="208" height="105" rx="4" fill="white"/>
<rect x="81.5" y="118.5" width="207" height="104" rx="3.5" stroke="#0D1024" stroke-opacity="0.08"/>
<rect x="125" y="199" width="120" height="16" rx="4" fill="#6E80E1" fill-opacity="0.08"/>
<rect x="82.25" y="190.25" width="205.5" height="0.5" stroke="#0D1024" stroke-opacity="0.08" stroke-width="0.5"/>
<rect x="129" y="134" width="144" height="48" rx="4" fill="#6E80E1" fill-opacity="0.08"/>
<rect x="97" y="134" width="24" height="24" rx="4" fill="#6E80E1" fill-opacity="0.36"/>
<rect x="141" y="142" width="64" height="8" rx="4" fill="#6E80E1" fill-opacity="0.16"/>
<rect x="297" y="118" width="208" height="105" rx="4" fill="white"/>
<rect x="297.5" y="118.5" width="207" height="104" rx="3.5" stroke="#0D1024" stroke-opacity="0.08"/>
<rect x="341" y="199" width="120" height="16" rx="4" fill="#6E80E1" fill-opacity="0.08"/>
<rect x="298.25" y="190.25" width="205.5" height="0.5" stroke="#0D1024" stroke-opacity="0.08" stroke-width="0.5"/>
<rect x="345" y="134" width="144" height="48" rx="4" fill="#6E80E1" fill-opacity="0.08"/>
<rect x="313" y="134" width="24" height="24" rx="4" fill="#6E80E1" fill-opacity="0.36"/>
<rect x="357" y="142" width="64" height="8" rx="4" fill="#6E80E1" fill-opacity="0.16"/>
<rect x="81" y="231" width="208" height="105" rx="4" fill="white"/>
<rect x="81.5" y="231.5" width="207" height="104" rx="3.5" stroke="#0D1024" stroke-opacity="0.08"/>
<rect x="125" y="312" width="120" height="16" rx="4" fill="#6E80E1" fill-opacity="0.08"/>
<rect x="82.25" y="303.25" width="205.5" height="0.5" stroke="#0D1024" stroke-opacity="0.08" stroke-width="0.5"/>
<rect x="129" y="247" width="144" height="48" rx="4" fill="#6E80E1" fill-opacity="0.08"/>
<rect x="97" y="247" width="24" height="24" rx="4" fill="#6E80E1" fill-opacity="0.36"/>
<rect x="141" y="255" width="64" height="8" rx="4" fill="#6E80E1" fill-opacity="0.16"/>
<rect x="297" y="231" width="208" height="105" rx="4" fill="white"/>
<rect x="297.5" y="231.5" width="207" height="104" rx="3.5" stroke="#0D1024" stroke-opacity="0.08"/>
<rect x="341" y="312" width="120" height="16" rx="4" fill="#6E80E1" fill-opacity="0.08"/>
<rect x="298.25" y="303.25" width="205.5" height="0.5" stroke="#0D1024" stroke-opacity="0.08" stroke-width="0.5"/>
<rect x="345" y="247" width="144" height="48" rx="4" fill="#6E80E1" fill-opacity="0.08"/>
<rect x="313" y="247" width="24" height="24" rx="4" fill="#6E80E1" fill-opacity="0.36"/>
<rect x="357" y="255" width="64" height="8" rx="4" fill="#6E80E1" fill-opacity="0.16"/>
<g filter="url(#filter5_d_653_5857)">
<rect x="20" y="122" width="152" height="180" rx="8" fill="white"/>
</g>
<rect x="36" y="166" width="24" height="24" fill="#6E80E1"/>
<rect x="40" y="170" width="16" height="16" fill="white"/>
<rect x="44" y="174" width="8" height="8" fill="#6E80E1"/>
<rect x="132" y="166" width="24" height="24" fill="#6E80E1"/>
<rect x="136" y="170" width="16" height="16" fill="white"/>
<rect x="140" y="174" width="8" height="8" fill="#6E80E1"/>
<rect x="36" y="262" width="24" height="24" fill="#6E80E1"/>
<rect x="40" y="266" width="16" height="16" fill="white"/>
<rect x="44" y="270" width="8" height="8" fill="#6E80E1"/>
<rect x="132" y="262" width="24" height="24" fill="#6E80E1"/>
<rect x="136" y="266" width="16" height="16" fill="white"/>
<rect x="140" y="270" width="8" height="8" fill="#6E80E1"/>
<rect x="36" y="194" width="11" height="4" fill="#6E80E1"/>
<rect width="11" height="4" transform="matrix(4.37114e-08 -1 -1 -4.37114e-08 123 286)" fill="#6E80E1"/>
<rect width="15" height="3" transform="matrix(1 0 0 -1 104 223)" fill="#6E80E1"/>
<rect width="8" height="3" transform="matrix(1 0 0 -1 125 227)" fill="#6E80E1"/>
<rect x="78" y="254" width="11" height="4" transform="rotate(-180 78 254)" fill="#6E80E1"/>
<rect x="108" y="170" width="16" height="4" transform="rotate(-180 108 170)" fill="#6E80E1"/>
<rect x="55" y="194" width="14" height="4" fill="#6E80E1"/>
<rect width="14" height="4" transform="matrix(4.37114e-08 -1 -1 -4.37114e-08 123 271)" fill="#6E80E1"/>
<rect x="116" y="166" width="12" height="4" fill="#6E80E1"/>
<rect width="15" height="4" transform="matrix(1 0 0 -1 133 224)" fill="#6E80E1"/>
<rect x="58" y="254" width="14" height="4" transform="rotate(-180 58 254)" fill="#6E80E1"/>
<rect width="15" height="4" transform="matrix(-4.37114e-08 1 1 4.37114e-08 64 263)" fill="#6E80E1"/>
<rect x="58" y="250" width="4" height="4" transform="rotate(-180 58 250)" fill="#6E80E1"/>
<rect width="7" height="4" transform="matrix(-4.37114e-08 1 1 4.37114e-08 68 263)" fill="#6E80E1"/>
<rect x="87" y="170" width="15" height="4" transform="rotate(-180 87 170)" fill="#6E80E1"/>
<rect x="51" y="206" width="16" height="4" fill="#6E80E1"/>
<rect width="16" height="4" transform="matrix(4.37114e-08 -1 -1 -4.37114e-08 112 271)" fill="#6E80E1"/>
<rect x="112" y="178" width="16" height="4" fill="#6E80E1"/>
<rect x="103" y="237" width="16" height="4" fill="#6E80E1"/>
<rect width="16" height="4" transform="matrix(1 0 0 -1 129 212)" fill="#6E80E1"/>
<rect x="63" y="239" width="16" height="4" transform="rotate(-180 63 239)" fill="#6E80E1"/>
<rect width="16" height="4" transform="matrix(-4.37114e-08 1 1 4.37114e-08 79 262)" fill="#6E80E1"/>
<rect x="67" y="202" width="11" height="4" fill="#6E80E1"/>
<rect x="82" y="202" width="16" height="4" fill="#6E80E1"/>
<rect width="11" height="4" transform="matrix(1 0 0 -1 145 216)" fill="#6E80E1"/>
<rect x="47" y="243" width="11" height="4" transform="rotate(-180 47 243)" fill="#6E80E1"/>
<rect width="11" height="4" transform="matrix(-4.37114e-08 1 1 4.37114e-08 75 275)" fill="#6E80E1"/>
<rect x="51" y="198" width="18" height="4" transform="rotate(90 51 198)" fill="#6E80E1"/>
<rect width="17" height="4" transform="matrix(-1 0 0 1 119 271)" fill="#6E80E1"/>
<rect x="112" y="170" width="24" height="4" transform="rotate(90 112 170)" fill="#6E80E1"/>
<rect x="103" y="229" width="24" height="4" transform="rotate(90 103 229)" fill="#6E80E1"/>
<rect width="18" height="4" transform="matrix(-4.37114e-08 -1 -1 4.37114e-08 129 220)" fill="#6E80E1"/>
<rect x="63" y="246" width="17" height="4" transform="rotate(-90 63 246)" fill="#6E80E1"/>
<rect width="17" height="4" transform="matrix(1 0 0 -1 72 262)" fill="#6E80E1"/>
<rect x="40" y="206" width="10" height="4" transform="rotate(90 40 206)" fill="#6E80E1"/>
<rect width="10" height="4" transform="matrix(-1 0 0 1 112 282)" fill="#6E80E1"/>
<rect x="101" y="178" width="10" height="4" transform="rotate(90 101 178)" fill="#6E80E1"/>
<rect x="61" y="206" width="10" height="4" transform="rotate(90 61 206)" fill="#6E80E1"/>
<rect x="127" y="267" width="4" height="4" transform="rotate(90 127 267)" fill="#6E80E1"/>
<rect width="10" height="4" transform="matrix(-1 0 0 1 112 261)" fill="#6E80E1"/>
<rect x="122" y="178" width="10" height="4" transform="rotate(90 122 178)" fill="#6E80E1"/>
<rect width="10" height="4" transform="matrix(-4.37114e-08 -1 -1 4.37114e-08 139 212)" fill="#6E80E1"/>
<rect x="50" y="239" width="10" height="4" transform="rotate(-90 50 239)" fill="#6E80E1"/>
<rect width="10" height="4" transform="matrix(1 0 0 -1 79 272)" fill="#6E80E1"/>
<rect x="71" y="210" width="6" height="4" transform="rotate(90 71 210)" fill="#6E80E1"/>
<rect width="6" height="4" transform="matrix(-4.37114e-08 -1 -1 4.37114e-08 149 208)" fill="#6E80E1"/>
<rect x="36" y="235" width="6" height="4" transform="rotate(-90 36 235)" fill="#6E80E1"/>
<rect width="6" height="4" transform="matrix(1 0 0 -1 83 286)" fill="#6E80E1"/>
<rect x="73" y="198" width="4" height="4" transform="rotate(90 73 198)" fill="#6E80E1"/>
<rect width="4" height="4" transform="matrix(-4.37114e-08 -1 -1 4.37114e-08 152 220)" fill="#6E80E1"/>
<rect x="36" y="254" width="11" height="4" transform="rotate(-90 36 254)" fill="#6E80E1"/>
<rect width="11" height="4" transform="matrix(1 0 0 -1 64 286)" fill="#6E80E1"/>
<rect x="108" y="229" width="11" height="4" fill="#6E80E1"/>
<rect width="11" height="4" transform="matrix(-1 0 0 1 112 174)" fill="#6E80E1"/>
<rect width="11" height="4" transform="matrix(-1 0 0 1 103 233)" fill="#6E80E1"/>
<rect x="137" y="224" width="17" height="4" transform="rotate(90 137 224)" fill="#6E80E1"/>
<rect width="17" height="4" transform="matrix(4.37114e-08 1 1 -4.37114e-08 83 170)" fill="#6E80E1"/>
<rect width="17" height="4" transform="matrix(4.37114e-08 1 1 -4.37114e-08 74 229)" fill="#6E80E1"/>
<rect x="143" y="255" width="13" height="4" fill="#6E80E1"/>
<rect x="119" y="255" width="14" height="4" fill="#6E80E1"/>
<rect x="86" y="211" width="18" height="4" fill="#6E80E1"/>
<rect width="18" height="4" transform="matrix(-1 0 0 1 97 186)" fill="#6E80E1"/>
<rect width="10" height="4" transform="matrix(-1 0 0 1 88 246)" fill="#6E80E1"/>
<rect width="10" height="4" transform="matrix(-1 0 0 1 143 247)" fill="#6E80E1"/>
<rect x="141" y="237" width="15" height="4" fill="#6E80E1"/>
<rect x="104" y="207" width="15" height="4" fill="#6E80E1"/>
<rect width="15" height="4" transform="matrix(-1 0 0 1 79 182)" fill="#6E80E1"/>
<rect x="123" y="233" width="8" height="4" transform="rotate(90 123 233)" fill="#6E80E1"/>
<rect x="123" y="247" width="4" height="4" transform="rotate(90 123 247)" fill="#6E80E1"/>
<rect x="139" y="255" width="4" height="4" transform="rotate(90 139 255)" fill="#6E80E1"/>
<rect x="86" y="225" width="4" height="4" transform="rotate(90 86 225)" fill="#6E80E1"/>
<rect x="86" y="204" width="17" height="4" transform="rotate(90 86 204)" fill="#6E80E1"/>
<rect width="18" height="4" transform="matrix(4.37114e-08 1 1 -4.37114e-08 97 178)" fill="#6E80E1"/>
<rect width="18" height="4" transform="matrix(4.37114e-08 1 1 -4.37114e-08 88 237)" fill="#6E80E1"/>
<rect x="112" y="241" width="10" height="4" transform="rotate(90 112 241)" fill="#6E80E1"/>
<rect x="133" y="241" width="14" height="4" transform="rotate(90 133 241)" fill="#6E80E1"/>
<rect x="96" y="211" width="14" height="4" transform="rotate(90 96 211)" fill="#6E80E1"/>
<rect width="12" height="4" transform="matrix(4.37114e-08 1 1 -4.37114e-08 87 186)" fill="#6E80E1"/>
<rect width="11" height="4" transform="matrix(4.37114e-08 1 1 -4.37114e-08 78 246)" fill="#6E80E1"/>
<rect x="150" y="245" width="6" height="4" transform="rotate(90 150 245)" fill="#6E80E1"/>
<rect x="112" y="215" width="5" height="4" transform="rotate(90 112 215)" fill="#6E80E1"/>
<rect width="4" height="4" transform="matrix(4.37114e-08 1 1 -4.37114e-08 75 190)" fill="#6E80E1"/>
<rect x="145" y="231" width="6" height="4" transform="rotate(90 145 231)" fill="#6E80E1"/>
<rect x="108" y="202" width="5" height="4" transform="rotate(90 108 202)" fill="#6E80E1"/>
<rect width="6" height="4" transform="matrix(4.37114e-08 1 1 -4.37114e-08 75 176)" fill="#6E80E1"/>
<rect x="156" y="233" width="4" height="4" transform="rotate(90 156 233)" fill="#6E80E1"/>
<rect x="119" y="203" width="4" height="4" transform="rotate(90 119 203)" fill="#6E80E1"/>
<rect width="4" height="4" transform="matrix(4.37114e-08 1 1 -4.37114e-08 64 178)" fill="#6E80E1"/>
<rect x="156" y="220" width="4" height="4" transform="rotate(90 156 220)" fill="#6E80E1"/>
<rect width="4" height="4" transform="matrix(4.37114e-08 1 1 -4.37114e-08 64 166)" fill="#6E80E1"/>
<rect x="140" y="194" width="16" height="4" fill="#6E80E1"/>
<rect x="54" y="254" width="4" height="4" fill="#6E80E1"/>
<rect width="16" height="4" transform="matrix(-1 0 0 1 52 221)" fill="#6E80E1"/>
<rect x="97" y="270" width="16" height="4" transform="rotate(90 97 270)" fill="#6E80E1"/>
<rect x="108" y="194" width="16" height="4" fill="#6E80E1"/>
<rect width="14" height="4" transform="matrix(-1 0 0 1 82 221)" fill="#6E80E1"/>
<rect x="132" y="194" width="4" height="4" fill="#6E80E1"/>
<rect x="36" y="254" width="4" height="4" fill="#6E80E1"/>
<rect width="4" height="4" transform="matrix(-1 0 0 1 60 221)" fill="#6E80E1"/>
<rect width="4" height="4" transform="matrix(-1 0 0 1 127 282)" fill="#6E80E1"/>
<rect x="97" y="262" width="4" height="4" transform="rotate(90 97 262)" fill="#6E80E1"/>
<path d="M38.9902 143.469H41.8145C42.4551 143.469 42.9961 143.566 43.4375 143.762C43.8828 143.957 44.2207 144.246 44.4512 144.629C44.6855 145.008 44.8027 145.475 44.8027 146.029C44.8027 146.42 44.7227 146.777 44.5625 147.102C44.4062 147.422 44.1797 147.695 43.8828 147.922C43.5898 148.145 43.2383 148.311 42.8281 148.42L42.5117 148.543H39.8574L39.8457 147.623H41.8496C42.2559 147.623 42.5938 147.553 42.8633 147.412C43.1328 147.268 43.3359 147.074 43.4727 146.832C43.6094 146.59 43.6777 146.322 43.6777 146.029C43.6777 145.701 43.6133 145.414 43.4844 145.168C43.3555 144.922 43.1523 144.732 42.875 144.6C42.6016 144.463 42.248 144.395 41.8145 144.395H40.1211V152H38.9902V143.469ZM43.9766 152L41.9023 148.133L43.0801 148.127L45.1836 151.93V152H43.9766ZM48.8516 152.117C48.4102 152.117 48.0098 152.043 47.6504 151.895C47.2949 151.742 46.9883 151.529 46.7305 151.256C46.4766 150.982 46.2812 150.658 46.1445 150.283C46.0078 149.908 45.9395 149.498 45.9395 149.053V148.807C45.9395 148.291 46.0156 147.832 46.168 147.43C46.3203 147.023 46.5273 146.68 46.7891 146.398C47.0508 146.117 47.3477 145.904 47.6797 145.76C48.0117 145.615 48.3555 145.543 48.7109 145.543C49.1641 145.543 49.5547 145.621 49.8828 145.777C50.2148 145.934 50.4863 146.152 50.6973 146.434C50.9082 146.711 51.0645 147.039 51.166 147.418C51.2676 147.793 51.3184 148.203 51.3184 148.648V149.135H46.584V148.25H50.2344V148.168C50.2188 147.887 50.1602 147.613 50.0586 147.348C49.9609 147.082 49.8047 146.863 49.5898 146.691C49.375 146.52 49.082 146.434 48.7109 146.434C48.4648 146.434 48.2383 146.486 48.0312 146.592C47.8242 146.693 47.6465 146.846 47.498 147.049C47.3496 147.252 47.2344 147.5 47.1523 147.793C47.0703 148.086 47.0293 148.424 47.0293 148.807V149.053C47.0293 149.354 47.0703 149.637 47.1523 149.902C47.2383 150.164 47.3613 150.395 47.5215 150.594C47.6855 150.793 47.8828 150.949 48.1133 151.062C48.3477 151.176 48.6133 151.232 48.9102 151.232C49.293 151.232 49.6172 151.154 49.8828 150.998C50.1484 150.842 50.3809 150.633 50.5801 150.371L51.2363 150.893C51.0996 151.1 50.9258 151.297 50.7148 151.484C50.5039 151.672 50.2441 151.824 49.9355 151.941C49.6309 152.059 49.2695 152.117 48.8516 152.117ZM56.6914 145.66H57.6758V151.865C57.6758 152.424 57.5625 152.9 57.3359 153.295C57.1094 153.689 56.793 153.988 56.3867 154.191C55.9844 154.398 55.5195 154.502 54.9922 154.502C54.7734 154.502 54.5156 154.467 54.2188 154.396C53.9258 154.33 53.6367 154.215 53.3516 154.051C53.0703 153.891 52.834 153.674 52.6426 153.4L53.2109 152.756C53.4766 153.076 53.7539 153.299 54.043 153.424C54.3359 153.549 54.625 153.611 54.9102 153.611C55.2539 153.611 55.5508 153.547 55.8008 153.418C56.0508 153.289 56.2441 153.098 56.3809 152.844C56.5215 152.594 56.5918 152.285 56.5918 151.918V147.055L56.6914 145.66ZM52.3262 148.9V148.777C52.3262 148.293 52.3828 147.854 52.4961 147.459C52.6133 147.061 52.7793 146.719 52.9941 146.434C53.2129 146.148 53.4766 145.93 53.7852 145.777C54.0938 145.621 54.4414 145.543 54.8281 145.543C55.2266 145.543 55.5742 145.613 55.8711 145.754C56.1719 145.891 56.4258 146.092 56.6328 146.357C56.8438 146.619 57.0098 146.936 57.1309 147.307C57.252 147.678 57.3359 148.098 57.3828 148.566V149.105C57.3398 149.57 57.2559 149.988 57.1309 150.359C57.0098 150.73 56.8438 151.047 56.6328 151.309C56.4258 151.57 56.1719 151.771 55.8711 151.912C55.5703 152.049 55.2188 152.117 54.8164 152.117C54.4375 152.117 54.0938 152.037 53.7852 151.877C53.4805 151.717 53.2188 151.492 53 151.203C52.7812 150.914 52.6133 150.574 52.4961 150.184C52.3828 149.789 52.3262 149.361 52.3262 148.9ZM53.4102 148.777V148.9C53.4102 149.217 53.4414 149.514 53.5039 149.791C53.5703 150.068 53.6699 150.312 53.8027 150.523C53.9395 150.734 54.1133 150.9 54.3242 151.021C54.5352 151.139 54.7871 151.197 55.0801 151.197C55.4395 151.197 55.7363 151.121 55.9707 150.969C56.2051 150.816 56.3906 150.615 56.5273 150.365C56.668 150.115 56.7773 149.844 56.8555 149.551V148.139C56.8125 147.924 56.7461 147.717 56.6562 147.518C56.5703 147.314 56.457 147.135 56.3164 146.979C56.1797 146.818 56.0098 146.691 55.8066 146.598C55.6035 146.504 55.3652 146.457 55.0918 146.457C54.7949 146.457 54.5391 146.52 54.3242 146.645C54.1133 146.766 53.9395 146.934 53.8027 147.148C53.6699 147.359 53.5703 147.605 53.5039 147.887C53.4414 148.164 53.4102 148.461 53.4102 148.777ZM60.5 145.66V152H59.4102V145.66H60.5ZM59.3281 143.979C59.3281 143.803 59.3809 143.654 59.4863 143.533C59.5957 143.412 59.7559 143.352 59.9668 143.352C60.1738 143.352 60.332 143.412 60.4414 143.533C60.5547 143.654 60.6113 143.803 60.6113 143.979C60.6113 144.146 60.5547 144.291 60.4414 144.412C60.332 144.529 60.1738 144.588 59.9668 144.588C59.7559 144.588 59.5957 144.529 59.4863 144.412C59.3809 144.291 59.3281 144.146 59.3281 143.979ZM65.9316 150.318C65.9316 150.162 65.8965 150.018 65.8262 149.885C65.7598 149.748 65.6211 149.625 65.4102 149.516C65.2031 149.402 64.8906 149.305 64.4727 149.223C64.1211 149.148 63.8027 149.061 63.5176 148.959C63.2363 148.857 62.9961 148.734 62.7969 148.59C62.6016 148.445 62.4512 148.275 62.3457 148.08C62.2402 147.885 62.1875 147.656 62.1875 147.395C62.1875 147.145 62.2422 146.908 62.3516 146.686C62.4648 146.463 62.623 146.266 62.8262 146.094C63.0332 145.922 63.2812 145.787 63.5703 145.689C63.8594 145.592 64.1816 145.543 64.5371 145.543C65.0449 145.543 65.4785 145.633 65.8379 145.812C66.1973 145.992 66.4727 146.232 66.6641 146.533C66.8555 146.83 66.9512 147.16 66.9512 147.523H65.8672C65.8672 147.348 65.8145 147.178 65.709 147.014C65.6074 146.846 65.457 146.707 65.2578 146.598C65.0625 146.488 64.8223 146.434 64.5371 146.434C64.2363 146.434 63.9922 146.48 63.8047 146.574C63.6211 146.664 63.4863 146.779 63.4004 146.92C63.3184 147.061 63.2773 147.209 63.2773 147.365C63.2773 147.482 63.2969 147.588 63.3359 147.682C63.3789 147.771 63.4531 147.855 63.5586 147.934C63.6641 148.008 63.8125 148.078 64.0039 148.145C64.1953 148.211 64.4395 148.277 64.7363 148.344C65.2559 148.461 65.6836 148.602 66.0195 148.766C66.3555 148.93 66.6055 149.131 66.7695 149.369C66.9336 149.607 67.0156 149.896 67.0156 150.236C67.0156 150.514 66.957 150.768 66.8398 150.998C66.7266 151.229 66.5605 151.428 66.3418 151.596C66.127 151.76 65.8691 151.889 65.5684 151.982C65.2715 152.072 64.9375 152.117 64.5664 152.117C64.0078 152.117 63.5352 152.018 63.1484 151.818C62.7617 151.619 62.4688 151.361 62.2695 151.045C62.0703 150.729 61.9707 150.395 61.9707 150.043H63.0605C63.0762 150.34 63.1621 150.576 63.3184 150.752C63.4746 150.924 63.666 151.047 63.8926 151.121C64.1191 151.191 64.3438 151.227 64.5664 151.227C64.8633 151.227 65.1113 151.188 65.3105 151.109C65.5137 151.031 65.668 150.924 65.7734 150.787C65.8789 150.65 65.9316 150.494 65.9316 150.318ZM71.0938 145.66V146.492H67.666V145.66H71.0938ZM68.8262 144.119H69.9102V150.43C69.9102 150.645 69.9434 150.807 70.0098 150.916C70.0762 151.025 70.1621 151.098 70.2676 151.133C70.373 151.168 70.4863 151.186 70.6074 151.186C70.6973 151.186 70.791 151.178 70.8887 151.162C70.9902 151.143 71.0664 151.127 71.1172 151.115L71.123 152C71.0371 152.027 70.9238 152.053 70.7832 152.076C70.6465 152.104 70.4805 152.117 70.2852 152.117C70.0195 152.117 69.7754 152.064 69.5527 151.959C69.3301 151.854 69.1523 151.678 69.0195 151.432C68.8906 151.182 68.8262 150.846 68.8262 150.424V144.119ZM73.4492 146.656V152H72.3652V145.66H73.4199L73.4492 146.656ZM75.4297 145.625L75.4238 146.633C75.334 146.613 75.248 146.602 75.166 146.598C75.0879 146.59 74.998 146.586 74.8965 146.586C74.6465 146.586 74.4258 146.625 74.2344 146.703C74.043 146.781 73.8809 146.891 73.748 147.031C73.6152 147.172 73.5098 147.34 73.4316 147.535C73.3574 147.727 73.3086 147.938 73.2852 148.168L72.9805 148.344C72.9805 147.961 73.0176 147.602 73.0918 147.266C73.1699 146.93 73.2891 146.633 73.4492 146.375C73.6094 146.113 73.8125 145.91 74.0586 145.766C74.3086 145.617 74.6055 145.543 74.9492 145.543C75.0273 145.543 75.1172 145.553 75.2188 145.572C75.3203 145.588 75.3906 145.605 75.4297 145.625ZM79.9355 150.916V147.652C79.9355 147.402 79.8848 147.186 79.7832 147.002C79.6855 146.814 79.5371 146.67 79.3379 146.568C79.1387 146.467 78.8926 146.416 78.5996 146.416C78.3262 146.416 78.0859 146.463 77.8789 146.557C77.6758 146.65 77.5156 146.773 77.3984 146.926C77.2852 147.078 77.2285 147.242 77.2285 147.418H76.1445C76.1445 147.191 76.2031 146.967 76.3203 146.744C76.4375 146.521 76.6055 146.32 76.8242 146.141C77.0469 145.957 77.3125 145.812 77.6211 145.707C77.9336 145.598 78.2812 145.543 78.6641 145.543C79.125 145.543 79.5312 145.621 79.8828 145.777C80.2383 145.934 80.5156 146.17 80.7148 146.486C80.918 146.799 81.0195 147.191 81.0195 147.664V150.617C81.0195 150.828 81.0371 151.053 81.0723 151.291C81.1113 151.529 81.168 151.734 81.2422 151.906V152H80.1113C80.0566 151.875 80.0137 151.709 79.9824 151.502C79.9512 151.291 79.9355 151.096 79.9355 150.916ZM80.123 148.156L80.1348 148.918H79.0391C78.7305 148.918 78.4551 148.943 78.2129 148.994C77.9707 149.041 77.7676 149.113 77.6035 149.211C77.4395 149.309 77.3145 149.432 77.2285 149.58C77.1426 149.725 77.0996 149.895 77.0996 150.09C77.0996 150.289 77.1445 150.471 77.2344 150.635C77.3242 150.799 77.459 150.93 77.6387 151.027C77.8223 151.121 78.0469 151.168 78.3125 151.168C78.6445 151.168 78.9375 151.098 79.1914 150.957C79.4453 150.816 79.6465 150.645 79.7949 150.441C79.9473 150.238 80.0293 150.041 80.041 149.85L80.5039 150.371C80.4766 150.535 80.4023 150.717 80.2812 150.916C80.1602 151.115 79.998 151.307 79.7949 151.49C79.5957 151.67 79.3574 151.82 79.0801 151.941C78.8066 152.059 78.498 152.117 78.1543 152.117C77.7246 152.117 77.3477 152.033 77.0234 151.865C76.7031 151.697 76.4531 151.473 76.2734 151.191C76.0977 150.906 76.0098 150.588 76.0098 150.236C76.0098 149.896 76.0762 149.598 76.209 149.34C76.3418 149.078 76.5332 148.861 76.7832 148.689C77.0332 148.514 77.334 148.381 77.6855 148.291C78.0371 148.201 78.4297 148.156 78.8633 148.156H80.123ZM85.3789 145.66V146.492H81.9512V145.66H85.3789ZM83.1113 144.119H84.1953V150.43C84.1953 150.645 84.2285 150.807 84.2949 150.916C84.3613 151.025 84.4473 151.098 84.5527 151.133C84.6582 151.168 84.7715 151.186 84.8926 151.186C84.9824 151.186 85.0762 151.178 85.1738 151.162C85.2754 151.143 85.3516 151.127 85.4023 151.115L85.4082 152C85.3223 152.027 85.209 152.053 85.0684 152.076C84.9316 152.104 84.7656 152.117 84.5703 152.117C84.3047 152.117 84.0605 152.064 83.8379 151.959C83.6152 151.854 83.4375 151.678 83.3047 151.432C83.1758 151.182 83.1113 150.846 83.1113 150.424V144.119ZM87.8281 145.66V152H86.7383V145.66H87.8281ZM86.6562 143.979C86.6562 143.803 86.709 143.654 86.8145 143.533C86.9238 143.412 87.084 143.352 87.2949 143.352C87.502 143.352 87.6602 143.412 87.7695 143.533C87.8828 143.654 87.9395 143.803 87.9395 143.979C87.9395 144.146 87.8828 144.291 87.7695 144.412C87.6602 144.529 87.502 144.588 87.2949 144.588C87.084 144.588 86.9238 144.529 86.8145 144.412C86.709 144.291 86.6562 144.146 86.6562 143.979ZM89.2812 148.9V148.766C89.2812 148.309 89.3477 147.885 89.4805 147.494C89.6133 147.1 89.8047 146.758 90.0547 146.469C90.3047 146.176 90.6074 145.949 90.9629 145.789C91.3184 145.625 91.7168 145.543 92.1582 145.543C92.6035 145.543 93.0039 145.625 93.3594 145.789C93.7188 145.949 94.0234 146.176 94.2734 146.469C94.5273 146.758 94.7207 147.1 94.8535 147.494C94.9863 147.885 95.0527 148.309 95.0527 148.766V148.9C95.0527 149.357 94.9863 149.781 94.8535 150.172C94.7207 150.562 94.5273 150.904 94.2734 151.197C94.0234 151.486 93.7207 151.713 93.3652 151.877C93.0137 152.037 92.6152 152.117 92.1699 152.117C91.7246 152.117 91.3242 152.037 90.9688 151.877C90.6133 151.713 90.3086 151.486 90.0547 151.197C89.8047 150.904 89.6133 150.562 89.4805 150.172C89.3477 149.781 89.2812 149.357 89.2812 148.9ZM90.3652 148.766V148.9C90.3652 149.217 90.4023 149.516 90.4766 149.797C90.5508 150.074 90.6621 150.32 90.8105 150.535C90.9629 150.75 91.1523 150.92 91.3789 151.045C91.6055 151.166 91.8691 151.227 92.1699 151.227C92.4668 151.227 92.7266 151.166 92.9492 151.045C93.1758 150.92 93.3633 150.75 93.5117 150.535C93.6602 150.32 93.7715 150.074 93.8457 149.797C93.9238 149.516 93.9629 149.217 93.9629 148.9V148.766C93.9629 148.453 93.9238 148.158 93.8457 147.881C93.7715 147.6 93.6582 147.352 93.5059 147.137C93.3574 146.918 93.1699 146.746 92.9434 146.621C92.7207 146.496 92.459 146.434 92.1582 146.434C91.8613 146.434 91.5996 146.496 91.373 146.621C91.1504 146.746 90.9629 146.918 90.8105 147.137C90.6621 147.352 90.5508 147.6 90.4766 147.881C90.4023 148.158 90.3652 148.453 90.3652 148.766ZM97.4961 147.014V152H96.4121V145.66H97.4375L97.4961 147.014ZM97.2383 148.59L96.7871 148.572C96.791 148.139 96.8555 147.738 96.9805 147.371C97.1055 147 97.2812 146.678 97.5078 146.404C97.7344 146.131 98.0039 145.92 98.3164 145.771C98.6328 145.619 98.9824 145.543 99.3652 145.543C99.6777 145.543 99.959 145.586 100.209 145.672C100.459 145.754 100.672 145.887 100.848 146.07C101.027 146.254 101.164 146.492 101.258 146.785C101.352 147.074 101.398 147.428 101.398 147.846V152H100.309V147.834C100.309 147.502 100.26 147.236 100.162 147.037C100.064 146.834 99.9219 146.688 99.7344 146.598C99.5469 146.504 99.3164 146.457 99.043 146.457C98.7734 146.457 98.5273 146.514 98.3047 146.627C98.0859 146.74 97.8965 146.896 97.7363 147.096C97.5801 147.295 97.457 147.523 97.3672 147.781C97.2812 148.035 97.2383 148.305 97.2383 148.59ZM109.104 143.469V152H107.99V143.469H109.104ZM111.846 143.469V144.395H105.254V143.469H111.846ZM114.992 152.117C114.551 152.117 114.15 152.043 113.791 151.895C113.436 151.742 113.129 151.529 112.871 151.256C112.617 150.982 112.422 150.658 112.285 150.283C112.148 149.908 112.08 149.498 112.08 149.053V148.807C112.08 148.291 112.156 147.832 112.309 147.43C112.461 147.023 112.668 146.68 112.93 146.398C113.191 146.117 113.488 145.904 113.82 145.76C114.152 145.615 114.496 145.543 114.852 145.543C115.305 145.543 115.695 145.621 116.023 145.777C116.355 145.934 116.627 146.152 116.838 146.434C117.049 146.711 117.205 147.039 117.307 147.418C117.408 147.793 117.459 148.203 117.459 148.648V149.135H112.725V148.25H116.375V148.168C116.359 147.887 116.301 147.613 116.199 147.348C116.102 147.082 115.945 146.863 115.73 146.691C115.516 146.52 115.223 146.434 114.852 146.434C114.605 146.434 114.379 146.486 114.172 146.592C113.965 146.693 113.787 146.846 113.639 147.049C113.49 147.252 113.375 147.5 113.293 147.793C113.211 148.086 113.17 148.424 113.17 148.807V149.053C113.17 149.354 113.211 149.637 113.293 149.902C113.379 150.164 113.502 150.395 113.662 150.594C113.826 150.793 114.023 150.949 114.254 151.062C114.488 151.176 114.754 151.232 115.051 151.232C115.434 151.232 115.758 151.154 116.023 150.998C116.289 150.842 116.521 150.633 116.721 150.371L117.377 150.893C117.24 151.1 117.066 151.297 116.855 151.484C116.645 151.672 116.385 151.824 116.076 151.941C115.771 152.059 115.41 152.117 114.992 152.117ZM119.803 146.92V152H118.713V145.66H119.744L119.803 146.92ZM119.58 148.59L119.076 148.572C119.08 148.139 119.137 147.738 119.246 147.371C119.355 147 119.518 146.678 119.732 146.404C119.947 146.131 120.215 145.92 120.535 145.771C120.855 145.619 121.227 145.543 121.648 145.543C121.945 145.543 122.219 145.586 122.469 145.672C122.719 145.754 122.936 145.885 123.119 146.064C123.303 146.244 123.445 146.475 123.547 146.756C123.648 147.037 123.699 147.377 123.699 147.775V152H122.615V147.828C122.615 147.496 122.559 147.23 122.445 147.031C122.336 146.832 122.18 146.688 121.977 146.598C121.773 146.504 121.535 146.457 121.262 146.457C120.941 146.457 120.674 146.514 120.459 146.627C120.244 146.74 120.072 146.896 119.943 147.096C119.814 147.295 119.721 147.523 119.662 147.781C119.607 148.035 119.58 148.305 119.58 148.59ZM123.688 147.992L122.961 148.215C122.965 147.867 123.021 147.533 123.131 147.213C123.244 146.893 123.406 146.607 123.617 146.357C123.832 146.107 124.096 145.91 124.408 145.766C124.721 145.617 125.078 145.543 125.48 145.543C125.82 145.543 126.121 145.588 126.383 145.678C126.648 145.768 126.871 145.906 127.051 146.094C127.234 146.277 127.373 146.514 127.467 146.803C127.561 147.092 127.607 147.436 127.607 147.834V152H126.518V147.822C126.518 147.467 126.461 147.191 126.348 146.996C126.238 146.797 126.082 146.658 125.879 146.58C125.68 146.498 125.441 146.457 125.164 146.457C124.926 146.457 124.715 146.498 124.531 146.58C124.348 146.662 124.193 146.775 124.068 146.92C123.943 147.061 123.848 147.223 123.781 147.406C123.719 147.59 123.688 147.785 123.688 147.992ZM130.332 146.879V154.438H129.242V145.66H130.238L130.332 146.879ZM134.604 148.777V148.9C134.604 149.361 134.549 149.789 134.439 150.184C134.33 150.574 134.17 150.914 133.959 151.203C133.752 151.492 133.496 151.717 133.191 151.877C132.887 152.037 132.537 152.117 132.143 152.117C131.74 152.117 131.385 152.051 131.076 151.918C130.768 151.785 130.506 151.592 130.291 151.338C130.076 151.084 129.904 150.779 129.775 150.424C129.65 150.068 129.564 149.668 129.518 149.223V148.566C129.564 148.098 129.652 147.678 129.781 147.307C129.91 146.936 130.08 146.619 130.291 146.357C130.506 146.092 130.766 145.891 131.07 145.754C131.375 145.613 131.727 145.543 132.125 145.543C132.523 145.543 132.877 145.621 133.186 145.777C133.494 145.93 133.754 146.148 133.965 146.434C134.176 146.719 134.334 147.061 134.439 147.459C134.549 147.854 134.604 148.293 134.604 148.777ZM133.514 148.9V148.777C133.514 148.461 133.48 148.164 133.414 147.887C133.348 147.605 133.244 147.359 133.104 147.148C132.967 146.934 132.791 146.766 132.576 146.645C132.361 146.52 132.105 146.457 131.809 146.457C131.535 146.457 131.297 146.504 131.094 146.598C130.895 146.691 130.725 146.818 130.584 146.979C130.443 147.135 130.328 147.314 130.238 147.518C130.152 147.717 130.088 147.924 130.045 148.139V149.656C130.123 149.93 130.232 150.188 130.373 150.43C130.514 150.668 130.701 150.861 130.936 151.01C131.17 151.154 131.465 151.227 131.82 151.227C132.113 151.227 132.365 151.166 132.576 151.045C132.791 150.92 132.967 150.75 133.104 150.535C133.244 150.32 133.348 150.074 133.414 149.797C133.48 149.516 133.514 149.217 133.514 148.9ZM137.164 143V152H136.074V143H137.164ZM142.643 150.916V147.652C142.643 147.402 142.592 147.186 142.49 147.002C142.393 146.814 142.244 146.67 142.045 146.568C141.846 146.467 141.6 146.416 141.307 146.416C141.033 146.416 140.793 146.463 140.586 146.557C140.383 146.65 140.223 146.773 140.105 146.926C139.992 147.078 139.936 147.242 139.936 147.418H138.852C138.852 147.191 138.91 146.967 139.027 146.744C139.145 146.521 139.312 146.32 139.531 146.141C139.754 145.957 140.02 145.812 140.328 145.707C140.641 145.598 140.988 145.543 141.371 145.543C141.832 145.543 142.238 145.621 142.59 145.777C142.945 145.934 143.223 146.17 143.422 146.486C143.625 146.799 143.727 147.191 143.727 147.664V150.617C143.727 150.828 143.744 151.053 143.779 151.291C143.818 151.529 143.875 151.734 143.949 151.906V152H142.818C142.764 151.875 142.721 151.709 142.689 151.502C142.658 151.291 142.643 151.096 142.643 150.916ZM142.83 148.156L142.842 148.918H141.746C141.438 148.918 141.162 148.943 140.92 148.994C140.678 149.041 140.475 149.113 140.311 149.211C140.146 149.309 140.021 149.432 139.936 149.58C139.85 149.725 139.807 149.895 139.807 150.09C139.807 150.289 139.852 150.471 139.941 150.635C140.031 150.799 140.166 150.93 140.346 151.027C140.529 151.121 140.754 151.168 141.02 151.168C141.352 151.168 141.645 151.098 141.898 150.957C142.152 150.816 142.354 150.645 142.502 150.441C142.654 150.238 142.736 150.041 142.748 149.85L143.211 150.371C143.184 150.535 143.109 150.717 142.988 150.916C142.867 151.115 142.705 151.307 142.502 151.49C142.303 151.67 142.064 151.82 141.787 151.941C141.514 152.059 141.205 152.117 140.861 152.117C140.432 152.117 140.055 152.033 139.73 151.865C139.41 151.697 139.16 151.473 138.98 151.191C138.805 150.906 138.717 150.588 138.717 150.236C138.717 149.896 138.783 149.598 138.916 149.34C139.049 149.078 139.24 148.861 139.49 148.689C139.74 148.514 140.041 148.381 140.393 148.291C140.744 148.201 141.137 148.156 141.57 148.156H142.83ZM148.086 145.66V146.492H144.658V145.66H148.086ZM145.818 144.119H146.902V150.43C146.902 150.645 146.936 150.807 147.002 150.916C147.068 151.025 147.154 151.098 147.26 151.133C147.365 151.168 147.479 151.186 147.6 151.186C147.689 151.186 147.783 151.178 147.881 151.162C147.982 151.143 148.059 151.127 148.109 151.115L148.115 152C148.029 152.027 147.916 152.053 147.775 152.076C147.639 152.104 147.473 152.117 147.277 152.117C147.012 152.117 146.768 152.064 146.545 151.959C146.322 151.854 146.145 151.678 146.012 151.432C145.883 151.182 145.818 150.846 145.818 150.424V144.119ZM151.988 152.117C151.547 152.117 151.146 152.043 150.787 151.895C150.432 151.742 150.125 151.529 149.867 151.256C149.613 150.982 149.418 150.658 149.281 150.283C149.145 149.908 149.076 149.498 149.076 149.053V148.807C149.076 148.291 149.152 147.832 149.305 147.43C149.457 147.023 149.664 146.68 149.926 146.398C150.188 146.117 150.484 145.904 150.816 145.76C151.148 145.615 151.492 145.543 151.848 145.543C152.301 145.543 152.691 145.621 153.02 145.777C153.352 145.934 153.623 146.152 153.834 146.434C154.045 146.711 154.201 147.039 154.303 147.418C154.404 147.793 154.455 148.203 154.455 148.648V149.135H149.721V148.25H153.371V148.168C153.355 147.887 153.297 147.613 153.195 147.348C153.098 147.082 152.941 146.863 152.727 146.691C152.512 146.52 152.219 146.434 151.848 146.434C151.602 146.434 151.375 146.486 151.168 146.592C150.961 146.693 150.783 146.846 150.635 147.049C150.486 147.252 150.371 147.5 150.289 147.793C150.207 148.086 150.166 148.424 150.166 148.807V149.053C150.166 149.354 150.207 149.637 150.289 149.902C150.375 150.164 150.498 150.395 150.658 150.594C150.822 150.793 151.02 150.949 151.25 151.062C151.484 151.176 151.75 151.232 152.047 151.232C152.43 151.232 152.754 151.154 153.02 150.998C153.285 150.842 153.518 150.633 153.717 150.371L154.373 150.893C154.236 151.1 154.062 151.297 153.852 151.484C153.641 151.672 153.381 151.824 153.072 151.941C152.768 152.059 152.406 152.117 151.988 152.117Z" fill="#0D1024" fill-opacity="0.88"/>
<g filter="url(#filter6_d_653_5857)">
<rect x="402" y="228" width="178" height="146" rx="8" fill="white"/>
</g>
<path d="M422.143 249.469V258H421.029V249.469H422.143ZM424.885 249.469V250.395H418.293V249.469H424.885ZM428.031 258.117C427.59 258.117 427.189 258.043 426.83 257.895C426.475 257.742 426.168 257.529 425.91 257.256C425.656 256.982 425.461 256.658 425.324 256.283C425.188 255.908 425.119 255.498 425.119 255.053V254.807C425.119 254.291 425.195 253.832 425.348 253.43C425.5 253.023 425.707 252.68 425.969 252.398C426.23 252.117 426.527 251.904 426.859 251.76C427.191 251.615 427.535 251.543 427.891 251.543C428.344 251.543 428.734 251.621 429.062 251.777C429.395 251.934 429.666 252.152 429.877 252.434C430.088 252.711 430.244 253.039 430.346 253.418C430.447 253.793 430.498 254.203 430.498 254.648V255.135H425.764V254.25H429.414V254.168C429.398 253.887 429.34 253.613 429.238 253.348C429.141 253.082 428.984 252.863 428.77 252.691C428.555 252.52 428.262 252.434 427.891 252.434C427.645 252.434 427.418 252.486 427.211 252.592C427.004 252.693 426.826 252.846 426.678 253.049C426.529 253.252 426.414 253.5 426.332 253.793C426.25 254.086 426.209 254.424 426.209 254.807V255.053C426.209 255.354 426.25 255.637 426.332 255.902C426.418 256.164 426.541 256.395 426.701 256.594C426.865 256.793 427.062 256.949 427.293 257.062C427.527 257.176 427.793 257.232 428.09 257.232C428.473 257.232 428.797 257.154 429.062 256.998C429.328 256.842 429.561 256.633 429.76 256.371L430.416 256.893C430.279 257.1 430.105 257.297 429.895 257.484C429.684 257.672 429.424 257.824 429.115 257.941C428.811 258.059 428.449 258.117 428.031 258.117ZM432.842 252.92V258H431.752V251.66H432.783L432.842 252.92ZM432.619 254.59L432.115 254.572C432.119 254.139 432.176 253.738 432.285 253.371C432.395 253 432.557 252.678 432.771 252.404C432.986 252.131 433.254 251.92 433.574 251.771C433.895 251.619 434.266 251.543 434.688 251.543C434.984 251.543 435.258 251.586 435.508 251.672C435.758 251.754 435.975 251.885 436.158 252.064C436.342 252.244 436.484 252.475 436.586 252.756C436.688 253.037 436.738 253.377 436.738 253.775V258H435.654V253.828C435.654 253.496 435.598 253.23 435.484 253.031C435.375 252.832 435.219 252.688 435.016 252.598C434.812 252.504 434.574 252.457 434.301 252.457C433.98 252.457 433.713 252.514 433.498 252.627C433.283 252.74 433.111 252.896 432.982 253.096C432.854 253.295 432.76 253.523 432.701 253.781C432.646 254.035 432.619 254.305 432.619 254.59ZM436.727 253.992L436 254.215C436.004 253.867 436.061 253.533 436.17 253.213C436.283 252.893 436.445 252.607 436.656 252.357C436.871 252.107 437.135 251.91 437.447 251.766C437.76 251.617 438.117 251.543 438.52 251.543C438.859 251.543 439.16 251.588 439.422 251.678C439.688 251.768 439.91 251.906 440.09 252.094C440.273 252.277 440.412 252.514 440.506 252.803C440.6 253.092 440.646 253.436 440.646 253.834V258H439.557V253.822C439.557 253.467 439.5 253.191 439.387 252.996C439.277 252.797 439.121 252.658 438.918 252.58C438.719 252.498 438.48 252.457 438.203 252.457C437.965 252.457 437.754 252.498 437.57 252.58C437.387 252.662 437.232 252.775 437.107 252.92C436.982 253.061 436.887 253.223 436.82 253.406C436.758 253.59 436.727 253.785 436.727 253.992ZM443.371 252.879V260.438H442.281V251.66H443.277L443.371 252.879ZM447.643 254.777V254.9C447.643 255.361 447.588 255.789 447.479 256.184C447.369 256.574 447.209 256.914 446.998 257.203C446.791 257.492 446.535 257.717 446.23 257.877C445.926 258.037 445.576 258.117 445.182 258.117C444.779 258.117 444.424 258.051 444.115 257.918C443.807 257.785 443.545 257.592 443.33 257.338C443.115 257.084 442.943 256.779 442.814 256.424C442.689 256.068 442.604 255.668 442.557 255.223V254.566C442.604 254.098 442.691 253.678 442.82 253.307C442.949 252.936 443.119 252.619 443.33 252.357C443.545 252.092 443.805 251.891 444.109 251.754C444.414 251.613 444.766 251.543 445.164 251.543C445.562 251.543 445.916 251.621 446.225 251.777C446.533 251.93 446.793 252.148 447.004 252.434C447.215 252.719 447.373 253.061 447.479 253.459C447.588 253.854 447.643 254.293 447.643 254.777ZM446.553 254.9V254.777C446.553 254.461 446.52 254.164 446.453 253.887C446.387 253.605 446.283 253.359 446.143 253.148C446.006 252.934 445.83 252.766 445.615 252.645C445.4 252.52 445.145 252.457 444.848 252.457C444.574 252.457 444.336 252.504 444.133 252.598C443.934 252.691 443.764 252.818 443.623 252.979C443.482 253.135 443.367 253.314 443.277 253.518C443.191 253.717 443.127 253.924 443.084 254.139V255.656C443.162 255.93 443.271 256.188 443.412 256.43C443.553 256.668 443.74 256.861 443.975 257.01C444.209 257.154 444.504 257.227 444.859 257.227C445.152 257.227 445.404 257.166 445.615 257.045C445.83 256.92 446.006 256.75 446.143 256.535C446.283 256.32 446.387 256.074 446.453 255.797C446.52 255.516 446.553 255.217 446.553 254.9ZM450.203 249V258H449.113V249H450.203ZM455.682 256.916V253.652C455.682 253.402 455.631 253.186 455.529 253.002C455.432 252.814 455.283 252.67 455.084 252.568C454.885 252.467 454.639 252.416 454.346 252.416C454.072 252.416 453.832 252.463 453.625 252.557C453.422 252.65 453.262 252.773 453.145 252.926C453.031 253.078 452.975 253.242 452.975 253.418H451.891C451.891 253.191 451.949 252.967 452.066 252.744C452.184 252.521 452.352 252.32 452.57 252.141C452.793 251.957 453.059 251.812 453.367 251.707C453.68 251.598 454.027 251.543 454.41 251.543C454.871 251.543 455.277 251.621 455.629 251.777C455.984 251.934 456.262 252.17 456.461 252.486C456.664 252.799 456.766 253.191 456.766 253.664V256.617C456.766 256.828 456.783 257.053 456.818 257.291C456.857 257.529 456.914 257.734 456.988 257.906V258H455.857C455.803 257.875 455.76 257.709 455.729 257.502C455.697 257.291 455.682 257.096 455.682 256.916ZM455.869 254.156L455.881 254.918H454.785C454.477 254.918 454.201 254.943 453.959 254.994C453.717 255.041 453.514 255.113 453.35 255.211C453.186 255.309 453.061 255.432 452.975 255.58C452.889 255.725 452.846 255.895 452.846 256.09C452.846 256.289 452.891 256.471 452.98 256.635C453.07 256.799 453.205 256.93 453.385 257.027C453.568 257.121 453.793 257.168 454.059 257.168C454.391 257.168 454.684 257.098 454.938 256.957C455.191 256.816 455.393 256.645 455.541 256.441C455.693 256.238 455.775 256.041 455.787 255.85L456.25 256.371C456.223 256.535 456.148 256.717 456.027 256.916C455.906 257.115 455.744 257.307 455.541 257.49C455.342 257.67 455.104 257.82 454.826 257.941C454.553 258.059 454.244 258.117 453.9 258.117C453.471 258.117 453.094 258.033 452.77 257.865C452.449 257.697 452.199 257.473 452.02 257.191C451.844 256.906 451.756 256.588 451.756 256.236C451.756 255.896 451.822 255.598 451.955 255.34C452.088 255.078 452.279 254.861 452.529 254.689C452.779 254.514 453.08 254.381 453.432 254.291C453.783 254.201 454.176 254.156 454.609 254.156H455.869ZM461.125 251.66V252.492H457.697V251.66H461.125ZM458.857 250.119H459.941V256.43C459.941 256.645 459.975 256.807 460.041 256.916C460.107 257.025 460.193 257.098 460.299 257.133C460.404 257.168 460.518 257.186 460.639 257.186C460.729 257.186 460.822 257.178 460.92 257.162C461.021 257.143 461.098 257.127 461.148 257.115L461.154 258C461.068 258.027 460.955 258.053 460.814 258.076C460.678 258.104 460.512 258.117 460.316 258.117C460.051 258.117 459.807 258.064 459.584 257.959C459.361 257.854 459.184 257.678 459.051 257.432C458.922 257.182 458.857 256.846 458.857 256.424V250.119ZM465.027 258.117C464.586 258.117 464.186 258.043 463.826 257.895C463.471 257.742 463.164 257.529 462.906 257.256C462.652 256.982 462.457 256.658 462.32 256.283C462.184 255.908 462.115 255.498 462.115 255.053V254.807C462.115 254.291 462.191 253.832 462.344 253.43C462.496 253.023 462.703 252.68 462.965 252.398C463.227 252.117 463.523 251.904 463.855 251.76C464.188 251.615 464.531 251.543 464.887 251.543C465.34 251.543 465.73 251.621 466.059 251.777C466.391 251.934 466.662 252.152 466.873 252.434C467.084 252.711 467.24 253.039 467.342 253.418C467.443 253.793 467.494 254.203 467.494 254.648V255.135H462.76V254.25H466.41V254.168C466.395 253.887 466.336 253.613 466.234 253.348C466.137 253.082 465.98 252.863 465.766 252.691C465.551 252.52 465.258 252.434 464.887 252.434C464.641 252.434 464.414 252.486 464.207 252.592C464 252.693 463.822 252.846 463.674 253.049C463.525 253.252 463.41 253.5 463.328 253.793C463.246 254.086 463.205 254.424 463.205 254.807V255.053C463.205 255.354 463.246 255.637 463.328 255.902C463.414 256.164 463.537 256.395 463.697 256.594C463.861 256.793 464.059 256.949 464.289 257.062C464.523 257.176 464.789 257.232 465.086 257.232C465.469 257.232 465.793 257.154 466.059 256.998C466.324 256.842 466.557 256.633 466.756 256.371L467.412 256.893C467.275 257.1 467.102 257.297 466.891 257.484C466.68 257.672 466.42 257.824 466.111 257.941C465.807 258.059 465.445 258.117 465.027 258.117ZM477.051 255.287H478.176C478.117 255.826 477.963 256.309 477.713 256.734C477.463 257.16 477.109 257.498 476.652 257.748C476.195 257.994 475.625 258.117 474.941 258.117C474.441 258.117 473.986 258.023 473.576 257.836C473.17 257.648 472.82 257.383 472.527 257.039C472.234 256.691 472.008 256.275 471.848 255.791C471.691 255.303 471.613 254.76 471.613 254.162V253.312C471.613 252.715 471.691 252.174 471.848 251.689C472.008 251.201 472.236 250.783 472.533 250.436C472.834 250.088 473.195 249.82 473.617 249.633C474.039 249.445 474.514 249.352 475.041 249.352C475.686 249.352 476.23 249.473 476.676 249.715C477.121 249.957 477.467 250.293 477.713 250.723C477.963 251.148 478.117 251.643 478.176 252.205H477.051C476.996 251.807 476.895 251.465 476.746 251.18C476.598 250.891 476.387 250.668 476.113 250.512C475.84 250.355 475.482 250.277 475.041 250.277C474.662 250.277 474.328 250.35 474.039 250.494C473.754 250.639 473.514 250.844 473.318 251.109C473.127 251.375 472.982 251.693 472.885 252.064C472.787 252.436 472.738 252.848 472.738 253.301V254.162C472.738 254.58 472.781 254.973 472.867 255.34C472.957 255.707 473.092 256.029 473.271 256.307C473.451 256.584 473.68 256.803 473.957 256.963C474.234 257.119 474.562 257.197 474.941 257.197C475.422 257.197 475.805 257.121 476.09 256.969C476.375 256.816 476.59 256.598 476.734 256.312C476.883 256.027 476.988 255.686 477.051 255.287ZM479.266 254.9V254.766C479.266 254.309 479.332 253.885 479.465 253.494C479.598 253.1 479.789 252.758 480.039 252.469C480.289 252.176 480.592 251.949 480.947 251.789C481.303 251.625 481.701 251.543 482.143 251.543C482.588 251.543 482.988 251.625 483.344 251.789C483.703 251.949 484.008 252.176 484.258 252.469C484.512 252.758 484.705 253.1 484.838 253.494C484.971 253.885 485.037 254.309 485.037 254.766V254.9C485.037 255.357 484.971 255.781 484.838 256.172C484.705 256.562 484.512 256.904 484.258 257.197C484.008 257.486 483.705 257.713 483.35 257.877C482.998 258.037 482.6 258.117 482.154 258.117C481.709 258.117 481.309 258.037 480.953 257.877C480.598 257.713 480.293 257.486 480.039 257.197C479.789 256.904 479.598 256.562 479.465 256.172C479.332 255.781 479.266 255.357 479.266 254.9ZM480.35 254.766V254.9C480.35 255.217 480.387 255.516 480.461 255.797C480.535 256.074 480.646 256.32 480.795 256.535C480.947 256.75 481.137 256.92 481.363 257.045C481.59 257.166 481.854 257.227 482.154 257.227C482.451 257.227 482.711 257.166 482.934 257.045C483.16 256.92 483.348 256.75 483.496 256.535C483.645 256.32 483.756 256.074 483.83 255.797C483.908 255.516 483.947 255.217 483.947 254.9V254.766C483.947 254.453 483.908 254.158 483.83 253.881C483.756 253.6 483.643 253.352 483.49 253.137C483.342 252.918 483.154 252.746 482.928 252.621C482.705 252.496 482.443 252.434 482.143 252.434C481.846 252.434 481.584 252.496 481.357 252.621C481.135 252.746 480.947 252.918 480.795 253.137C480.646 253.352 480.535 253.6 480.461 253.881C480.387 254.158 480.35 254.453 480.35 254.766ZM490.393 256.77V249H491.482V258H490.486L490.393 256.77ZM486.127 254.9V254.777C486.127 254.293 486.186 253.854 486.303 253.459C486.424 253.061 486.594 252.719 486.812 252.434C487.035 252.148 487.299 251.93 487.604 251.777C487.912 251.621 488.256 251.543 488.635 251.543C489.033 251.543 489.381 251.613 489.678 251.754C489.979 251.891 490.232 252.092 490.439 252.357C490.65 252.619 490.816 252.936 490.938 253.307C491.059 253.678 491.143 254.098 491.189 254.566V255.105C491.146 255.57 491.062 255.988 490.938 256.359C490.816 256.73 490.65 257.047 490.439 257.309C490.232 257.57 489.979 257.771 489.678 257.912C489.377 258.049 489.025 258.117 488.623 258.117C488.252 258.117 487.912 258.037 487.604 257.877C487.299 257.717 487.035 257.492 486.812 257.203C486.594 256.914 486.424 256.574 486.303 256.184C486.186 255.789 486.127 255.361 486.127 254.9ZM487.217 254.777V254.9C487.217 255.217 487.248 255.514 487.311 255.791C487.377 256.068 487.479 256.312 487.615 256.523C487.752 256.734 487.926 256.9 488.137 257.021C488.348 257.139 488.6 257.197 488.893 257.197C489.252 257.197 489.547 257.121 489.777 256.969C490.012 256.816 490.199 256.615 490.34 256.365C490.48 256.115 490.59 255.844 490.668 255.551V254.139C490.621 253.924 490.553 253.717 490.463 253.518C490.377 253.314 490.264 253.135 490.123 252.979C489.986 252.818 489.816 252.691 489.613 252.598C489.414 252.504 489.178 252.457 488.904 252.457C488.607 252.457 488.352 252.52 488.137 252.645C487.926 252.766 487.752 252.934 487.615 253.148C487.479 253.359 487.377 253.605 487.311 253.887C487.248 254.164 487.217 254.461 487.217 254.777ZM495.801 258.117C495.359 258.117 494.959 258.043 494.6 257.895C494.244 257.742 493.938 257.529 493.68 257.256C493.426 256.982 493.23 256.658 493.094 256.283C492.957 255.908 492.889 255.498 492.889 255.053V254.807C492.889 254.291 492.965 253.832 493.117 253.43C493.27 253.023 493.477 252.68 493.738 252.398C494 252.117 494.297 251.904 494.629 251.76C494.961 251.615 495.305 251.543 495.66 251.543C496.113 251.543 496.504 251.621 496.832 251.777C497.164 251.934 497.436 252.152 497.646 252.434C497.857 252.711 498.014 253.039 498.115 253.418C498.217 253.793 498.268 254.203 498.268 254.648V255.135H493.533V254.25H497.184V254.168C497.168 253.887 497.109 253.613 497.008 253.348C496.91 253.082 496.754 252.863 496.539 252.691C496.324 252.52 496.031 252.434 495.66 252.434C495.414 252.434 495.188 252.486 494.98 252.592C494.773 252.693 494.596 252.846 494.447 253.049C494.299 253.252 494.184 253.5 494.102 253.793C494.02 254.086 493.979 254.424 493.979 254.807V255.053C493.979 255.354 494.02 255.637 494.102 255.902C494.188 256.164 494.311 256.395 494.471 256.594C494.635 256.793 494.832 256.949 495.062 257.062C495.297 257.176 495.562 257.232 495.859 257.232C496.242 257.232 496.566 257.154 496.832 256.998C497.098 256.842 497.33 256.633 497.529 256.371L498.186 256.893C498.049 257.1 497.875 257.297 497.664 257.484C497.453 257.672 497.193 257.824 496.885 257.941C496.58 258.059 496.219 258.117 495.801 258.117Z" fill="#0D1024" fill-opacity="0.88"/>
<path d="M427.844 288.371H430.285C430.207 289.302 429.947 290.132 429.504 290.861C429.061 291.584 428.439 292.154 427.639 292.57C426.838 292.987 425.865 293.195 424.719 293.195C423.84 293.195 423.049 293.039 422.346 292.727C421.643 292.408 421.04 291.958 420.539 291.379C420.038 290.793 419.654 290.087 419.387 289.26C419.126 288.433 418.996 287.508 418.996 286.486V285.305C418.996 284.283 419.13 283.358 419.396 282.531C419.67 281.704 420.061 280.998 420.568 280.412C421.076 279.82 421.685 279.367 422.395 279.055C423.111 278.742 423.915 278.586 424.807 278.586C425.939 278.586 426.896 278.794 427.678 279.211C428.459 279.628 429.064 280.204 429.494 280.939C429.93 281.675 430.197 282.518 430.295 283.469H427.854C427.788 282.857 427.645 282.333 427.424 281.896C427.209 281.46 426.89 281.128 426.467 280.9C426.044 280.666 425.49 280.549 424.807 280.549C424.247 280.549 423.758 280.653 423.342 280.861C422.925 281.07 422.577 281.376 422.297 281.779C422.017 282.183 421.805 282.681 421.662 283.273C421.525 283.859 421.457 284.53 421.457 285.285V286.486C421.457 287.202 421.519 287.854 421.643 288.439C421.773 289.019 421.968 289.517 422.229 289.934C422.495 290.35 422.834 290.673 423.244 290.9C423.654 291.128 424.146 291.242 424.719 291.242C425.415 291.242 425.979 291.132 426.408 290.91C426.844 290.689 427.173 290.367 427.395 289.943C427.622 289.514 427.772 288.99 427.844 288.371ZM443.85 285.5V286.281C443.85 287.355 443.71 288.319 443.43 289.172C443.15 290.025 442.749 290.751 442.229 291.35C441.714 291.949 441.096 292.408 440.373 292.727C439.65 293.039 438.85 293.195 437.971 293.195C437.098 293.195 436.301 293.039 435.578 292.727C434.862 292.408 434.24 291.949 433.713 291.35C433.186 290.751 432.775 290.025 432.482 289.172C432.196 288.319 432.053 287.355 432.053 286.281V285.5C432.053 284.426 432.196 283.465 432.482 282.619C432.769 281.766 433.173 281.04 433.693 280.441C434.221 279.836 434.842 279.377 435.559 279.064C436.281 278.745 437.079 278.586 437.951 278.586C438.83 278.586 439.631 278.745 440.354 279.064C441.076 279.377 441.698 279.836 442.219 280.441C442.74 281.04 443.14 281.766 443.42 282.619C443.706 283.465 443.85 284.426 443.85 285.5ZM441.398 286.281V285.48C441.398 284.686 441.32 283.986 441.164 283.381C441.014 282.769 440.79 282.258 440.49 281.848C440.197 281.431 439.836 281.118 439.406 280.91C438.977 280.695 438.492 280.588 437.951 280.588C437.411 280.588 436.929 280.695 436.506 280.91C436.083 281.118 435.721 281.431 435.422 281.848C435.129 282.258 434.904 282.769 434.748 283.381C434.592 283.986 434.514 284.686 434.514 285.48V286.281C434.514 287.076 434.592 287.779 434.748 288.391C434.904 289.003 435.132 289.52 435.432 289.943C435.738 290.36 436.102 290.676 436.525 290.891C436.949 291.099 437.43 291.203 437.971 291.203C438.518 291.203 439.003 291.099 439.426 290.891C439.849 290.676 440.207 290.36 440.5 289.943C440.793 289.52 441.014 289.003 441.164 288.391C441.32 287.779 441.398 287.076 441.398 286.281ZM450.432 293H447.395L447.414 291.057H450.432C451.311 291.057 452.046 290.865 452.639 290.48C453.238 290.096 453.687 289.546 453.986 288.83C454.292 288.114 454.445 287.261 454.445 286.271V285.5C454.445 284.732 454.357 284.051 454.182 283.459C454.012 282.867 453.758 282.368 453.42 281.965C453.088 281.561 452.678 281.255 452.189 281.047C451.708 280.839 451.151 280.734 450.52 280.734H447.336V278.781H450.52C451.464 278.781 452.326 278.941 453.107 279.26C453.889 279.572 454.562 280.025 455.129 280.617C455.702 281.21 456.141 281.919 456.447 282.746C456.753 283.573 456.906 284.497 456.906 285.52V286.271C456.906 287.294 456.753 288.218 456.447 289.045C456.141 289.872 455.702 290.581 455.129 291.174C454.556 291.76 453.872 292.212 453.078 292.531C452.29 292.844 451.408 293 450.432 293ZM448.752 278.781V293H446.301V278.781H448.752ZM468.674 291.057V293H461.125V291.057H468.674ZM461.818 278.781V293H459.367V278.781H461.818ZM467.688 284.719V286.633H461.125V284.719H467.688ZM468.625 278.781V280.734H461.125V278.781H468.625ZM474.807 293H471.77L471.789 291.057H474.807C475.686 291.057 476.421 290.865 477.014 290.48C477.613 290.096 478.062 289.546 478.361 288.83C478.667 288.114 478.82 287.261 478.82 286.271V285.5C478.82 284.732 478.732 284.051 478.557 283.459C478.387 282.867 478.133 282.368 477.795 281.965C477.463 281.561 477.053 281.255 476.564 281.047C476.083 280.839 475.526 280.734 474.895 280.734H471.711V278.781H474.895C475.839 278.781 476.701 278.941 477.482 279.26C478.264 279.572 478.938 280.025 479.504 280.617C480.077 281.21 480.516 281.919 480.822 282.746C481.128 283.573 481.281 284.497 481.281 285.52V286.271C481.281 287.294 481.128 288.218 480.822 289.045C480.516 289.872 480.077 290.581 479.504 291.174C478.931 291.76 478.247 292.212 477.453 292.531C476.665 292.844 475.783 293 474.807 293ZM473.127 278.781V293H470.676V278.781H473.127ZM488.244 285.988V287.863H483.078V285.988H488.244ZM495.871 286.574H492.248L492.229 284.787H495.393C495.926 284.787 496.379 284.709 496.75 284.553C497.128 284.39 497.414 284.159 497.609 283.859C497.805 283.553 497.902 283.186 497.902 282.756C497.902 282.281 497.811 281.893 497.629 281.594C497.447 281.294 497.167 281.076 496.789 280.939C496.418 280.803 495.943 280.734 495.363 280.734H492.99V293H490.539V278.781H495.363C496.145 278.781 496.841 278.856 497.453 279.006C498.072 279.156 498.596 279.39 499.025 279.709C499.462 280.021 499.79 280.419 500.012 280.9C500.24 281.382 500.354 281.955 500.354 282.619C500.354 283.205 500.214 283.742 499.934 284.23C499.654 284.712 499.24 285.106 498.693 285.412C498.146 285.718 497.466 285.9 496.652 285.959L495.871 286.574ZM495.764 293H491.477L492.58 291.057H495.764C496.317 291.057 496.779 290.965 497.15 290.783C497.521 290.594 497.798 290.337 497.98 290.012C498.169 289.68 498.264 289.292 498.264 288.85C498.264 288.387 498.182 287.987 498.02 287.648C497.857 287.303 497.6 287.04 497.248 286.857C496.896 286.669 496.438 286.574 495.871 286.574H493.117L493.137 284.787H496.721L497.277 285.461C498.059 285.487 498.7 285.66 499.201 285.979C499.709 286.298 500.087 286.711 500.334 287.219C500.581 287.727 500.705 288.273 500.705 288.859C500.705 289.764 500.507 290.523 500.109 291.135C499.719 291.747 499.156 292.212 498.42 292.531C497.684 292.844 496.799 293 495.764 293ZM510.656 289.338C510.656 289.045 510.611 288.785 510.52 288.557C510.435 288.329 510.282 288.12 510.061 287.932C509.839 287.743 509.527 287.561 509.123 287.385C508.726 287.202 508.218 287.017 507.6 286.828C506.923 286.62 506.298 286.389 505.725 286.135C505.158 285.874 504.663 285.575 504.24 285.236C503.817 284.891 503.488 284.497 503.254 284.055C503.02 283.605 502.902 283.088 502.902 282.502C502.902 281.923 503.023 281.395 503.264 280.92C503.511 280.445 503.859 280.035 504.309 279.689C504.764 279.338 505.301 279.068 505.92 278.879C506.538 278.684 507.222 278.586 507.971 278.586C509.025 278.586 509.934 278.781 510.695 279.172C511.464 279.562 512.053 280.087 512.463 280.744C512.88 281.402 513.088 282.128 513.088 282.922H510.656C510.656 282.453 510.555 282.04 510.354 281.682C510.158 281.317 509.859 281.031 509.455 280.822C509.058 280.614 508.553 280.51 507.941 280.51C507.362 280.51 506.88 280.598 506.496 280.773C506.112 280.949 505.826 281.187 505.637 281.486C505.448 281.786 505.354 282.124 505.354 282.502C505.354 282.769 505.415 283.013 505.539 283.234C505.663 283.449 505.852 283.651 506.105 283.84C506.359 284.022 506.678 284.195 507.062 284.357C507.447 284.52 507.899 284.676 508.42 284.826C509.208 285.061 509.895 285.321 510.48 285.607C511.066 285.887 511.555 286.206 511.945 286.564C512.336 286.923 512.629 287.329 512.824 287.785C513.02 288.234 513.117 288.745 513.117 289.318C513.117 289.917 512.997 290.458 512.756 290.939C512.515 291.415 512.17 291.822 511.721 292.16C511.278 292.492 510.744 292.749 510.119 292.932C509.501 293.107 508.811 293.195 508.049 293.195C507.365 293.195 506.691 293.104 506.027 292.922C505.37 292.74 504.771 292.463 504.23 292.092C503.69 291.714 503.26 291.245 502.941 290.686C502.622 290.119 502.463 289.458 502.463 288.703H504.914C504.914 289.165 504.992 289.559 505.148 289.885C505.311 290.21 505.536 290.477 505.822 290.686C506.109 290.887 506.441 291.037 506.818 291.135C507.202 291.232 507.613 291.281 508.049 291.281C508.622 291.281 509.1 291.2 509.484 291.037C509.875 290.874 510.168 290.646 510.363 290.354C510.559 290.061 510.656 289.722 510.656 289.338ZM523.684 288.371H526.125C526.047 289.302 525.786 290.132 525.344 290.861C524.901 291.584 524.279 292.154 523.479 292.57C522.678 292.987 521.704 293.195 520.559 293.195C519.68 293.195 518.889 293.039 518.186 292.727C517.482 292.408 516.88 291.958 516.379 291.379C515.878 290.793 515.493 290.087 515.227 289.26C514.966 288.433 514.836 287.508 514.836 286.486V285.305C514.836 284.283 514.969 283.358 515.236 282.531C515.51 281.704 515.9 280.998 516.408 280.412C516.916 279.82 517.525 279.367 518.234 279.055C518.951 278.742 519.755 278.586 520.646 278.586C521.779 278.586 522.736 278.794 523.518 279.211C524.299 279.628 524.904 280.204 525.334 280.939C525.77 281.675 526.037 282.518 526.135 283.469H523.693C523.628 282.857 523.485 282.333 523.264 281.896C523.049 281.46 522.73 281.128 522.307 280.9C521.883 280.666 521.33 280.549 520.646 280.549C520.087 280.549 519.598 280.653 519.182 280.861C518.765 281.07 518.417 281.376 518.137 281.779C517.857 282.183 517.645 282.681 517.502 283.273C517.365 283.859 517.297 284.53 517.297 285.285V286.486C517.297 287.202 517.359 287.854 517.482 288.439C517.613 289.019 517.808 289.517 518.068 289.934C518.335 290.35 518.674 290.673 519.084 290.9C519.494 291.128 519.986 291.242 520.559 291.242C521.255 291.242 521.818 291.132 522.248 290.91C522.684 290.689 523.013 290.367 523.234 289.943C523.462 289.514 523.612 288.99 523.684 288.371Z" fill="#3F51B5"/>
<rect x="418" y="304" width="146" height="16" rx="4" fill="#6E80E1" fill-opacity="0.08"/>
<rect x="418" y="333" width="52" height="22" rx="11" fill="#3F51B5"/>
<g filter="url(#filter7_d_653_5857)">
<circle cx="459" cy="344" r="8" fill="white"/>
</g>
<path fill-rule="evenodd" clip-rule="evenodd" d="M387.868 132.016C376.334 145.292 357.567 165.1 338.774 181.362C329.375 189.496 320.007 196.709 311.559 201.775C307.55 204.179 303.809 206.062 300.41 207.341C304.817 202.504 307.968 197.731 309.897 193.4C311.611 189.555 312.401 185.964 312.162 182.944C311.92 179.885 310.6 177.326 308.064 175.892C303.409 173.261 297.905 174.337 293.049 177.007C288.161 179.695 283.596 184.156 280.507 188.968C277.454 193.725 275.64 199.154 276.823 203.709C277.428 206.041 278.806 208.073 281.062 209.571C283.288 211.05 286.299 211.964 290.135 212.242C290.404 212.262 290.675 212.275 290.949 212.281C289.407 213.589 287.764 214.892 286.017 216.18C264.652 231.935 227.949 245.439 173.623 241.009C174.282 240.635 174.916 240.237 175.52 239.829C178.436 237.86 180.861 235.514 182.153 233.959L179.847 232.041C178.732 233.381 176.518 235.535 173.841 237.343C171.135 239.17 168.166 240.5 165.5 240.5L165.13 243.454C169.081 244.461 175.071 247.708 179.89 253.009L182.11 250.991C179.498 248.118 176.552 245.782 173.689 244.024C228.456 248.427 265.805 234.812 287.798 218.594C290.832 216.357 293.577 214.067 296.036 211.767C301.178 210.691 306.995 208.01 313.102 204.348C321.759 199.156 331.275 191.819 340.737 183.631C359.667 167.25 378.534 147.333 390.132 133.984L387.868 132.016ZM307.157 192.18C304.906 197.234 300.771 203.096 294.609 208.987C293.082 209.254 291.66 209.345 290.352 209.25C286.849 208.996 284.388 208.179 282.721 207.072C281.084 205.985 280.147 204.576 279.727 202.956C278.857 199.607 280.146 195.084 283.032 190.589C285.882 186.149 290.092 182.057 294.495 179.636C298.931 177.197 303.236 176.609 306.588 178.504C308.056 179.334 308.988 180.863 309.171 183.18C309.358 185.536 308.747 188.611 307.157 192.18Z" fill="#60CDD3"/>
<defs>
<filter id="filter0_b_653_5857" x="15" y="-6" width="572" height="450" filterUnits="userSpaceOnUse" color-interpolation-filters="sRGB">
<feFlood flood-opacity="0" result="BackgroundImageFix"/>
<feGaussianBlur in="BackgroundImageFix" stdDeviation="23"/>
<feComposite in2="SourceAlpha" operator="in" result="effect1_backgroundBlur_653_5857"/>
<feBlend mode="normal" in="SourceGraphic" in2="effect1_backgroundBlur_653_5857" result="shape"/>
</filter>
<filter id="filter1_b_653_5857" x="15" y="-6" width="572" height="450" filterUnits="userSpaceOnUse" color-interpolation-filters="sRGB">
<feFlood flood-opacity="0" result="BackgroundImageFix"/>
<feGaussianBlur in="BackgroundImageFix" stdDeviation="23"/>
<feComposite in2="SourceAlpha" operator="in" result="effect1_backgroundBlur_653_5857"/>
<feBlend mode="normal" in="SourceGraphic" in2="effect1_backgroundBlur_653_5857" result="shape"/>
</filter>
<filter id="filter2_d_653_5857" x="57" y="58" width="472" height="352" filterUnits="userSpaceOnUse" color-interpolation-filters="sRGB">
<feFlood flood-opacity="0" result="BackgroundImageFix"/>
<feColorMatrix in="SourceAlpha" type="matrix" values="0 0 0 0 0 0 0 0 0 0 0 0 0 0 0 0 0 0 127 0" result="hardAlpha"/>
<feMorphology radius="4" operator="dilate" in="SourceAlpha" result="effect1_dropShadow_653_5857"/>
<feOffset dy="2"/>
<feGaussianBlur stdDeviation="6"/>
<feComposite in2="hardAlpha" operator="out"/>
<feColorMatrix type="matrix" values="0 0 0 0 0.247059 0 0 0 0 0.317647 0 0 0 0 0.709804 0 0 0 0.08 0"/>
<feBlend mode="normal" in2="BackgroundImageFix" result="effect1_dropShadow_653_5857"/>
<feBlend mode="normal" in="SourceGraphic" in2="effect1_dropShadow_653_5857" result="shape"/>
</filter>
<filter id="filter3_d_653_5857" x="67" y="68" width="452" height="44" filterUnits="userSpaceOnUse" color-interpolation-filters="sRGB">
<feFlood flood-opacity="0" result="BackgroundImageFix"/>
<feColorMatrix in="SourceAlpha" type="matrix" values="0 0 0 0 0 0 0 0 0 0 0 0 0 0 0 0 0 0 127 0" result="hardAlpha"/>
<feOffset dy="2"/>
<feGaussianBlur stdDeviation="3"/>
<feComposite in2="hardAlpha" operator="out"/>
<feColorMatrix type="matrix" values="0 0 0 0 0.247059 0 0 0 0 0.317647 0 0 0 0 0.709804 0 0 0 0.08 0"/>
<feBlend mode="normal" in2="BackgroundImageFix" result="effect1_dropShadow_653_5857"/>
<feBlend mode="normal" in="SourceGraphic" in2="effect1_dropShadow_653_5857" result="shape"/>
</filter>
<filter id="filter4_d_653_5857" x="67" y="106" width="452" height="294" filterUnits="userSpaceOnUse" color-interpolation-filters="sRGB">
<feFlood flood-opacity="0" result="BackgroundImageFix"/>
<feColorMatrix in="SourceAlpha" type="matrix" values="0 0 0 0 0 0 0 0 0 0 0 0 0 0 0 0 0 0 127 0" result="hardAlpha"/>
<feOffset dy="2"/>
<feGaussianBlur stdDeviation="3"/>
<feComposite in2="hardAlpha" operator="out"/>
<feColorMatrix type="matrix" values="0 0 0 0 0.247059 0 0 0 0 0.317647 0 0 0 0 0.709804 0 0 0 0.08 0"/>
<feBlend mode="normal" in2="BackgroundImageFix" result="effect1_dropShadow_653_5857"/>
<feBlend mode="normal" in="SourceGraphic" in2="effect1_dropShadow_653_5857" result="shape"/>
</filter>
<filter id="filter5_d_653_5857" x="4" y="108" width="184" height="212" filterUnits="userSpaceOnUse" color-interpolation-filters="sRGB">
<feFlood flood-opacity="0" result="BackgroundImageFix"/>
<feColorMatrix in="SourceAlpha" type="matrix" values="0 0 0 0 0 0 0 0 0 0 0 0 0 0 0 0 0 0 127 0" result="hardAlpha"/>
<feMorphology radius="4" operator="dilate" in="SourceAlpha" result="effect1_dropShadow_653_5857"/>
<feOffset dy="2"/>
<feGaussianBlur stdDeviation="6"/>
<feComposite in2="hardAlpha" operator="out"/>
<feColorMatrix type="matrix" values="0 0 0 0 0.247059 0 0 0 0 0.317647 0 0 0 0 0.709804 0 0 0 0.08 0"/>
<feBlend mode="normal" in2="BackgroundImageFix" result="effect1_dropShadow_653_5857"/>
<feBlend mode="normal" in="SourceGraphic" in2="effect1_dropShadow_653_5857" result="shape"/>
</filter>
<filter id="filter6_d_653_5857" x="386" y="214" width="210" height="178" filterUnits="userSpaceOnUse" color-interpolation-filters="sRGB">
<feFlood flood-opacity="0" result="BackgroundImageFix"/>
<feColorMatrix in="SourceAlpha" type="matrix" values="0 0 0 0 0 0 0 0 0 0 0 0 0 0 0 0 0 0 127 0" result="hardAlpha"/>
<feMorphology radius="4" operator="dilate" in="SourceAlpha" result="effect1_dropShadow_653_5857"/>
<feOffset dy="2"/>
<feGaussianBlur stdDeviation="6"/>
<feComposite in2="hardAlpha" operator="out"/>
<feColorMatrix type="matrix" values="0 0 0 0 0.247059 0 0 0 0 0.317647 0 0 0 0 0.709804 0 0 0 0.08 0"/>
<feBlend mode="normal" in2="BackgroundImageFix" result="effect1_dropShadow_653_5857"/>
<feBlend mode="normal" in="SourceGraphic" in2="effect1_dropShadow_653_5857" result="shape"/>
</filter>
<filter id="filter7_d_653_5857" x="445" y="332" width="28" height="28" filterUnits="userSpaceOnUse" color-interpolation-filters="sRGB">
<feFlood flood-opacity="0" result="BackgroundImageFix"/>
<feColorMatrix in="SourceAlpha" type="matrix" values="0 0 0 0 0 0 0 0 0 0 0 0 0 0 0 0 0 0 127 0" result="hardAlpha"/>
<feOffset dy="2"/>
<feGaussianBlur stdDeviation="3"/>
<feComposite in2="hardAlpha" operator="out"/>
<feColorMatrix type="matrix" values="0 0 0 0 0.247059 0 0 0 0 0.317647 0 0 0 0 0.709804 0 0 0 0.08 0"/>
<feBlend mode="normal" in2="BackgroundImageFix" result="effect1_dropShadow_653_5857"/>
<feBlend mode="normal" in="SourceGraphic" in2="effect1_dropShadow_653_5857" result="shape"/>
</filter>
<linearGradient id="paint0_linear_653_5857" x1="78.1429" y1="40" x2="200.877" y2="442.456" gradientUnits="userSpaceOnUse">
<stop stop-color="#9FAAE6" stop-opacity="0.2"/>
<stop offset="1" stop-color="#8994CE"/>
</linearGradient>
</defs>
</svg>
