<svg width="24" height="24" viewBox="0 0 24 24" fill="none" xmlns="http://www.w3.org/2000/svg">
<path d="M11.9998 13.586L6.70685 8.29297C6.51934 8.10546 6.26503 8.00012 5.99985 8.00012C5.73467 8.00012 5.48036 8.10546 5.29285 8.29297C5.10534 8.48048 5 8.73479 5 8.99997C5 9.26515 5.10534 9.51946 5.29285 9.70697L11.2928 15.707C11.3856 15.7999 11.4958 15.8737 11.6172 15.924C11.7385 15.9743 11.8685 16.0002 11.9998 16.0002C12.1312 16.0002 12.2612 15.9743 12.3825 15.924C12.5039 15.8737 12.6141 15.7999 12.7068 15.707L18.7068 9.70697C18.7997 9.61413 18.8733 9.5039 18.9236 9.3826C18.9738 9.26129 18.9997 9.13127 18.9997 8.99997C18.9997 8.86867 18.9738 8.73865 18.9236 8.61735C18.8733 8.49604 18.7997 8.38582 18.7068 8.29297C18.614 8.20013 18.5038 8.12648 18.3825 8.07623C18.2612 8.02598 18.1311 8.00012 17.9998 8.00012C17.8685 8.00012 17.7385 8.02598 17.6172 8.07623C17.4959 8.12648 17.3857 8.20013 17.2928 8.29297L11.9998 13.586Z" fill="#0D1024" fill-opacity="0.64"/>
</svg>
