<svg width="40" height="40" viewBox="0 0 40 40" fill="none" xmlns="http://www.w3.org/2000/svg">
<path d="M19 28C19 27.4477 19.4477 27 20 27C20.5523 27 21 27.4477 21 28V31C21 31.5523 20.5523 32 20 32C19.4477 32 19 31.5523 19 31V28Z" fill="#6E80E1"/>
<path d="M23.7792 28.2987C23.4363 27.7271 23.848 27 24.5145 27C24.8157 27 25.0948 27.158 25.2498 27.4163L27.2208 30.7013C27.5637 31.2729 27.152 32 26.4855 32C26.1843 32 25.9052 31.842 25.7502 31.5837L23.7792 28.2987Z" fill="#6E80E1"/>
<path d="M12.7792 30.7013C12.4363 31.2729 12.848 32 13.5145 32C13.8157 32 14.0948 31.842 14.2498 31.5837L16.2208 28.2987C16.5637 27.7271 16.152 27 15.4855 27C15.1843 27 14.9052 27.158 14.7502 27.4163L12.7792 30.7013Z" fill="#6E80E1"/>
<g filter="url(#filter0_b_494_6133)">
<path d="M35 27C35 28.1046 34.1046 29 33 29H9C7.89543 29 7 28.1046 7 27V26.1429V11C7 9.89543 7.89543 9 9 9H32H33C34.1046 9 35 9.89543 35 11V27Z" fill="#6E80E1"/>
</g>
<rect x="5" y="7" width="28" height="19" rx="2" fill="white"/>
<g filter="url(#filter1_b_494_6133)">
<path d="M5 25C5 26.1046 5.89543 27 7 27H31C32.1046 27 33 26.1046 33 25H5Z" fill="#B7C0F1"/>
</g>
<g filter="url(#filter2_b_494_6133)">
<rect x="5.5" y="7.5" width="27" height="19" rx="1.5" stroke="#B7C0F1"/>
</g>
<path d="M9 20L15.5 14.5L21.5 20L29 13" stroke="#60CDD3" stroke-width="2" stroke-linecap="round"/>
<path d="M18 27C18 26.4477 18.4477 26 19 26C19.5523 26 20 26.4477 20 27V30C20 30.5523 19.5523 31 19 31C18.4477 31 18 30.5523 18 30V27Z" fill="#B7C0F1"/>
<path d="M22.7792 27.2987C22.4363 26.7271 22.848 26 23.5145 26C23.8157 26 24.0948 26.158 24.2498 26.4163L26.2208 29.7013C26.5637 30.2729 26.152 31 25.4855 31C25.1843 31 24.9052 30.842 24.7502 30.5837L22.7792 27.2987Z" fill="#B7C0F1"/>
<path d="M11.7792 29.7013C11.4363 30.2729 11.848 31 12.5145 31C12.8157 31 13.0948 30.842 13.2498 30.5837L15.2208 27.2987C15.5637 26.7271 15.152 26 14.4855 26C14.1843 26 13.9052 26.158 13.7502 26.4163L11.7792 29.7013Z" fill="#B7C0F1"/>
<defs>
<filter id="filter0_b_494_6133" x="3" y="5" width="36" height="28" filterUnits="userSpaceOnUse" color-interpolation-filters="sRGB">
<feFlood flood-opacity="0" result="BackgroundImageFix"/>
<feGaussianBlur in="BackgroundImageFix" stdDeviation="2"/>
<feComposite in2="SourceAlpha" operator="in" result="effect1_backgroundBlur_494_6133"/>
<feBlend mode="normal" in="SourceGraphic" in2="effect1_backgroundBlur_494_6133" result="shape"/>
</filter>
<filter id="filter1_b_494_6133" x="1" y="21" width="36" height="10" filterUnits="userSpaceOnUse" color-interpolation-filters="sRGB">
<feFlood flood-opacity="0" result="BackgroundImageFix"/>
<feGaussianBlur in="BackgroundImageFix" stdDeviation="2"/>
<feComposite in2="SourceAlpha" operator="in" result="effect1_backgroundBlur_494_6133"/>
<feBlend mode="normal" in="SourceGraphic" in2="effect1_backgroundBlur_494_6133" result="shape"/>
</filter>
<filter id="filter2_b_494_6133" x="1" y="3" width="36" height="28" filterUnits="userSpaceOnUse" color-interpolation-filters="sRGB">
<feFlood flood-opacity="0" result="BackgroundImageFix"/>
<feGaussianBlur in="BackgroundImageFix" stdDeviation="2"/>
<feComposite in2="SourceAlpha" operator="in" result="effect1_backgroundBlur_494_6133"/>
<feBlend mode="normal" in="SourceGraphic" in2="effect1_backgroundBlur_494_6133" result="shape"/>
</filter>
</defs>
</svg>
