<svg width="16" height="16" viewBox="0 0 16 16" fill="none" xmlns="http://www.w3.org/2000/svg">
<path d="M8 9.18936L4.2192 5.21964C4.08527 5.079 3.90361 5 3.71419 5C3.52478 5 3.34312 5.079 3.20918 5.21964C3.07525 5.36027 3 5.551 3 5.74988C3 5.94876 3.07525 6.1395 3.20918 6.28013L7.49499 10.7801C7.56127 10.8498 7.63999 10.9051 7.72664 10.9428C7.8133 10.9806 7.90619 11 8 11C8.09381 11 8.1867 10.9806 8.27336 10.9428C8.36001 10.9051 8.43873 10.8498 8.50501 10.7801L12.7908 6.28013C12.8571 6.2105 12.9097 6.12783 12.9456 6.03685C12.9815 5.94587 13 5.84836 13 5.74988C13 5.65141 12.9815 5.55389 12.9456 5.46291C12.9097 5.37193 12.8571 5.28927 12.7908 5.21964C12.7245 5.15 12.6458 5.09477 12.5591 5.05708C12.4725 5.0194 12.3796 5 12.2858 5C12.192 5 12.0991 5.0194 12.0125 5.05708C11.9258 5.09477 11.8471 5.15 11.7808 5.21964L8 9.18936Z" fill="#0D1024" fill-opacity="0.64"/>
</svg>
