<svg width="64" height="64" viewBox="0 0 64 64" fill="none" xmlns="http://www.w3.org/2000/svg">
<g clip-path="url(#clip0_628_6340)">
<rect width="64" height="64" rx="8" fill="url(#paint0_linear_628_6340)"/>
<g filter="url(#filter0_f_628_6340)">
<ellipse cx="32" cy="53" rx="32" ry="6" fill="#6E80E1" fill-opacity="0.3"/>
</g>
<g filter="url(#filter1_f_628_6340)">
<ellipse cx="32" cy="49.5" rx="4.5" ry="21" transform="rotate(90 32 49.5)" fill="#6E80E1" fill-opacity="0.5"/>
</g>
<path fill-rule="evenodd" clip-rule="evenodd" d="M31.5 29.7895V26.5263C31.5 22.9219 34.4101 20 38 20C41.5899 20 44.5 22.9219 44.5 26.5263V29.7895L44 51H26.625C25.7275 51 25 50.2695 25 49.3684V31.4211C25 30.52 25.7275 29.7895 26.625 29.7895H31.5ZM41.25 26.5263V29.7895H34.75V26.5263C34.75 24.7241 36.2051 23.2632 38 23.2632C39.7949 23.2632 41.25 24.7241 41.25 26.5263Z" fill="#6E80E1"/>
<g filter="url(#filter2_b_628_6340)">
<path d="M17 13C17 11.8954 17.8954 11 19 11H43C44.1046 11 45 11.8954 45 13V50C45 51.1046 44.1046 52 43 52H19C17.8954 52 17 51.1046 17 50V13Z" fill="white" fill-opacity="0.5"/>
</g>
<g filter="url(#filter3_b_628_6340)">
<path d="M17 13C17 11.8954 17.8954 11 19 11H43C44.1046 11 45 11.8954 45 13V50C45 51.1046 44.1046 52 43 52H19C17.8954 52 17 51.1046 17 50V13Z" fill="white" fill-opacity="0.2"/>
</g>
<rect x="25" y="14" width="8" height="2" rx="1" fill="#6E80E1"/>
<rect x="35" y="14" width="2" height="2" rx="1" fill="#6E80E1"/>
<path d="M17.5 13C17.5 12.1716 18.1716 11.5 19 11.5H43C43.8284 11.5 44.5 12.1716 44.5 13V50C44.5 50.8284 43.8284 51.5 43 51.5H19C18.1716 51.5 17.5 50.8284 17.5 50V13Z" stroke="url(#paint1_linear_628_6340)"/>
<path d="M31 35C31 34.4477 31.4477 34 32 34H46C46.5523 34 47 34.4477 47 35V46C47 46.5523 46.5523 47 46 47H32C31.4477 47 31 46.5523 31 46V35Z" fill="#6E80E1"/>
<path d="M36 32C36 30.3431 37.3431 29 39 29C40.6569 29 42 30.3431 42 32V35H36V32Z" stroke="#6E80E1" stroke-width="2"/>
<path d="M39.6668 41.8865L39 42.1221L38.3332 41.8865C37.5551 41.6114 37 40.8692 37 40C37 38.8954 37.8954 38 39 38C40.1046 38 41 38.8954 41 40C41 40.8692 40.4449 41.6114 39.6668 41.8865Z" stroke="url(#paint2_linear_628_6340)" stroke-width="2"/>
</g>
<defs>
<filter id="filter0_f_628_6340" x="-12" y="35" width="88" height="36" filterUnits="userSpaceOnUse" color-interpolation-filters="sRGB">
<feFlood flood-opacity="0" result="BackgroundImageFix"/>
<feBlend mode="normal" in="SourceGraphic" in2="BackgroundImageFix" result="shape"/>
<feGaussianBlur stdDeviation="6" result="effect1_foregroundBlur_628_6340"/>
</filter>
<filter id="filter1_f_628_6340" x="-1" y="33" width="66" height="33" filterUnits="userSpaceOnUse" color-interpolation-filters="sRGB">
<feFlood flood-opacity="0" result="BackgroundImageFix"/>
<feBlend mode="normal" in="SourceGraphic" in2="BackgroundImageFix" result="shape"/>
<feGaussianBlur stdDeviation="6" result="effect1_foregroundBlur_628_6340"/>
</filter>
<filter id="filter2_b_628_6340" x="11" y="5" width="40" height="53" filterUnits="userSpaceOnUse" color-interpolation-filters="sRGB">
<feFlood flood-opacity="0" result="BackgroundImageFix"/>
<feGaussianBlur in="BackgroundImageFix" stdDeviation="3"/>
<feComposite in2="SourceAlpha" operator="in" result="effect1_backgroundBlur_628_6340"/>
<feBlend mode="normal" in="SourceGraphic" in2="effect1_backgroundBlur_628_6340" result="shape"/>
</filter>
<filter id="filter3_b_628_6340" x="11" y="5" width="40" height="53" filterUnits="userSpaceOnUse" color-interpolation-filters="sRGB">
<feFlood flood-opacity="0" result="BackgroundImageFix"/>
<feGaussianBlur in="BackgroundImageFix" stdDeviation="3"/>
<feComposite in2="SourceAlpha" operator="in" result="effect1_backgroundBlur_628_6340"/>
<feBlend mode="normal" in="SourceGraphic" in2="effect1_backgroundBlur_628_6340" result="shape"/>
</filter>
<linearGradient id="paint0_linear_628_6340" x1="32" y1="9.53674e-07" x2="32" y2="64" gradientUnits="userSpaceOnUse">
<stop stop-color="#6E80E1" stop-opacity="0.04"/>
<stop offset="0.9999" stop-color="#6E80E1" stop-opacity="0.12"/>
<stop offset="1" stop-color="#6E80E1" stop-opacity="0.2"/>
</linearGradient>
<linearGradient id="paint1_linear_628_6340" x1="18" y1="11" x2="40.2034" y2="48.0841" gradientUnits="userSpaceOnUse">
<stop stop-color="white" stop-opacity="0.3"/>
<stop offset="1" stop-color="white"/>
</linearGradient>
<linearGradient id="paint2_linear_628_6340" x1="39" y1="37" x2="39" y2="48" gradientUnits="userSpaceOnUse">
<stop stop-color="white" stop-opacity="0.2"/>
<stop offset="1" stop-color="white" stop-opacity="0.7"/>
</linearGradient>
<clipPath id="clip0_628_6340">
<rect width="64" height="64" fill="white"/>
</clipPath>
</defs>
</svg>
