<svg width="70" height="65" viewBox="0 0 70 65" fill="none" xmlns="http://www.w3.org/2000/svg">
<path d="M30.2984 2.8356V14.3844C30.2984 15.9504 29.0288 17.22 27.4628 17.22C21.8744 17.22 18.8348 22.9512 18.4136 34.2636H27.4628C29.0288 34.2636 30.2984 35.5344 30.2984 37.0992V61.4832C30.2984 63.0492 29.0288 64.3188 27.4628 64.3188H3.3356C1.7684 64.3188 0.5 63.048 0.5 61.4832V37.0992C0.5 31.6764 1.046 26.7 2.1224 22.3068C3.2264 17.802 4.9208 13.8636 7.1576 10.5996C9.4592 7.2456 12.338 4.614 15.7148 2.7804C19.1144 0.935999 23.0672 0 27.464 0C29.0288 0 30.2984 1.2696 30.2984 2.8356ZM66.8732 17.22C68.4392 17.22 69.7088 15.9492 69.7088 14.3844V2.8356C69.7088 1.2696 68.4392 0 66.8732 0C62.4776 0 58.5248 0.935999 55.1252 2.7804C51.7484 4.614 48.8684 7.2456 46.5668 10.5996C44.33 13.8636 42.6356 17.802 41.5316 22.308C40.4564 26.7024 39.9104 31.6788 39.9104 37.0992V61.4832C39.9104 63.0492 41.18 64.3188 42.746 64.3188H66.872C68.438 64.3188 69.7076 63.048 69.7076 61.4832V37.0992C69.7076 35.5332 68.438 34.2636 66.872 34.2636H57.9524C58.3676 22.9512 61.3628 17.22 66.8732 17.22Z" fill="#3F51B5"/>
</svg>
